G04 #@! TF.GenerationSoftware,KiCad,Pcbnew,(5.1.2)-2*
G04 #@! TF.CreationDate,2020-08-13T15:59:13+03:00*
G04 #@! TF.ProjectId,timing_circuit,74696d69-6e67-45f6-9369-72637569742e,rev?*
G04 #@! TF.SameCoordinates,Original*
G04 #@! TF.FileFunction,Copper,L2,Bot*
G04 #@! TF.FilePolarity,Positive*
%FSLAX46Y46*%
G04 Gerber Fmt 4.6, Leading zero omitted, Abs format (unit mm)*
G04 Created by KiCad (PCBNEW (5.1.2)-2) date 2020-08-13 15:59:13*
%MOMM*%
%LPD*%
G04 APERTURE LIST*
%ADD10O,1.600000X1.600000*%
%ADD11C,1.600000*%
%ADD12R,1.050000X1.500000*%
%ADD13O,1.050000X1.500000*%
%ADD14O,1.700000X1.700000*%
%ADD15R,1.700000X1.700000*%
%ADD16O,1.905000X2.000000*%
%ADD17R,1.905000X2.000000*%
%ADD18C,0.100000*%
%ADD19C,3.500000*%
%ADD20C,3.000000*%
%ADD21R,3.500000X3.500000*%
%ADD22R,1.600000X1.600000*%
%ADD23R,2.600000X2.600000*%
%ADD24O,2.600000X2.600000*%
%ADD25C,0.800000*%
%ADD26C,0.250000*%
%ADD27C,0.750000*%
G04 APERTURE END LIST*
D10*
X26670000Y-35560000D03*
D11*
X26670000Y-20320000D03*
D10*
X19050000Y-35560000D03*
D11*
X19050000Y-20320000D03*
D10*
X71120000Y-26670000D03*
D11*
X86360000Y-26670000D03*
D10*
X71120000Y-34290000D03*
D11*
X86360000Y-34290000D03*
D12*
X92710000Y-91440000D03*
D13*
X95250000Y-91440000D03*
X93980000Y-91440000D03*
D12*
X142240000Y-97790000D03*
D13*
X139700000Y-97790000D03*
X140970000Y-97790000D03*
D12*
X142240000Y-106680000D03*
D13*
X139700000Y-106680000D03*
X140970000Y-106680000D03*
D14*
X64770000Y-19050000D03*
D15*
X62230000Y-19050000D03*
D14*
X64770000Y-26670000D03*
D15*
X62230000Y-26670000D03*
D14*
X64770000Y-34290000D03*
D15*
X62230000Y-34290000D03*
D11*
X90090000Y-63500000D03*
X85090000Y-63500000D03*
X77390000Y-77470000D03*
X72390000Y-77470000D03*
D15*
X160020000Y-71120000D03*
X86360000Y-58420000D03*
X59690000Y-74930000D03*
D16*
X49530000Y-109220000D03*
X46990000Y-109220000D03*
D17*
X44450000Y-109220000D03*
D16*
X69850000Y-115570000D03*
X67310000Y-115570000D03*
D17*
X64770000Y-115570000D03*
D16*
X109220000Y-101600000D03*
X106680000Y-101600000D03*
D17*
X104140000Y-101600000D03*
D14*
X102870000Y-115570000D03*
X105410000Y-115570000D03*
D15*
X107950000Y-115570000D03*
D18*
G36*
X29710765Y-114714213D02*
G01*
X29795704Y-114726813D01*
X29878999Y-114747677D01*
X29959848Y-114776605D01*
X30037472Y-114813319D01*
X30111124Y-114857464D01*
X30180094Y-114908616D01*
X30243718Y-114966282D01*
X30301384Y-115029906D01*
X30352536Y-115098876D01*
X30396681Y-115172528D01*
X30433395Y-115250152D01*
X30462323Y-115331001D01*
X30483187Y-115414296D01*
X30495787Y-115499235D01*
X30500000Y-115585000D01*
X30500000Y-117335000D01*
X30495787Y-117420765D01*
X30483187Y-117505704D01*
X30462323Y-117588999D01*
X30433395Y-117669848D01*
X30396681Y-117747472D01*
X30352536Y-117821124D01*
X30301384Y-117890094D01*
X30243718Y-117953718D01*
X30180094Y-118011384D01*
X30111124Y-118062536D01*
X30037472Y-118106681D01*
X29959848Y-118143395D01*
X29878999Y-118172323D01*
X29795704Y-118193187D01*
X29710765Y-118205787D01*
X29625000Y-118210000D01*
X27875000Y-118210000D01*
X27789235Y-118205787D01*
X27704296Y-118193187D01*
X27621001Y-118172323D01*
X27540152Y-118143395D01*
X27462528Y-118106681D01*
X27388876Y-118062536D01*
X27319906Y-118011384D01*
X27256282Y-117953718D01*
X27198616Y-117890094D01*
X27147464Y-117821124D01*
X27103319Y-117747472D01*
X27066605Y-117669848D01*
X27037677Y-117588999D01*
X27016813Y-117505704D01*
X27004213Y-117420765D01*
X27000000Y-117335000D01*
X27000000Y-115585000D01*
X27004213Y-115499235D01*
X27016813Y-115414296D01*
X27037677Y-115331001D01*
X27066605Y-115250152D01*
X27103319Y-115172528D01*
X27147464Y-115098876D01*
X27198616Y-115029906D01*
X27256282Y-114966282D01*
X27319906Y-114908616D01*
X27388876Y-114857464D01*
X27462528Y-114813319D01*
X27540152Y-114776605D01*
X27621001Y-114747677D01*
X27704296Y-114726813D01*
X27789235Y-114714213D01*
X27875000Y-114710000D01*
X29625000Y-114710000D01*
X29710765Y-114714213D01*
X29710765Y-114714213D01*
G37*
D19*
X28750000Y-116460000D03*
D18*
G36*
X26573513Y-110013611D02*
G01*
X26646318Y-110024411D01*
X26717714Y-110042295D01*
X26787013Y-110067090D01*
X26853548Y-110098559D01*
X26916678Y-110136398D01*
X26975795Y-110180242D01*
X27030330Y-110229670D01*
X27079758Y-110284205D01*
X27123602Y-110343322D01*
X27161441Y-110406452D01*
X27192910Y-110472987D01*
X27217705Y-110542286D01*
X27235589Y-110613682D01*
X27246389Y-110686487D01*
X27250000Y-110760000D01*
X27250000Y-112760000D01*
X27246389Y-112833513D01*
X27235589Y-112906318D01*
X27217705Y-112977714D01*
X27192910Y-113047013D01*
X27161441Y-113113548D01*
X27123602Y-113176678D01*
X27079758Y-113235795D01*
X27030330Y-113290330D01*
X26975795Y-113339758D01*
X26916678Y-113383602D01*
X26853548Y-113421441D01*
X26787013Y-113452910D01*
X26717714Y-113477705D01*
X26646318Y-113495589D01*
X26573513Y-113506389D01*
X26500000Y-113510000D01*
X25000000Y-113510000D01*
X24926487Y-113506389D01*
X24853682Y-113495589D01*
X24782286Y-113477705D01*
X24712987Y-113452910D01*
X24646452Y-113421441D01*
X24583322Y-113383602D01*
X24524205Y-113339758D01*
X24469670Y-113290330D01*
X24420242Y-113235795D01*
X24376398Y-113176678D01*
X24338559Y-113113548D01*
X24307090Y-113047013D01*
X24282295Y-112977714D01*
X24264411Y-112906318D01*
X24253611Y-112833513D01*
X24250000Y-112760000D01*
X24250000Y-110760000D01*
X24253611Y-110686487D01*
X24264411Y-110613682D01*
X24282295Y-110542286D01*
X24307090Y-110472987D01*
X24338559Y-110406452D01*
X24376398Y-110343322D01*
X24420242Y-110284205D01*
X24469670Y-110229670D01*
X24524205Y-110180242D01*
X24583322Y-110136398D01*
X24646452Y-110098559D01*
X24712987Y-110067090D01*
X24782286Y-110042295D01*
X24853682Y-110024411D01*
X24926487Y-110013611D01*
X25000000Y-110010000D01*
X26500000Y-110010000D01*
X26573513Y-110013611D01*
X26573513Y-110013611D01*
G37*
D20*
X25750000Y-111760000D03*
D21*
X31750000Y-111760000D03*
D11*
X48260000Y-20320000D03*
X53260000Y-20320000D03*
X68660000Y-52070000D03*
X73660000Y-52070000D03*
X142240000Y-52070000D03*
X137240000Y-52070000D03*
X165100000Y-57150000D03*
X160100000Y-57150000D03*
X152320000Y-88900000D03*
X147320000Y-88900000D03*
X165100000Y-62230000D03*
X160100000Y-62230000D03*
X36830000Y-74850000D03*
X36830000Y-69850000D03*
X44370000Y-99060000D03*
X39370000Y-99060000D03*
X67310000Y-67310000D03*
X72310000Y-67310000D03*
X77390000Y-72390000D03*
X72390000Y-72390000D03*
D22*
X38100000Y-115570000D03*
D11*
X40600000Y-115570000D03*
X45680000Y-123190000D03*
D22*
X43180000Y-123190000D03*
X46990000Y-116840000D03*
D11*
X49490000Y-116840000D03*
X69850000Y-123190000D03*
D22*
X67350000Y-123190000D03*
X118110000Y-107950000D03*
D11*
X120610000Y-107950000D03*
X120610000Y-99060000D03*
D22*
X118110000Y-99060000D03*
D23*
X30480000Y-95250000D03*
D24*
X30480000Y-80010000D03*
D15*
X50800000Y-26670000D03*
D14*
X50800000Y-29210000D03*
D15*
X165100000Y-52070000D03*
X175260000Y-64770000D03*
X39370000Y-91440000D03*
X165100000Y-76200000D03*
D14*
X165100000Y-73660000D03*
X165100000Y-71120000D03*
D10*
X34290000Y-35560000D03*
D11*
X34290000Y-20320000D03*
X152400000Y-44450000D03*
D10*
X137160000Y-44450000D03*
D11*
X86360000Y-19050000D03*
D10*
X71120000Y-19050000D03*
D11*
X71120000Y-43180000D03*
D10*
X86360000Y-43180000D03*
X115570000Y-31750000D03*
D11*
X130810000Y-31750000D03*
D10*
X152400000Y-33020000D03*
D11*
X167640000Y-33020000D03*
X88900000Y-83820000D03*
D10*
X88900000Y-68580000D03*
D11*
X111760000Y-36830000D03*
D10*
X127000000Y-36830000D03*
D11*
X142240000Y-81280000D03*
D10*
X157480000Y-81280000D03*
D11*
X115570000Y-77470000D03*
D10*
X130810000Y-77470000D03*
X123190000Y-64770000D03*
D11*
X138430000Y-64770000D03*
D10*
X162560000Y-97790000D03*
D11*
X162560000Y-82550000D03*
D10*
X80010000Y-96520000D03*
D11*
X80010000Y-81280000D03*
X115570000Y-53340000D03*
D10*
X130810000Y-53340000D03*
X41910000Y-58420000D03*
D11*
X41910000Y-43180000D03*
X41910000Y-80010000D03*
D10*
X41910000Y-64770000D03*
X66040000Y-101600000D03*
D11*
X81280000Y-101600000D03*
D10*
X130810000Y-91440000D03*
D11*
X115570000Y-91440000D03*
D10*
X36830000Y-55880000D03*
X29210000Y-63500000D03*
X36830000Y-58420000D03*
X29210000Y-60960000D03*
X36830000Y-60960000D03*
X29210000Y-58420000D03*
X36830000Y-63500000D03*
D22*
X29210000Y-55880000D03*
X95250000Y-27940000D03*
D10*
X102870000Y-50800000D03*
X95250000Y-30480000D03*
X102870000Y-48260000D03*
X95250000Y-33020000D03*
X102870000Y-45720000D03*
X95250000Y-35560000D03*
X102870000Y-43180000D03*
X95250000Y-38100000D03*
X102870000Y-40640000D03*
X95250000Y-40640000D03*
X102870000Y-38100000D03*
X95250000Y-43180000D03*
X102870000Y-35560000D03*
X95250000Y-45720000D03*
X102870000Y-33020000D03*
X95250000Y-48260000D03*
X102870000Y-30480000D03*
X95250000Y-50800000D03*
X102870000Y-27940000D03*
X102870000Y-58420000D03*
X95250000Y-81280000D03*
X102870000Y-60960000D03*
X95250000Y-78740000D03*
X102870000Y-63500000D03*
X95250000Y-76200000D03*
X102870000Y-66040000D03*
X95250000Y-73660000D03*
X102870000Y-68580000D03*
X95250000Y-71120000D03*
X102870000Y-71120000D03*
X95250000Y-68580000D03*
X102870000Y-73660000D03*
X95250000Y-66040000D03*
X102870000Y-76200000D03*
X95250000Y-63500000D03*
X102870000Y-78740000D03*
X95250000Y-60960000D03*
X102870000Y-81280000D03*
D22*
X95250000Y-58420000D03*
D10*
X153670000Y-52070000D03*
X146050000Y-67310000D03*
X153670000Y-54610000D03*
X146050000Y-64770000D03*
X153670000Y-57150000D03*
X146050000Y-62230000D03*
X153670000Y-59690000D03*
X146050000Y-59690000D03*
X153670000Y-62230000D03*
X146050000Y-57150000D03*
X153670000Y-64770000D03*
X146050000Y-54610000D03*
X153670000Y-67310000D03*
D22*
X146050000Y-52070000D03*
X50800000Y-54610000D03*
D10*
X58420000Y-69850000D03*
X50800000Y-57150000D03*
X58420000Y-67310000D03*
X50800000Y-59690000D03*
X58420000Y-64770000D03*
X50800000Y-62230000D03*
X58420000Y-62230000D03*
X50800000Y-64770000D03*
X58420000Y-59690000D03*
X50800000Y-67310000D03*
X58420000Y-57150000D03*
X50800000Y-69850000D03*
X58420000Y-54610000D03*
D22*
X52070000Y-81280000D03*
D10*
X59690000Y-96520000D03*
X52070000Y-83820000D03*
X59690000Y-93980000D03*
X52070000Y-86360000D03*
X59690000Y-91440000D03*
X52070000Y-88900000D03*
X59690000Y-88900000D03*
X52070000Y-91440000D03*
X59690000Y-86360000D03*
X52070000Y-93980000D03*
X59690000Y-83820000D03*
X52070000Y-96520000D03*
X59690000Y-81280000D03*
D22*
X55880000Y-40640000D03*
D10*
X63500000Y-48260000D03*
X55880000Y-43180000D03*
X63500000Y-45720000D03*
X55880000Y-45720000D03*
X63500000Y-43180000D03*
X55880000Y-48260000D03*
X63500000Y-40640000D03*
D15*
X38100000Y-106680000D03*
X91440000Y-120650000D03*
X102870000Y-110490000D03*
X64770000Y-86360000D03*
X44450000Y-91440000D03*
X85090000Y-106680000D03*
X74930000Y-59690000D03*
X113030000Y-115570000D03*
X46990000Y-102870000D03*
X130810000Y-100330000D03*
X43180000Y-29210000D03*
X43180000Y-36830000D03*
X115570000Y-26670000D03*
X153670000Y-73660000D03*
X115570000Y-67310000D03*
X170180000Y-76200000D03*
X152400000Y-39370000D03*
X156210000Y-97790000D03*
X167640000Y-36830000D03*
X170180000Y-64770000D03*
X160020000Y-52070000D03*
X19050000Y-40640000D03*
D14*
X19050000Y-43180000D03*
X26670000Y-43180000D03*
D15*
X26670000Y-40640000D03*
X34290000Y-40640000D03*
D14*
X34290000Y-43180000D03*
D25*
X55880000Y-30480000D03*
X83820000Y-72390000D03*
X94876250Y-55506250D03*
X46990000Y-62230000D03*
X134620000Y-48260000D03*
X85167650Y-76122350D03*
X48260000Y-67310000D03*
X25400000Y-67310000D03*
X74930000Y-59690000D03*
X53340000Y-73660000D03*
D26*
X67310000Y-41910000D02*
X63500000Y-45720000D01*
X63500000Y-45720000D02*
X67310000Y-45720000D01*
X67310000Y-45720000D02*
X68580000Y-46990000D01*
X68660000Y-52070000D02*
X68660000Y-47070000D01*
X67310000Y-38100000D02*
X66040000Y-36830000D01*
X67310000Y-41910000D02*
X67310000Y-38100000D01*
X66040000Y-36830000D02*
X57150000Y-36830000D01*
X57150000Y-36830000D02*
X55880000Y-35560000D01*
X55880000Y-35560000D02*
X55880000Y-30480000D01*
X50800000Y-26670000D02*
X50800000Y-25194700D01*
X53260000Y-22734700D02*
X50800000Y-25194700D01*
X53260000Y-22734700D02*
X53260000Y-20320000D01*
X95250000Y-58420000D02*
X99060000Y-62230000D01*
X99060000Y-62230000D02*
X99060000Y-64770000D01*
X99060000Y-64770000D02*
X102870000Y-68580000D01*
X73660000Y-38100000D02*
X74930000Y-36830000D01*
X73660000Y-38100000D02*
X73660000Y-52070000D01*
X74930000Y-36830000D02*
X90170000Y-36830000D01*
X90170000Y-36830000D02*
X91440000Y-35560000D01*
X91440000Y-35560000D02*
X91440000Y-29210000D01*
X91440000Y-29210000D02*
X92710000Y-27940000D01*
X92710000Y-27940000D02*
X95250000Y-27940000D01*
X152400000Y-44450000D02*
X152400000Y-39370000D01*
X152400000Y-39370000D02*
X152400000Y-33020000D01*
X130810000Y-31750000D02*
X132080000Y-31750000D01*
X137160000Y-36830000D02*
X137160000Y-44450000D01*
X132080000Y-31750000D02*
X137160000Y-36830000D01*
X100330000Y-33020000D02*
X102870000Y-35560000D01*
X100330000Y-27940000D02*
X100330000Y-33020000D01*
X97790000Y-25400000D02*
X100330000Y-27940000D01*
X100330000Y-40640000D02*
X102870000Y-43180000D01*
X100330000Y-33020000D02*
X100330000Y-40640000D01*
X100330000Y-40640000D02*
X100330000Y-45720000D01*
X100330000Y-45720000D02*
X95250000Y-50800000D01*
X106680000Y-25400000D02*
X111760000Y-30480000D01*
X97790000Y-25400000D02*
X106680000Y-25400000D01*
X111760000Y-30480000D02*
X111760000Y-36830000D01*
X115570000Y-40640000D02*
X111760000Y-36830000D01*
X115570000Y-44450000D02*
X115570000Y-40640000D01*
X115570000Y-44450000D02*
X115570000Y-53340000D01*
X107950000Y-24130000D02*
X106680000Y-25400000D01*
X147320000Y-24130000D02*
X107950000Y-24130000D01*
X168910000Y-45720000D02*
X147320000Y-24130000D01*
X165100000Y-57150000D02*
X168910000Y-53340000D01*
X168910000Y-53340000D02*
X168910000Y-45720000D01*
X106680000Y-92710000D02*
X106680000Y-101600000D01*
X95250000Y-81280000D02*
X106680000Y-92710000D01*
X106680000Y-92710000D02*
X110490000Y-96520000D01*
X110490000Y-96520000D02*
X119380000Y-96520000D01*
X119380000Y-96520000D02*
X120650000Y-97790000D01*
X120610000Y-97830000D02*
X120610000Y-99060000D01*
X120650000Y-97790000D02*
X120610000Y-97830000D01*
X120610000Y-107950000D02*
X120610000Y-99060000D01*
X90170000Y-78740000D02*
X83820000Y-72390000D01*
X83820000Y-72390000D02*
X83820000Y-72390000D01*
X90170000Y-78740000D02*
X92710000Y-81280000D01*
X95250000Y-81280000D02*
X92710000Y-81280000D01*
X92710000Y-81280000D02*
X90170000Y-83820000D01*
X90170000Y-83820000D02*
X88900000Y-83820000D01*
X67350000Y-122140000D02*
X64770000Y-119560000D01*
X67350000Y-123190000D02*
X67350000Y-122140000D01*
X64770000Y-119560000D02*
X64770000Y-115570000D01*
X88900000Y-25400000D02*
X87630000Y-26670000D01*
X87630000Y-26670000D02*
X86360000Y-26670000D01*
X86360000Y-26670000D02*
X86360000Y-19050000D01*
X86360000Y-34290000D02*
X86360000Y-26670000D01*
X92710000Y-25400000D02*
X86360000Y-19050000D01*
X92710000Y-25400000D02*
X88900000Y-25400000D01*
X97790000Y-25400000D02*
X92710000Y-25400000D01*
D27*
X157480000Y-81280000D02*
X157480000Y-82705300D01*
X157480000Y-82705300D02*
X152320000Y-87865300D01*
X152320000Y-87865300D02*
X152320000Y-88900000D01*
D26*
X146050000Y-64770000D02*
X138430000Y-64770000D01*
X146050000Y-64770000D02*
X147320000Y-64770000D01*
X147320000Y-64770000D02*
X148590000Y-66040000D01*
X148590000Y-72390000D02*
X157480000Y-81280000D01*
X148590000Y-66040000D02*
X148590000Y-72390000D01*
X142240000Y-81280000D02*
X142240000Y-77625300D01*
D27*
X142240000Y-81280000D02*
X147320000Y-86360000D01*
X147320000Y-86360000D02*
X147320000Y-88900000D01*
D26*
X146050000Y-67310000D02*
X142240000Y-71120000D01*
X142240000Y-71120000D02*
X142240000Y-77625300D01*
X160020000Y-71120000D02*
X160020000Y-81280000D01*
X161290000Y-82550000D02*
X160020000Y-81280000D01*
X162560000Y-82550000D02*
X161290000Y-82550000D01*
X36830000Y-69850000D02*
X36830000Y-63500000D01*
X41910000Y-64770000D02*
X41910000Y-66040000D01*
X41910000Y-66040000D02*
X39370000Y-68580000D01*
X39370000Y-68580000D02*
X39370000Y-81280000D01*
X39370000Y-81280000D02*
X30480000Y-90170000D01*
X30480000Y-95250000D02*
X30480000Y-90170000D01*
X64770000Y-70364800D02*
X64770000Y-71120000D01*
X64770000Y-63500000D02*
X60960000Y-59690000D01*
X60960000Y-59690000D02*
X58420000Y-59690000D01*
X55880000Y-59690000D02*
X50800000Y-64770000D01*
X58420000Y-59690000D02*
X55880000Y-59690000D01*
X64770000Y-71120000D02*
X64770000Y-86360000D01*
X72390000Y-77470000D02*
X72390000Y-72390000D01*
X72390000Y-72390000D02*
X69850000Y-69850000D01*
X69850000Y-69850000D02*
X66040000Y-69850000D01*
X66040000Y-69850000D02*
X64770000Y-68580000D01*
X64770000Y-71120000D02*
X64770000Y-68580000D01*
X64770000Y-68580000D02*
X64770000Y-63500000D01*
X94876250Y-55506250D02*
X122293750Y-55506250D01*
X122293750Y-55506250D02*
X125918900Y-59131400D01*
X94876250Y-55506250D02*
X94876250Y-55506250D01*
X99582500Y-50800000D02*
X94876250Y-55506250D01*
X102870000Y-50800000D02*
X99582500Y-50800000D01*
X146050000Y-59690000D02*
X134620000Y-59690000D01*
X125918900Y-68391100D02*
X125918900Y-68768900D01*
X134620000Y-59690000D02*
X125918900Y-68391100D01*
X125918900Y-59131400D02*
X125918900Y-68768900D01*
X130564050Y-75175950D02*
X132325950Y-75175950D01*
X132325950Y-75175950D02*
X133350000Y-76200000D01*
X132080000Y-90170000D02*
X130810000Y-91440000D01*
X132080000Y-90170000D02*
X133350000Y-88900000D01*
X133350000Y-76200000D02*
X133350000Y-88900000D01*
X115570000Y-77470000D02*
X119380000Y-77470000D01*
X119380000Y-77470000D02*
X126119050Y-70730950D01*
X130564050Y-75175950D02*
X126119050Y-70730950D01*
X125918900Y-70530800D02*
X126119050Y-70730950D01*
X125918900Y-68768900D02*
X125918900Y-70530800D01*
X106680000Y-81280000D02*
X102870000Y-81280000D01*
X115570000Y-77470000D02*
X110490000Y-77470000D01*
X110490000Y-77470000D02*
X106680000Y-81280000D01*
X130810000Y-100330000D02*
X130810000Y-91440000D01*
X36830000Y-55880000D02*
X34290000Y-55880000D01*
X34290000Y-55880000D02*
X33020000Y-57150000D01*
X33020000Y-57150000D02*
X33020000Y-62230000D01*
X33020000Y-62230000D02*
X31750000Y-63500000D01*
X31750000Y-63500000D02*
X29210000Y-63500000D01*
X46990000Y-62230000D02*
X46990000Y-83820000D01*
X46990000Y-83820000D02*
X43180000Y-87630000D01*
X43180000Y-87630000D02*
X38100000Y-87630000D01*
X38100000Y-87630000D02*
X35560000Y-90170000D01*
X35560000Y-90170000D02*
X35560000Y-92710000D01*
X59690000Y-81280000D02*
X57150000Y-78740000D01*
X57150000Y-78740000D02*
X55880000Y-77470000D01*
X55880000Y-77470000D02*
X48260000Y-77470000D01*
X48260000Y-77470000D02*
X46990000Y-78740000D01*
X35713900Y-92863900D02*
X35713900Y-120803900D01*
X35560000Y-92710000D02*
X35713900Y-92863900D01*
X91440000Y-120650000D02*
X77470000Y-120650000D01*
X77470000Y-120650000D02*
X72390000Y-125730000D01*
X72390000Y-125730000D02*
X64770000Y-125730000D01*
X64770000Y-125730000D02*
X49530000Y-110490000D01*
X49530000Y-110490000D02*
X49530000Y-109220000D01*
X43180000Y-124460000D02*
X44450000Y-125730000D01*
X48260000Y-125730000D02*
X44450000Y-125730000D01*
X43180000Y-123190000D02*
X43180000Y-124460000D01*
X48260000Y-125730000D02*
X67310000Y-125730000D01*
X43180000Y-123190000D02*
X38100000Y-123190000D01*
X35713900Y-120803900D02*
X38100000Y-123190000D01*
X134620000Y-48260000D02*
X148590000Y-48260000D01*
X148590000Y-48260000D02*
X149860000Y-49530000D01*
X149860000Y-49530000D02*
X149860000Y-58420000D01*
X149860000Y-58420000D02*
X151130000Y-59690000D01*
X151130000Y-59690000D02*
X153670000Y-59690000D01*
X55880000Y-48260000D02*
X57150000Y-48260000D01*
X57305300Y-48260000D02*
X55880000Y-48260000D01*
X57305300Y-48260000D02*
X85167650Y-76122350D01*
X85245300Y-76200000D02*
X85167650Y-76122350D01*
X85245300Y-111604700D02*
X85245300Y-76200000D01*
X69850000Y-115570000D02*
X81280000Y-115570000D01*
X81280000Y-115570000D02*
X85245300Y-111604700D01*
X69850000Y-123190000D02*
X69850000Y-115570000D01*
X41910000Y-58420000D02*
X41910000Y-59690000D01*
X41910000Y-59690000D02*
X44450000Y-62230000D01*
X44450000Y-62230000D02*
X44450000Y-78740000D01*
X44450000Y-78740000D02*
X43180000Y-80010000D01*
X43180000Y-80010000D02*
X41910000Y-80010000D01*
X64770000Y-34290000D02*
X71120000Y-34290000D01*
X95250000Y-43180000D02*
X86360000Y-43180000D01*
X133350000Y-53340000D02*
X133350000Y-43180000D01*
X146050000Y-57150000D02*
X137160000Y-57150000D01*
X137160000Y-57150000D02*
X133350000Y-53340000D01*
X133350000Y-43180000D02*
X127000000Y-36830000D01*
X130810000Y-77470000D02*
X129384700Y-77470000D01*
X124148300Y-82706400D02*
X129384700Y-77470000D01*
X124148300Y-82706400D02*
X111603600Y-82706400D01*
X111603600Y-82706400D02*
X109220000Y-85090000D01*
X109220000Y-85090000D02*
X101600000Y-85090000D01*
X95250000Y-73660000D02*
X97790000Y-73660000D01*
X97790000Y-73660000D02*
X99060000Y-74930000D01*
X100330000Y-83820000D02*
X100330000Y-76200000D01*
X101600000Y-85090000D02*
X100330000Y-83820000D01*
X100330000Y-76200000D02*
X99060000Y-74930000D01*
X106524700Y-76200000D02*
X102870000Y-76200000D01*
X118032350Y-64692350D02*
X106524700Y-76200000D01*
X118110000Y-64770000D02*
X118032350Y-64692350D01*
X123190000Y-64770000D02*
X118110000Y-64770000D01*
X102870000Y-40640000D02*
X104140000Y-40640000D01*
X104140000Y-40640000D02*
X105410000Y-39370000D01*
X105410000Y-39370000D02*
X105410000Y-31750000D01*
X105410000Y-30480000D02*
X102870000Y-27940000D01*
X105410000Y-31750000D02*
X105410000Y-30480000D01*
X102870000Y-30480000D02*
X102870000Y-27940000D01*
X102870000Y-60960000D02*
X102870000Y-58420000D01*
X52070000Y-81280000D02*
X50800000Y-81280000D01*
X50800000Y-81280000D02*
X49530000Y-82550000D01*
X49530000Y-91440000D02*
X52070000Y-93980000D01*
X49530000Y-82550000D02*
X49530000Y-91440000D01*
X104140000Y-104140000D02*
X104140000Y-101600000D01*
X118110000Y-107950000D02*
X107950000Y-107950000D01*
X107950000Y-107950000D02*
X104140000Y-104140000D01*
X113030000Y-113030000D02*
X113030000Y-115570000D01*
X107950000Y-111760000D02*
X109855000Y-109855000D01*
X107950000Y-115570000D02*
X107950000Y-111760000D01*
X107950000Y-107950000D02*
X109855000Y-109855000D01*
X109855000Y-109855000D02*
X113030000Y-113030000D01*
X165100000Y-52070000D02*
X160020000Y-52070000D01*
X160020000Y-52070000D02*
X153670000Y-52070000D01*
X153670000Y-54610000D02*
X153670000Y-52070000D01*
X153670000Y-67310000D02*
X153670000Y-64770000D01*
X153670000Y-64770000D02*
X170180000Y-64770000D01*
X170180000Y-64770000D02*
X175260000Y-64770000D01*
X58420000Y-62230000D02*
X60960000Y-62230000D01*
X60960000Y-62230000D02*
X62230000Y-63500000D01*
X62230000Y-63500000D02*
X62230000Y-73660000D01*
X62230000Y-73660000D02*
X60960000Y-74930000D01*
X60960000Y-74930000D02*
X52070000Y-74930000D01*
X52070000Y-74930000D02*
X48260000Y-71120000D01*
X48260000Y-60960000D02*
X49530000Y-59690000D01*
X49530000Y-59690000D02*
X50800000Y-59690000D01*
X48260000Y-68580000D02*
X48260000Y-68580000D01*
X48260000Y-68580000D02*
X48260000Y-60960000D01*
X48260000Y-71120000D02*
X48260000Y-68580000D01*
X25400000Y-67310000D02*
X22860000Y-64770000D01*
X22860000Y-64770000D02*
X22860000Y-62230000D01*
X22860000Y-62230000D02*
X24130000Y-60960000D01*
X24130000Y-60960000D02*
X29210000Y-60960000D01*
X25400000Y-67310000D02*
X25400000Y-67310000D01*
X74930000Y-59690000D02*
X74930000Y-59690000D01*
X58420000Y-67310000D02*
X55880000Y-67310000D01*
X55880000Y-67310000D02*
X53340000Y-69850000D01*
X53340000Y-69850000D02*
X53340000Y-73660000D01*
X53340000Y-73660000D02*
X53340000Y-73660000D01*
X85090000Y-63500000D02*
X78740000Y-63500000D01*
X78740000Y-63500000D02*
X74930000Y-59690000D01*
X90170000Y-63580000D02*
X90090000Y-63500000D01*
X90170000Y-71120000D02*
X90170000Y-63580000D01*
X90090000Y-63500000D02*
X90090000Y-50880000D01*
X90090000Y-50880000D02*
X92710000Y-48260000D01*
X92710000Y-48260000D02*
X95250000Y-48260000D01*
X71120000Y-26670000D02*
X64770000Y-26670000D01*
X64770000Y-19050000D02*
X71120000Y-19050000D01*
X55891700Y-45207500D02*
X50800000Y-40115800D01*
D27*
X55880000Y-45720000D02*
X55891700Y-45708300D01*
X55891700Y-45708300D02*
X55891700Y-45207500D01*
D26*
X50800000Y-33020000D02*
X50800000Y-29210000D01*
X50800000Y-40115800D02*
X50800000Y-33020000D01*
X57150000Y-26670000D02*
X57315300Y-26504700D01*
X50800000Y-33020000D02*
X57150000Y-26670000D01*
X50800000Y-29210000D02*
X43180000Y-29210000D01*
X62230000Y-26670000D02*
X57150000Y-26670000D01*
X62230000Y-21590000D02*
X62230000Y-19050000D01*
X57150000Y-26670000D02*
X62230000Y-21590000D01*
X62230000Y-21590000D02*
X62230000Y-26670000D01*
X62230000Y-34290000D02*
X62230000Y-26670000D01*
M02*
