G04 #@! TF.GenerationSoftware,KiCad,Pcbnew,(5.1.2)-2*
G04 #@! TF.CreationDate,2020-08-13T15:56:15+03:00*
G04 #@! TF.ProjectId,tempature_citcuit,74656d70-6174-4757-9265-5f6369746375,rev?*
G04 #@! TF.SameCoordinates,Original*
G04 #@! TF.FileFunction,Legend,Top*
G04 #@! TF.FilePolarity,Positive*
%FSLAX46Y46*%
G04 Gerber Fmt 4.6, Leading zero omitted, Abs format (unit mm)*
G04 Created by KiCad (PCBNEW (5.1.2)-2) date 2020-08-13 15:56:15*
%MOMM*%
%LPD*%
G04 APERTURE LIST*
%ADD10C,0.120000*%
%ADD11C,0.150000*%
G04 APERTURE END LIST*
D10*
X128100000Y-113000000D02*
X126400000Y-113000000D01*
X126400000Y-113000000D02*
X125900000Y-113000000D01*
X125900000Y-113000000D02*
X125900000Y-115600000D01*
X125900000Y-115600000D02*
X128100000Y-115600000D01*
X128100000Y-115600000D02*
X128100000Y-113000000D01*
X177630000Y-83850000D02*
X177630000Y-81250000D01*
X175430000Y-83850000D02*
X177630000Y-83850000D01*
X175430000Y-81250000D02*
X175430000Y-83850000D01*
X175930000Y-81250000D02*
X175430000Y-81250000D01*
X177630000Y-81250000D02*
X175930000Y-81250000D01*
X25650000Y-21590000D02*
X24640000Y-21590000D01*
X25650000Y-16510000D02*
X25650000Y-21590000D01*
X24640000Y-16510000D02*
X25650000Y-16510000D01*
X24540000Y-22960000D02*
X24540000Y-15160000D01*
X30590000Y-22960000D02*
X24540000Y-22960000D01*
X30590000Y-15160000D02*
X30590000Y-22960000D01*
X24540000Y-15160000D02*
X30590000Y-15160000D01*
X25650000Y-48260000D02*
X24640000Y-48260000D01*
X25650000Y-43180000D02*
X25650000Y-48260000D01*
X24640000Y-43180000D02*
X25650000Y-43180000D01*
X24540000Y-49630000D02*
X24540000Y-41830000D01*
X30590000Y-49630000D02*
X24540000Y-49630000D01*
X30590000Y-41830000D02*
X30590000Y-49630000D01*
X24540000Y-41830000D02*
X30590000Y-41830000D01*
X162620000Y-82660000D02*
X162620000Y-81010000D01*
X144720000Y-82660000D02*
X162620000Y-82660000D01*
X144720000Y-77360000D02*
X144720000Y-82660000D01*
X162620000Y-77360000D02*
X144720000Y-77360000D01*
X162620000Y-79010000D02*
X162620000Y-77360000D01*
X162620000Y-81010000D02*
G75*
G02X162620000Y-79010000I0J1000000D01*
G01*
X66100000Y-82660000D02*
X66100000Y-81010000D01*
X48200000Y-82660000D02*
X66100000Y-82660000D01*
X48200000Y-77360000D02*
X48200000Y-82660000D01*
X66100000Y-77360000D02*
X48200000Y-77360000D01*
X66100000Y-79010000D02*
X66100000Y-77360000D01*
X66100000Y-81010000D02*
G75*
G02X66100000Y-79010000I0J1000000D01*
G01*
X116900000Y-82660000D02*
X116900000Y-81010000D01*
X99000000Y-82660000D02*
X116900000Y-82660000D01*
X99000000Y-77360000D02*
X99000000Y-82660000D01*
X116900000Y-77360000D02*
X99000000Y-77360000D01*
X116900000Y-79010000D02*
X116900000Y-77360000D01*
X116900000Y-81010000D02*
G75*
G02X116900000Y-79010000I0J1000000D01*
G01*
X37080000Y-80010000D02*
X36070000Y-80010000D01*
X37080000Y-74930000D02*
X37080000Y-80010000D01*
X36070000Y-74930000D02*
X37080000Y-74930000D01*
X35970000Y-81380000D02*
X35970000Y-73580000D01*
X42020000Y-81380000D02*
X35970000Y-81380000D01*
X42020000Y-73580000D02*
X42020000Y-81380000D01*
X35970000Y-73580000D02*
X42020000Y-73580000D01*
X80260000Y-85090000D02*
X79250000Y-85090000D01*
X80260000Y-80010000D02*
X80260000Y-85090000D01*
X79250000Y-80010000D02*
X80260000Y-80010000D01*
X79150000Y-86460000D02*
X79150000Y-78660000D01*
X85200000Y-86460000D02*
X79150000Y-86460000D01*
X85200000Y-78660000D02*
X85200000Y-86460000D01*
X79150000Y-78660000D02*
X85200000Y-78660000D01*
X131060000Y-81280000D02*
X130050000Y-81280000D01*
X131060000Y-76200000D02*
X131060000Y-81280000D01*
X130050000Y-76200000D02*
X131060000Y-76200000D01*
X129950000Y-82650000D02*
X129950000Y-74850000D01*
X136000000Y-82650000D02*
X129950000Y-82650000D01*
X136000000Y-74850000D02*
X136000000Y-82650000D01*
X129950000Y-74850000D02*
X136000000Y-74850000D01*
X71150000Y-110660000D02*
X68550000Y-110660000D01*
X71150000Y-112860000D02*
X71150000Y-110660000D01*
X68550000Y-112860000D02*
X71150000Y-112860000D01*
X68550000Y-112360000D02*
X68550000Y-112860000D01*
X68550000Y-110660000D02*
X68550000Y-112360000D01*
X128100000Y-106710000D02*
X128100000Y-104110000D01*
X125900000Y-106710000D02*
X128100000Y-106710000D01*
X125900000Y-104110000D02*
X125900000Y-106710000D01*
X126400000Y-104110000D02*
X125900000Y-104110000D01*
X128100000Y-104110000D02*
X126400000Y-104110000D01*
X59460000Y-99060000D02*
X61420000Y-99060000D01*
X72620000Y-99060000D02*
X70660000Y-99060000D01*
X61420000Y-100780000D02*
X70660000Y-100780000D01*
X61420000Y-97340000D02*
X61420000Y-100780000D01*
X70660000Y-97340000D02*
X61420000Y-97340000D01*
X70660000Y-100780000D02*
X70660000Y-97340000D01*
X114070000Y-97790000D02*
X116030000Y-97790000D01*
X127230000Y-97790000D02*
X125270000Y-97790000D01*
X116030000Y-99510000D02*
X125270000Y-99510000D01*
X116030000Y-96070000D02*
X116030000Y-99510000D01*
X125270000Y-96070000D02*
X116030000Y-96070000D01*
X125270000Y-99510000D02*
X125270000Y-96070000D01*
X162330000Y-96520000D02*
X164290000Y-96520000D01*
X175490000Y-96520000D02*
X173530000Y-96520000D01*
X164290000Y-98240000D02*
X173530000Y-98240000D01*
X164290000Y-94800000D02*
X164290000Y-98240000D01*
X173530000Y-94800000D02*
X164290000Y-94800000D01*
X173530000Y-98240000D02*
X173530000Y-94800000D01*
X77700000Y-105410000D02*
X75740000Y-105410000D01*
X64540000Y-105410000D02*
X66500000Y-105410000D01*
X75740000Y-103690000D02*
X66500000Y-103690000D01*
X75740000Y-107130000D02*
X75740000Y-103690000D01*
X66500000Y-107130000D02*
X75740000Y-107130000D01*
X66500000Y-103690000D02*
X66500000Y-107130000D01*
X127230000Y-91440000D02*
X125270000Y-91440000D01*
X114070000Y-91440000D02*
X116030000Y-91440000D01*
X125270000Y-89720000D02*
X116030000Y-89720000D01*
X125270000Y-93160000D02*
X125270000Y-89720000D01*
X116030000Y-93160000D02*
X125270000Y-93160000D01*
X116030000Y-89720000D02*
X116030000Y-93160000D01*
X44220000Y-105410000D02*
X46180000Y-105410000D01*
X57380000Y-105410000D02*
X55420000Y-105410000D01*
X46180000Y-107130000D02*
X55420000Y-107130000D01*
X46180000Y-103690000D02*
X46180000Y-107130000D01*
X55420000Y-103690000D02*
X46180000Y-103690000D01*
X55420000Y-107130000D02*
X55420000Y-103690000D01*
X100100000Y-104140000D02*
X102060000Y-104140000D01*
X113260000Y-104140000D02*
X111300000Y-104140000D01*
X102060000Y-105860000D02*
X111300000Y-105860000D01*
X102060000Y-102420000D02*
X102060000Y-105860000D01*
X111300000Y-102420000D02*
X102060000Y-102420000D01*
X111300000Y-105860000D02*
X111300000Y-102420000D01*
X48490000Y-99060000D02*
X46530000Y-99060000D01*
X35330000Y-99060000D02*
X37290000Y-99060000D01*
X46530000Y-97340000D02*
X37290000Y-97340000D01*
X46530000Y-100780000D02*
X46530000Y-97340000D01*
X37290000Y-100780000D02*
X46530000Y-100780000D01*
X37290000Y-97340000D02*
X37290000Y-100780000D01*
X93980000Y-109450000D02*
X93980000Y-107490000D01*
X93980000Y-96290000D02*
X93980000Y-98250000D01*
X95700000Y-107490000D02*
X95700000Y-98250000D01*
X92260000Y-107490000D02*
X95700000Y-107490000D01*
X92260000Y-98250000D02*
X92260000Y-107490000D01*
X95700000Y-98250000D02*
X92260000Y-98250000D01*
X37870000Y-91440000D02*
X39830000Y-91440000D01*
X51030000Y-91440000D02*
X49070000Y-91440000D01*
X39830000Y-93160000D02*
X49070000Y-93160000D01*
X39830000Y-89720000D02*
X39830000Y-93160000D01*
X49070000Y-89720000D02*
X39830000Y-89720000D01*
X49070000Y-93160000D02*
X49070000Y-89720000D01*
X92710000Y-58190000D02*
X92710000Y-60150000D01*
X92710000Y-71350000D02*
X92710000Y-69390000D01*
X90990000Y-60150000D02*
X90990000Y-69390000D01*
X94430000Y-60150000D02*
X90990000Y-60150000D01*
X94430000Y-69390000D02*
X94430000Y-60150000D01*
X90990000Y-69390000D02*
X94430000Y-69390000D01*
X68810000Y-68580000D02*
X66850000Y-68580000D01*
X55650000Y-68580000D02*
X57610000Y-68580000D01*
X66850000Y-66860000D02*
X57610000Y-66860000D01*
X66850000Y-70300000D02*
X66850000Y-66860000D01*
X57610000Y-70300000D02*
X66850000Y-70300000D01*
X57610000Y-66860000D02*
X57610000Y-70300000D01*
X81043000Y-67470000D02*
X81590000Y-67470000D01*
X78350000Y-67470000D02*
X78898000Y-67470000D01*
X78896000Y-72511000D02*
X81045000Y-72511000D01*
X81590000Y-71153000D02*
X81590000Y-67470000D01*
X78350000Y-71153000D02*
X78350000Y-67470000D01*
X78896000Y-72511000D02*
X81045000Y-72511000D01*
X74949000Y-72511000D02*
X76044000Y-72511000D01*
X83895000Y-72511000D02*
X84990000Y-72511000D01*
X81043000Y-67470000D02*
X84990000Y-67470000D01*
X74949000Y-67470000D02*
X78898000Y-67470000D01*
X84990000Y-72511000D02*
X84990000Y-67470000D01*
X74949000Y-72511000D02*
X74949000Y-67470000D01*
X119610000Y-55880000D02*
X117650000Y-55880000D01*
X106450000Y-55880000D02*
X108410000Y-55880000D01*
X117650000Y-54160000D02*
X108410000Y-54160000D01*
X117650000Y-57600000D02*
X117650000Y-54160000D01*
X108410000Y-57600000D02*
X117650000Y-57600000D01*
X108410000Y-54160000D02*
X108410000Y-57600000D01*
X128507000Y-56990000D02*
X127960000Y-56990000D01*
X131200000Y-56990000D02*
X130652000Y-56990000D01*
X130654000Y-51949000D02*
X128505000Y-51949000D01*
X127960000Y-53307000D02*
X127960000Y-56990000D01*
X131200000Y-53307000D02*
X131200000Y-56990000D01*
X130654000Y-51949000D02*
X128505000Y-51949000D01*
X134601000Y-51949000D02*
X133506000Y-51949000D01*
X125655000Y-51949000D02*
X124560000Y-51949000D01*
X128507000Y-56990000D02*
X124560000Y-56990000D01*
X134601000Y-56990000D02*
X130652000Y-56990000D01*
X124560000Y-51949000D02*
X124560000Y-56990000D01*
X134601000Y-51949000D02*
X134601000Y-56990000D01*
X71350000Y-45720000D02*
X69390000Y-45720000D01*
X58190000Y-45720000D02*
X60150000Y-45720000D01*
X69390000Y-44000000D02*
X60150000Y-44000000D01*
X69390000Y-47440000D02*
X69390000Y-44000000D01*
X60150000Y-47440000D02*
X69390000Y-47440000D01*
X60150000Y-44000000D02*
X60150000Y-47440000D01*
X127230000Y-62230000D02*
X125270000Y-62230000D01*
X114070000Y-62230000D02*
X116030000Y-62230000D01*
X125270000Y-60510000D02*
X116030000Y-60510000D01*
X125270000Y-63950000D02*
X125270000Y-60510000D01*
X116030000Y-63950000D02*
X125270000Y-63950000D01*
X116030000Y-60510000D02*
X116030000Y-63950000D01*
X62460000Y-31750000D02*
X60500000Y-31750000D01*
X49300000Y-31750000D02*
X51260000Y-31750000D01*
X60500000Y-30030000D02*
X51260000Y-30030000D01*
X60500000Y-33470000D02*
X60500000Y-30030000D01*
X51260000Y-33470000D02*
X60500000Y-33470000D01*
X51260000Y-30030000D02*
X51260000Y-33470000D01*
X45490000Y-55880000D02*
X47450000Y-55880000D01*
X58650000Y-55880000D02*
X56690000Y-55880000D01*
X47450000Y-57600000D02*
X56690000Y-57600000D01*
X47450000Y-54160000D02*
X47450000Y-57600000D01*
X56690000Y-54160000D02*
X47450000Y-54160000D01*
X56690000Y-57600000D02*
X56690000Y-54160000D01*
X114070000Y-69850000D02*
X116030000Y-69850000D01*
X127230000Y-69850000D02*
X125270000Y-69850000D01*
X116030000Y-71570000D02*
X125270000Y-71570000D01*
X116030000Y-68130000D02*
X116030000Y-71570000D01*
X125270000Y-68130000D02*
X116030000Y-68130000D01*
X125270000Y-71570000D02*
X125270000Y-68130000D01*
X101370000Y-48260000D02*
X103330000Y-48260000D01*
X114530000Y-48260000D02*
X112570000Y-48260000D01*
X103330000Y-49980000D02*
X112570000Y-49980000D01*
X103330000Y-46540000D02*
X103330000Y-49980000D01*
X112570000Y-46540000D02*
X103330000Y-46540000D01*
X112570000Y-49980000D02*
X112570000Y-46540000D01*
X60730000Y-60960000D02*
X62690000Y-60960000D01*
X73890000Y-60960000D02*
X71930000Y-60960000D01*
X62690000Y-62680000D02*
X71930000Y-62680000D01*
X62690000Y-59240000D02*
X62690000Y-62680000D01*
X71930000Y-59240000D02*
X62690000Y-59240000D01*
X71930000Y-62680000D02*
X71930000Y-59240000D01*
X116610000Y-40640000D02*
X118570000Y-40640000D01*
X129770000Y-40640000D02*
X127810000Y-40640000D01*
X118570000Y-42360000D02*
X127810000Y-42360000D01*
X118570000Y-38920000D02*
X118570000Y-42360000D01*
X127810000Y-38920000D02*
X118570000Y-38920000D01*
X127810000Y-42360000D02*
X127810000Y-38920000D01*
X68580000Y-37060000D02*
X68580000Y-35100000D01*
X68580000Y-23900000D02*
X68580000Y-25860000D01*
X70300000Y-35100000D02*
X70300000Y-25860000D01*
X66860000Y-35100000D02*
X70300000Y-35100000D01*
X66860000Y-25860000D02*
X66860000Y-35100000D01*
X70300000Y-25860000D02*
X66860000Y-25860000D01*
X175490000Y-106680000D02*
X173530000Y-106680000D01*
X162330000Y-106680000D02*
X164290000Y-106680000D01*
X173530000Y-104960000D02*
X164290000Y-104960000D01*
X173530000Y-108400000D02*
X173530000Y-104960000D01*
X164290000Y-108400000D02*
X173530000Y-108400000D01*
X164290000Y-104960000D02*
X164290000Y-108400000D01*
X125960000Y-22860000D02*
X124000000Y-22860000D01*
X112800000Y-22860000D02*
X114760000Y-22860000D01*
X124000000Y-21140000D02*
X114760000Y-21140000D01*
X124000000Y-24580000D02*
X124000000Y-21140000D01*
X114760000Y-24580000D02*
X124000000Y-24580000D01*
X114760000Y-21140000D02*
X114760000Y-24580000D01*
X142010000Y-106680000D02*
X143970000Y-106680000D01*
X155170000Y-106680000D02*
X153210000Y-106680000D01*
X143970000Y-108400000D02*
X153210000Y-108400000D01*
X143970000Y-104960000D02*
X143970000Y-108400000D01*
X153210000Y-104960000D02*
X143970000Y-104960000D01*
X153210000Y-108400000D02*
X153210000Y-104960000D01*
X147550000Y-101600000D02*
X145590000Y-101600000D01*
X134390000Y-101600000D02*
X136350000Y-101600000D01*
X145590000Y-99880000D02*
X136350000Y-99880000D01*
X145590000Y-103320000D02*
X145590000Y-99880000D01*
X136350000Y-103320000D02*
X145590000Y-103320000D01*
X136350000Y-99880000D02*
X136350000Y-103320000D01*
X134390000Y-93980000D02*
X136350000Y-93980000D01*
X147550000Y-93980000D02*
X145590000Y-93980000D01*
X136350000Y-95700000D02*
X145590000Y-95700000D01*
X136350000Y-92260000D02*
X136350000Y-95700000D01*
X145590000Y-92260000D02*
X136350000Y-92260000D01*
X145590000Y-95700000D02*
X145590000Y-92260000D01*
X162790000Y-46990000D02*
X160830000Y-46990000D01*
X149630000Y-46990000D02*
X151590000Y-46990000D01*
X160830000Y-45270000D02*
X151590000Y-45270000D01*
X160830000Y-48710000D02*
X160830000Y-45270000D01*
X151590000Y-48710000D02*
X160830000Y-48710000D01*
X151590000Y-45270000D02*
X151590000Y-48710000D01*
X149630000Y-58420000D02*
X151590000Y-58420000D01*
X162790000Y-58420000D02*
X160830000Y-58420000D01*
X151590000Y-60140000D02*
X160830000Y-60140000D01*
X151590000Y-56700000D02*
X151590000Y-60140000D01*
X160830000Y-56700000D02*
X151590000Y-56700000D01*
X160830000Y-60140000D02*
X160830000Y-56700000D01*
X165330000Y-66040000D02*
X163370000Y-66040000D01*
X152170000Y-66040000D02*
X154130000Y-66040000D01*
X163370000Y-64320000D02*
X154130000Y-64320000D01*
X163370000Y-67760000D02*
X163370000Y-64320000D01*
X154130000Y-67760000D02*
X163370000Y-67760000D01*
X154130000Y-64320000D02*
X154130000Y-67760000D01*
X172957000Y-65880000D02*
X172410000Y-65880000D01*
X175650000Y-65880000D02*
X175102000Y-65880000D01*
X175104000Y-60839000D02*
X172955000Y-60839000D01*
X172410000Y-62197000D02*
X172410000Y-65880000D01*
X175650000Y-62197000D02*
X175650000Y-65880000D01*
X175104000Y-60839000D02*
X172955000Y-60839000D01*
X179051000Y-60839000D02*
X177956000Y-60839000D01*
X170105000Y-60839000D02*
X169010000Y-60839000D01*
X172957000Y-65880000D02*
X169010000Y-65880000D01*
X179051000Y-65880000D02*
X175102000Y-65880000D01*
X169010000Y-60839000D02*
X169010000Y-65880000D01*
X179051000Y-60839000D02*
X179051000Y-65880000D01*
X172720000Y-53570000D02*
X172720000Y-51610000D01*
X172720000Y-40410000D02*
X172720000Y-42370000D01*
X174440000Y-51610000D02*
X174440000Y-42370000D01*
X171000000Y-51610000D02*
X174440000Y-51610000D01*
X171000000Y-42370000D02*
X171000000Y-51610000D01*
X174440000Y-42370000D02*
X171000000Y-42370000D01*
X179070000Y-38330000D02*
X179070000Y-36370000D01*
X179070000Y-25170000D02*
X179070000Y-27130000D01*
X180790000Y-36370000D02*
X180790000Y-27130000D01*
X177350000Y-36370000D02*
X180790000Y-36370000D01*
X177350000Y-27130000D02*
X177350000Y-36370000D01*
X180790000Y-27130000D02*
X177350000Y-27130000D01*
X154710000Y-22860000D02*
X156670000Y-22860000D01*
X167870000Y-22860000D02*
X165910000Y-22860000D01*
X156670000Y-24580000D02*
X165910000Y-24580000D01*
X156670000Y-21140000D02*
X156670000Y-24580000D01*
X165910000Y-21140000D02*
X156670000Y-21140000D01*
X165910000Y-24580000D02*
X165910000Y-21140000D01*
X42930000Y-29210000D02*
X43940000Y-29210000D01*
X42930000Y-34290000D02*
X42930000Y-29210000D01*
X43940000Y-34290000D02*
X42930000Y-34290000D01*
X44040000Y-27840000D02*
X44040000Y-35640000D01*
X37990000Y-27840000D02*
X44040000Y-27840000D01*
X37990000Y-35640000D02*
X37990000Y-27840000D01*
X44040000Y-35640000D02*
X37990000Y-35640000D01*
X64600000Y-15210000D02*
X62900000Y-15210000D01*
X62900000Y-15210000D02*
X62400000Y-15210000D01*
X62400000Y-15210000D02*
X62400000Y-17810000D01*
X62400000Y-17810000D02*
X64600000Y-17810000D01*
X64600000Y-17810000D02*
X64600000Y-15210000D01*
X35390000Y-60990000D02*
X35390000Y-58390000D01*
X33190000Y-60990000D02*
X35390000Y-60990000D01*
X33190000Y-58390000D02*
X33190000Y-60990000D01*
X33690000Y-58390000D02*
X33190000Y-58390000D01*
X35390000Y-58390000D02*
X33690000Y-58390000D01*
X142070000Y-113060000D02*
X142070000Y-110460000D01*
X139870000Y-113060000D02*
X142070000Y-113060000D01*
X139870000Y-110460000D02*
X139870000Y-113060000D01*
X140370000Y-110460000D02*
X139870000Y-110460000D01*
X142070000Y-110460000D02*
X140370000Y-110460000D01*
X95080000Y-88870000D02*
X93380000Y-88870000D01*
X93380000Y-88870000D02*
X92880000Y-88870000D01*
X92880000Y-88870000D02*
X92880000Y-91470000D01*
X92880000Y-91470000D02*
X95080000Y-91470000D01*
X95080000Y-91470000D02*
X95080000Y-88870000D01*
X37930000Y-106710000D02*
X37930000Y-104110000D01*
X35730000Y-106710000D02*
X37930000Y-106710000D01*
X35730000Y-104110000D02*
X35730000Y-106710000D01*
X36230000Y-104110000D02*
X35730000Y-104110000D01*
X37930000Y-104110000D02*
X36230000Y-104110000D01*
X143340000Y-72420000D02*
X143340000Y-69820000D01*
X141140000Y-72420000D02*
X143340000Y-72420000D01*
X141140000Y-69820000D02*
X141140000Y-72420000D01*
X141640000Y-69820000D02*
X141140000Y-69820000D01*
X143340000Y-69820000D02*
X141640000Y-69820000D01*
X93810000Y-34260000D02*
X92110000Y-34260000D01*
X92110000Y-34260000D02*
X91610000Y-34260000D01*
X91610000Y-34260000D02*
X91610000Y-36860000D01*
X91610000Y-36860000D02*
X93810000Y-36860000D01*
X93810000Y-36860000D02*
X93810000Y-34260000D01*
X51900000Y-49560000D02*
X51900000Y-46960000D01*
X49700000Y-49560000D02*
X51900000Y-49560000D01*
X49700000Y-46960000D02*
X49700000Y-49560000D01*
X50200000Y-46960000D02*
X49700000Y-46960000D01*
X51900000Y-46960000D02*
X50200000Y-46960000D01*
X23960000Y-72360000D02*
X22260000Y-72360000D01*
X22260000Y-72360000D02*
X21760000Y-72360000D01*
X21760000Y-72360000D02*
X21760000Y-74960000D01*
X21760000Y-74960000D02*
X23960000Y-74960000D01*
X23960000Y-74960000D02*
X23960000Y-72360000D01*
X170010000Y-111730000D02*
X168310000Y-111730000D01*
X168310000Y-111730000D02*
X167810000Y-111730000D01*
X167810000Y-111730000D02*
X167810000Y-114330000D01*
X167810000Y-114330000D02*
X170010000Y-114330000D01*
X170010000Y-114330000D02*
X170010000Y-111730000D01*
X109050000Y-116870000D02*
X109050000Y-114270000D01*
X106850000Y-116870000D02*
X109050000Y-116870000D01*
X106850000Y-114270000D02*
X106850000Y-116870000D01*
X107350000Y-114270000D02*
X106850000Y-114270000D01*
X109050000Y-114270000D02*
X107350000Y-114270000D01*
X53170000Y-111730000D02*
X51470000Y-111730000D01*
X51470000Y-111730000D02*
X50970000Y-111730000D01*
X50970000Y-111730000D02*
X50970000Y-114330000D01*
X50970000Y-114330000D02*
X53170000Y-114330000D01*
X53170000Y-114330000D02*
X53170000Y-111730000D01*
X177630000Y-88930000D02*
X177630000Y-86330000D01*
X175430000Y-88930000D02*
X177630000Y-88930000D01*
X175430000Y-86330000D02*
X175430000Y-88930000D01*
X175930000Y-86330000D02*
X175430000Y-86330000D01*
X177630000Y-86330000D02*
X175930000Y-86330000D01*
X82580000Y-110660000D02*
X79980000Y-110660000D01*
X82580000Y-112860000D02*
X82580000Y-110660000D01*
X79980000Y-112860000D02*
X82580000Y-112860000D01*
X79980000Y-112360000D02*
X79980000Y-112860000D01*
X79980000Y-110660000D02*
X79980000Y-112360000D01*
X147150000Y-114270000D02*
X145450000Y-114270000D01*
X145450000Y-114270000D02*
X144950000Y-114270000D01*
X144950000Y-114270000D02*
X144950000Y-116870000D01*
X144950000Y-116870000D02*
X147150000Y-116870000D01*
X147150000Y-116870000D02*
X147150000Y-114270000D01*
X98890000Y-116870000D02*
X98890000Y-114270000D01*
X96690000Y-116870000D02*
X98890000Y-116870000D01*
X96690000Y-114270000D02*
X96690000Y-116870000D01*
X97190000Y-114270000D02*
X96690000Y-114270000D01*
X98890000Y-114270000D02*
X97190000Y-114270000D01*
X36660000Y-110460000D02*
X34960000Y-110460000D01*
X34960000Y-110460000D02*
X34460000Y-110460000D01*
X34460000Y-110460000D02*
X34460000Y-113060000D01*
X34460000Y-113060000D02*
X36660000Y-113060000D01*
X36660000Y-113060000D02*
X36660000Y-110460000D01*
X149690000Y-21560000D02*
X147990000Y-21560000D01*
X147990000Y-21560000D02*
X147490000Y-21560000D01*
X147490000Y-21560000D02*
X147490000Y-24160000D01*
X147490000Y-24160000D02*
X149690000Y-24160000D01*
X149690000Y-24160000D02*
X149690000Y-21560000D01*
X133180000Y-24160000D02*
X133180000Y-21560000D01*
X130980000Y-24160000D02*
X133180000Y-24160000D01*
X130980000Y-21560000D02*
X130980000Y-24160000D01*
X131480000Y-21560000D02*
X130980000Y-21560000D01*
X133180000Y-21560000D02*
X131480000Y-21560000D01*
X76030000Y-49500000D02*
X74330000Y-49500000D01*
X74330000Y-49500000D02*
X73830000Y-49500000D01*
X73830000Y-49500000D02*
X73830000Y-52100000D01*
X73830000Y-52100000D02*
X76030000Y-52100000D01*
X76030000Y-52100000D02*
X76030000Y-49500000D01*
X172685225Y-111305000D02*
X172685225Y-111805000D01*
X172435225Y-111555000D02*
X172935225Y-111555000D01*
X177841000Y-112746000D02*
X177841000Y-113314000D01*
X177801000Y-112512000D02*
X177801000Y-113548000D01*
X177761000Y-112353000D02*
X177761000Y-113707000D01*
X177721000Y-112225000D02*
X177721000Y-113835000D01*
X177681000Y-112115000D02*
X177681000Y-113945000D01*
X177641000Y-112019000D02*
X177641000Y-114041000D01*
X177601000Y-111932000D02*
X177601000Y-114128000D01*
X177561000Y-111852000D02*
X177561000Y-114208000D01*
X177521000Y-114070000D02*
X177521000Y-114281000D01*
X177521000Y-111779000D02*
X177521000Y-111990000D01*
X177481000Y-114070000D02*
X177481000Y-114349000D01*
X177481000Y-111711000D02*
X177481000Y-111990000D01*
X177441000Y-114070000D02*
X177441000Y-114413000D01*
X177441000Y-111647000D02*
X177441000Y-111990000D01*
X177401000Y-114070000D02*
X177401000Y-114473000D01*
X177401000Y-111587000D02*
X177401000Y-111990000D01*
X177361000Y-114070000D02*
X177361000Y-114530000D01*
X177361000Y-111530000D02*
X177361000Y-111990000D01*
X177321000Y-114070000D02*
X177321000Y-114584000D01*
X177321000Y-111476000D02*
X177321000Y-111990000D01*
X177281000Y-114070000D02*
X177281000Y-114635000D01*
X177281000Y-111425000D02*
X177281000Y-111990000D01*
X177241000Y-114070000D02*
X177241000Y-114683000D01*
X177241000Y-111377000D02*
X177241000Y-111990000D01*
X177201000Y-114070000D02*
X177201000Y-114729000D01*
X177201000Y-111331000D02*
X177201000Y-111990000D01*
X177161000Y-114070000D02*
X177161000Y-114773000D01*
X177161000Y-111287000D02*
X177161000Y-111990000D01*
X177121000Y-114070000D02*
X177121000Y-114815000D01*
X177121000Y-111245000D02*
X177121000Y-111990000D01*
X177081000Y-114070000D02*
X177081000Y-114856000D01*
X177081000Y-111204000D02*
X177081000Y-111990000D01*
X177041000Y-114070000D02*
X177041000Y-114894000D01*
X177041000Y-111166000D02*
X177041000Y-111990000D01*
X177001000Y-114070000D02*
X177001000Y-114931000D01*
X177001000Y-111129000D02*
X177001000Y-111990000D01*
X176961000Y-114070000D02*
X176961000Y-114967000D01*
X176961000Y-111093000D02*
X176961000Y-111990000D01*
X176921000Y-114070000D02*
X176921000Y-115001000D01*
X176921000Y-111059000D02*
X176921000Y-111990000D01*
X176881000Y-114070000D02*
X176881000Y-115034000D01*
X176881000Y-111026000D02*
X176881000Y-111990000D01*
X176841000Y-114070000D02*
X176841000Y-115065000D01*
X176841000Y-110995000D02*
X176841000Y-111990000D01*
X176801000Y-114070000D02*
X176801000Y-115095000D01*
X176801000Y-110965000D02*
X176801000Y-111990000D01*
X176761000Y-114070000D02*
X176761000Y-115125000D01*
X176761000Y-110935000D02*
X176761000Y-111990000D01*
X176721000Y-114070000D02*
X176721000Y-115152000D01*
X176721000Y-110908000D02*
X176721000Y-111990000D01*
X176681000Y-114070000D02*
X176681000Y-115179000D01*
X176681000Y-110881000D02*
X176681000Y-111990000D01*
X176641000Y-114070000D02*
X176641000Y-115205000D01*
X176641000Y-110855000D02*
X176641000Y-111990000D01*
X176601000Y-114070000D02*
X176601000Y-115230000D01*
X176601000Y-110830000D02*
X176601000Y-111990000D01*
X176561000Y-114070000D02*
X176561000Y-115254000D01*
X176561000Y-110806000D02*
X176561000Y-111990000D01*
X176521000Y-114070000D02*
X176521000Y-115277000D01*
X176521000Y-110783000D02*
X176521000Y-111990000D01*
X176481000Y-114070000D02*
X176481000Y-115298000D01*
X176481000Y-110762000D02*
X176481000Y-111990000D01*
X176441000Y-114070000D02*
X176441000Y-115320000D01*
X176441000Y-110740000D02*
X176441000Y-111990000D01*
X176401000Y-114070000D02*
X176401000Y-115340000D01*
X176401000Y-110720000D02*
X176401000Y-111990000D01*
X176361000Y-114070000D02*
X176361000Y-115359000D01*
X176361000Y-110701000D02*
X176361000Y-111990000D01*
X176321000Y-114070000D02*
X176321000Y-115378000D01*
X176321000Y-110682000D02*
X176321000Y-111990000D01*
X176281000Y-114070000D02*
X176281000Y-115395000D01*
X176281000Y-110665000D02*
X176281000Y-111990000D01*
X176241000Y-114070000D02*
X176241000Y-115412000D01*
X176241000Y-110648000D02*
X176241000Y-111990000D01*
X176201000Y-114070000D02*
X176201000Y-115428000D01*
X176201000Y-110632000D02*
X176201000Y-111990000D01*
X176161000Y-114070000D02*
X176161000Y-115444000D01*
X176161000Y-110616000D02*
X176161000Y-111990000D01*
X176121000Y-114070000D02*
X176121000Y-115458000D01*
X176121000Y-110602000D02*
X176121000Y-111990000D01*
X176081000Y-114070000D02*
X176081000Y-115472000D01*
X176081000Y-110588000D02*
X176081000Y-111990000D01*
X176041000Y-114070000D02*
X176041000Y-115485000D01*
X176041000Y-110575000D02*
X176041000Y-111990000D01*
X176001000Y-114070000D02*
X176001000Y-115498000D01*
X176001000Y-110562000D02*
X176001000Y-111990000D01*
X175961000Y-114070000D02*
X175961000Y-115510000D01*
X175961000Y-110550000D02*
X175961000Y-111990000D01*
X175920000Y-114070000D02*
X175920000Y-115521000D01*
X175920000Y-110539000D02*
X175920000Y-111990000D01*
X175880000Y-114070000D02*
X175880000Y-115531000D01*
X175880000Y-110529000D02*
X175880000Y-111990000D01*
X175840000Y-114070000D02*
X175840000Y-115541000D01*
X175840000Y-110519000D02*
X175840000Y-111990000D01*
X175800000Y-114070000D02*
X175800000Y-115550000D01*
X175800000Y-110510000D02*
X175800000Y-111990000D01*
X175760000Y-114070000D02*
X175760000Y-115558000D01*
X175760000Y-110502000D02*
X175760000Y-111990000D01*
X175720000Y-114070000D02*
X175720000Y-115566000D01*
X175720000Y-110494000D02*
X175720000Y-111990000D01*
X175680000Y-114070000D02*
X175680000Y-115573000D01*
X175680000Y-110487000D02*
X175680000Y-111990000D01*
X175640000Y-114070000D02*
X175640000Y-115580000D01*
X175640000Y-110480000D02*
X175640000Y-111990000D01*
X175600000Y-114070000D02*
X175600000Y-115586000D01*
X175600000Y-110474000D02*
X175600000Y-111990000D01*
X175560000Y-114070000D02*
X175560000Y-115591000D01*
X175560000Y-110469000D02*
X175560000Y-111990000D01*
X175520000Y-114070000D02*
X175520000Y-115595000D01*
X175520000Y-110465000D02*
X175520000Y-111990000D01*
X175480000Y-114070000D02*
X175480000Y-115599000D01*
X175480000Y-110461000D02*
X175480000Y-111990000D01*
X175440000Y-110457000D02*
X175440000Y-115603000D01*
X175400000Y-110454000D02*
X175400000Y-115606000D01*
X175360000Y-110452000D02*
X175360000Y-115608000D01*
X175320000Y-110451000D02*
X175320000Y-115609000D01*
X175280000Y-110450000D02*
X175280000Y-115610000D01*
X175240000Y-110450000D02*
X175240000Y-115610000D01*
X177860000Y-113030000D02*
G75*
G03X177860000Y-113030000I-2620000J0D01*
G01*
X22940000Y-52050000D02*
G75*
G03X22940000Y-52050000I-2620000J0D01*
G01*
X22900000Y-52050000D02*
X17740000Y-52050000D01*
X22900000Y-52090000D02*
X17740000Y-52090000D01*
X22899000Y-52130000D02*
X17741000Y-52130000D01*
X22898000Y-52170000D02*
X17742000Y-52170000D01*
X22896000Y-52210000D02*
X17744000Y-52210000D01*
X22893000Y-52250000D02*
X17747000Y-52250000D01*
X22889000Y-52290000D02*
X21360000Y-52290000D01*
X19280000Y-52290000D02*
X17751000Y-52290000D01*
X22885000Y-52330000D02*
X21360000Y-52330000D01*
X19280000Y-52330000D02*
X17755000Y-52330000D01*
X22881000Y-52370000D02*
X21360000Y-52370000D01*
X19280000Y-52370000D02*
X17759000Y-52370000D01*
X22876000Y-52410000D02*
X21360000Y-52410000D01*
X19280000Y-52410000D02*
X17764000Y-52410000D01*
X22870000Y-52450000D02*
X21360000Y-52450000D01*
X19280000Y-52450000D02*
X17770000Y-52450000D01*
X22863000Y-52490000D02*
X21360000Y-52490000D01*
X19280000Y-52490000D02*
X17777000Y-52490000D01*
X22856000Y-52530000D02*
X21360000Y-52530000D01*
X19280000Y-52530000D02*
X17784000Y-52530000D01*
X22848000Y-52570000D02*
X21360000Y-52570000D01*
X19280000Y-52570000D02*
X17792000Y-52570000D01*
X22840000Y-52610000D02*
X21360000Y-52610000D01*
X19280000Y-52610000D02*
X17800000Y-52610000D01*
X22831000Y-52650000D02*
X21360000Y-52650000D01*
X19280000Y-52650000D02*
X17809000Y-52650000D01*
X22821000Y-52690000D02*
X21360000Y-52690000D01*
X19280000Y-52690000D02*
X17819000Y-52690000D01*
X22811000Y-52730000D02*
X21360000Y-52730000D01*
X19280000Y-52730000D02*
X17829000Y-52730000D01*
X22800000Y-52771000D02*
X21360000Y-52771000D01*
X19280000Y-52771000D02*
X17840000Y-52771000D01*
X22788000Y-52811000D02*
X21360000Y-52811000D01*
X19280000Y-52811000D02*
X17852000Y-52811000D01*
X22775000Y-52851000D02*
X21360000Y-52851000D01*
X19280000Y-52851000D02*
X17865000Y-52851000D01*
X22762000Y-52891000D02*
X21360000Y-52891000D01*
X19280000Y-52891000D02*
X17878000Y-52891000D01*
X22748000Y-52931000D02*
X21360000Y-52931000D01*
X19280000Y-52931000D02*
X17892000Y-52931000D01*
X22734000Y-52971000D02*
X21360000Y-52971000D01*
X19280000Y-52971000D02*
X17906000Y-52971000D01*
X22718000Y-53011000D02*
X21360000Y-53011000D01*
X19280000Y-53011000D02*
X17922000Y-53011000D01*
X22702000Y-53051000D02*
X21360000Y-53051000D01*
X19280000Y-53051000D02*
X17938000Y-53051000D01*
X22685000Y-53091000D02*
X21360000Y-53091000D01*
X19280000Y-53091000D02*
X17955000Y-53091000D01*
X22668000Y-53131000D02*
X21360000Y-53131000D01*
X19280000Y-53131000D02*
X17972000Y-53131000D01*
X22649000Y-53171000D02*
X21360000Y-53171000D01*
X19280000Y-53171000D02*
X17991000Y-53171000D01*
X22630000Y-53211000D02*
X21360000Y-53211000D01*
X19280000Y-53211000D02*
X18010000Y-53211000D01*
X22610000Y-53251000D02*
X21360000Y-53251000D01*
X19280000Y-53251000D02*
X18030000Y-53251000D01*
X22588000Y-53291000D02*
X21360000Y-53291000D01*
X19280000Y-53291000D02*
X18052000Y-53291000D01*
X22567000Y-53331000D02*
X21360000Y-53331000D01*
X19280000Y-53331000D02*
X18073000Y-53331000D01*
X22544000Y-53371000D02*
X21360000Y-53371000D01*
X19280000Y-53371000D02*
X18096000Y-53371000D01*
X22520000Y-53411000D02*
X21360000Y-53411000D01*
X19280000Y-53411000D02*
X18120000Y-53411000D01*
X22495000Y-53451000D02*
X21360000Y-53451000D01*
X19280000Y-53451000D02*
X18145000Y-53451000D01*
X22469000Y-53491000D02*
X21360000Y-53491000D01*
X19280000Y-53491000D02*
X18171000Y-53491000D01*
X22442000Y-53531000D02*
X21360000Y-53531000D01*
X19280000Y-53531000D02*
X18198000Y-53531000D01*
X22415000Y-53571000D02*
X21360000Y-53571000D01*
X19280000Y-53571000D02*
X18225000Y-53571000D01*
X22385000Y-53611000D02*
X21360000Y-53611000D01*
X19280000Y-53611000D02*
X18255000Y-53611000D01*
X22355000Y-53651000D02*
X21360000Y-53651000D01*
X19280000Y-53651000D02*
X18285000Y-53651000D01*
X22324000Y-53691000D02*
X21360000Y-53691000D01*
X19280000Y-53691000D02*
X18316000Y-53691000D01*
X22291000Y-53731000D02*
X21360000Y-53731000D01*
X19280000Y-53731000D02*
X18349000Y-53731000D01*
X22257000Y-53771000D02*
X21360000Y-53771000D01*
X19280000Y-53771000D02*
X18383000Y-53771000D01*
X22221000Y-53811000D02*
X21360000Y-53811000D01*
X19280000Y-53811000D02*
X18419000Y-53811000D01*
X22184000Y-53851000D02*
X21360000Y-53851000D01*
X19280000Y-53851000D02*
X18456000Y-53851000D01*
X22146000Y-53891000D02*
X21360000Y-53891000D01*
X19280000Y-53891000D02*
X18494000Y-53891000D01*
X22105000Y-53931000D02*
X21360000Y-53931000D01*
X19280000Y-53931000D02*
X18535000Y-53931000D01*
X22063000Y-53971000D02*
X21360000Y-53971000D01*
X19280000Y-53971000D02*
X18577000Y-53971000D01*
X22019000Y-54011000D02*
X21360000Y-54011000D01*
X19280000Y-54011000D02*
X18621000Y-54011000D01*
X21973000Y-54051000D02*
X21360000Y-54051000D01*
X19280000Y-54051000D02*
X18667000Y-54051000D01*
X21925000Y-54091000D02*
X21360000Y-54091000D01*
X19280000Y-54091000D02*
X18715000Y-54091000D01*
X21874000Y-54131000D02*
X21360000Y-54131000D01*
X19280000Y-54131000D02*
X18766000Y-54131000D01*
X21820000Y-54171000D02*
X21360000Y-54171000D01*
X19280000Y-54171000D02*
X18820000Y-54171000D01*
X21763000Y-54211000D02*
X21360000Y-54211000D01*
X19280000Y-54211000D02*
X18877000Y-54211000D01*
X21703000Y-54251000D02*
X21360000Y-54251000D01*
X19280000Y-54251000D02*
X18937000Y-54251000D01*
X21639000Y-54291000D02*
X21360000Y-54291000D01*
X19280000Y-54291000D02*
X19001000Y-54291000D01*
X21571000Y-54331000D02*
X21360000Y-54331000D01*
X19280000Y-54331000D02*
X19069000Y-54331000D01*
X21498000Y-54371000D02*
X19142000Y-54371000D01*
X21418000Y-54411000D02*
X19222000Y-54411000D01*
X21331000Y-54451000D02*
X19309000Y-54451000D01*
X21235000Y-54491000D02*
X19405000Y-54491000D01*
X21125000Y-54531000D02*
X19515000Y-54531000D01*
X20997000Y-54571000D02*
X19643000Y-54571000D01*
X20838000Y-54611000D02*
X19802000Y-54611000D01*
X20604000Y-54651000D02*
X20036000Y-54651000D01*
X21795000Y-49245225D02*
X21795000Y-49745225D01*
X22045000Y-49495225D02*
X21545000Y-49495225D01*
X116920000Y-116820000D02*
G75*
G03X116920000Y-116820000I-2620000J0D01*
G01*
X116880000Y-116820000D02*
X111720000Y-116820000D01*
X116880000Y-116860000D02*
X111720000Y-116860000D01*
X116879000Y-116900000D02*
X111721000Y-116900000D01*
X116878000Y-116940000D02*
X111722000Y-116940000D01*
X116876000Y-116980000D02*
X111724000Y-116980000D01*
X116873000Y-117020000D02*
X111727000Y-117020000D01*
X116869000Y-117060000D02*
X115340000Y-117060000D01*
X113260000Y-117060000D02*
X111731000Y-117060000D01*
X116865000Y-117100000D02*
X115340000Y-117100000D01*
X113260000Y-117100000D02*
X111735000Y-117100000D01*
X116861000Y-117140000D02*
X115340000Y-117140000D01*
X113260000Y-117140000D02*
X111739000Y-117140000D01*
X116856000Y-117180000D02*
X115340000Y-117180000D01*
X113260000Y-117180000D02*
X111744000Y-117180000D01*
X116850000Y-117220000D02*
X115340000Y-117220000D01*
X113260000Y-117220000D02*
X111750000Y-117220000D01*
X116843000Y-117260000D02*
X115340000Y-117260000D01*
X113260000Y-117260000D02*
X111757000Y-117260000D01*
X116836000Y-117300000D02*
X115340000Y-117300000D01*
X113260000Y-117300000D02*
X111764000Y-117300000D01*
X116828000Y-117340000D02*
X115340000Y-117340000D01*
X113260000Y-117340000D02*
X111772000Y-117340000D01*
X116820000Y-117380000D02*
X115340000Y-117380000D01*
X113260000Y-117380000D02*
X111780000Y-117380000D01*
X116811000Y-117420000D02*
X115340000Y-117420000D01*
X113260000Y-117420000D02*
X111789000Y-117420000D01*
X116801000Y-117460000D02*
X115340000Y-117460000D01*
X113260000Y-117460000D02*
X111799000Y-117460000D01*
X116791000Y-117500000D02*
X115340000Y-117500000D01*
X113260000Y-117500000D02*
X111809000Y-117500000D01*
X116780000Y-117541000D02*
X115340000Y-117541000D01*
X113260000Y-117541000D02*
X111820000Y-117541000D01*
X116768000Y-117581000D02*
X115340000Y-117581000D01*
X113260000Y-117581000D02*
X111832000Y-117581000D01*
X116755000Y-117621000D02*
X115340000Y-117621000D01*
X113260000Y-117621000D02*
X111845000Y-117621000D01*
X116742000Y-117661000D02*
X115340000Y-117661000D01*
X113260000Y-117661000D02*
X111858000Y-117661000D01*
X116728000Y-117701000D02*
X115340000Y-117701000D01*
X113260000Y-117701000D02*
X111872000Y-117701000D01*
X116714000Y-117741000D02*
X115340000Y-117741000D01*
X113260000Y-117741000D02*
X111886000Y-117741000D01*
X116698000Y-117781000D02*
X115340000Y-117781000D01*
X113260000Y-117781000D02*
X111902000Y-117781000D01*
X116682000Y-117821000D02*
X115340000Y-117821000D01*
X113260000Y-117821000D02*
X111918000Y-117821000D01*
X116665000Y-117861000D02*
X115340000Y-117861000D01*
X113260000Y-117861000D02*
X111935000Y-117861000D01*
X116648000Y-117901000D02*
X115340000Y-117901000D01*
X113260000Y-117901000D02*
X111952000Y-117901000D01*
X116629000Y-117941000D02*
X115340000Y-117941000D01*
X113260000Y-117941000D02*
X111971000Y-117941000D01*
X116610000Y-117981000D02*
X115340000Y-117981000D01*
X113260000Y-117981000D02*
X111990000Y-117981000D01*
X116590000Y-118021000D02*
X115340000Y-118021000D01*
X113260000Y-118021000D02*
X112010000Y-118021000D01*
X116568000Y-118061000D02*
X115340000Y-118061000D01*
X113260000Y-118061000D02*
X112032000Y-118061000D01*
X116547000Y-118101000D02*
X115340000Y-118101000D01*
X113260000Y-118101000D02*
X112053000Y-118101000D01*
X116524000Y-118141000D02*
X115340000Y-118141000D01*
X113260000Y-118141000D02*
X112076000Y-118141000D01*
X116500000Y-118181000D02*
X115340000Y-118181000D01*
X113260000Y-118181000D02*
X112100000Y-118181000D01*
X116475000Y-118221000D02*
X115340000Y-118221000D01*
X113260000Y-118221000D02*
X112125000Y-118221000D01*
X116449000Y-118261000D02*
X115340000Y-118261000D01*
X113260000Y-118261000D02*
X112151000Y-118261000D01*
X116422000Y-118301000D02*
X115340000Y-118301000D01*
X113260000Y-118301000D02*
X112178000Y-118301000D01*
X116395000Y-118341000D02*
X115340000Y-118341000D01*
X113260000Y-118341000D02*
X112205000Y-118341000D01*
X116365000Y-118381000D02*
X115340000Y-118381000D01*
X113260000Y-118381000D02*
X112235000Y-118381000D01*
X116335000Y-118421000D02*
X115340000Y-118421000D01*
X113260000Y-118421000D02*
X112265000Y-118421000D01*
X116304000Y-118461000D02*
X115340000Y-118461000D01*
X113260000Y-118461000D02*
X112296000Y-118461000D01*
X116271000Y-118501000D02*
X115340000Y-118501000D01*
X113260000Y-118501000D02*
X112329000Y-118501000D01*
X116237000Y-118541000D02*
X115340000Y-118541000D01*
X113260000Y-118541000D02*
X112363000Y-118541000D01*
X116201000Y-118581000D02*
X115340000Y-118581000D01*
X113260000Y-118581000D02*
X112399000Y-118581000D01*
X116164000Y-118621000D02*
X115340000Y-118621000D01*
X113260000Y-118621000D02*
X112436000Y-118621000D01*
X116126000Y-118661000D02*
X115340000Y-118661000D01*
X113260000Y-118661000D02*
X112474000Y-118661000D01*
X116085000Y-118701000D02*
X115340000Y-118701000D01*
X113260000Y-118701000D02*
X112515000Y-118701000D01*
X116043000Y-118741000D02*
X115340000Y-118741000D01*
X113260000Y-118741000D02*
X112557000Y-118741000D01*
X115999000Y-118781000D02*
X115340000Y-118781000D01*
X113260000Y-118781000D02*
X112601000Y-118781000D01*
X115953000Y-118821000D02*
X115340000Y-118821000D01*
X113260000Y-118821000D02*
X112647000Y-118821000D01*
X115905000Y-118861000D02*
X115340000Y-118861000D01*
X113260000Y-118861000D02*
X112695000Y-118861000D01*
X115854000Y-118901000D02*
X115340000Y-118901000D01*
X113260000Y-118901000D02*
X112746000Y-118901000D01*
X115800000Y-118941000D02*
X115340000Y-118941000D01*
X113260000Y-118941000D02*
X112800000Y-118941000D01*
X115743000Y-118981000D02*
X115340000Y-118981000D01*
X113260000Y-118981000D02*
X112857000Y-118981000D01*
X115683000Y-119021000D02*
X115340000Y-119021000D01*
X113260000Y-119021000D02*
X112917000Y-119021000D01*
X115619000Y-119061000D02*
X115340000Y-119061000D01*
X113260000Y-119061000D02*
X112981000Y-119061000D01*
X115551000Y-119101000D02*
X115340000Y-119101000D01*
X113260000Y-119101000D02*
X113049000Y-119101000D01*
X115478000Y-119141000D02*
X113122000Y-119141000D01*
X115398000Y-119181000D02*
X113202000Y-119181000D01*
X115311000Y-119221000D02*
X113289000Y-119221000D01*
X115215000Y-119261000D02*
X113385000Y-119261000D01*
X115105000Y-119301000D02*
X113495000Y-119301000D01*
X114977000Y-119341000D02*
X113623000Y-119341000D01*
X114818000Y-119381000D02*
X113782000Y-119381000D01*
X114584000Y-119421000D02*
X114016000Y-119421000D01*
X115775000Y-114015225D02*
X115775000Y-114515225D01*
X116025000Y-114265225D02*
X115525000Y-114265225D01*
X66100000Y-113030000D02*
G75*
G03X66100000Y-113030000I-2620000J0D01*
G01*
X63480000Y-110450000D02*
X63480000Y-115610000D01*
X63520000Y-110450000D02*
X63520000Y-115610000D01*
X63560000Y-110451000D02*
X63560000Y-115609000D01*
X63600000Y-110452000D02*
X63600000Y-115608000D01*
X63640000Y-110454000D02*
X63640000Y-115606000D01*
X63680000Y-110457000D02*
X63680000Y-115603000D01*
X63720000Y-110461000D02*
X63720000Y-111990000D01*
X63720000Y-114070000D02*
X63720000Y-115599000D01*
X63760000Y-110465000D02*
X63760000Y-111990000D01*
X63760000Y-114070000D02*
X63760000Y-115595000D01*
X63800000Y-110469000D02*
X63800000Y-111990000D01*
X63800000Y-114070000D02*
X63800000Y-115591000D01*
X63840000Y-110474000D02*
X63840000Y-111990000D01*
X63840000Y-114070000D02*
X63840000Y-115586000D01*
X63880000Y-110480000D02*
X63880000Y-111990000D01*
X63880000Y-114070000D02*
X63880000Y-115580000D01*
X63920000Y-110487000D02*
X63920000Y-111990000D01*
X63920000Y-114070000D02*
X63920000Y-115573000D01*
X63960000Y-110494000D02*
X63960000Y-111990000D01*
X63960000Y-114070000D02*
X63960000Y-115566000D01*
X64000000Y-110502000D02*
X64000000Y-111990000D01*
X64000000Y-114070000D02*
X64000000Y-115558000D01*
X64040000Y-110510000D02*
X64040000Y-111990000D01*
X64040000Y-114070000D02*
X64040000Y-115550000D01*
X64080000Y-110519000D02*
X64080000Y-111990000D01*
X64080000Y-114070000D02*
X64080000Y-115541000D01*
X64120000Y-110529000D02*
X64120000Y-111990000D01*
X64120000Y-114070000D02*
X64120000Y-115531000D01*
X64160000Y-110539000D02*
X64160000Y-111990000D01*
X64160000Y-114070000D02*
X64160000Y-115521000D01*
X64201000Y-110550000D02*
X64201000Y-111990000D01*
X64201000Y-114070000D02*
X64201000Y-115510000D01*
X64241000Y-110562000D02*
X64241000Y-111990000D01*
X64241000Y-114070000D02*
X64241000Y-115498000D01*
X64281000Y-110575000D02*
X64281000Y-111990000D01*
X64281000Y-114070000D02*
X64281000Y-115485000D01*
X64321000Y-110588000D02*
X64321000Y-111990000D01*
X64321000Y-114070000D02*
X64321000Y-115472000D01*
X64361000Y-110602000D02*
X64361000Y-111990000D01*
X64361000Y-114070000D02*
X64361000Y-115458000D01*
X64401000Y-110616000D02*
X64401000Y-111990000D01*
X64401000Y-114070000D02*
X64401000Y-115444000D01*
X64441000Y-110632000D02*
X64441000Y-111990000D01*
X64441000Y-114070000D02*
X64441000Y-115428000D01*
X64481000Y-110648000D02*
X64481000Y-111990000D01*
X64481000Y-114070000D02*
X64481000Y-115412000D01*
X64521000Y-110665000D02*
X64521000Y-111990000D01*
X64521000Y-114070000D02*
X64521000Y-115395000D01*
X64561000Y-110682000D02*
X64561000Y-111990000D01*
X64561000Y-114070000D02*
X64561000Y-115378000D01*
X64601000Y-110701000D02*
X64601000Y-111990000D01*
X64601000Y-114070000D02*
X64601000Y-115359000D01*
X64641000Y-110720000D02*
X64641000Y-111990000D01*
X64641000Y-114070000D02*
X64641000Y-115340000D01*
X64681000Y-110740000D02*
X64681000Y-111990000D01*
X64681000Y-114070000D02*
X64681000Y-115320000D01*
X64721000Y-110762000D02*
X64721000Y-111990000D01*
X64721000Y-114070000D02*
X64721000Y-115298000D01*
X64761000Y-110783000D02*
X64761000Y-111990000D01*
X64761000Y-114070000D02*
X64761000Y-115277000D01*
X64801000Y-110806000D02*
X64801000Y-111990000D01*
X64801000Y-114070000D02*
X64801000Y-115254000D01*
X64841000Y-110830000D02*
X64841000Y-111990000D01*
X64841000Y-114070000D02*
X64841000Y-115230000D01*
X64881000Y-110855000D02*
X64881000Y-111990000D01*
X64881000Y-114070000D02*
X64881000Y-115205000D01*
X64921000Y-110881000D02*
X64921000Y-111990000D01*
X64921000Y-114070000D02*
X64921000Y-115179000D01*
X64961000Y-110908000D02*
X64961000Y-111990000D01*
X64961000Y-114070000D02*
X64961000Y-115152000D01*
X65001000Y-110935000D02*
X65001000Y-111990000D01*
X65001000Y-114070000D02*
X65001000Y-115125000D01*
X65041000Y-110965000D02*
X65041000Y-111990000D01*
X65041000Y-114070000D02*
X65041000Y-115095000D01*
X65081000Y-110995000D02*
X65081000Y-111990000D01*
X65081000Y-114070000D02*
X65081000Y-115065000D01*
X65121000Y-111026000D02*
X65121000Y-111990000D01*
X65121000Y-114070000D02*
X65121000Y-115034000D01*
X65161000Y-111059000D02*
X65161000Y-111990000D01*
X65161000Y-114070000D02*
X65161000Y-115001000D01*
X65201000Y-111093000D02*
X65201000Y-111990000D01*
X65201000Y-114070000D02*
X65201000Y-114967000D01*
X65241000Y-111129000D02*
X65241000Y-111990000D01*
X65241000Y-114070000D02*
X65241000Y-114931000D01*
X65281000Y-111166000D02*
X65281000Y-111990000D01*
X65281000Y-114070000D02*
X65281000Y-114894000D01*
X65321000Y-111204000D02*
X65321000Y-111990000D01*
X65321000Y-114070000D02*
X65321000Y-114856000D01*
X65361000Y-111245000D02*
X65361000Y-111990000D01*
X65361000Y-114070000D02*
X65361000Y-114815000D01*
X65401000Y-111287000D02*
X65401000Y-111990000D01*
X65401000Y-114070000D02*
X65401000Y-114773000D01*
X65441000Y-111331000D02*
X65441000Y-111990000D01*
X65441000Y-114070000D02*
X65441000Y-114729000D01*
X65481000Y-111377000D02*
X65481000Y-111990000D01*
X65481000Y-114070000D02*
X65481000Y-114683000D01*
X65521000Y-111425000D02*
X65521000Y-111990000D01*
X65521000Y-114070000D02*
X65521000Y-114635000D01*
X65561000Y-111476000D02*
X65561000Y-111990000D01*
X65561000Y-114070000D02*
X65561000Y-114584000D01*
X65601000Y-111530000D02*
X65601000Y-111990000D01*
X65601000Y-114070000D02*
X65601000Y-114530000D01*
X65641000Y-111587000D02*
X65641000Y-111990000D01*
X65641000Y-114070000D02*
X65641000Y-114473000D01*
X65681000Y-111647000D02*
X65681000Y-111990000D01*
X65681000Y-114070000D02*
X65681000Y-114413000D01*
X65721000Y-111711000D02*
X65721000Y-111990000D01*
X65721000Y-114070000D02*
X65721000Y-114349000D01*
X65761000Y-111779000D02*
X65761000Y-111990000D01*
X65761000Y-114070000D02*
X65761000Y-114281000D01*
X65801000Y-111852000D02*
X65801000Y-114208000D01*
X65841000Y-111932000D02*
X65841000Y-114128000D01*
X65881000Y-112019000D02*
X65881000Y-114041000D01*
X65921000Y-112115000D02*
X65921000Y-113945000D01*
X65961000Y-112225000D02*
X65961000Y-113835000D01*
X66001000Y-112353000D02*
X66001000Y-113707000D01*
X66041000Y-112512000D02*
X66041000Y-113548000D01*
X66081000Y-112746000D02*
X66081000Y-113314000D01*
X60675225Y-111555000D02*
X61175225Y-111555000D01*
X60925225Y-111305000D02*
X60925225Y-111805000D01*
X20400000Y-17760000D02*
G75*
G03X20400000Y-17760000I-2620000J0D01*
G01*
X20360000Y-17760000D02*
X15200000Y-17760000D01*
X20360000Y-17800000D02*
X15200000Y-17800000D01*
X20359000Y-17840000D02*
X15201000Y-17840000D01*
X20358000Y-17880000D02*
X15202000Y-17880000D01*
X20356000Y-17920000D02*
X15204000Y-17920000D01*
X20353000Y-17960000D02*
X15207000Y-17960000D01*
X20349000Y-18000000D02*
X18820000Y-18000000D01*
X16740000Y-18000000D02*
X15211000Y-18000000D01*
X20345000Y-18040000D02*
X18820000Y-18040000D01*
X16740000Y-18040000D02*
X15215000Y-18040000D01*
X20341000Y-18080000D02*
X18820000Y-18080000D01*
X16740000Y-18080000D02*
X15219000Y-18080000D01*
X20336000Y-18120000D02*
X18820000Y-18120000D01*
X16740000Y-18120000D02*
X15224000Y-18120000D01*
X20330000Y-18160000D02*
X18820000Y-18160000D01*
X16740000Y-18160000D02*
X15230000Y-18160000D01*
X20323000Y-18200000D02*
X18820000Y-18200000D01*
X16740000Y-18200000D02*
X15237000Y-18200000D01*
X20316000Y-18240000D02*
X18820000Y-18240000D01*
X16740000Y-18240000D02*
X15244000Y-18240000D01*
X20308000Y-18280000D02*
X18820000Y-18280000D01*
X16740000Y-18280000D02*
X15252000Y-18280000D01*
X20300000Y-18320000D02*
X18820000Y-18320000D01*
X16740000Y-18320000D02*
X15260000Y-18320000D01*
X20291000Y-18360000D02*
X18820000Y-18360000D01*
X16740000Y-18360000D02*
X15269000Y-18360000D01*
X20281000Y-18400000D02*
X18820000Y-18400000D01*
X16740000Y-18400000D02*
X15279000Y-18400000D01*
X20271000Y-18440000D02*
X18820000Y-18440000D01*
X16740000Y-18440000D02*
X15289000Y-18440000D01*
X20260000Y-18481000D02*
X18820000Y-18481000D01*
X16740000Y-18481000D02*
X15300000Y-18481000D01*
X20248000Y-18521000D02*
X18820000Y-18521000D01*
X16740000Y-18521000D02*
X15312000Y-18521000D01*
X20235000Y-18561000D02*
X18820000Y-18561000D01*
X16740000Y-18561000D02*
X15325000Y-18561000D01*
X20222000Y-18601000D02*
X18820000Y-18601000D01*
X16740000Y-18601000D02*
X15338000Y-18601000D01*
X20208000Y-18641000D02*
X18820000Y-18641000D01*
X16740000Y-18641000D02*
X15352000Y-18641000D01*
X20194000Y-18681000D02*
X18820000Y-18681000D01*
X16740000Y-18681000D02*
X15366000Y-18681000D01*
X20178000Y-18721000D02*
X18820000Y-18721000D01*
X16740000Y-18721000D02*
X15382000Y-18721000D01*
X20162000Y-18761000D02*
X18820000Y-18761000D01*
X16740000Y-18761000D02*
X15398000Y-18761000D01*
X20145000Y-18801000D02*
X18820000Y-18801000D01*
X16740000Y-18801000D02*
X15415000Y-18801000D01*
X20128000Y-18841000D02*
X18820000Y-18841000D01*
X16740000Y-18841000D02*
X15432000Y-18841000D01*
X20109000Y-18881000D02*
X18820000Y-18881000D01*
X16740000Y-18881000D02*
X15451000Y-18881000D01*
X20090000Y-18921000D02*
X18820000Y-18921000D01*
X16740000Y-18921000D02*
X15470000Y-18921000D01*
X20070000Y-18961000D02*
X18820000Y-18961000D01*
X16740000Y-18961000D02*
X15490000Y-18961000D01*
X20048000Y-19001000D02*
X18820000Y-19001000D01*
X16740000Y-19001000D02*
X15512000Y-19001000D01*
X20027000Y-19041000D02*
X18820000Y-19041000D01*
X16740000Y-19041000D02*
X15533000Y-19041000D01*
X20004000Y-19081000D02*
X18820000Y-19081000D01*
X16740000Y-19081000D02*
X15556000Y-19081000D01*
X19980000Y-19121000D02*
X18820000Y-19121000D01*
X16740000Y-19121000D02*
X15580000Y-19121000D01*
X19955000Y-19161000D02*
X18820000Y-19161000D01*
X16740000Y-19161000D02*
X15605000Y-19161000D01*
X19929000Y-19201000D02*
X18820000Y-19201000D01*
X16740000Y-19201000D02*
X15631000Y-19201000D01*
X19902000Y-19241000D02*
X18820000Y-19241000D01*
X16740000Y-19241000D02*
X15658000Y-19241000D01*
X19875000Y-19281000D02*
X18820000Y-19281000D01*
X16740000Y-19281000D02*
X15685000Y-19281000D01*
X19845000Y-19321000D02*
X18820000Y-19321000D01*
X16740000Y-19321000D02*
X15715000Y-19321000D01*
X19815000Y-19361000D02*
X18820000Y-19361000D01*
X16740000Y-19361000D02*
X15745000Y-19361000D01*
X19784000Y-19401000D02*
X18820000Y-19401000D01*
X16740000Y-19401000D02*
X15776000Y-19401000D01*
X19751000Y-19441000D02*
X18820000Y-19441000D01*
X16740000Y-19441000D02*
X15809000Y-19441000D01*
X19717000Y-19481000D02*
X18820000Y-19481000D01*
X16740000Y-19481000D02*
X15843000Y-19481000D01*
X19681000Y-19521000D02*
X18820000Y-19521000D01*
X16740000Y-19521000D02*
X15879000Y-19521000D01*
X19644000Y-19561000D02*
X18820000Y-19561000D01*
X16740000Y-19561000D02*
X15916000Y-19561000D01*
X19606000Y-19601000D02*
X18820000Y-19601000D01*
X16740000Y-19601000D02*
X15954000Y-19601000D01*
X19565000Y-19641000D02*
X18820000Y-19641000D01*
X16740000Y-19641000D02*
X15995000Y-19641000D01*
X19523000Y-19681000D02*
X18820000Y-19681000D01*
X16740000Y-19681000D02*
X16037000Y-19681000D01*
X19479000Y-19721000D02*
X18820000Y-19721000D01*
X16740000Y-19721000D02*
X16081000Y-19721000D01*
X19433000Y-19761000D02*
X18820000Y-19761000D01*
X16740000Y-19761000D02*
X16127000Y-19761000D01*
X19385000Y-19801000D02*
X18820000Y-19801000D01*
X16740000Y-19801000D02*
X16175000Y-19801000D01*
X19334000Y-19841000D02*
X18820000Y-19841000D01*
X16740000Y-19841000D02*
X16226000Y-19841000D01*
X19280000Y-19881000D02*
X18820000Y-19881000D01*
X16740000Y-19881000D02*
X16280000Y-19881000D01*
X19223000Y-19921000D02*
X18820000Y-19921000D01*
X16740000Y-19921000D02*
X16337000Y-19921000D01*
X19163000Y-19961000D02*
X18820000Y-19961000D01*
X16740000Y-19961000D02*
X16397000Y-19961000D01*
X19099000Y-20001000D02*
X18820000Y-20001000D01*
X16740000Y-20001000D02*
X16461000Y-20001000D01*
X19031000Y-20041000D02*
X18820000Y-20041000D01*
X16740000Y-20041000D02*
X16529000Y-20041000D01*
X18958000Y-20081000D02*
X16602000Y-20081000D01*
X18878000Y-20121000D02*
X16682000Y-20121000D01*
X18791000Y-20161000D02*
X16769000Y-20161000D01*
X18695000Y-20201000D02*
X16865000Y-20201000D01*
X18585000Y-20241000D02*
X16975000Y-20241000D01*
X18457000Y-20281000D02*
X17103000Y-20281000D01*
X18298000Y-20321000D02*
X17262000Y-20321000D01*
X18064000Y-20361000D02*
X17496000Y-20361000D01*
X19255000Y-14955225D02*
X19255000Y-15455225D01*
X19505000Y-15205225D02*
X19005000Y-15205225D01*
X16055000Y-30514775D02*
X16555000Y-30514775D01*
X16305000Y-30764775D02*
X16305000Y-30264775D01*
X17496000Y-25359000D02*
X18064000Y-25359000D01*
X17262000Y-25399000D02*
X18298000Y-25399000D01*
X17103000Y-25439000D02*
X18457000Y-25439000D01*
X16975000Y-25479000D02*
X18585000Y-25479000D01*
X16865000Y-25519000D02*
X18695000Y-25519000D01*
X16769000Y-25559000D02*
X18791000Y-25559000D01*
X16682000Y-25599000D02*
X18878000Y-25599000D01*
X16602000Y-25639000D02*
X18958000Y-25639000D01*
X18820000Y-25679000D02*
X19031000Y-25679000D01*
X16529000Y-25679000D02*
X16740000Y-25679000D01*
X18820000Y-25719000D02*
X19099000Y-25719000D01*
X16461000Y-25719000D02*
X16740000Y-25719000D01*
X18820000Y-25759000D02*
X19163000Y-25759000D01*
X16397000Y-25759000D02*
X16740000Y-25759000D01*
X18820000Y-25799000D02*
X19223000Y-25799000D01*
X16337000Y-25799000D02*
X16740000Y-25799000D01*
X18820000Y-25839000D02*
X19280000Y-25839000D01*
X16280000Y-25839000D02*
X16740000Y-25839000D01*
X18820000Y-25879000D02*
X19334000Y-25879000D01*
X16226000Y-25879000D02*
X16740000Y-25879000D01*
X18820000Y-25919000D02*
X19385000Y-25919000D01*
X16175000Y-25919000D02*
X16740000Y-25919000D01*
X18820000Y-25959000D02*
X19433000Y-25959000D01*
X16127000Y-25959000D02*
X16740000Y-25959000D01*
X18820000Y-25999000D02*
X19479000Y-25999000D01*
X16081000Y-25999000D02*
X16740000Y-25999000D01*
X18820000Y-26039000D02*
X19523000Y-26039000D01*
X16037000Y-26039000D02*
X16740000Y-26039000D01*
X18820000Y-26079000D02*
X19565000Y-26079000D01*
X15995000Y-26079000D02*
X16740000Y-26079000D01*
X18820000Y-26119000D02*
X19606000Y-26119000D01*
X15954000Y-26119000D02*
X16740000Y-26119000D01*
X18820000Y-26159000D02*
X19644000Y-26159000D01*
X15916000Y-26159000D02*
X16740000Y-26159000D01*
X18820000Y-26199000D02*
X19681000Y-26199000D01*
X15879000Y-26199000D02*
X16740000Y-26199000D01*
X18820000Y-26239000D02*
X19717000Y-26239000D01*
X15843000Y-26239000D02*
X16740000Y-26239000D01*
X18820000Y-26279000D02*
X19751000Y-26279000D01*
X15809000Y-26279000D02*
X16740000Y-26279000D01*
X18820000Y-26319000D02*
X19784000Y-26319000D01*
X15776000Y-26319000D02*
X16740000Y-26319000D01*
X18820000Y-26359000D02*
X19815000Y-26359000D01*
X15745000Y-26359000D02*
X16740000Y-26359000D01*
X18820000Y-26399000D02*
X19845000Y-26399000D01*
X15715000Y-26399000D02*
X16740000Y-26399000D01*
X18820000Y-26439000D02*
X19875000Y-26439000D01*
X15685000Y-26439000D02*
X16740000Y-26439000D01*
X18820000Y-26479000D02*
X19902000Y-26479000D01*
X15658000Y-26479000D02*
X16740000Y-26479000D01*
X18820000Y-26519000D02*
X19929000Y-26519000D01*
X15631000Y-26519000D02*
X16740000Y-26519000D01*
X18820000Y-26559000D02*
X19955000Y-26559000D01*
X15605000Y-26559000D02*
X16740000Y-26559000D01*
X18820000Y-26599000D02*
X19980000Y-26599000D01*
X15580000Y-26599000D02*
X16740000Y-26599000D01*
X18820000Y-26639000D02*
X20004000Y-26639000D01*
X15556000Y-26639000D02*
X16740000Y-26639000D01*
X18820000Y-26679000D02*
X20027000Y-26679000D01*
X15533000Y-26679000D02*
X16740000Y-26679000D01*
X18820000Y-26719000D02*
X20048000Y-26719000D01*
X15512000Y-26719000D02*
X16740000Y-26719000D01*
X18820000Y-26759000D02*
X20070000Y-26759000D01*
X15490000Y-26759000D02*
X16740000Y-26759000D01*
X18820000Y-26799000D02*
X20090000Y-26799000D01*
X15470000Y-26799000D02*
X16740000Y-26799000D01*
X18820000Y-26839000D02*
X20109000Y-26839000D01*
X15451000Y-26839000D02*
X16740000Y-26839000D01*
X18820000Y-26879000D02*
X20128000Y-26879000D01*
X15432000Y-26879000D02*
X16740000Y-26879000D01*
X18820000Y-26919000D02*
X20145000Y-26919000D01*
X15415000Y-26919000D02*
X16740000Y-26919000D01*
X18820000Y-26959000D02*
X20162000Y-26959000D01*
X15398000Y-26959000D02*
X16740000Y-26959000D01*
X18820000Y-26999000D02*
X20178000Y-26999000D01*
X15382000Y-26999000D02*
X16740000Y-26999000D01*
X18820000Y-27039000D02*
X20194000Y-27039000D01*
X15366000Y-27039000D02*
X16740000Y-27039000D01*
X18820000Y-27079000D02*
X20208000Y-27079000D01*
X15352000Y-27079000D02*
X16740000Y-27079000D01*
X18820000Y-27119000D02*
X20222000Y-27119000D01*
X15338000Y-27119000D02*
X16740000Y-27119000D01*
X18820000Y-27159000D02*
X20235000Y-27159000D01*
X15325000Y-27159000D02*
X16740000Y-27159000D01*
X18820000Y-27199000D02*
X20248000Y-27199000D01*
X15312000Y-27199000D02*
X16740000Y-27199000D01*
X18820000Y-27239000D02*
X20260000Y-27239000D01*
X15300000Y-27239000D02*
X16740000Y-27239000D01*
X18820000Y-27280000D02*
X20271000Y-27280000D01*
X15289000Y-27280000D02*
X16740000Y-27280000D01*
X18820000Y-27320000D02*
X20281000Y-27320000D01*
X15279000Y-27320000D02*
X16740000Y-27320000D01*
X18820000Y-27360000D02*
X20291000Y-27360000D01*
X15269000Y-27360000D02*
X16740000Y-27360000D01*
X18820000Y-27400000D02*
X20300000Y-27400000D01*
X15260000Y-27400000D02*
X16740000Y-27400000D01*
X18820000Y-27440000D02*
X20308000Y-27440000D01*
X15252000Y-27440000D02*
X16740000Y-27440000D01*
X18820000Y-27480000D02*
X20316000Y-27480000D01*
X15244000Y-27480000D02*
X16740000Y-27480000D01*
X18820000Y-27520000D02*
X20323000Y-27520000D01*
X15237000Y-27520000D02*
X16740000Y-27520000D01*
X18820000Y-27560000D02*
X20330000Y-27560000D01*
X15230000Y-27560000D02*
X16740000Y-27560000D01*
X18820000Y-27600000D02*
X20336000Y-27600000D01*
X15224000Y-27600000D02*
X16740000Y-27600000D01*
X18820000Y-27640000D02*
X20341000Y-27640000D01*
X15219000Y-27640000D02*
X16740000Y-27640000D01*
X18820000Y-27680000D02*
X20345000Y-27680000D01*
X15215000Y-27680000D02*
X16740000Y-27680000D01*
X18820000Y-27720000D02*
X20349000Y-27720000D01*
X15211000Y-27720000D02*
X16740000Y-27720000D01*
X15207000Y-27760000D02*
X20353000Y-27760000D01*
X15204000Y-27800000D02*
X20356000Y-27800000D01*
X15202000Y-27840000D02*
X20358000Y-27840000D01*
X15201000Y-27880000D02*
X20359000Y-27880000D01*
X15200000Y-27920000D02*
X20360000Y-27920000D01*
X15200000Y-27960000D02*
X20360000Y-27960000D01*
X20400000Y-27960000D02*
G75*
G03X20400000Y-27960000I-2620000J0D01*
G01*
X22045000Y-41875225D02*
X21545000Y-41875225D01*
X21795000Y-41625225D02*
X21795000Y-42125225D01*
X20604000Y-47031000D02*
X20036000Y-47031000D01*
X20838000Y-46991000D02*
X19802000Y-46991000D01*
X20997000Y-46951000D02*
X19643000Y-46951000D01*
X21125000Y-46911000D02*
X19515000Y-46911000D01*
X21235000Y-46871000D02*
X19405000Y-46871000D01*
X21331000Y-46831000D02*
X19309000Y-46831000D01*
X21418000Y-46791000D02*
X19222000Y-46791000D01*
X21498000Y-46751000D02*
X19142000Y-46751000D01*
X19280000Y-46711000D02*
X19069000Y-46711000D01*
X21571000Y-46711000D02*
X21360000Y-46711000D01*
X19280000Y-46671000D02*
X19001000Y-46671000D01*
X21639000Y-46671000D02*
X21360000Y-46671000D01*
X19280000Y-46631000D02*
X18937000Y-46631000D01*
X21703000Y-46631000D02*
X21360000Y-46631000D01*
X19280000Y-46591000D02*
X18877000Y-46591000D01*
X21763000Y-46591000D02*
X21360000Y-46591000D01*
X19280000Y-46551000D02*
X18820000Y-46551000D01*
X21820000Y-46551000D02*
X21360000Y-46551000D01*
X19280000Y-46511000D02*
X18766000Y-46511000D01*
X21874000Y-46511000D02*
X21360000Y-46511000D01*
X19280000Y-46471000D02*
X18715000Y-46471000D01*
X21925000Y-46471000D02*
X21360000Y-46471000D01*
X19280000Y-46431000D02*
X18667000Y-46431000D01*
X21973000Y-46431000D02*
X21360000Y-46431000D01*
X19280000Y-46391000D02*
X18621000Y-46391000D01*
X22019000Y-46391000D02*
X21360000Y-46391000D01*
X19280000Y-46351000D02*
X18577000Y-46351000D01*
X22063000Y-46351000D02*
X21360000Y-46351000D01*
X19280000Y-46311000D02*
X18535000Y-46311000D01*
X22105000Y-46311000D02*
X21360000Y-46311000D01*
X19280000Y-46271000D02*
X18494000Y-46271000D01*
X22146000Y-46271000D02*
X21360000Y-46271000D01*
X19280000Y-46231000D02*
X18456000Y-46231000D01*
X22184000Y-46231000D02*
X21360000Y-46231000D01*
X19280000Y-46191000D02*
X18419000Y-46191000D01*
X22221000Y-46191000D02*
X21360000Y-46191000D01*
X19280000Y-46151000D02*
X18383000Y-46151000D01*
X22257000Y-46151000D02*
X21360000Y-46151000D01*
X19280000Y-46111000D02*
X18349000Y-46111000D01*
X22291000Y-46111000D02*
X21360000Y-46111000D01*
X19280000Y-46071000D02*
X18316000Y-46071000D01*
X22324000Y-46071000D02*
X21360000Y-46071000D01*
X19280000Y-46031000D02*
X18285000Y-46031000D01*
X22355000Y-46031000D02*
X21360000Y-46031000D01*
X19280000Y-45991000D02*
X18255000Y-45991000D01*
X22385000Y-45991000D02*
X21360000Y-45991000D01*
X19280000Y-45951000D02*
X18225000Y-45951000D01*
X22415000Y-45951000D02*
X21360000Y-45951000D01*
X19280000Y-45911000D02*
X18198000Y-45911000D01*
X22442000Y-45911000D02*
X21360000Y-45911000D01*
X19280000Y-45871000D02*
X18171000Y-45871000D01*
X22469000Y-45871000D02*
X21360000Y-45871000D01*
X19280000Y-45831000D02*
X18145000Y-45831000D01*
X22495000Y-45831000D02*
X21360000Y-45831000D01*
X19280000Y-45791000D02*
X18120000Y-45791000D01*
X22520000Y-45791000D02*
X21360000Y-45791000D01*
X19280000Y-45751000D02*
X18096000Y-45751000D01*
X22544000Y-45751000D02*
X21360000Y-45751000D01*
X19280000Y-45711000D02*
X18073000Y-45711000D01*
X22567000Y-45711000D02*
X21360000Y-45711000D01*
X19280000Y-45671000D02*
X18052000Y-45671000D01*
X22588000Y-45671000D02*
X21360000Y-45671000D01*
X19280000Y-45631000D02*
X18030000Y-45631000D01*
X22610000Y-45631000D02*
X21360000Y-45631000D01*
X19280000Y-45591000D02*
X18010000Y-45591000D01*
X22630000Y-45591000D02*
X21360000Y-45591000D01*
X19280000Y-45551000D02*
X17991000Y-45551000D01*
X22649000Y-45551000D02*
X21360000Y-45551000D01*
X19280000Y-45511000D02*
X17972000Y-45511000D01*
X22668000Y-45511000D02*
X21360000Y-45511000D01*
X19280000Y-45471000D02*
X17955000Y-45471000D01*
X22685000Y-45471000D02*
X21360000Y-45471000D01*
X19280000Y-45431000D02*
X17938000Y-45431000D01*
X22702000Y-45431000D02*
X21360000Y-45431000D01*
X19280000Y-45391000D02*
X17922000Y-45391000D01*
X22718000Y-45391000D02*
X21360000Y-45391000D01*
X19280000Y-45351000D02*
X17906000Y-45351000D01*
X22734000Y-45351000D02*
X21360000Y-45351000D01*
X19280000Y-45311000D02*
X17892000Y-45311000D01*
X22748000Y-45311000D02*
X21360000Y-45311000D01*
X19280000Y-45271000D02*
X17878000Y-45271000D01*
X22762000Y-45271000D02*
X21360000Y-45271000D01*
X19280000Y-45231000D02*
X17865000Y-45231000D01*
X22775000Y-45231000D02*
X21360000Y-45231000D01*
X19280000Y-45191000D02*
X17852000Y-45191000D01*
X22788000Y-45191000D02*
X21360000Y-45191000D01*
X19280000Y-45151000D02*
X17840000Y-45151000D01*
X22800000Y-45151000D02*
X21360000Y-45151000D01*
X19280000Y-45110000D02*
X17829000Y-45110000D01*
X22811000Y-45110000D02*
X21360000Y-45110000D01*
X19280000Y-45070000D02*
X17819000Y-45070000D01*
X22821000Y-45070000D02*
X21360000Y-45070000D01*
X19280000Y-45030000D02*
X17809000Y-45030000D01*
X22831000Y-45030000D02*
X21360000Y-45030000D01*
X19280000Y-44990000D02*
X17800000Y-44990000D01*
X22840000Y-44990000D02*
X21360000Y-44990000D01*
X19280000Y-44950000D02*
X17792000Y-44950000D01*
X22848000Y-44950000D02*
X21360000Y-44950000D01*
X19280000Y-44910000D02*
X17784000Y-44910000D01*
X22856000Y-44910000D02*
X21360000Y-44910000D01*
X19280000Y-44870000D02*
X17777000Y-44870000D01*
X22863000Y-44870000D02*
X21360000Y-44870000D01*
X19280000Y-44830000D02*
X17770000Y-44830000D01*
X22870000Y-44830000D02*
X21360000Y-44830000D01*
X19280000Y-44790000D02*
X17764000Y-44790000D01*
X22876000Y-44790000D02*
X21360000Y-44790000D01*
X19280000Y-44750000D02*
X17759000Y-44750000D01*
X22881000Y-44750000D02*
X21360000Y-44750000D01*
X19280000Y-44710000D02*
X17755000Y-44710000D01*
X22885000Y-44710000D02*
X21360000Y-44710000D01*
X19280000Y-44670000D02*
X17751000Y-44670000D01*
X22889000Y-44670000D02*
X21360000Y-44670000D01*
X22893000Y-44630000D02*
X17747000Y-44630000D01*
X22896000Y-44590000D02*
X17744000Y-44590000D01*
X22898000Y-44550000D02*
X17742000Y-44550000D01*
X22899000Y-44510000D02*
X17741000Y-44510000D01*
X22900000Y-44470000D02*
X17740000Y-44470000D01*
X22900000Y-44430000D02*
X17740000Y-44430000D01*
X22940000Y-44430000D02*
G75*
G03X22940000Y-44430000I-2620000J0D01*
G01*
X154270000Y-34720000D02*
X158120000Y-34720000D01*
X153887369Y-34142045D02*
G75*
G03X154270000Y-34720000I2322631J1122045D01*
G01*
X153862225Y-31925214D02*
G75*
G02X155120000Y-30670000I2347775J-1094786D01*
G01*
X158546463Y-31930487D02*
G75*
G03X157270000Y-30670000I-2336463J-1089513D01*
G01*
X158512383Y-34132264D02*
G75*
G02X158120000Y-34720000I-2302383J1112264D01*
G01*
X136922383Y-32862264D02*
G75*
G02X136530000Y-33450000I-2302383J1112264D01*
G01*
X136956463Y-30660487D02*
G75*
G03X135680000Y-29400000I-2336463J-1089513D01*
G01*
X132272225Y-30655214D02*
G75*
G02X133530000Y-29400000I2347775J-1094786D01*
G01*
X132297369Y-32872045D02*
G75*
G03X132680000Y-33450000I2322631J1122045D01*
G01*
X132680000Y-33450000D02*
X136530000Y-33450000D01*
X79170000Y-38770000D02*
X79170000Y-34920000D01*
X78592045Y-39152631D02*
G75*
G03X79170000Y-38770000I-1122045J2322631D01*
G01*
X76375214Y-39177775D02*
G75*
G02X75120000Y-37920000I1094786J2347775D01*
G01*
X76380487Y-34493537D02*
G75*
G03X75120000Y-35770000I1089513J-2336463D01*
G01*
X78582264Y-34527617D02*
G75*
G02X79170000Y-34920000I-1112264J-2302383D01*
G01*
D11*
X124502380Y-116800000D02*
X124502380Y-116609523D01*
X124550000Y-116514285D01*
X124645238Y-116419047D01*
X124835714Y-116371428D01*
X125169047Y-116371428D01*
X125359523Y-116419047D01*
X125454761Y-116514285D01*
X125502380Y-116609523D01*
X125502380Y-116800000D01*
X125454761Y-116895238D01*
X125359523Y-116990476D01*
X125169047Y-117038095D01*
X124835714Y-117038095D01*
X124645238Y-116990476D01*
X124550000Y-116895238D01*
X124502380Y-116800000D01*
X124835714Y-115514285D02*
X125502380Y-115514285D01*
X124835714Y-115942857D02*
X125359523Y-115942857D01*
X125454761Y-115895238D01*
X125502380Y-115800000D01*
X125502380Y-115657142D01*
X125454761Y-115561904D01*
X125407142Y-115514285D01*
X124835714Y-115180952D02*
X124835714Y-114800000D01*
X124502380Y-115038095D02*
X125359523Y-115038095D01*
X125454761Y-114990476D01*
X125502380Y-114895238D01*
X125502380Y-114800000D01*
X124835714Y-114466666D02*
X125835714Y-114466666D01*
X124883333Y-114466666D02*
X124835714Y-114371428D01*
X124835714Y-114180952D01*
X124883333Y-114085714D01*
X124930952Y-114038095D01*
X125026190Y-113990476D01*
X125311904Y-113990476D01*
X125407142Y-114038095D01*
X125454761Y-114085714D01*
X125502380Y-114180952D01*
X125502380Y-114371428D01*
X125454761Y-114466666D01*
X124835714Y-113133333D02*
X125502380Y-113133333D01*
X124835714Y-113561904D02*
X125359523Y-113561904D01*
X125454761Y-113514285D01*
X125502380Y-113419047D01*
X125502380Y-113276190D01*
X125454761Y-113180952D01*
X125407142Y-113133333D01*
X124835714Y-112800000D02*
X124835714Y-112419047D01*
X124502380Y-112657142D02*
X125359523Y-112657142D01*
X125454761Y-112609523D01*
X125502380Y-112514285D01*
X125502380Y-112419047D01*
X124597619Y-112133333D02*
X124550000Y-112085714D01*
X124502380Y-111990476D01*
X124502380Y-111752380D01*
X124550000Y-111657142D01*
X124597619Y-111609523D01*
X124692857Y-111561904D01*
X124788095Y-111561904D01*
X124930952Y-111609523D01*
X125502380Y-112180952D01*
X125502380Y-111561904D01*
X175032380Y-86621428D02*
X174365714Y-86621428D01*
X174556190Y-86621428D02*
X174460952Y-86573809D01*
X174413333Y-86526190D01*
X174365714Y-86430952D01*
X174365714Y-86335714D01*
X175032380Y-85573809D02*
X174032380Y-85573809D01*
X174984761Y-85573809D02*
X175032380Y-85669047D01*
X175032380Y-85859523D01*
X174984761Y-85954761D01*
X174937142Y-86002380D01*
X174841904Y-86050000D01*
X174556190Y-86050000D01*
X174460952Y-86002380D01*
X174413333Y-85954761D01*
X174365714Y-85859523D01*
X174365714Y-85669047D01*
X174413333Y-85573809D01*
X174365714Y-85240476D02*
X174365714Y-84859523D01*
X174032380Y-85097619D02*
X174889523Y-85097619D01*
X174984761Y-85050000D01*
X175032380Y-84954761D01*
X175032380Y-84859523D01*
X175127619Y-84764285D02*
X175127619Y-84002380D01*
X175032380Y-83764285D02*
X174365714Y-83764285D01*
X174460952Y-83764285D02*
X174413333Y-83716666D01*
X174365714Y-83621428D01*
X174365714Y-83478571D01*
X174413333Y-83383333D01*
X174508571Y-83335714D01*
X175032380Y-83335714D01*
X174508571Y-83335714D02*
X174413333Y-83288095D01*
X174365714Y-83192857D01*
X174365714Y-83050000D01*
X174413333Y-82954761D01*
X174508571Y-82907142D01*
X175032380Y-82907142D01*
X174365714Y-82526190D02*
X175032380Y-82288095D01*
X174365714Y-82050000D02*
X175032380Y-82288095D01*
X175270476Y-82383333D01*
X175318095Y-82430952D01*
X175365714Y-82526190D01*
X175032380Y-81240476D02*
X174032380Y-81240476D01*
X174984761Y-81240476D02*
X175032380Y-81335714D01*
X175032380Y-81526190D01*
X174984761Y-81621428D01*
X174937142Y-81669047D01*
X174841904Y-81716666D01*
X174556190Y-81716666D01*
X174460952Y-81669047D01*
X174413333Y-81621428D01*
X174365714Y-81526190D01*
X174365714Y-81335714D01*
X174413333Y-81240476D01*
X175032380Y-80335714D02*
X174508571Y-80335714D01*
X174413333Y-80383333D01*
X174365714Y-80478571D01*
X174365714Y-80669047D01*
X174413333Y-80764285D01*
X174984761Y-80335714D02*
X175032380Y-80430952D01*
X175032380Y-80669047D01*
X174984761Y-80764285D01*
X174889523Y-80811904D01*
X174794285Y-80811904D01*
X174699047Y-80764285D01*
X174651428Y-80669047D01*
X174651428Y-80430952D01*
X174603809Y-80335714D01*
X174365714Y-79430952D02*
X175365714Y-79430952D01*
X174984761Y-79430952D02*
X175032380Y-79526190D01*
X175032380Y-79716666D01*
X174984761Y-79811904D01*
X174937142Y-79859523D01*
X174841904Y-79907142D01*
X174556190Y-79907142D01*
X174460952Y-79859523D01*
X174413333Y-79811904D01*
X174365714Y-79716666D01*
X174365714Y-79526190D01*
X174413333Y-79430952D01*
X175032380Y-78430952D02*
X175032380Y-79002380D01*
X175032380Y-78716666D02*
X174032380Y-78716666D01*
X174175238Y-78811904D01*
X174270476Y-78907142D01*
X174318095Y-79002380D01*
X30792380Y-19771904D02*
X31601904Y-19771904D01*
X31697142Y-19724285D01*
X31744761Y-19676666D01*
X31792380Y-19581428D01*
X31792380Y-19390952D01*
X31744761Y-19295714D01*
X31697142Y-19248095D01*
X31601904Y-19200476D01*
X30792380Y-19200476D01*
X31792380Y-18200476D02*
X31792380Y-18771904D01*
X31792380Y-18486190D02*
X30792380Y-18486190D01*
X30935238Y-18581428D01*
X31030476Y-18676666D01*
X31078095Y-18771904D01*
X30792380Y-46441904D02*
X31601904Y-46441904D01*
X31697142Y-46394285D01*
X31744761Y-46346666D01*
X31792380Y-46251428D01*
X31792380Y-46060952D01*
X31744761Y-45965714D01*
X31697142Y-45918095D01*
X31601904Y-45870476D01*
X30792380Y-45870476D01*
X30792380Y-44918095D02*
X30792380Y-45394285D01*
X31268571Y-45441904D01*
X31220952Y-45394285D01*
X31173333Y-45299047D01*
X31173333Y-45060952D01*
X31220952Y-44965714D01*
X31268571Y-44918095D01*
X31363809Y-44870476D01*
X31601904Y-44870476D01*
X31697142Y-44918095D01*
X31744761Y-44965714D01*
X31792380Y-45060952D01*
X31792380Y-45299047D01*
X31744761Y-45394285D01*
X31697142Y-45441904D01*
X163072380Y-80771904D02*
X163881904Y-80771904D01*
X163977142Y-80724285D01*
X164024761Y-80676666D01*
X164072380Y-80581428D01*
X164072380Y-80390952D01*
X164024761Y-80295714D01*
X163977142Y-80248095D01*
X163881904Y-80200476D01*
X163072380Y-80200476D01*
X163167619Y-79771904D02*
X163120000Y-79724285D01*
X163072380Y-79629047D01*
X163072380Y-79390952D01*
X163120000Y-79295714D01*
X163167619Y-79248095D01*
X163262857Y-79200476D01*
X163358095Y-79200476D01*
X163500952Y-79248095D01*
X164072380Y-79819523D01*
X164072380Y-79200476D01*
X66552380Y-80771904D02*
X67361904Y-80771904D01*
X67457142Y-80724285D01*
X67504761Y-80676666D01*
X67552380Y-80581428D01*
X67552380Y-80390952D01*
X67504761Y-80295714D01*
X67457142Y-80248095D01*
X67361904Y-80200476D01*
X66552380Y-80200476D01*
X66885714Y-79295714D02*
X67552380Y-79295714D01*
X66504761Y-79533809D02*
X67219047Y-79771904D01*
X67219047Y-79152857D01*
X117352380Y-80771904D02*
X118161904Y-80771904D01*
X118257142Y-80724285D01*
X118304761Y-80676666D01*
X118352380Y-80581428D01*
X118352380Y-80390952D01*
X118304761Y-80295714D01*
X118257142Y-80248095D01*
X118161904Y-80200476D01*
X117352380Y-80200476D01*
X117352380Y-79819523D02*
X117352380Y-79200476D01*
X117733333Y-79533809D01*
X117733333Y-79390952D01*
X117780952Y-79295714D01*
X117828571Y-79248095D01*
X117923809Y-79200476D01*
X118161904Y-79200476D01*
X118257142Y-79248095D01*
X118304761Y-79295714D01*
X118352380Y-79390952D01*
X118352380Y-79676666D01*
X118304761Y-79771904D01*
X118257142Y-79819523D01*
X42555714Y-82882380D02*
X42555714Y-82501428D01*
X42222380Y-82739523D02*
X43079523Y-82739523D01*
X43174761Y-82691904D01*
X43222380Y-82596666D01*
X43222380Y-82501428D01*
X43222380Y-81739523D02*
X42698571Y-81739523D01*
X42603333Y-81787142D01*
X42555714Y-81882380D01*
X42555714Y-82072857D01*
X42603333Y-82168095D01*
X43174761Y-81739523D02*
X43222380Y-81834761D01*
X43222380Y-82072857D01*
X43174761Y-82168095D01*
X43079523Y-82215714D01*
X42984285Y-82215714D01*
X42889047Y-82168095D01*
X42841428Y-82072857D01*
X42841428Y-81834761D01*
X42793809Y-81739523D01*
X43222380Y-81263333D02*
X42555714Y-81263333D01*
X42650952Y-81263333D02*
X42603333Y-81215714D01*
X42555714Y-81120476D01*
X42555714Y-80977619D01*
X42603333Y-80882380D01*
X42698571Y-80834761D01*
X43222380Y-80834761D01*
X42698571Y-80834761D02*
X42603333Y-80787142D01*
X42555714Y-80691904D01*
X42555714Y-80549047D01*
X42603333Y-80453809D01*
X42698571Y-80406190D01*
X43222380Y-80406190D01*
X42555714Y-79930000D02*
X43555714Y-79930000D01*
X42603333Y-79930000D02*
X42555714Y-79834761D01*
X42555714Y-79644285D01*
X42603333Y-79549047D01*
X42650952Y-79501428D01*
X42746190Y-79453809D01*
X43031904Y-79453809D01*
X43127142Y-79501428D01*
X43174761Y-79549047D01*
X43222380Y-79644285D01*
X43222380Y-79834761D01*
X43174761Y-79930000D01*
X43317619Y-79263333D02*
X43317619Y-78501428D01*
X43174761Y-78310952D02*
X43222380Y-78215714D01*
X43222380Y-78025238D01*
X43174761Y-77930000D01*
X43079523Y-77882380D01*
X43031904Y-77882380D01*
X42936666Y-77930000D01*
X42889047Y-78025238D01*
X42889047Y-78168095D01*
X42841428Y-78263333D01*
X42746190Y-78310952D01*
X42698571Y-78310952D01*
X42603333Y-78263333D01*
X42555714Y-78168095D01*
X42555714Y-78025238D01*
X42603333Y-77930000D01*
X43174761Y-77072857D02*
X43222380Y-77168095D01*
X43222380Y-77358571D01*
X43174761Y-77453809D01*
X43079523Y-77501428D01*
X42698571Y-77501428D01*
X42603333Y-77453809D01*
X42555714Y-77358571D01*
X42555714Y-77168095D01*
X42603333Y-77072857D01*
X42698571Y-77025238D01*
X42793809Y-77025238D01*
X42889047Y-77501428D01*
X42555714Y-76596666D02*
X43222380Y-76596666D01*
X42650952Y-76596666D02*
X42603333Y-76549047D01*
X42555714Y-76453809D01*
X42555714Y-76310952D01*
X42603333Y-76215714D01*
X42698571Y-76168095D01*
X43222380Y-76168095D01*
X43174761Y-75739523D02*
X43222380Y-75644285D01*
X43222380Y-75453809D01*
X43174761Y-75358571D01*
X43079523Y-75310952D01*
X43031904Y-75310952D01*
X42936666Y-75358571D01*
X42889047Y-75453809D01*
X42889047Y-75596666D01*
X42841428Y-75691904D01*
X42746190Y-75739523D01*
X42698571Y-75739523D01*
X42603333Y-75691904D01*
X42555714Y-75596666D01*
X42555714Y-75453809D01*
X42603333Y-75358571D01*
X43222380Y-74739523D02*
X43174761Y-74834761D01*
X43127142Y-74882380D01*
X43031904Y-74930000D01*
X42746190Y-74930000D01*
X42650952Y-74882380D01*
X42603333Y-74834761D01*
X42555714Y-74739523D01*
X42555714Y-74596666D01*
X42603333Y-74501428D01*
X42650952Y-74453809D01*
X42746190Y-74406190D01*
X43031904Y-74406190D01*
X43127142Y-74453809D01*
X43174761Y-74501428D01*
X43222380Y-74596666D01*
X43222380Y-74739523D01*
X43222380Y-73977619D02*
X42555714Y-73977619D01*
X42746190Y-73977619D02*
X42650952Y-73930000D01*
X42603333Y-73882380D01*
X42555714Y-73787142D01*
X42555714Y-73691904D01*
X43317619Y-73596666D02*
X43317619Y-72834761D01*
X42317619Y-72644285D02*
X42270000Y-72596666D01*
X42222380Y-72501428D01*
X42222380Y-72263333D01*
X42270000Y-72168095D01*
X42317619Y-72120476D01*
X42412857Y-72072857D01*
X42508095Y-72072857D01*
X42650952Y-72120476D01*
X43222380Y-72691904D01*
X43222380Y-72072857D01*
X85735714Y-87962380D02*
X85735714Y-87581428D01*
X85402380Y-87819523D02*
X86259523Y-87819523D01*
X86354761Y-87771904D01*
X86402380Y-87676666D01*
X86402380Y-87581428D01*
X86402380Y-86819523D02*
X85878571Y-86819523D01*
X85783333Y-86867142D01*
X85735714Y-86962380D01*
X85735714Y-87152857D01*
X85783333Y-87248095D01*
X86354761Y-86819523D02*
X86402380Y-86914761D01*
X86402380Y-87152857D01*
X86354761Y-87248095D01*
X86259523Y-87295714D01*
X86164285Y-87295714D01*
X86069047Y-87248095D01*
X86021428Y-87152857D01*
X86021428Y-86914761D01*
X85973809Y-86819523D01*
X86402380Y-86343333D02*
X85735714Y-86343333D01*
X85830952Y-86343333D02*
X85783333Y-86295714D01*
X85735714Y-86200476D01*
X85735714Y-86057619D01*
X85783333Y-85962380D01*
X85878571Y-85914761D01*
X86402380Y-85914761D01*
X85878571Y-85914761D02*
X85783333Y-85867142D01*
X85735714Y-85771904D01*
X85735714Y-85629047D01*
X85783333Y-85533809D01*
X85878571Y-85486190D01*
X86402380Y-85486190D01*
X85735714Y-85010000D02*
X86735714Y-85010000D01*
X85783333Y-85010000D02*
X85735714Y-84914761D01*
X85735714Y-84724285D01*
X85783333Y-84629047D01*
X85830952Y-84581428D01*
X85926190Y-84533809D01*
X86211904Y-84533809D01*
X86307142Y-84581428D01*
X86354761Y-84629047D01*
X86402380Y-84724285D01*
X86402380Y-84914761D01*
X86354761Y-85010000D01*
X86497619Y-84343333D02*
X86497619Y-83581428D01*
X86354761Y-83390952D02*
X86402380Y-83295714D01*
X86402380Y-83105238D01*
X86354761Y-83010000D01*
X86259523Y-82962380D01*
X86211904Y-82962380D01*
X86116666Y-83010000D01*
X86069047Y-83105238D01*
X86069047Y-83248095D01*
X86021428Y-83343333D01*
X85926190Y-83390952D01*
X85878571Y-83390952D01*
X85783333Y-83343333D01*
X85735714Y-83248095D01*
X85735714Y-83105238D01*
X85783333Y-83010000D01*
X86354761Y-82152857D02*
X86402380Y-82248095D01*
X86402380Y-82438571D01*
X86354761Y-82533809D01*
X86259523Y-82581428D01*
X85878571Y-82581428D01*
X85783333Y-82533809D01*
X85735714Y-82438571D01*
X85735714Y-82248095D01*
X85783333Y-82152857D01*
X85878571Y-82105238D01*
X85973809Y-82105238D01*
X86069047Y-82581428D01*
X85735714Y-81676666D02*
X86402380Y-81676666D01*
X85830952Y-81676666D02*
X85783333Y-81629047D01*
X85735714Y-81533809D01*
X85735714Y-81390952D01*
X85783333Y-81295714D01*
X85878571Y-81248095D01*
X86402380Y-81248095D01*
X86354761Y-80819523D02*
X86402380Y-80724285D01*
X86402380Y-80533809D01*
X86354761Y-80438571D01*
X86259523Y-80390952D01*
X86211904Y-80390952D01*
X86116666Y-80438571D01*
X86069047Y-80533809D01*
X86069047Y-80676666D01*
X86021428Y-80771904D01*
X85926190Y-80819523D01*
X85878571Y-80819523D01*
X85783333Y-80771904D01*
X85735714Y-80676666D01*
X85735714Y-80533809D01*
X85783333Y-80438571D01*
X86402380Y-79819523D02*
X86354761Y-79914761D01*
X86307142Y-79962380D01*
X86211904Y-80010000D01*
X85926190Y-80010000D01*
X85830952Y-79962380D01*
X85783333Y-79914761D01*
X85735714Y-79819523D01*
X85735714Y-79676666D01*
X85783333Y-79581428D01*
X85830952Y-79533809D01*
X85926190Y-79486190D01*
X86211904Y-79486190D01*
X86307142Y-79533809D01*
X86354761Y-79581428D01*
X86402380Y-79676666D01*
X86402380Y-79819523D01*
X86402380Y-79057619D02*
X85735714Y-79057619D01*
X85926190Y-79057619D02*
X85830952Y-79010000D01*
X85783333Y-78962380D01*
X85735714Y-78867142D01*
X85735714Y-78771904D01*
X86497619Y-78676666D02*
X86497619Y-77914761D01*
X86402380Y-77152857D02*
X86402380Y-77724285D01*
X86402380Y-77438571D02*
X85402380Y-77438571D01*
X85545238Y-77533809D01*
X85640476Y-77629047D01*
X85688095Y-77724285D01*
X136535714Y-84152380D02*
X136535714Y-83771428D01*
X136202380Y-84009523D02*
X137059523Y-84009523D01*
X137154761Y-83961904D01*
X137202380Y-83866666D01*
X137202380Y-83771428D01*
X137202380Y-83009523D02*
X136678571Y-83009523D01*
X136583333Y-83057142D01*
X136535714Y-83152380D01*
X136535714Y-83342857D01*
X136583333Y-83438095D01*
X137154761Y-83009523D02*
X137202380Y-83104761D01*
X137202380Y-83342857D01*
X137154761Y-83438095D01*
X137059523Y-83485714D01*
X136964285Y-83485714D01*
X136869047Y-83438095D01*
X136821428Y-83342857D01*
X136821428Y-83104761D01*
X136773809Y-83009523D01*
X137202380Y-82533333D02*
X136535714Y-82533333D01*
X136630952Y-82533333D02*
X136583333Y-82485714D01*
X136535714Y-82390476D01*
X136535714Y-82247619D01*
X136583333Y-82152380D01*
X136678571Y-82104761D01*
X137202380Y-82104761D01*
X136678571Y-82104761D02*
X136583333Y-82057142D01*
X136535714Y-81961904D01*
X136535714Y-81819047D01*
X136583333Y-81723809D01*
X136678571Y-81676190D01*
X137202380Y-81676190D01*
X136535714Y-81200000D02*
X137535714Y-81200000D01*
X136583333Y-81200000D02*
X136535714Y-81104761D01*
X136535714Y-80914285D01*
X136583333Y-80819047D01*
X136630952Y-80771428D01*
X136726190Y-80723809D01*
X137011904Y-80723809D01*
X137107142Y-80771428D01*
X137154761Y-80819047D01*
X137202380Y-80914285D01*
X137202380Y-81104761D01*
X137154761Y-81200000D01*
X137297619Y-80533333D02*
X137297619Y-79771428D01*
X137154761Y-79580952D02*
X137202380Y-79485714D01*
X137202380Y-79295238D01*
X137154761Y-79200000D01*
X137059523Y-79152380D01*
X137011904Y-79152380D01*
X136916666Y-79200000D01*
X136869047Y-79295238D01*
X136869047Y-79438095D01*
X136821428Y-79533333D01*
X136726190Y-79580952D01*
X136678571Y-79580952D01*
X136583333Y-79533333D01*
X136535714Y-79438095D01*
X136535714Y-79295238D01*
X136583333Y-79200000D01*
X137154761Y-78342857D02*
X137202380Y-78438095D01*
X137202380Y-78628571D01*
X137154761Y-78723809D01*
X137059523Y-78771428D01*
X136678571Y-78771428D01*
X136583333Y-78723809D01*
X136535714Y-78628571D01*
X136535714Y-78438095D01*
X136583333Y-78342857D01*
X136678571Y-78295238D01*
X136773809Y-78295238D01*
X136869047Y-78771428D01*
X136535714Y-77866666D02*
X137202380Y-77866666D01*
X136630952Y-77866666D02*
X136583333Y-77819047D01*
X136535714Y-77723809D01*
X136535714Y-77580952D01*
X136583333Y-77485714D01*
X136678571Y-77438095D01*
X137202380Y-77438095D01*
X137154761Y-77009523D02*
X137202380Y-76914285D01*
X137202380Y-76723809D01*
X137154761Y-76628571D01*
X137059523Y-76580952D01*
X137011904Y-76580952D01*
X136916666Y-76628571D01*
X136869047Y-76723809D01*
X136869047Y-76866666D01*
X136821428Y-76961904D01*
X136726190Y-77009523D01*
X136678571Y-77009523D01*
X136583333Y-76961904D01*
X136535714Y-76866666D01*
X136535714Y-76723809D01*
X136583333Y-76628571D01*
X137202380Y-76009523D02*
X137154761Y-76104761D01*
X137107142Y-76152380D01*
X137011904Y-76200000D01*
X136726190Y-76200000D01*
X136630952Y-76152380D01*
X136583333Y-76104761D01*
X136535714Y-76009523D01*
X136535714Y-75866666D01*
X136583333Y-75771428D01*
X136630952Y-75723809D01*
X136726190Y-75676190D01*
X137011904Y-75676190D01*
X137107142Y-75723809D01*
X137154761Y-75771428D01*
X137202380Y-75866666D01*
X137202380Y-76009523D01*
X137202380Y-75247619D02*
X136535714Y-75247619D01*
X136726190Y-75247619D02*
X136630952Y-75200000D01*
X136583333Y-75152380D01*
X136535714Y-75057142D01*
X136535714Y-74961904D01*
X137297619Y-74866666D02*
X137297619Y-74104761D01*
X136202380Y-73676190D02*
X136202380Y-73580952D01*
X136250000Y-73485714D01*
X136297619Y-73438095D01*
X136392857Y-73390476D01*
X136583333Y-73342857D01*
X136821428Y-73342857D01*
X137011904Y-73390476D01*
X137107142Y-73438095D01*
X137154761Y-73485714D01*
X137202380Y-73580952D01*
X137202380Y-73676190D01*
X137154761Y-73771428D01*
X137107142Y-73819047D01*
X137011904Y-73866666D01*
X136821428Y-73914285D01*
X136583333Y-73914285D01*
X136392857Y-73866666D01*
X136297619Y-73819047D01*
X136250000Y-73771428D01*
X136202380Y-73676190D01*
X65778571Y-114162380D02*
X65778571Y-113495714D01*
X65778571Y-113686190D02*
X65826190Y-113590952D01*
X65873809Y-113543333D01*
X65969047Y-113495714D01*
X66064285Y-113495714D01*
X66826190Y-114162380D02*
X66826190Y-113162380D01*
X66826190Y-114114761D02*
X66730952Y-114162380D01*
X66540476Y-114162380D01*
X66445238Y-114114761D01*
X66397619Y-114067142D01*
X66350000Y-113971904D01*
X66350000Y-113686190D01*
X66397619Y-113590952D01*
X66445238Y-113543333D01*
X66540476Y-113495714D01*
X66730952Y-113495714D01*
X66826190Y-113543333D01*
X67159523Y-113495714D02*
X67540476Y-113495714D01*
X67302380Y-113162380D02*
X67302380Y-114019523D01*
X67350000Y-114114761D01*
X67445238Y-114162380D01*
X67540476Y-114162380D01*
X67635714Y-114257619D02*
X68397619Y-114257619D01*
X68635714Y-114162380D02*
X68635714Y-113495714D01*
X68635714Y-113590952D02*
X68683333Y-113543333D01*
X68778571Y-113495714D01*
X68921428Y-113495714D01*
X69016666Y-113543333D01*
X69064285Y-113638571D01*
X69064285Y-114162380D01*
X69064285Y-113638571D02*
X69111904Y-113543333D01*
X69207142Y-113495714D01*
X69350000Y-113495714D01*
X69445238Y-113543333D01*
X69492857Y-113638571D01*
X69492857Y-114162380D01*
X69873809Y-113495714D02*
X70111904Y-114162380D01*
X70350000Y-113495714D02*
X70111904Y-114162380D01*
X70016666Y-114400476D01*
X69969047Y-114448095D01*
X69873809Y-114495714D01*
X71159523Y-114162380D02*
X71159523Y-113162380D01*
X71159523Y-114114761D02*
X71064285Y-114162380D01*
X70873809Y-114162380D01*
X70778571Y-114114761D01*
X70730952Y-114067142D01*
X70683333Y-113971904D01*
X70683333Y-113686190D01*
X70730952Y-113590952D01*
X70778571Y-113543333D01*
X70873809Y-113495714D01*
X71064285Y-113495714D01*
X71159523Y-113543333D01*
X72064285Y-114162380D02*
X72064285Y-113638571D01*
X72016666Y-113543333D01*
X71921428Y-113495714D01*
X71730952Y-113495714D01*
X71635714Y-113543333D01*
X72064285Y-114114761D02*
X71969047Y-114162380D01*
X71730952Y-114162380D01*
X71635714Y-114114761D01*
X71588095Y-114019523D01*
X71588095Y-113924285D01*
X71635714Y-113829047D01*
X71730952Y-113781428D01*
X71969047Y-113781428D01*
X72064285Y-113733809D01*
X72969047Y-113495714D02*
X72969047Y-114495714D01*
X72969047Y-114114761D02*
X72873809Y-114162380D01*
X72683333Y-114162380D01*
X72588095Y-114114761D01*
X72540476Y-114067142D01*
X72492857Y-113971904D01*
X72492857Y-113686190D01*
X72540476Y-113590952D01*
X72588095Y-113543333D01*
X72683333Y-113495714D01*
X72873809Y-113495714D01*
X72969047Y-113543333D01*
X73350000Y-113162380D02*
X73969047Y-113162380D01*
X73635714Y-113543333D01*
X73778571Y-113543333D01*
X73873809Y-113590952D01*
X73921428Y-113638571D01*
X73969047Y-113733809D01*
X73969047Y-113971904D01*
X73921428Y-114067142D01*
X73873809Y-114114761D01*
X73778571Y-114162380D01*
X73492857Y-114162380D01*
X73397619Y-114114761D01*
X73350000Y-114067142D01*
X125502380Y-109481428D02*
X124835714Y-109481428D01*
X125026190Y-109481428D02*
X124930952Y-109433809D01*
X124883333Y-109386190D01*
X124835714Y-109290952D01*
X124835714Y-109195714D01*
X125502380Y-108433809D02*
X124502380Y-108433809D01*
X125454761Y-108433809D02*
X125502380Y-108529047D01*
X125502380Y-108719523D01*
X125454761Y-108814761D01*
X125407142Y-108862380D01*
X125311904Y-108910000D01*
X125026190Y-108910000D01*
X124930952Y-108862380D01*
X124883333Y-108814761D01*
X124835714Y-108719523D01*
X124835714Y-108529047D01*
X124883333Y-108433809D01*
X124835714Y-108100476D02*
X124835714Y-107719523D01*
X124502380Y-107957619D02*
X125359523Y-107957619D01*
X125454761Y-107910000D01*
X125502380Y-107814761D01*
X125502380Y-107719523D01*
X125597619Y-107624285D02*
X125597619Y-106862380D01*
X125502380Y-106624285D02*
X124835714Y-106624285D01*
X124930952Y-106624285D02*
X124883333Y-106576666D01*
X124835714Y-106481428D01*
X124835714Y-106338571D01*
X124883333Y-106243333D01*
X124978571Y-106195714D01*
X125502380Y-106195714D01*
X124978571Y-106195714D02*
X124883333Y-106148095D01*
X124835714Y-106052857D01*
X124835714Y-105910000D01*
X124883333Y-105814761D01*
X124978571Y-105767142D01*
X125502380Y-105767142D01*
X124835714Y-105386190D02*
X125502380Y-105148095D01*
X124835714Y-104910000D02*
X125502380Y-105148095D01*
X125740476Y-105243333D01*
X125788095Y-105290952D01*
X125835714Y-105386190D01*
X125502380Y-104100476D02*
X124502380Y-104100476D01*
X125454761Y-104100476D02*
X125502380Y-104195714D01*
X125502380Y-104386190D01*
X125454761Y-104481428D01*
X125407142Y-104529047D01*
X125311904Y-104576666D01*
X125026190Y-104576666D01*
X124930952Y-104529047D01*
X124883333Y-104481428D01*
X124835714Y-104386190D01*
X124835714Y-104195714D01*
X124883333Y-104100476D01*
X125502380Y-103195714D02*
X124978571Y-103195714D01*
X124883333Y-103243333D01*
X124835714Y-103338571D01*
X124835714Y-103529047D01*
X124883333Y-103624285D01*
X125454761Y-103195714D02*
X125502380Y-103290952D01*
X125502380Y-103529047D01*
X125454761Y-103624285D01*
X125359523Y-103671904D01*
X125264285Y-103671904D01*
X125169047Y-103624285D01*
X125121428Y-103529047D01*
X125121428Y-103290952D01*
X125073809Y-103195714D01*
X124835714Y-102290952D02*
X125835714Y-102290952D01*
X125454761Y-102290952D02*
X125502380Y-102386190D01*
X125502380Y-102576666D01*
X125454761Y-102671904D01*
X125407142Y-102719523D01*
X125311904Y-102767142D01*
X125026190Y-102767142D01*
X124930952Y-102719523D01*
X124883333Y-102671904D01*
X124835714Y-102576666D01*
X124835714Y-102386190D01*
X124883333Y-102290952D01*
X124597619Y-101862380D02*
X124550000Y-101814761D01*
X124502380Y-101719523D01*
X124502380Y-101481428D01*
X124550000Y-101386190D01*
X124597619Y-101338571D01*
X124692857Y-101290952D01*
X124788095Y-101290952D01*
X124930952Y-101338571D01*
X125502380Y-101910000D01*
X125502380Y-101290952D01*
X65397142Y-102232380D02*
X65063809Y-101756190D01*
X64825714Y-102232380D02*
X64825714Y-101232380D01*
X65206666Y-101232380D01*
X65301904Y-101280000D01*
X65349523Y-101327619D01*
X65397142Y-101422857D01*
X65397142Y-101565714D01*
X65349523Y-101660952D01*
X65301904Y-101708571D01*
X65206666Y-101756190D01*
X64825714Y-101756190D01*
X65730476Y-101232380D02*
X66349523Y-101232380D01*
X66016190Y-101613333D01*
X66159047Y-101613333D01*
X66254285Y-101660952D01*
X66301904Y-101708571D01*
X66349523Y-101803809D01*
X66349523Y-102041904D01*
X66301904Y-102137142D01*
X66254285Y-102184761D01*
X66159047Y-102232380D01*
X65873333Y-102232380D01*
X65778095Y-102184761D01*
X65730476Y-102137142D01*
X67254285Y-101232380D02*
X66778095Y-101232380D01*
X66730476Y-101708571D01*
X66778095Y-101660952D01*
X66873333Y-101613333D01*
X67111428Y-101613333D01*
X67206666Y-101660952D01*
X67254285Y-101708571D01*
X67301904Y-101803809D01*
X67301904Y-102041904D01*
X67254285Y-102137142D01*
X67206666Y-102184761D01*
X67111428Y-102232380D01*
X66873333Y-102232380D01*
X66778095Y-102184761D01*
X66730476Y-102137142D01*
X120007142Y-100962380D02*
X119673809Y-100486190D01*
X119435714Y-100962380D02*
X119435714Y-99962380D01*
X119816666Y-99962380D01*
X119911904Y-100010000D01*
X119959523Y-100057619D01*
X120007142Y-100152857D01*
X120007142Y-100295714D01*
X119959523Y-100390952D01*
X119911904Y-100438571D01*
X119816666Y-100486190D01*
X119435714Y-100486190D01*
X120340476Y-99962380D02*
X120959523Y-99962380D01*
X120626190Y-100343333D01*
X120769047Y-100343333D01*
X120864285Y-100390952D01*
X120911904Y-100438571D01*
X120959523Y-100533809D01*
X120959523Y-100771904D01*
X120911904Y-100867142D01*
X120864285Y-100914761D01*
X120769047Y-100962380D01*
X120483333Y-100962380D01*
X120388095Y-100914761D01*
X120340476Y-100867142D01*
X121816666Y-100295714D02*
X121816666Y-100962380D01*
X121578571Y-99914761D02*
X121340476Y-100629047D01*
X121959523Y-100629047D01*
X168267142Y-99692380D02*
X167933809Y-99216190D01*
X167695714Y-99692380D02*
X167695714Y-98692380D01*
X168076666Y-98692380D01*
X168171904Y-98740000D01*
X168219523Y-98787619D01*
X168267142Y-98882857D01*
X168267142Y-99025714D01*
X168219523Y-99120952D01*
X168171904Y-99168571D01*
X168076666Y-99216190D01*
X167695714Y-99216190D01*
X168600476Y-98692380D02*
X169219523Y-98692380D01*
X168886190Y-99073333D01*
X169029047Y-99073333D01*
X169124285Y-99120952D01*
X169171904Y-99168571D01*
X169219523Y-99263809D01*
X169219523Y-99501904D01*
X169171904Y-99597142D01*
X169124285Y-99644761D01*
X169029047Y-99692380D01*
X168743333Y-99692380D01*
X168648095Y-99644761D01*
X168600476Y-99597142D01*
X169552857Y-98692380D02*
X170171904Y-98692380D01*
X169838571Y-99073333D01*
X169981428Y-99073333D01*
X170076666Y-99120952D01*
X170124285Y-99168571D01*
X170171904Y-99263809D01*
X170171904Y-99501904D01*
X170124285Y-99597142D01*
X170076666Y-99644761D01*
X169981428Y-99692380D01*
X169695714Y-99692380D01*
X169600476Y-99644761D01*
X169552857Y-99597142D01*
X70477142Y-103142380D02*
X70143809Y-102666190D01*
X69905714Y-103142380D02*
X69905714Y-102142380D01*
X70286666Y-102142380D01*
X70381904Y-102190000D01*
X70429523Y-102237619D01*
X70477142Y-102332857D01*
X70477142Y-102475714D01*
X70429523Y-102570952D01*
X70381904Y-102618571D01*
X70286666Y-102666190D01*
X69905714Y-102666190D01*
X70810476Y-102142380D02*
X71429523Y-102142380D01*
X71096190Y-102523333D01*
X71239047Y-102523333D01*
X71334285Y-102570952D01*
X71381904Y-102618571D01*
X71429523Y-102713809D01*
X71429523Y-102951904D01*
X71381904Y-103047142D01*
X71334285Y-103094761D01*
X71239047Y-103142380D01*
X70953333Y-103142380D01*
X70858095Y-103094761D01*
X70810476Y-103047142D01*
X71810476Y-102237619D02*
X71858095Y-102190000D01*
X71953333Y-102142380D01*
X72191428Y-102142380D01*
X72286666Y-102190000D01*
X72334285Y-102237619D01*
X72381904Y-102332857D01*
X72381904Y-102428095D01*
X72334285Y-102570952D01*
X71762857Y-103142380D01*
X72381904Y-103142380D01*
X120007142Y-89172380D02*
X119673809Y-88696190D01*
X119435714Y-89172380D02*
X119435714Y-88172380D01*
X119816666Y-88172380D01*
X119911904Y-88220000D01*
X119959523Y-88267619D01*
X120007142Y-88362857D01*
X120007142Y-88505714D01*
X119959523Y-88600952D01*
X119911904Y-88648571D01*
X119816666Y-88696190D01*
X119435714Y-88696190D01*
X120340476Y-88172380D02*
X120959523Y-88172380D01*
X120626190Y-88553333D01*
X120769047Y-88553333D01*
X120864285Y-88600952D01*
X120911904Y-88648571D01*
X120959523Y-88743809D01*
X120959523Y-88981904D01*
X120911904Y-89077142D01*
X120864285Y-89124761D01*
X120769047Y-89172380D01*
X120483333Y-89172380D01*
X120388095Y-89124761D01*
X120340476Y-89077142D01*
X121911904Y-89172380D02*
X121340476Y-89172380D01*
X121626190Y-89172380D02*
X121626190Y-88172380D01*
X121530952Y-88315238D01*
X121435714Y-88410476D01*
X121340476Y-88458095D01*
X50157142Y-108582380D02*
X49823809Y-108106190D01*
X49585714Y-108582380D02*
X49585714Y-107582380D01*
X49966666Y-107582380D01*
X50061904Y-107630000D01*
X50109523Y-107677619D01*
X50157142Y-107772857D01*
X50157142Y-107915714D01*
X50109523Y-108010952D01*
X50061904Y-108058571D01*
X49966666Y-108106190D01*
X49585714Y-108106190D01*
X50490476Y-107582380D02*
X51109523Y-107582380D01*
X50776190Y-107963333D01*
X50919047Y-107963333D01*
X51014285Y-108010952D01*
X51061904Y-108058571D01*
X51109523Y-108153809D01*
X51109523Y-108391904D01*
X51061904Y-108487142D01*
X51014285Y-108534761D01*
X50919047Y-108582380D01*
X50633333Y-108582380D01*
X50538095Y-108534761D01*
X50490476Y-108487142D01*
X51728571Y-107582380D02*
X51823809Y-107582380D01*
X51919047Y-107630000D01*
X51966666Y-107677619D01*
X52014285Y-107772857D01*
X52061904Y-107963333D01*
X52061904Y-108201428D01*
X52014285Y-108391904D01*
X51966666Y-108487142D01*
X51919047Y-108534761D01*
X51823809Y-108582380D01*
X51728571Y-108582380D01*
X51633333Y-108534761D01*
X51585714Y-108487142D01*
X51538095Y-108391904D01*
X51490476Y-108201428D01*
X51490476Y-107963333D01*
X51538095Y-107772857D01*
X51585714Y-107677619D01*
X51633333Y-107630000D01*
X51728571Y-107582380D01*
X106037142Y-107312380D02*
X105703809Y-106836190D01*
X105465714Y-107312380D02*
X105465714Y-106312380D01*
X105846666Y-106312380D01*
X105941904Y-106360000D01*
X105989523Y-106407619D01*
X106037142Y-106502857D01*
X106037142Y-106645714D01*
X105989523Y-106740952D01*
X105941904Y-106788571D01*
X105846666Y-106836190D01*
X105465714Y-106836190D01*
X106418095Y-106407619D02*
X106465714Y-106360000D01*
X106560952Y-106312380D01*
X106799047Y-106312380D01*
X106894285Y-106360000D01*
X106941904Y-106407619D01*
X106989523Y-106502857D01*
X106989523Y-106598095D01*
X106941904Y-106740952D01*
X106370476Y-107312380D01*
X106989523Y-107312380D01*
X107465714Y-107312380D02*
X107656190Y-107312380D01*
X107751428Y-107264761D01*
X107799047Y-107217142D01*
X107894285Y-107074285D01*
X107941904Y-106883809D01*
X107941904Y-106502857D01*
X107894285Y-106407619D01*
X107846666Y-106360000D01*
X107751428Y-106312380D01*
X107560952Y-106312380D01*
X107465714Y-106360000D01*
X107418095Y-106407619D01*
X107370476Y-106502857D01*
X107370476Y-106740952D01*
X107418095Y-106836190D01*
X107465714Y-106883809D01*
X107560952Y-106931428D01*
X107751428Y-106931428D01*
X107846666Y-106883809D01*
X107894285Y-106836190D01*
X107941904Y-106740952D01*
X41267142Y-96792380D02*
X40933809Y-96316190D01*
X40695714Y-96792380D02*
X40695714Y-95792380D01*
X41076666Y-95792380D01*
X41171904Y-95840000D01*
X41219523Y-95887619D01*
X41267142Y-95982857D01*
X41267142Y-96125714D01*
X41219523Y-96220952D01*
X41171904Y-96268571D01*
X41076666Y-96316190D01*
X40695714Y-96316190D01*
X41648095Y-95887619D02*
X41695714Y-95840000D01*
X41790952Y-95792380D01*
X42029047Y-95792380D01*
X42124285Y-95840000D01*
X42171904Y-95887619D01*
X42219523Y-95982857D01*
X42219523Y-96078095D01*
X42171904Y-96220952D01*
X41600476Y-96792380D01*
X42219523Y-96792380D01*
X42790952Y-96220952D02*
X42695714Y-96173333D01*
X42648095Y-96125714D01*
X42600476Y-96030476D01*
X42600476Y-95982857D01*
X42648095Y-95887619D01*
X42695714Y-95840000D01*
X42790952Y-95792380D01*
X42981428Y-95792380D01*
X43076666Y-95840000D01*
X43124285Y-95887619D01*
X43171904Y-95982857D01*
X43171904Y-96030476D01*
X43124285Y-96125714D01*
X43076666Y-96173333D01*
X42981428Y-96220952D01*
X42790952Y-96220952D01*
X42695714Y-96268571D01*
X42648095Y-96316190D01*
X42600476Y-96411428D01*
X42600476Y-96601904D01*
X42648095Y-96697142D01*
X42695714Y-96744761D01*
X42790952Y-96792380D01*
X42981428Y-96792380D01*
X43076666Y-96744761D01*
X43124285Y-96697142D01*
X43171904Y-96601904D01*
X43171904Y-96411428D01*
X43124285Y-96316190D01*
X43076666Y-96268571D01*
X42981428Y-96220952D01*
X97152380Y-103512857D02*
X96676190Y-103846190D01*
X97152380Y-104084285D02*
X96152380Y-104084285D01*
X96152380Y-103703333D01*
X96200000Y-103608095D01*
X96247619Y-103560476D01*
X96342857Y-103512857D01*
X96485714Y-103512857D01*
X96580952Y-103560476D01*
X96628571Y-103608095D01*
X96676190Y-103703333D01*
X96676190Y-104084285D01*
X96247619Y-103131904D02*
X96200000Y-103084285D01*
X96152380Y-102989047D01*
X96152380Y-102750952D01*
X96200000Y-102655714D01*
X96247619Y-102608095D01*
X96342857Y-102560476D01*
X96438095Y-102560476D01*
X96580952Y-102608095D01*
X97152380Y-103179523D01*
X97152380Y-102560476D01*
X96152380Y-102227142D02*
X96152380Y-101560476D01*
X97152380Y-101989047D01*
X43807142Y-94612380D02*
X43473809Y-94136190D01*
X43235714Y-94612380D02*
X43235714Y-93612380D01*
X43616666Y-93612380D01*
X43711904Y-93660000D01*
X43759523Y-93707619D01*
X43807142Y-93802857D01*
X43807142Y-93945714D01*
X43759523Y-94040952D01*
X43711904Y-94088571D01*
X43616666Y-94136190D01*
X43235714Y-94136190D01*
X44188095Y-93707619D02*
X44235714Y-93660000D01*
X44330952Y-93612380D01*
X44569047Y-93612380D01*
X44664285Y-93660000D01*
X44711904Y-93707619D01*
X44759523Y-93802857D01*
X44759523Y-93898095D01*
X44711904Y-94040952D01*
X44140476Y-94612380D01*
X44759523Y-94612380D01*
X45616666Y-93612380D02*
X45426190Y-93612380D01*
X45330952Y-93660000D01*
X45283333Y-93707619D01*
X45188095Y-93850476D01*
X45140476Y-94040952D01*
X45140476Y-94421904D01*
X45188095Y-94517142D01*
X45235714Y-94564761D01*
X45330952Y-94612380D01*
X45521428Y-94612380D01*
X45616666Y-94564761D01*
X45664285Y-94517142D01*
X45711904Y-94421904D01*
X45711904Y-94183809D01*
X45664285Y-94088571D01*
X45616666Y-94040952D01*
X45521428Y-93993333D01*
X45330952Y-93993333D01*
X45235714Y-94040952D01*
X45188095Y-94088571D01*
X45140476Y-94183809D01*
X90442380Y-65412857D02*
X89966190Y-65746190D01*
X90442380Y-65984285D02*
X89442380Y-65984285D01*
X89442380Y-65603333D01*
X89490000Y-65508095D01*
X89537619Y-65460476D01*
X89632857Y-65412857D01*
X89775714Y-65412857D01*
X89870952Y-65460476D01*
X89918571Y-65508095D01*
X89966190Y-65603333D01*
X89966190Y-65984285D01*
X89537619Y-65031904D02*
X89490000Y-64984285D01*
X89442380Y-64889047D01*
X89442380Y-64650952D01*
X89490000Y-64555714D01*
X89537619Y-64508095D01*
X89632857Y-64460476D01*
X89728095Y-64460476D01*
X89870952Y-64508095D01*
X90442380Y-65079523D01*
X90442380Y-64460476D01*
X89442380Y-63555714D02*
X89442380Y-64031904D01*
X89918571Y-64079523D01*
X89870952Y-64031904D01*
X89823333Y-63936666D01*
X89823333Y-63698571D01*
X89870952Y-63603333D01*
X89918571Y-63555714D01*
X90013809Y-63508095D01*
X90251904Y-63508095D01*
X90347142Y-63555714D01*
X90394761Y-63603333D01*
X90442380Y-63698571D01*
X90442380Y-63936666D01*
X90394761Y-64031904D01*
X90347142Y-64079523D01*
X61587142Y-66312380D02*
X61253809Y-65836190D01*
X61015714Y-66312380D02*
X61015714Y-65312380D01*
X61396666Y-65312380D01*
X61491904Y-65360000D01*
X61539523Y-65407619D01*
X61587142Y-65502857D01*
X61587142Y-65645714D01*
X61539523Y-65740952D01*
X61491904Y-65788571D01*
X61396666Y-65836190D01*
X61015714Y-65836190D01*
X61968095Y-65407619D02*
X62015714Y-65360000D01*
X62110952Y-65312380D01*
X62349047Y-65312380D01*
X62444285Y-65360000D01*
X62491904Y-65407619D01*
X62539523Y-65502857D01*
X62539523Y-65598095D01*
X62491904Y-65740952D01*
X61920476Y-66312380D01*
X62539523Y-66312380D01*
X63396666Y-65645714D02*
X63396666Y-66312380D01*
X63158571Y-65264761D02*
X62920476Y-65979047D01*
X63539523Y-65979047D01*
X74272380Y-73032857D02*
X73796190Y-73366190D01*
X74272380Y-73604285D02*
X73272380Y-73604285D01*
X73272380Y-73223333D01*
X73320000Y-73128095D01*
X73367619Y-73080476D01*
X73462857Y-73032857D01*
X73605714Y-73032857D01*
X73700952Y-73080476D01*
X73748571Y-73128095D01*
X73796190Y-73223333D01*
X73796190Y-73604285D01*
X73367619Y-72651904D02*
X73320000Y-72604285D01*
X73272380Y-72509047D01*
X73272380Y-72270952D01*
X73320000Y-72175714D01*
X73367619Y-72128095D01*
X73462857Y-72080476D01*
X73558095Y-72080476D01*
X73700952Y-72128095D01*
X74272380Y-72699523D01*
X74272380Y-72080476D01*
X73272380Y-71747142D02*
X73272380Y-71128095D01*
X73653333Y-71461428D01*
X73653333Y-71318571D01*
X73700952Y-71223333D01*
X73748571Y-71175714D01*
X73843809Y-71128095D01*
X74081904Y-71128095D01*
X74177142Y-71175714D01*
X74224761Y-71223333D01*
X74272380Y-71318571D01*
X74272380Y-71604285D01*
X74224761Y-71699523D01*
X74177142Y-71747142D01*
X112387142Y-53612380D02*
X112053809Y-53136190D01*
X111815714Y-53612380D02*
X111815714Y-52612380D01*
X112196666Y-52612380D01*
X112291904Y-52660000D01*
X112339523Y-52707619D01*
X112387142Y-52802857D01*
X112387142Y-52945714D01*
X112339523Y-53040952D01*
X112291904Y-53088571D01*
X112196666Y-53136190D01*
X111815714Y-53136190D01*
X112768095Y-52707619D02*
X112815714Y-52660000D01*
X112910952Y-52612380D01*
X113149047Y-52612380D01*
X113244285Y-52660000D01*
X113291904Y-52707619D01*
X113339523Y-52802857D01*
X113339523Y-52898095D01*
X113291904Y-53040952D01*
X112720476Y-53612380D01*
X113339523Y-53612380D01*
X113720476Y-52707619D02*
X113768095Y-52660000D01*
X113863333Y-52612380D01*
X114101428Y-52612380D01*
X114196666Y-52660000D01*
X114244285Y-52707619D01*
X114291904Y-52802857D01*
X114291904Y-52898095D01*
X114244285Y-53040952D01*
X113672857Y-53612380D01*
X114291904Y-53612380D01*
X136182380Y-52712857D02*
X135706190Y-53046190D01*
X136182380Y-53284285D02*
X135182380Y-53284285D01*
X135182380Y-52903333D01*
X135230000Y-52808095D01*
X135277619Y-52760476D01*
X135372857Y-52712857D01*
X135515714Y-52712857D01*
X135610952Y-52760476D01*
X135658571Y-52808095D01*
X135706190Y-52903333D01*
X135706190Y-53284285D01*
X135277619Y-52331904D02*
X135230000Y-52284285D01*
X135182380Y-52189047D01*
X135182380Y-51950952D01*
X135230000Y-51855714D01*
X135277619Y-51808095D01*
X135372857Y-51760476D01*
X135468095Y-51760476D01*
X135610952Y-51808095D01*
X136182380Y-52379523D01*
X136182380Y-51760476D01*
X136182380Y-50808095D02*
X136182380Y-51379523D01*
X136182380Y-51093809D02*
X135182380Y-51093809D01*
X135325238Y-51189047D01*
X135420476Y-51284285D01*
X135468095Y-51379523D01*
X64127142Y-43452380D02*
X63793809Y-42976190D01*
X63555714Y-43452380D02*
X63555714Y-42452380D01*
X63936666Y-42452380D01*
X64031904Y-42500000D01*
X64079523Y-42547619D01*
X64127142Y-42642857D01*
X64127142Y-42785714D01*
X64079523Y-42880952D01*
X64031904Y-42928571D01*
X63936666Y-42976190D01*
X63555714Y-42976190D01*
X64508095Y-42547619D02*
X64555714Y-42500000D01*
X64650952Y-42452380D01*
X64889047Y-42452380D01*
X64984285Y-42500000D01*
X65031904Y-42547619D01*
X65079523Y-42642857D01*
X65079523Y-42738095D01*
X65031904Y-42880952D01*
X64460476Y-43452380D01*
X65079523Y-43452380D01*
X65698571Y-42452380D02*
X65793809Y-42452380D01*
X65889047Y-42500000D01*
X65936666Y-42547619D01*
X65984285Y-42642857D01*
X66031904Y-42833333D01*
X66031904Y-43071428D01*
X65984285Y-43261904D01*
X65936666Y-43357142D01*
X65889047Y-43404761D01*
X65793809Y-43452380D01*
X65698571Y-43452380D01*
X65603333Y-43404761D01*
X65555714Y-43357142D01*
X65508095Y-43261904D01*
X65460476Y-43071428D01*
X65460476Y-42833333D01*
X65508095Y-42642857D01*
X65555714Y-42547619D01*
X65603333Y-42500000D01*
X65698571Y-42452380D01*
X120007142Y-59962380D02*
X119673809Y-59486190D01*
X119435714Y-59962380D02*
X119435714Y-58962380D01*
X119816666Y-58962380D01*
X119911904Y-59010000D01*
X119959523Y-59057619D01*
X120007142Y-59152857D01*
X120007142Y-59295714D01*
X119959523Y-59390952D01*
X119911904Y-59438571D01*
X119816666Y-59486190D01*
X119435714Y-59486190D01*
X120959523Y-59962380D02*
X120388095Y-59962380D01*
X120673809Y-59962380D02*
X120673809Y-58962380D01*
X120578571Y-59105238D01*
X120483333Y-59200476D01*
X120388095Y-59248095D01*
X121435714Y-59962380D02*
X121626190Y-59962380D01*
X121721428Y-59914761D01*
X121769047Y-59867142D01*
X121864285Y-59724285D01*
X121911904Y-59533809D01*
X121911904Y-59152857D01*
X121864285Y-59057619D01*
X121816666Y-59010000D01*
X121721428Y-58962380D01*
X121530952Y-58962380D01*
X121435714Y-59010000D01*
X121388095Y-59057619D01*
X121340476Y-59152857D01*
X121340476Y-59390952D01*
X121388095Y-59486190D01*
X121435714Y-59533809D01*
X121530952Y-59581428D01*
X121721428Y-59581428D01*
X121816666Y-59533809D01*
X121864285Y-59486190D01*
X121911904Y-59390952D01*
X55237142Y-29482380D02*
X54903809Y-29006190D01*
X54665714Y-29482380D02*
X54665714Y-28482380D01*
X55046666Y-28482380D01*
X55141904Y-28530000D01*
X55189523Y-28577619D01*
X55237142Y-28672857D01*
X55237142Y-28815714D01*
X55189523Y-28910952D01*
X55141904Y-28958571D01*
X55046666Y-29006190D01*
X54665714Y-29006190D01*
X56189523Y-29482380D02*
X55618095Y-29482380D01*
X55903809Y-29482380D02*
X55903809Y-28482380D01*
X55808571Y-28625238D01*
X55713333Y-28720476D01*
X55618095Y-28768095D01*
X56760952Y-28910952D02*
X56665714Y-28863333D01*
X56618095Y-28815714D01*
X56570476Y-28720476D01*
X56570476Y-28672857D01*
X56618095Y-28577619D01*
X56665714Y-28530000D01*
X56760952Y-28482380D01*
X56951428Y-28482380D01*
X57046666Y-28530000D01*
X57094285Y-28577619D01*
X57141904Y-28672857D01*
X57141904Y-28720476D01*
X57094285Y-28815714D01*
X57046666Y-28863333D01*
X56951428Y-28910952D01*
X56760952Y-28910952D01*
X56665714Y-28958571D01*
X56618095Y-29006190D01*
X56570476Y-29101428D01*
X56570476Y-29291904D01*
X56618095Y-29387142D01*
X56665714Y-29434761D01*
X56760952Y-29482380D01*
X56951428Y-29482380D01*
X57046666Y-29434761D01*
X57094285Y-29387142D01*
X57141904Y-29291904D01*
X57141904Y-29101428D01*
X57094285Y-29006190D01*
X57046666Y-28958571D01*
X56951428Y-28910952D01*
X51427142Y-59052380D02*
X51093809Y-58576190D01*
X50855714Y-59052380D02*
X50855714Y-58052380D01*
X51236666Y-58052380D01*
X51331904Y-58100000D01*
X51379523Y-58147619D01*
X51427142Y-58242857D01*
X51427142Y-58385714D01*
X51379523Y-58480952D01*
X51331904Y-58528571D01*
X51236666Y-58576190D01*
X50855714Y-58576190D01*
X52379523Y-59052380D02*
X51808095Y-59052380D01*
X52093809Y-59052380D02*
X52093809Y-58052380D01*
X51998571Y-58195238D01*
X51903333Y-58290476D01*
X51808095Y-58338095D01*
X52712857Y-58052380D02*
X53379523Y-58052380D01*
X52950952Y-59052380D01*
X120007142Y-73022380D02*
X119673809Y-72546190D01*
X119435714Y-73022380D02*
X119435714Y-72022380D01*
X119816666Y-72022380D01*
X119911904Y-72070000D01*
X119959523Y-72117619D01*
X120007142Y-72212857D01*
X120007142Y-72355714D01*
X119959523Y-72450952D01*
X119911904Y-72498571D01*
X119816666Y-72546190D01*
X119435714Y-72546190D01*
X120959523Y-73022380D02*
X120388095Y-73022380D01*
X120673809Y-73022380D02*
X120673809Y-72022380D01*
X120578571Y-72165238D01*
X120483333Y-72260476D01*
X120388095Y-72308095D01*
X121816666Y-72022380D02*
X121626190Y-72022380D01*
X121530952Y-72070000D01*
X121483333Y-72117619D01*
X121388095Y-72260476D01*
X121340476Y-72450952D01*
X121340476Y-72831904D01*
X121388095Y-72927142D01*
X121435714Y-72974761D01*
X121530952Y-73022380D01*
X121721428Y-73022380D01*
X121816666Y-72974761D01*
X121864285Y-72927142D01*
X121911904Y-72831904D01*
X121911904Y-72593809D01*
X121864285Y-72498571D01*
X121816666Y-72450952D01*
X121721428Y-72403333D01*
X121530952Y-72403333D01*
X121435714Y-72450952D01*
X121388095Y-72498571D01*
X121340476Y-72593809D01*
X107307142Y-51432380D02*
X106973809Y-50956190D01*
X106735714Y-51432380D02*
X106735714Y-50432380D01*
X107116666Y-50432380D01*
X107211904Y-50480000D01*
X107259523Y-50527619D01*
X107307142Y-50622857D01*
X107307142Y-50765714D01*
X107259523Y-50860952D01*
X107211904Y-50908571D01*
X107116666Y-50956190D01*
X106735714Y-50956190D01*
X108259523Y-51432380D02*
X107688095Y-51432380D01*
X107973809Y-51432380D02*
X107973809Y-50432380D01*
X107878571Y-50575238D01*
X107783333Y-50670476D01*
X107688095Y-50718095D01*
X109164285Y-50432380D02*
X108688095Y-50432380D01*
X108640476Y-50908571D01*
X108688095Y-50860952D01*
X108783333Y-50813333D01*
X109021428Y-50813333D01*
X109116666Y-50860952D01*
X109164285Y-50908571D01*
X109211904Y-51003809D01*
X109211904Y-51241904D01*
X109164285Y-51337142D01*
X109116666Y-51384761D01*
X109021428Y-51432380D01*
X108783333Y-51432380D01*
X108688095Y-51384761D01*
X108640476Y-51337142D01*
X66667142Y-64132380D02*
X66333809Y-63656190D01*
X66095714Y-64132380D02*
X66095714Y-63132380D01*
X66476666Y-63132380D01*
X66571904Y-63180000D01*
X66619523Y-63227619D01*
X66667142Y-63322857D01*
X66667142Y-63465714D01*
X66619523Y-63560952D01*
X66571904Y-63608571D01*
X66476666Y-63656190D01*
X66095714Y-63656190D01*
X67619523Y-64132380D02*
X67048095Y-64132380D01*
X67333809Y-64132380D02*
X67333809Y-63132380D01*
X67238571Y-63275238D01*
X67143333Y-63370476D01*
X67048095Y-63418095D01*
X68476666Y-63465714D02*
X68476666Y-64132380D01*
X68238571Y-63084761D02*
X68000476Y-63799047D01*
X68619523Y-63799047D01*
X122547142Y-43812380D02*
X122213809Y-43336190D01*
X121975714Y-43812380D02*
X121975714Y-42812380D01*
X122356666Y-42812380D01*
X122451904Y-42860000D01*
X122499523Y-42907619D01*
X122547142Y-43002857D01*
X122547142Y-43145714D01*
X122499523Y-43240952D01*
X122451904Y-43288571D01*
X122356666Y-43336190D01*
X121975714Y-43336190D01*
X123499523Y-43812380D02*
X122928095Y-43812380D01*
X123213809Y-43812380D02*
X123213809Y-42812380D01*
X123118571Y-42955238D01*
X123023333Y-43050476D01*
X122928095Y-43098095D01*
X123832857Y-42812380D02*
X124451904Y-42812380D01*
X124118571Y-43193333D01*
X124261428Y-43193333D01*
X124356666Y-43240952D01*
X124404285Y-43288571D01*
X124451904Y-43383809D01*
X124451904Y-43621904D01*
X124404285Y-43717142D01*
X124356666Y-43764761D01*
X124261428Y-43812380D01*
X123975714Y-43812380D01*
X123880476Y-43764761D01*
X123832857Y-43717142D01*
X71752380Y-31122857D02*
X71276190Y-31456190D01*
X71752380Y-31694285D02*
X70752380Y-31694285D01*
X70752380Y-31313333D01*
X70800000Y-31218095D01*
X70847619Y-31170476D01*
X70942857Y-31122857D01*
X71085714Y-31122857D01*
X71180952Y-31170476D01*
X71228571Y-31218095D01*
X71276190Y-31313333D01*
X71276190Y-31694285D01*
X71752380Y-30170476D02*
X71752380Y-30741904D01*
X71752380Y-30456190D02*
X70752380Y-30456190D01*
X70895238Y-30551428D01*
X70990476Y-30646666D01*
X71038095Y-30741904D01*
X70847619Y-29789523D02*
X70800000Y-29741904D01*
X70752380Y-29646666D01*
X70752380Y-29408571D01*
X70800000Y-29313333D01*
X70847619Y-29265714D01*
X70942857Y-29218095D01*
X71038095Y-29218095D01*
X71180952Y-29265714D01*
X71752380Y-29837142D01*
X71752380Y-29218095D01*
X168267142Y-104412380D02*
X167933809Y-103936190D01*
X167695714Y-104412380D02*
X167695714Y-103412380D01*
X168076666Y-103412380D01*
X168171904Y-103460000D01*
X168219523Y-103507619D01*
X168267142Y-103602857D01*
X168267142Y-103745714D01*
X168219523Y-103840952D01*
X168171904Y-103888571D01*
X168076666Y-103936190D01*
X167695714Y-103936190D01*
X169219523Y-104412380D02*
X168648095Y-104412380D01*
X168933809Y-104412380D02*
X168933809Y-103412380D01*
X168838571Y-103555238D01*
X168743333Y-103650476D01*
X168648095Y-103698095D01*
X170171904Y-104412380D02*
X169600476Y-104412380D01*
X169886190Y-104412380D02*
X169886190Y-103412380D01*
X169790952Y-103555238D01*
X169695714Y-103650476D01*
X169600476Y-103698095D01*
X118737142Y-20592380D02*
X118403809Y-20116190D01*
X118165714Y-20592380D02*
X118165714Y-19592380D01*
X118546666Y-19592380D01*
X118641904Y-19640000D01*
X118689523Y-19687619D01*
X118737142Y-19782857D01*
X118737142Y-19925714D01*
X118689523Y-20020952D01*
X118641904Y-20068571D01*
X118546666Y-20116190D01*
X118165714Y-20116190D01*
X119689523Y-20592380D02*
X119118095Y-20592380D01*
X119403809Y-20592380D02*
X119403809Y-19592380D01*
X119308571Y-19735238D01*
X119213333Y-19830476D01*
X119118095Y-19878095D01*
X120308571Y-19592380D02*
X120403809Y-19592380D01*
X120499047Y-19640000D01*
X120546666Y-19687619D01*
X120594285Y-19782857D01*
X120641904Y-19973333D01*
X120641904Y-20211428D01*
X120594285Y-20401904D01*
X120546666Y-20497142D01*
X120499047Y-20544761D01*
X120403809Y-20592380D01*
X120308571Y-20592380D01*
X120213333Y-20544761D01*
X120165714Y-20497142D01*
X120118095Y-20401904D01*
X120070476Y-20211428D01*
X120070476Y-19973333D01*
X120118095Y-19782857D01*
X120165714Y-19687619D01*
X120213333Y-19640000D01*
X120308571Y-19592380D01*
X148423333Y-109852380D02*
X148090000Y-109376190D01*
X147851904Y-109852380D02*
X147851904Y-108852380D01*
X148232857Y-108852380D01*
X148328095Y-108900000D01*
X148375714Y-108947619D01*
X148423333Y-109042857D01*
X148423333Y-109185714D01*
X148375714Y-109280952D01*
X148328095Y-109328571D01*
X148232857Y-109376190D01*
X147851904Y-109376190D01*
X148899523Y-109852380D02*
X149090000Y-109852380D01*
X149185238Y-109804761D01*
X149232857Y-109757142D01*
X149328095Y-109614285D01*
X149375714Y-109423809D01*
X149375714Y-109042857D01*
X149328095Y-108947619D01*
X149280476Y-108900000D01*
X149185238Y-108852380D01*
X148994761Y-108852380D01*
X148899523Y-108900000D01*
X148851904Y-108947619D01*
X148804285Y-109042857D01*
X148804285Y-109280952D01*
X148851904Y-109376190D01*
X148899523Y-109423809D01*
X148994761Y-109471428D01*
X149185238Y-109471428D01*
X149280476Y-109423809D01*
X149328095Y-109376190D01*
X149375714Y-109280952D01*
X140803333Y-99332380D02*
X140470000Y-98856190D01*
X140231904Y-99332380D02*
X140231904Y-98332380D01*
X140612857Y-98332380D01*
X140708095Y-98380000D01*
X140755714Y-98427619D01*
X140803333Y-98522857D01*
X140803333Y-98665714D01*
X140755714Y-98760952D01*
X140708095Y-98808571D01*
X140612857Y-98856190D01*
X140231904Y-98856190D01*
X141374761Y-98760952D02*
X141279523Y-98713333D01*
X141231904Y-98665714D01*
X141184285Y-98570476D01*
X141184285Y-98522857D01*
X141231904Y-98427619D01*
X141279523Y-98380000D01*
X141374761Y-98332380D01*
X141565238Y-98332380D01*
X141660476Y-98380000D01*
X141708095Y-98427619D01*
X141755714Y-98522857D01*
X141755714Y-98570476D01*
X141708095Y-98665714D01*
X141660476Y-98713333D01*
X141565238Y-98760952D01*
X141374761Y-98760952D01*
X141279523Y-98808571D01*
X141231904Y-98856190D01*
X141184285Y-98951428D01*
X141184285Y-99141904D01*
X141231904Y-99237142D01*
X141279523Y-99284761D01*
X141374761Y-99332380D01*
X141565238Y-99332380D01*
X141660476Y-99284761D01*
X141708095Y-99237142D01*
X141755714Y-99141904D01*
X141755714Y-98951428D01*
X141708095Y-98856190D01*
X141660476Y-98808571D01*
X141565238Y-98760952D01*
X140803333Y-97152380D02*
X140470000Y-96676190D01*
X140231904Y-97152380D02*
X140231904Y-96152380D01*
X140612857Y-96152380D01*
X140708095Y-96200000D01*
X140755714Y-96247619D01*
X140803333Y-96342857D01*
X140803333Y-96485714D01*
X140755714Y-96580952D01*
X140708095Y-96628571D01*
X140612857Y-96676190D01*
X140231904Y-96676190D01*
X141136666Y-96152380D02*
X141803333Y-96152380D01*
X141374761Y-97152380D01*
X156043333Y-44722380D02*
X155710000Y-44246190D01*
X155471904Y-44722380D02*
X155471904Y-43722380D01*
X155852857Y-43722380D01*
X155948095Y-43770000D01*
X155995714Y-43817619D01*
X156043333Y-43912857D01*
X156043333Y-44055714D01*
X155995714Y-44150952D01*
X155948095Y-44198571D01*
X155852857Y-44246190D01*
X155471904Y-44246190D01*
X156900476Y-43722380D02*
X156710000Y-43722380D01*
X156614761Y-43770000D01*
X156567142Y-43817619D01*
X156471904Y-43960476D01*
X156424285Y-44150952D01*
X156424285Y-44531904D01*
X156471904Y-44627142D01*
X156519523Y-44674761D01*
X156614761Y-44722380D01*
X156805238Y-44722380D01*
X156900476Y-44674761D01*
X156948095Y-44627142D01*
X156995714Y-44531904D01*
X156995714Y-44293809D01*
X156948095Y-44198571D01*
X156900476Y-44150952D01*
X156805238Y-44103333D01*
X156614761Y-44103333D01*
X156519523Y-44150952D01*
X156471904Y-44198571D01*
X156424285Y-44293809D01*
X156043333Y-61592380D02*
X155710000Y-61116190D01*
X155471904Y-61592380D02*
X155471904Y-60592380D01*
X155852857Y-60592380D01*
X155948095Y-60640000D01*
X155995714Y-60687619D01*
X156043333Y-60782857D01*
X156043333Y-60925714D01*
X155995714Y-61020952D01*
X155948095Y-61068571D01*
X155852857Y-61116190D01*
X155471904Y-61116190D01*
X156948095Y-60592380D02*
X156471904Y-60592380D01*
X156424285Y-61068571D01*
X156471904Y-61020952D01*
X156567142Y-60973333D01*
X156805238Y-60973333D01*
X156900476Y-61020952D01*
X156948095Y-61068571D01*
X156995714Y-61163809D01*
X156995714Y-61401904D01*
X156948095Y-61497142D01*
X156900476Y-61544761D01*
X156805238Y-61592380D01*
X156567142Y-61592380D01*
X156471904Y-61544761D01*
X156424285Y-61497142D01*
X158583333Y-63772380D02*
X158250000Y-63296190D01*
X158011904Y-63772380D02*
X158011904Y-62772380D01*
X158392857Y-62772380D01*
X158488095Y-62820000D01*
X158535714Y-62867619D01*
X158583333Y-62962857D01*
X158583333Y-63105714D01*
X158535714Y-63200952D01*
X158488095Y-63248571D01*
X158392857Y-63296190D01*
X158011904Y-63296190D01*
X159440476Y-63105714D02*
X159440476Y-63772380D01*
X159202380Y-62724761D02*
X158964285Y-63439047D01*
X159583333Y-63439047D01*
X180632380Y-61126666D02*
X180156190Y-61460000D01*
X180632380Y-61698095D02*
X179632380Y-61698095D01*
X179632380Y-61317142D01*
X179680000Y-61221904D01*
X179727619Y-61174285D01*
X179822857Y-61126666D01*
X179965714Y-61126666D01*
X180060952Y-61174285D01*
X180108571Y-61221904D01*
X180156190Y-61317142D01*
X180156190Y-61698095D01*
X179632380Y-60793333D02*
X179632380Y-60174285D01*
X180013333Y-60507619D01*
X180013333Y-60364761D01*
X180060952Y-60269523D01*
X180108571Y-60221904D01*
X180203809Y-60174285D01*
X180441904Y-60174285D01*
X180537142Y-60221904D01*
X180584761Y-60269523D01*
X180632380Y-60364761D01*
X180632380Y-60650476D01*
X180584761Y-60745714D01*
X180537142Y-60793333D01*
X175892380Y-47156666D02*
X175416190Y-47490000D01*
X175892380Y-47728095D02*
X174892380Y-47728095D01*
X174892380Y-47347142D01*
X174940000Y-47251904D01*
X174987619Y-47204285D01*
X175082857Y-47156666D01*
X175225714Y-47156666D01*
X175320952Y-47204285D01*
X175368571Y-47251904D01*
X175416190Y-47347142D01*
X175416190Y-47728095D01*
X174987619Y-46775714D02*
X174940000Y-46728095D01*
X174892380Y-46632857D01*
X174892380Y-46394761D01*
X174940000Y-46299523D01*
X174987619Y-46251904D01*
X175082857Y-46204285D01*
X175178095Y-46204285D01*
X175320952Y-46251904D01*
X175892380Y-46823333D01*
X175892380Y-46204285D01*
X182242380Y-31916666D02*
X181766190Y-32250000D01*
X182242380Y-32488095D02*
X181242380Y-32488095D01*
X181242380Y-32107142D01*
X181290000Y-32011904D01*
X181337619Y-31964285D01*
X181432857Y-31916666D01*
X181575714Y-31916666D01*
X181670952Y-31964285D01*
X181718571Y-32011904D01*
X181766190Y-32107142D01*
X181766190Y-32488095D01*
X182242380Y-30964285D02*
X182242380Y-31535714D01*
X182242380Y-31250000D02*
X181242380Y-31250000D01*
X181385238Y-31345238D01*
X181480476Y-31440476D01*
X181528095Y-31535714D01*
X161123333Y-26032380D02*
X160790000Y-25556190D01*
X160551904Y-26032380D02*
X160551904Y-25032380D01*
X160932857Y-25032380D01*
X161028095Y-25080000D01*
X161075714Y-25127619D01*
X161123333Y-25222857D01*
X161123333Y-25365714D01*
X161075714Y-25460952D01*
X161028095Y-25508571D01*
X160932857Y-25556190D01*
X160551904Y-25556190D01*
X161742380Y-25032380D02*
X161837619Y-25032380D01*
X161932857Y-25080000D01*
X161980476Y-25127619D01*
X162028095Y-25222857D01*
X162075714Y-25413333D01*
X162075714Y-25651428D01*
X162028095Y-25841904D01*
X161980476Y-25937142D01*
X161932857Y-25984761D01*
X161837619Y-26032380D01*
X161742380Y-26032380D01*
X161647142Y-25984761D01*
X161599523Y-25937142D01*
X161551904Y-25841904D01*
X161504285Y-25651428D01*
X161504285Y-25413333D01*
X161551904Y-25222857D01*
X161599523Y-25127619D01*
X161647142Y-25080000D01*
X161742380Y-25032380D01*
X37692380Y-37028095D02*
X36692380Y-37028095D01*
X36692380Y-36647142D01*
X36740000Y-36551904D01*
X36787619Y-36504285D01*
X36882857Y-36456666D01*
X37025714Y-36456666D01*
X37120952Y-36504285D01*
X37168571Y-36551904D01*
X37216190Y-36647142D01*
X37216190Y-37028095D01*
X37692380Y-35885238D02*
X37644761Y-35980476D01*
X37597142Y-36028095D01*
X37501904Y-36075714D01*
X37216190Y-36075714D01*
X37120952Y-36028095D01*
X37073333Y-35980476D01*
X37025714Y-35885238D01*
X37025714Y-35742380D01*
X37073333Y-35647142D01*
X37120952Y-35599523D01*
X37216190Y-35551904D01*
X37501904Y-35551904D01*
X37597142Y-35599523D01*
X37644761Y-35647142D01*
X37692380Y-35742380D01*
X37692380Y-35885238D01*
X37025714Y-35218571D02*
X37692380Y-35028095D01*
X37216190Y-34837619D01*
X37692380Y-34647142D01*
X37025714Y-34456666D01*
X37644761Y-33694761D02*
X37692380Y-33790000D01*
X37692380Y-33980476D01*
X37644761Y-34075714D01*
X37549523Y-34123333D01*
X37168571Y-34123333D01*
X37073333Y-34075714D01*
X37025714Y-33980476D01*
X37025714Y-33790000D01*
X37073333Y-33694761D01*
X37168571Y-33647142D01*
X37263809Y-33647142D01*
X37359047Y-34123333D01*
X37692380Y-33218571D02*
X37025714Y-33218571D01*
X37216190Y-33218571D02*
X37120952Y-33170952D01*
X37073333Y-33123333D01*
X37025714Y-33028095D01*
X37025714Y-32932857D01*
X37787619Y-32837619D02*
X37787619Y-32075714D01*
X37644761Y-31885238D02*
X37692380Y-31790000D01*
X37692380Y-31599523D01*
X37644761Y-31504285D01*
X37549523Y-31456666D01*
X37501904Y-31456666D01*
X37406666Y-31504285D01*
X37359047Y-31599523D01*
X37359047Y-31742380D01*
X37311428Y-31837619D01*
X37216190Y-31885238D01*
X37168571Y-31885238D01*
X37073333Y-31837619D01*
X37025714Y-31742380D01*
X37025714Y-31599523D01*
X37073333Y-31504285D01*
X37025714Y-30599523D02*
X37692380Y-30599523D01*
X37025714Y-31028095D02*
X37549523Y-31028095D01*
X37644761Y-30980476D01*
X37692380Y-30885238D01*
X37692380Y-30742380D01*
X37644761Y-30647142D01*
X37597142Y-30599523D01*
X37025714Y-30123333D02*
X38025714Y-30123333D01*
X37073333Y-30123333D02*
X37025714Y-30028095D01*
X37025714Y-29837619D01*
X37073333Y-29742380D01*
X37120952Y-29694761D01*
X37216190Y-29647142D01*
X37501904Y-29647142D01*
X37597142Y-29694761D01*
X37644761Y-29742380D01*
X37692380Y-29837619D01*
X37692380Y-30028095D01*
X37644761Y-30123333D01*
X37025714Y-29218571D02*
X38025714Y-29218571D01*
X37073333Y-29218571D02*
X37025714Y-29123333D01*
X37025714Y-28932857D01*
X37073333Y-28837619D01*
X37120952Y-28790000D01*
X37216190Y-28742380D01*
X37501904Y-28742380D01*
X37597142Y-28790000D01*
X37644761Y-28837619D01*
X37692380Y-28932857D01*
X37692380Y-29123333D01*
X37644761Y-29218571D01*
X37692380Y-28170952D02*
X37644761Y-28266190D01*
X37549523Y-28313809D01*
X36692380Y-28313809D01*
X37025714Y-27885238D02*
X37692380Y-27647142D01*
X37025714Y-27409047D02*
X37692380Y-27647142D01*
X37930476Y-27742380D01*
X37978095Y-27790000D01*
X38025714Y-27885238D01*
X37692380Y-26504285D02*
X37692380Y-27075714D01*
X37692380Y-26790000D02*
X36692380Y-26790000D01*
X36835238Y-26885238D01*
X36930476Y-26980476D01*
X36978095Y-27075714D01*
X62002380Y-17605238D02*
X62002380Y-17414761D01*
X61954761Y-17319523D01*
X61907142Y-17271904D01*
X61764285Y-17176666D01*
X61573809Y-17129047D01*
X61192857Y-17129047D01*
X61097619Y-17176666D01*
X61050000Y-17224285D01*
X61002380Y-17319523D01*
X61002380Y-17510000D01*
X61050000Y-17605238D01*
X61097619Y-17652857D01*
X61192857Y-17700476D01*
X61430952Y-17700476D01*
X61526190Y-17652857D01*
X61573809Y-17605238D01*
X61621428Y-17510000D01*
X61621428Y-17319523D01*
X61573809Y-17224285D01*
X61526190Y-17176666D01*
X61430952Y-17129047D01*
X61002380Y-16843333D02*
X62002380Y-16510000D01*
X61002380Y-16176666D01*
X62002380Y-15319523D02*
X62002380Y-15890952D01*
X62002380Y-15605238D02*
X61002380Y-15605238D01*
X61145238Y-15700476D01*
X61240476Y-15795714D01*
X61288095Y-15890952D01*
X32792380Y-60785238D02*
X32792380Y-60594761D01*
X32744761Y-60499523D01*
X32697142Y-60451904D01*
X32554285Y-60356666D01*
X32363809Y-60309047D01*
X31982857Y-60309047D01*
X31887619Y-60356666D01*
X31840000Y-60404285D01*
X31792380Y-60499523D01*
X31792380Y-60690000D01*
X31840000Y-60785238D01*
X31887619Y-60832857D01*
X31982857Y-60880476D01*
X32220952Y-60880476D01*
X32316190Y-60832857D01*
X32363809Y-60785238D01*
X32411428Y-60690000D01*
X32411428Y-60499523D01*
X32363809Y-60404285D01*
X32316190Y-60356666D01*
X32220952Y-60309047D01*
X31792380Y-60023333D02*
X32792380Y-59690000D01*
X31792380Y-59356666D01*
X31887619Y-59070952D02*
X31840000Y-59023333D01*
X31792380Y-58928095D01*
X31792380Y-58690000D01*
X31840000Y-58594761D01*
X31887619Y-58547142D01*
X31982857Y-58499523D01*
X32078095Y-58499523D01*
X32220952Y-58547142D01*
X32792380Y-59118571D01*
X32792380Y-58499523D01*
X139472380Y-113140952D02*
X138948571Y-113140952D01*
X138853333Y-113188571D01*
X138805714Y-113283809D01*
X138805714Y-113474285D01*
X138853333Y-113569523D01*
X139424761Y-113140952D02*
X139472380Y-113236190D01*
X139472380Y-113474285D01*
X139424761Y-113569523D01*
X139329523Y-113617142D01*
X139234285Y-113617142D01*
X139139047Y-113569523D01*
X139091428Y-113474285D01*
X139091428Y-113236190D01*
X139043809Y-113140952D01*
X139472380Y-112664761D02*
X138805714Y-112664761D01*
X138900952Y-112664761D02*
X138853333Y-112617142D01*
X138805714Y-112521904D01*
X138805714Y-112379047D01*
X138853333Y-112283809D01*
X138948571Y-112236190D01*
X139472380Y-112236190D01*
X138948571Y-112236190D02*
X138853333Y-112188571D01*
X138805714Y-112093333D01*
X138805714Y-111950476D01*
X138853333Y-111855238D01*
X138948571Y-111807619D01*
X139472380Y-111807619D01*
X138805714Y-111331428D02*
X139805714Y-111331428D01*
X138853333Y-111331428D02*
X138805714Y-111236190D01*
X138805714Y-111045714D01*
X138853333Y-110950476D01*
X138900952Y-110902857D01*
X138996190Y-110855238D01*
X139281904Y-110855238D01*
X139377142Y-110902857D01*
X139424761Y-110950476D01*
X139472380Y-111045714D01*
X139472380Y-111236190D01*
X139424761Y-111331428D01*
X139472380Y-109902857D02*
X139472380Y-110474285D01*
X139472380Y-110188571D02*
X138472380Y-110188571D01*
X138615238Y-110283809D01*
X138710476Y-110379047D01*
X138758095Y-110474285D01*
X92482380Y-91550952D02*
X91958571Y-91550952D01*
X91863333Y-91598571D01*
X91815714Y-91693809D01*
X91815714Y-91884285D01*
X91863333Y-91979523D01*
X92434761Y-91550952D02*
X92482380Y-91646190D01*
X92482380Y-91884285D01*
X92434761Y-91979523D01*
X92339523Y-92027142D01*
X92244285Y-92027142D01*
X92149047Y-91979523D01*
X92101428Y-91884285D01*
X92101428Y-91646190D01*
X92053809Y-91550952D01*
X92482380Y-91074761D02*
X91815714Y-91074761D01*
X91910952Y-91074761D02*
X91863333Y-91027142D01*
X91815714Y-90931904D01*
X91815714Y-90789047D01*
X91863333Y-90693809D01*
X91958571Y-90646190D01*
X92482380Y-90646190D01*
X91958571Y-90646190D02*
X91863333Y-90598571D01*
X91815714Y-90503333D01*
X91815714Y-90360476D01*
X91863333Y-90265238D01*
X91958571Y-90217619D01*
X92482380Y-90217619D01*
X91815714Y-89741428D02*
X92815714Y-89741428D01*
X91863333Y-89741428D02*
X91815714Y-89646190D01*
X91815714Y-89455714D01*
X91863333Y-89360476D01*
X91910952Y-89312857D01*
X92006190Y-89265238D01*
X92291904Y-89265238D01*
X92387142Y-89312857D01*
X92434761Y-89360476D01*
X92482380Y-89455714D01*
X92482380Y-89646190D01*
X92434761Y-89741428D01*
X91577619Y-88884285D02*
X91530000Y-88836666D01*
X91482380Y-88741428D01*
X91482380Y-88503333D01*
X91530000Y-88408095D01*
X91577619Y-88360476D01*
X91672857Y-88312857D01*
X91768095Y-88312857D01*
X91910952Y-88360476D01*
X92482380Y-88931904D01*
X92482380Y-88312857D01*
X35332380Y-106790952D02*
X34808571Y-106790952D01*
X34713333Y-106838571D01*
X34665714Y-106933809D01*
X34665714Y-107124285D01*
X34713333Y-107219523D01*
X35284761Y-106790952D02*
X35332380Y-106886190D01*
X35332380Y-107124285D01*
X35284761Y-107219523D01*
X35189523Y-107267142D01*
X35094285Y-107267142D01*
X34999047Y-107219523D01*
X34951428Y-107124285D01*
X34951428Y-106886190D01*
X34903809Y-106790952D01*
X35332380Y-106314761D02*
X34665714Y-106314761D01*
X34760952Y-106314761D02*
X34713333Y-106267142D01*
X34665714Y-106171904D01*
X34665714Y-106029047D01*
X34713333Y-105933809D01*
X34808571Y-105886190D01*
X35332380Y-105886190D01*
X34808571Y-105886190D02*
X34713333Y-105838571D01*
X34665714Y-105743333D01*
X34665714Y-105600476D01*
X34713333Y-105505238D01*
X34808571Y-105457619D01*
X35332380Y-105457619D01*
X34665714Y-104981428D02*
X35665714Y-104981428D01*
X34713333Y-104981428D02*
X34665714Y-104886190D01*
X34665714Y-104695714D01*
X34713333Y-104600476D01*
X34760952Y-104552857D01*
X34856190Y-104505238D01*
X35141904Y-104505238D01*
X35237142Y-104552857D01*
X35284761Y-104600476D01*
X35332380Y-104695714D01*
X35332380Y-104886190D01*
X35284761Y-104981428D01*
X34332380Y-104171904D02*
X34332380Y-103552857D01*
X34713333Y-103886190D01*
X34713333Y-103743333D01*
X34760952Y-103648095D01*
X34808571Y-103600476D01*
X34903809Y-103552857D01*
X35141904Y-103552857D01*
X35237142Y-103600476D01*
X35284761Y-103648095D01*
X35332380Y-103743333D01*
X35332380Y-104029047D01*
X35284761Y-104124285D01*
X35237142Y-104171904D01*
X140694761Y-75477142D02*
X140742380Y-75572380D01*
X140742380Y-75762857D01*
X140694761Y-75858095D01*
X140647142Y-75905714D01*
X140551904Y-75953333D01*
X140266190Y-75953333D01*
X140170952Y-75905714D01*
X140123333Y-75858095D01*
X140075714Y-75762857D01*
X140075714Y-75572380D01*
X140123333Y-75477142D01*
X140075714Y-74620000D02*
X140742380Y-74620000D01*
X140075714Y-75048571D02*
X140599523Y-75048571D01*
X140694761Y-75000952D01*
X140742380Y-74905714D01*
X140742380Y-74762857D01*
X140694761Y-74667619D01*
X140647142Y-74620000D01*
X140742380Y-74143809D02*
X140075714Y-74143809D01*
X140266190Y-74143809D02*
X140170952Y-74096190D01*
X140123333Y-74048571D01*
X140075714Y-73953333D01*
X140075714Y-73858095D01*
X140742380Y-73524761D02*
X140075714Y-73524761D01*
X140266190Y-73524761D02*
X140170952Y-73477142D01*
X140123333Y-73429523D01*
X140075714Y-73334285D01*
X140075714Y-73239047D01*
X140694761Y-72524761D02*
X140742380Y-72620000D01*
X140742380Y-72810476D01*
X140694761Y-72905714D01*
X140599523Y-72953333D01*
X140218571Y-72953333D01*
X140123333Y-72905714D01*
X140075714Y-72810476D01*
X140075714Y-72620000D01*
X140123333Y-72524761D01*
X140218571Y-72477142D01*
X140313809Y-72477142D01*
X140409047Y-72953333D01*
X140075714Y-72048571D02*
X140742380Y-72048571D01*
X140170952Y-72048571D02*
X140123333Y-72000952D01*
X140075714Y-71905714D01*
X140075714Y-71762857D01*
X140123333Y-71667619D01*
X140218571Y-71620000D01*
X140742380Y-71620000D01*
X140075714Y-71286666D02*
X140075714Y-70905714D01*
X139742380Y-71143809D02*
X140599523Y-71143809D01*
X140694761Y-71096190D01*
X140742380Y-71000952D01*
X140742380Y-70905714D01*
X140075714Y-70572380D02*
X141075714Y-70572380D01*
X140123333Y-70572380D02*
X140075714Y-70477142D01*
X140075714Y-70286666D01*
X140123333Y-70191428D01*
X140170952Y-70143809D01*
X140266190Y-70096190D01*
X140551904Y-70096190D01*
X140647142Y-70143809D01*
X140694761Y-70191428D01*
X140742380Y-70286666D01*
X140742380Y-70477142D01*
X140694761Y-70572380D01*
X140742380Y-69524761D02*
X140694761Y-69620000D01*
X140647142Y-69667619D01*
X140551904Y-69715238D01*
X140266190Y-69715238D01*
X140170952Y-69667619D01*
X140123333Y-69620000D01*
X140075714Y-69524761D01*
X140075714Y-69381904D01*
X140123333Y-69286666D01*
X140170952Y-69239047D01*
X140266190Y-69191428D01*
X140551904Y-69191428D01*
X140647142Y-69239047D01*
X140694761Y-69286666D01*
X140742380Y-69381904D01*
X140742380Y-69524761D01*
X140742380Y-68762857D02*
X140075714Y-68762857D01*
X139742380Y-68762857D02*
X139790000Y-68810476D01*
X139837619Y-68762857D01*
X139790000Y-68715238D01*
X139742380Y-68762857D01*
X139837619Y-68762857D01*
X140075714Y-68286666D02*
X140742380Y-68286666D01*
X140170952Y-68286666D02*
X140123333Y-68239047D01*
X140075714Y-68143809D01*
X140075714Y-68000952D01*
X140123333Y-67905714D01*
X140218571Y-67858095D01*
X140742380Y-67858095D01*
X140075714Y-67524761D02*
X140075714Y-67143809D01*
X139742380Y-67381904D02*
X140599523Y-67381904D01*
X140694761Y-67334285D01*
X140742380Y-67239047D01*
X140742380Y-67143809D01*
X140742380Y-66286666D02*
X140742380Y-66858095D01*
X140742380Y-66572380D02*
X139742380Y-66572380D01*
X139885238Y-66667619D01*
X139980476Y-66762857D01*
X140028095Y-66858095D01*
X91164761Y-39917142D02*
X91212380Y-40012380D01*
X91212380Y-40202857D01*
X91164761Y-40298095D01*
X91117142Y-40345714D01*
X91021904Y-40393333D01*
X90736190Y-40393333D01*
X90640952Y-40345714D01*
X90593333Y-40298095D01*
X90545714Y-40202857D01*
X90545714Y-40012380D01*
X90593333Y-39917142D01*
X90545714Y-39060000D02*
X91212380Y-39060000D01*
X90545714Y-39488571D02*
X91069523Y-39488571D01*
X91164761Y-39440952D01*
X91212380Y-39345714D01*
X91212380Y-39202857D01*
X91164761Y-39107619D01*
X91117142Y-39060000D01*
X91212380Y-38583809D02*
X90545714Y-38583809D01*
X90736190Y-38583809D02*
X90640952Y-38536190D01*
X90593333Y-38488571D01*
X90545714Y-38393333D01*
X90545714Y-38298095D01*
X91212380Y-37964761D02*
X90545714Y-37964761D01*
X90736190Y-37964761D02*
X90640952Y-37917142D01*
X90593333Y-37869523D01*
X90545714Y-37774285D01*
X90545714Y-37679047D01*
X91164761Y-36964761D02*
X91212380Y-37060000D01*
X91212380Y-37250476D01*
X91164761Y-37345714D01*
X91069523Y-37393333D01*
X90688571Y-37393333D01*
X90593333Y-37345714D01*
X90545714Y-37250476D01*
X90545714Y-37060000D01*
X90593333Y-36964761D01*
X90688571Y-36917142D01*
X90783809Y-36917142D01*
X90879047Y-37393333D01*
X90545714Y-36488571D02*
X91212380Y-36488571D01*
X90640952Y-36488571D02*
X90593333Y-36440952D01*
X90545714Y-36345714D01*
X90545714Y-36202857D01*
X90593333Y-36107619D01*
X90688571Y-36060000D01*
X91212380Y-36060000D01*
X90545714Y-35726666D02*
X90545714Y-35345714D01*
X90212380Y-35583809D02*
X91069523Y-35583809D01*
X91164761Y-35536190D01*
X91212380Y-35440952D01*
X91212380Y-35345714D01*
X90545714Y-35012380D02*
X91545714Y-35012380D01*
X90593333Y-35012380D02*
X90545714Y-34917142D01*
X90545714Y-34726666D01*
X90593333Y-34631428D01*
X90640952Y-34583809D01*
X90736190Y-34536190D01*
X91021904Y-34536190D01*
X91117142Y-34583809D01*
X91164761Y-34631428D01*
X91212380Y-34726666D01*
X91212380Y-34917142D01*
X91164761Y-35012380D01*
X91212380Y-33964761D02*
X91164761Y-34060000D01*
X91117142Y-34107619D01*
X91021904Y-34155238D01*
X90736190Y-34155238D01*
X90640952Y-34107619D01*
X90593333Y-34060000D01*
X90545714Y-33964761D01*
X90545714Y-33821904D01*
X90593333Y-33726666D01*
X90640952Y-33679047D01*
X90736190Y-33631428D01*
X91021904Y-33631428D01*
X91117142Y-33679047D01*
X91164761Y-33726666D01*
X91212380Y-33821904D01*
X91212380Y-33964761D01*
X91212380Y-33202857D02*
X90545714Y-33202857D01*
X90212380Y-33202857D02*
X90260000Y-33250476D01*
X90307619Y-33202857D01*
X90260000Y-33155238D01*
X90212380Y-33202857D01*
X90307619Y-33202857D01*
X90545714Y-32726666D02*
X91212380Y-32726666D01*
X90640952Y-32726666D02*
X90593333Y-32679047D01*
X90545714Y-32583809D01*
X90545714Y-32440952D01*
X90593333Y-32345714D01*
X90688571Y-32298095D01*
X91212380Y-32298095D01*
X90545714Y-31964761D02*
X90545714Y-31583809D01*
X90212380Y-31821904D02*
X91069523Y-31821904D01*
X91164761Y-31774285D01*
X91212380Y-31679047D01*
X91212380Y-31583809D01*
X90307619Y-31298095D02*
X90260000Y-31250476D01*
X90212380Y-31155238D01*
X90212380Y-30917142D01*
X90260000Y-30821904D01*
X90307619Y-30774285D01*
X90402857Y-30726666D01*
X90498095Y-30726666D01*
X90640952Y-30774285D01*
X91212380Y-31345714D01*
X91212380Y-30726666D01*
X49254761Y-52617142D02*
X49302380Y-52712380D01*
X49302380Y-52902857D01*
X49254761Y-52998095D01*
X49207142Y-53045714D01*
X49111904Y-53093333D01*
X48826190Y-53093333D01*
X48730952Y-53045714D01*
X48683333Y-52998095D01*
X48635714Y-52902857D01*
X48635714Y-52712380D01*
X48683333Y-52617142D01*
X48635714Y-51760000D02*
X49302380Y-51760000D01*
X48635714Y-52188571D02*
X49159523Y-52188571D01*
X49254761Y-52140952D01*
X49302380Y-52045714D01*
X49302380Y-51902857D01*
X49254761Y-51807619D01*
X49207142Y-51760000D01*
X49302380Y-51283809D02*
X48635714Y-51283809D01*
X48826190Y-51283809D02*
X48730952Y-51236190D01*
X48683333Y-51188571D01*
X48635714Y-51093333D01*
X48635714Y-50998095D01*
X49302380Y-50664761D02*
X48635714Y-50664761D01*
X48826190Y-50664761D02*
X48730952Y-50617142D01*
X48683333Y-50569523D01*
X48635714Y-50474285D01*
X48635714Y-50379047D01*
X49254761Y-49664761D02*
X49302380Y-49760000D01*
X49302380Y-49950476D01*
X49254761Y-50045714D01*
X49159523Y-50093333D01*
X48778571Y-50093333D01*
X48683333Y-50045714D01*
X48635714Y-49950476D01*
X48635714Y-49760000D01*
X48683333Y-49664761D01*
X48778571Y-49617142D01*
X48873809Y-49617142D01*
X48969047Y-50093333D01*
X48635714Y-49188571D02*
X49302380Y-49188571D01*
X48730952Y-49188571D02*
X48683333Y-49140952D01*
X48635714Y-49045714D01*
X48635714Y-48902857D01*
X48683333Y-48807619D01*
X48778571Y-48760000D01*
X49302380Y-48760000D01*
X48635714Y-48426666D02*
X48635714Y-48045714D01*
X48302380Y-48283809D02*
X49159523Y-48283809D01*
X49254761Y-48236190D01*
X49302380Y-48140952D01*
X49302380Y-48045714D01*
X48635714Y-47712380D02*
X49635714Y-47712380D01*
X48683333Y-47712380D02*
X48635714Y-47617142D01*
X48635714Y-47426666D01*
X48683333Y-47331428D01*
X48730952Y-47283809D01*
X48826190Y-47236190D01*
X49111904Y-47236190D01*
X49207142Y-47283809D01*
X49254761Y-47331428D01*
X49302380Y-47426666D01*
X49302380Y-47617142D01*
X49254761Y-47712380D01*
X49302380Y-46664761D02*
X49254761Y-46760000D01*
X49207142Y-46807619D01*
X49111904Y-46855238D01*
X48826190Y-46855238D01*
X48730952Y-46807619D01*
X48683333Y-46760000D01*
X48635714Y-46664761D01*
X48635714Y-46521904D01*
X48683333Y-46426666D01*
X48730952Y-46379047D01*
X48826190Y-46331428D01*
X49111904Y-46331428D01*
X49207142Y-46379047D01*
X49254761Y-46426666D01*
X49302380Y-46521904D01*
X49302380Y-46664761D01*
X49302380Y-45902857D02*
X48635714Y-45902857D01*
X48302380Y-45902857D02*
X48350000Y-45950476D01*
X48397619Y-45902857D01*
X48350000Y-45855238D01*
X48302380Y-45902857D01*
X48397619Y-45902857D01*
X48635714Y-45426666D02*
X49302380Y-45426666D01*
X48730952Y-45426666D02*
X48683333Y-45379047D01*
X48635714Y-45283809D01*
X48635714Y-45140952D01*
X48683333Y-45045714D01*
X48778571Y-44998095D01*
X49302380Y-44998095D01*
X48635714Y-44664761D02*
X48635714Y-44283809D01*
X48302380Y-44521904D02*
X49159523Y-44521904D01*
X49254761Y-44474285D01*
X49302380Y-44379047D01*
X49302380Y-44283809D01*
X48302380Y-44045714D02*
X48302380Y-43426666D01*
X48683333Y-43760000D01*
X48683333Y-43617142D01*
X48730952Y-43521904D01*
X48778571Y-43474285D01*
X48873809Y-43426666D01*
X49111904Y-43426666D01*
X49207142Y-43474285D01*
X49254761Y-43521904D01*
X49302380Y-43617142D01*
X49302380Y-43902857D01*
X49254761Y-43998095D01*
X49207142Y-44045714D01*
X20410000Y-74898095D02*
X20362380Y-74993333D01*
X20362380Y-75136190D01*
X20410000Y-75279047D01*
X20505238Y-75374285D01*
X20600476Y-75421904D01*
X20790952Y-75469523D01*
X20933809Y-75469523D01*
X21124285Y-75421904D01*
X21219523Y-75374285D01*
X21314761Y-75279047D01*
X21362380Y-75136190D01*
X21362380Y-75040952D01*
X21314761Y-74898095D01*
X21267142Y-74850476D01*
X20933809Y-74850476D01*
X20933809Y-75040952D01*
X21362380Y-74421904D02*
X20362380Y-74421904D01*
X21362380Y-73850476D01*
X20362380Y-73850476D01*
X21362380Y-73374285D02*
X20362380Y-73374285D01*
X20362380Y-73136190D01*
X20410000Y-72993333D01*
X20505238Y-72898095D01*
X20600476Y-72850476D01*
X20790952Y-72802857D01*
X20933809Y-72802857D01*
X21124285Y-72850476D01*
X21219523Y-72898095D01*
X21314761Y-72993333D01*
X21362380Y-73136190D01*
X21362380Y-73374285D01*
X21362380Y-71850476D02*
X21362380Y-72421904D01*
X21362380Y-72136190D02*
X20362380Y-72136190D01*
X20505238Y-72231428D01*
X20600476Y-72326666D01*
X20648095Y-72421904D01*
X167412380Y-114720476D02*
X166412380Y-114720476D01*
X166888571Y-114720476D02*
X166888571Y-114149047D01*
X167412380Y-114149047D02*
X166412380Y-114149047D01*
X167412380Y-113672857D02*
X166412380Y-113672857D01*
X166412380Y-113291904D01*
X166460000Y-113196666D01*
X166507619Y-113149047D01*
X166602857Y-113101428D01*
X166745714Y-113101428D01*
X166840952Y-113149047D01*
X166888571Y-113196666D01*
X166936190Y-113291904D01*
X166936190Y-113672857D01*
X166888571Y-112339523D02*
X166888571Y-112672857D01*
X167412380Y-112672857D02*
X166412380Y-112672857D01*
X166412380Y-112196666D01*
X167412380Y-111291904D02*
X167412380Y-111863333D01*
X167412380Y-111577619D02*
X166412380Y-111577619D01*
X166555238Y-111672857D01*
X166650476Y-111768095D01*
X166698095Y-111863333D01*
X106452380Y-117260476D02*
X105452380Y-117260476D01*
X105928571Y-117260476D02*
X105928571Y-116689047D01*
X106452380Y-116689047D02*
X105452380Y-116689047D01*
X106452380Y-116212857D02*
X105452380Y-116212857D01*
X105452380Y-115831904D01*
X105500000Y-115736666D01*
X105547619Y-115689047D01*
X105642857Y-115641428D01*
X105785714Y-115641428D01*
X105880952Y-115689047D01*
X105928571Y-115736666D01*
X105976190Y-115831904D01*
X105976190Y-116212857D01*
X105928571Y-114879523D02*
X105928571Y-115212857D01*
X106452380Y-115212857D02*
X105452380Y-115212857D01*
X105452380Y-114736666D01*
X105547619Y-114403333D02*
X105500000Y-114355714D01*
X105452380Y-114260476D01*
X105452380Y-114022380D01*
X105500000Y-113927142D01*
X105547619Y-113879523D01*
X105642857Y-113831904D01*
X105738095Y-113831904D01*
X105880952Y-113879523D01*
X106452380Y-114450952D01*
X106452380Y-113831904D01*
X50572380Y-114720476D02*
X49572380Y-114720476D01*
X50048571Y-114720476D02*
X50048571Y-114149047D01*
X50572380Y-114149047D02*
X49572380Y-114149047D01*
X50572380Y-113672857D02*
X49572380Y-113672857D01*
X49572380Y-113291904D01*
X49620000Y-113196666D01*
X49667619Y-113149047D01*
X49762857Y-113101428D01*
X49905714Y-113101428D01*
X50000952Y-113149047D01*
X50048571Y-113196666D01*
X50096190Y-113291904D01*
X50096190Y-113672857D01*
X50048571Y-112339523D02*
X50048571Y-112672857D01*
X50572380Y-112672857D02*
X49572380Y-112672857D01*
X49572380Y-112196666D01*
X49572380Y-111910952D02*
X49572380Y-111291904D01*
X49953333Y-111625238D01*
X49953333Y-111482380D01*
X50000952Y-111387142D01*
X50048571Y-111339523D01*
X50143809Y-111291904D01*
X50381904Y-111291904D01*
X50477142Y-111339523D01*
X50524761Y-111387142D01*
X50572380Y-111482380D01*
X50572380Y-111768095D01*
X50524761Y-111863333D01*
X50477142Y-111910952D01*
X174032380Y-90130000D02*
X174032380Y-89939523D01*
X174080000Y-89844285D01*
X174175238Y-89749047D01*
X174365714Y-89701428D01*
X174699047Y-89701428D01*
X174889523Y-89749047D01*
X174984761Y-89844285D01*
X175032380Y-89939523D01*
X175032380Y-90130000D01*
X174984761Y-90225238D01*
X174889523Y-90320476D01*
X174699047Y-90368095D01*
X174365714Y-90368095D01*
X174175238Y-90320476D01*
X174080000Y-90225238D01*
X174032380Y-90130000D01*
X174365714Y-88844285D02*
X175032380Y-88844285D01*
X174365714Y-89272857D02*
X174889523Y-89272857D01*
X174984761Y-89225238D01*
X175032380Y-89130000D01*
X175032380Y-88987142D01*
X174984761Y-88891904D01*
X174937142Y-88844285D01*
X174365714Y-88510952D02*
X174365714Y-88130000D01*
X174032380Y-88368095D02*
X174889523Y-88368095D01*
X174984761Y-88320476D01*
X175032380Y-88225238D01*
X175032380Y-88130000D01*
X174365714Y-87796666D02*
X175365714Y-87796666D01*
X174413333Y-87796666D02*
X174365714Y-87701428D01*
X174365714Y-87510952D01*
X174413333Y-87415714D01*
X174460952Y-87368095D01*
X174556190Y-87320476D01*
X174841904Y-87320476D01*
X174937142Y-87368095D01*
X174984761Y-87415714D01*
X175032380Y-87510952D01*
X175032380Y-87701428D01*
X174984761Y-87796666D01*
X174365714Y-86463333D02*
X175032380Y-86463333D01*
X174365714Y-86891904D02*
X174889523Y-86891904D01*
X174984761Y-86844285D01*
X175032380Y-86749047D01*
X175032380Y-86606190D01*
X174984761Y-86510952D01*
X174937142Y-86463333D01*
X174365714Y-86130000D02*
X174365714Y-85749047D01*
X174032380Y-85987142D02*
X174889523Y-85987142D01*
X174984761Y-85939523D01*
X175032380Y-85844285D01*
X175032380Y-85749047D01*
X175032380Y-84891904D02*
X175032380Y-85463333D01*
X175032380Y-85177619D02*
X174032380Y-85177619D01*
X174175238Y-85272857D01*
X174270476Y-85368095D01*
X174318095Y-85463333D01*
X78780000Y-113162380D02*
X78970476Y-113162380D01*
X79065714Y-113210000D01*
X79160952Y-113305238D01*
X79208571Y-113495714D01*
X79208571Y-113829047D01*
X79160952Y-114019523D01*
X79065714Y-114114761D01*
X78970476Y-114162380D01*
X78780000Y-114162380D01*
X78684761Y-114114761D01*
X78589523Y-114019523D01*
X78541904Y-113829047D01*
X78541904Y-113495714D01*
X78589523Y-113305238D01*
X78684761Y-113210000D01*
X78780000Y-113162380D01*
X80065714Y-113495714D02*
X80065714Y-114162380D01*
X79637142Y-113495714D02*
X79637142Y-114019523D01*
X79684761Y-114114761D01*
X79780000Y-114162380D01*
X79922857Y-114162380D01*
X80018095Y-114114761D01*
X80065714Y-114067142D01*
X80399047Y-113495714D02*
X80780000Y-113495714D01*
X80541904Y-113162380D02*
X80541904Y-114019523D01*
X80589523Y-114114761D01*
X80684761Y-114162380D01*
X80780000Y-114162380D01*
X81113333Y-113495714D02*
X81113333Y-114495714D01*
X81113333Y-113543333D02*
X81208571Y-113495714D01*
X81399047Y-113495714D01*
X81494285Y-113543333D01*
X81541904Y-113590952D01*
X81589523Y-113686190D01*
X81589523Y-113971904D01*
X81541904Y-114067142D01*
X81494285Y-114114761D01*
X81399047Y-114162380D01*
X81208571Y-114162380D01*
X81113333Y-114114761D01*
X82446666Y-113495714D02*
X82446666Y-114162380D01*
X82018095Y-113495714D02*
X82018095Y-114019523D01*
X82065714Y-114114761D01*
X82160952Y-114162380D01*
X82303809Y-114162380D01*
X82399047Y-114114761D01*
X82446666Y-114067142D01*
X82780000Y-113495714D02*
X83160952Y-113495714D01*
X82922857Y-113162380D02*
X82922857Y-114019523D01*
X82970476Y-114114761D01*
X83065714Y-114162380D01*
X83160952Y-114162380D01*
X83399047Y-113162380D02*
X84018095Y-113162380D01*
X83684761Y-113543333D01*
X83827619Y-113543333D01*
X83922857Y-113590952D01*
X83970476Y-113638571D01*
X84018095Y-113733809D01*
X84018095Y-113971904D01*
X83970476Y-114067142D01*
X83922857Y-114114761D01*
X83827619Y-114162380D01*
X83541904Y-114162380D01*
X83446666Y-114114761D01*
X83399047Y-114067142D01*
X143885714Y-119712857D02*
X143885714Y-119331904D01*
X143552380Y-119570000D02*
X144409523Y-119570000D01*
X144504761Y-119522380D01*
X144552380Y-119427142D01*
X144552380Y-119331904D01*
X144504761Y-118617619D02*
X144552380Y-118712857D01*
X144552380Y-118903333D01*
X144504761Y-118998571D01*
X144409523Y-119046190D01*
X144028571Y-119046190D01*
X143933333Y-118998571D01*
X143885714Y-118903333D01*
X143885714Y-118712857D01*
X143933333Y-118617619D01*
X144028571Y-118570000D01*
X144123809Y-118570000D01*
X144219047Y-119046190D01*
X144552380Y-118141428D02*
X143885714Y-118141428D01*
X143980952Y-118141428D02*
X143933333Y-118093809D01*
X143885714Y-117998571D01*
X143885714Y-117855714D01*
X143933333Y-117760476D01*
X144028571Y-117712857D01*
X144552380Y-117712857D01*
X144028571Y-117712857D02*
X143933333Y-117665238D01*
X143885714Y-117570000D01*
X143885714Y-117427142D01*
X143933333Y-117331904D01*
X144028571Y-117284285D01*
X144552380Y-117284285D01*
X143885714Y-116808095D02*
X144885714Y-116808095D01*
X143933333Y-116808095D02*
X143885714Y-116712857D01*
X143885714Y-116522380D01*
X143933333Y-116427142D01*
X143980952Y-116379523D01*
X144076190Y-116331904D01*
X144361904Y-116331904D01*
X144457142Y-116379523D01*
X144504761Y-116427142D01*
X144552380Y-116522380D01*
X144552380Y-116712857D01*
X144504761Y-116808095D01*
X143885714Y-115474761D02*
X144552380Y-115474761D01*
X143885714Y-115903333D02*
X144409523Y-115903333D01*
X144504761Y-115855714D01*
X144552380Y-115760476D01*
X144552380Y-115617619D01*
X144504761Y-115522380D01*
X144457142Y-115474761D01*
X143885714Y-115141428D02*
X143885714Y-114760476D01*
X143552380Y-114998571D02*
X144409523Y-114998571D01*
X144504761Y-114950952D01*
X144552380Y-114855714D01*
X144552380Y-114760476D01*
X143885714Y-113998571D02*
X144552380Y-113998571D01*
X143885714Y-114427142D02*
X144409523Y-114427142D01*
X144504761Y-114379523D01*
X144552380Y-114284285D01*
X144552380Y-114141428D01*
X144504761Y-114046190D01*
X144457142Y-113998571D01*
X144552380Y-113522380D02*
X143885714Y-113522380D01*
X144076190Y-113522380D02*
X143980952Y-113474761D01*
X143933333Y-113427142D01*
X143885714Y-113331904D01*
X143885714Y-113236666D01*
X144504761Y-112522380D02*
X144552380Y-112617619D01*
X144552380Y-112808095D01*
X144504761Y-112903333D01*
X144409523Y-112950952D01*
X144028571Y-112950952D01*
X143933333Y-112903333D01*
X143885714Y-112808095D01*
X143885714Y-112617619D01*
X143933333Y-112522380D01*
X144028571Y-112474761D01*
X144123809Y-112474761D01*
X144219047Y-112950952D01*
X144552380Y-111522380D02*
X144552380Y-112093809D01*
X144552380Y-111808095D02*
X143552380Y-111808095D01*
X143695238Y-111903333D01*
X143790476Y-111998571D01*
X143838095Y-112093809D01*
X95625714Y-119712857D02*
X95625714Y-119331904D01*
X95292380Y-119570000D02*
X96149523Y-119570000D01*
X96244761Y-119522380D01*
X96292380Y-119427142D01*
X96292380Y-119331904D01*
X96244761Y-118617619D02*
X96292380Y-118712857D01*
X96292380Y-118903333D01*
X96244761Y-118998571D01*
X96149523Y-119046190D01*
X95768571Y-119046190D01*
X95673333Y-118998571D01*
X95625714Y-118903333D01*
X95625714Y-118712857D01*
X95673333Y-118617619D01*
X95768571Y-118570000D01*
X95863809Y-118570000D01*
X95959047Y-119046190D01*
X96292380Y-118141428D02*
X95625714Y-118141428D01*
X95720952Y-118141428D02*
X95673333Y-118093809D01*
X95625714Y-117998571D01*
X95625714Y-117855714D01*
X95673333Y-117760476D01*
X95768571Y-117712857D01*
X96292380Y-117712857D01*
X95768571Y-117712857D02*
X95673333Y-117665238D01*
X95625714Y-117570000D01*
X95625714Y-117427142D01*
X95673333Y-117331904D01*
X95768571Y-117284285D01*
X96292380Y-117284285D01*
X95625714Y-116808095D02*
X96625714Y-116808095D01*
X95673333Y-116808095D02*
X95625714Y-116712857D01*
X95625714Y-116522380D01*
X95673333Y-116427142D01*
X95720952Y-116379523D01*
X95816190Y-116331904D01*
X96101904Y-116331904D01*
X96197142Y-116379523D01*
X96244761Y-116427142D01*
X96292380Y-116522380D01*
X96292380Y-116712857D01*
X96244761Y-116808095D01*
X95625714Y-115474761D02*
X96292380Y-115474761D01*
X95625714Y-115903333D02*
X96149523Y-115903333D01*
X96244761Y-115855714D01*
X96292380Y-115760476D01*
X96292380Y-115617619D01*
X96244761Y-115522380D01*
X96197142Y-115474761D01*
X95625714Y-115141428D02*
X95625714Y-114760476D01*
X95292380Y-114998571D02*
X96149523Y-114998571D01*
X96244761Y-114950952D01*
X96292380Y-114855714D01*
X96292380Y-114760476D01*
X95625714Y-113998571D02*
X96292380Y-113998571D01*
X95625714Y-114427142D02*
X96149523Y-114427142D01*
X96244761Y-114379523D01*
X96292380Y-114284285D01*
X96292380Y-114141428D01*
X96244761Y-114046190D01*
X96197142Y-113998571D01*
X96292380Y-113522380D02*
X95625714Y-113522380D01*
X95816190Y-113522380D02*
X95720952Y-113474761D01*
X95673333Y-113427142D01*
X95625714Y-113331904D01*
X95625714Y-113236666D01*
X96244761Y-112522380D02*
X96292380Y-112617619D01*
X96292380Y-112808095D01*
X96244761Y-112903333D01*
X96149523Y-112950952D01*
X95768571Y-112950952D01*
X95673333Y-112903333D01*
X95625714Y-112808095D01*
X95625714Y-112617619D01*
X95673333Y-112522380D01*
X95768571Y-112474761D01*
X95863809Y-112474761D01*
X95959047Y-112950952D01*
X95387619Y-112093809D02*
X95340000Y-112046190D01*
X95292380Y-111950952D01*
X95292380Y-111712857D01*
X95340000Y-111617619D01*
X95387619Y-111570000D01*
X95482857Y-111522380D01*
X95578095Y-111522380D01*
X95720952Y-111570000D01*
X96292380Y-112141428D01*
X96292380Y-111522380D01*
X33395714Y-115902857D02*
X33395714Y-115521904D01*
X33062380Y-115760000D02*
X33919523Y-115760000D01*
X34014761Y-115712380D01*
X34062380Y-115617142D01*
X34062380Y-115521904D01*
X34014761Y-114807619D02*
X34062380Y-114902857D01*
X34062380Y-115093333D01*
X34014761Y-115188571D01*
X33919523Y-115236190D01*
X33538571Y-115236190D01*
X33443333Y-115188571D01*
X33395714Y-115093333D01*
X33395714Y-114902857D01*
X33443333Y-114807619D01*
X33538571Y-114760000D01*
X33633809Y-114760000D01*
X33729047Y-115236190D01*
X34062380Y-114331428D02*
X33395714Y-114331428D01*
X33490952Y-114331428D02*
X33443333Y-114283809D01*
X33395714Y-114188571D01*
X33395714Y-114045714D01*
X33443333Y-113950476D01*
X33538571Y-113902857D01*
X34062380Y-113902857D01*
X33538571Y-113902857D02*
X33443333Y-113855238D01*
X33395714Y-113760000D01*
X33395714Y-113617142D01*
X33443333Y-113521904D01*
X33538571Y-113474285D01*
X34062380Y-113474285D01*
X33395714Y-112998095D02*
X34395714Y-112998095D01*
X33443333Y-112998095D02*
X33395714Y-112902857D01*
X33395714Y-112712380D01*
X33443333Y-112617142D01*
X33490952Y-112569523D01*
X33586190Y-112521904D01*
X33871904Y-112521904D01*
X33967142Y-112569523D01*
X34014761Y-112617142D01*
X34062380Y-112712380D01*
X34062380Y-112902857D01*
X34014761Y-112998095D01*
X33395714Y-111664761D02*
X34062380Y-111664761D01*
X33395714Y-112093333D02*
X33919523Y-112093333D01*
X34014761Y-112045714D01*
X34062380Y-111950476D01*
X34062380Y-111807619D01*
X34014761Y-111712380D01*
X33967142Y-111664761D01*
X33395714Y-111331428D02*
X33395714Y-110950476D01*
X33062380Y-111188571D02*
X33919523Y-111188571D01*
X34014761Y-111140952D01*
X34062380Y-111045714D01*
X34062380Y-110950476D01*
X33395714Y-110188571D02*
X34062380Y-110188571D01*
X33395714Y-110617142D02*
X33919523Y-110617142D01*
X34014761Y-110569523D01*
X34062380Y-110474285D01*
X34062380Y-110331428D01*
X34014761Y-110236190D01*
X33967142Y-110188571D01*
X34062380Y-109712380D02*
X33395714Y-109712380D01*
X33586190Y-109712380D02*
X33490952Y-109664761D01*
X33443333Y-109617142D01*
X33395714Y-109521904D01*
X33395714Y-109426666D01*
X34014761Y-108712380D02*
X34062380Y-108807619D01*
X34062380Y-108998095D01*
X34014761Y-109093333D01*
X33919523Y-109140952D01*
X33538571Y-109140952D01*
X33443333Y-109093333D01*
X33395714Y-108998095D01*
X33395714Y-108807619D01*
X33443333Y-108712380D01*
X33538571Y-108664761D01*
X33633809Y-108664761D01*
X33729047Y-109140952D01*
X33062380Y-108331428D02*
X33062380Y-107712380D01*
X33443333Y-108045714D01*
X33443333Y-107902857D01*
X33490952Y-107807619D01*
X33538571Y-107760000D01*
X33633809Y-107712380D01*
X33871904Y-107712380D01*
X33967142Y-107760000D01*
X34014761Y-107807619D01*
X34062380Y-107902857D01*
X34062380Y-108188571D01*
X34014761Y-108283809D01*
X33967142Y-108331428D01*
X146092380Y-25288571D02*
X146092380Y-24621904D01*
X147092380Y-25288571D01*
X147092380Y-24621904D01*
X147044761Y-23860000D02*
X147092380Y-23955238D01*
X147092380Y-24145714D01*
X147044761Y-24240952D01*
X146949523Y-24288571D01*
X146568571Y-24288571D01*
X146473333Y-24240952D01*
X146425714Y-24145714D01*
X146425714Y-23955238D01*
X146473333Y-23860000D01*
X146568571Y-23812380D01*
X146663809Y-23812380D01*
X146759047Y-24288571D01*
X146425714Y-23383809D02*
X147092380Y-23383809D01*
X146520952Y-23383809D02*
X146473333Y-23336190D01*
X146425714Y-23240952D01*
X146425714Y-23098095D01*
X146473333Y-23002857D01*
X146568571Y-22955238D01*
X147092380Y-22955238D01*
X147044761Y-22098095D02*
X147092380Y-22193333D01*
X147092380Y-22383809D01*
X147044761Y-22479047D01*
X146949523Y-22526666D01*
X146568571Y-22526666D01*
X146473333Y-22479047D01*
X146425714Y-22383809D01*
X146425714Y-22193333D01*
X146473333Y-22098095D01*
X146568571Y-22050476D01*
X146663809Y-22050476D01*
X146759047Y-22526666D01*
X147092380Y-21621904D02*
X146425714Y-21621904D01*
X146616190Y-21621904D02*
X146520952Y-21574285D01*
X146473333Y-21526666D01*
X146425714Y-21431428D01*
X146425714Y-21336190D01*
X147092380Y-20479047D02*
X147092380Y-21050476D01*
X147092380Y-20764761D02*
X146092380Y-20764761D01*
X146235238Y-20860000D01*
X146330476Y-20955238D01*
X146378095Y-21050476D01*
X129582380Y-25288571D02*
X129582380Y-24621904D01*
X130582380Y-25288571D01*
X130582380Y-24621904D01*
X130534761Y-23860000D02*
X130582380Y-23955238D01*
X130582380Y-24145714D01*
X130534761Y-24240952D01*
X130439523Y-24288571D01*
X130058571Y-24288571D01*
X129963333Y-24240952D01*
X129915714Y-24145714D01*
X129915714Y-23955238D01*
X129963333Y-23860000D01*
X130058571Y-23812380D01*
X130153809Y-23812380D01*
X130249047Y-24288571D01*
X129915714Y-23383809D02*
X130582380Y-23383809D01*
X130010952Y-23383809D02*
X129963333Y-23336190D01*
X129915714Y-23240952D01*
X129915714Y-23098095D01*
X129963333Y-23002857D01*
X130058571Y-22955238D01*
X130582380Y-22955238D01*
X130534761Y-22098095D02*
X130582380Y-22193333D01*
X130582380Y-22383809D01*
X130534761Y-22479047D01*
X130439523Y-22526666D01*
X130058571Y-22526666D01*
X129963333Y-22479047D01*
X129915714Y-22383809D01*
X129915714Y-22193333D01*
X129963333Y-22098095D01*
X130058571Y-22050476D01*
X130153809Y-22050476D01*
X130249047Y-22526666D01*
X130582380Y-21621904D02*
X129915714Y-21621904D01*
X130106190Y-21621904D02*
X130010952Y-21574285D01*
X129963333Y-21526666D01*
X129915714Y-21431428D01*
X129915714Y-21336190D01*
X129677619Y-21050476D02*
X129630000Y-21002857D01*
X129582380Y-20907619D01*
X129582380Y-20669523D01*
X129630000Y-20574285D01*
X129677619Y-20526666D01*
X129772857Y-20479047D01*
X129868095Y-20479047D01*
X130010952Y-20526666D01*
X130582380Y-21098095D01*
X130582380Y-20479047D01*
X72432380Y-53228571D02*
X72432380Y-52561904D01*
X73432380Y-53228571D01*
X73432380Y-52561904D01*
X73384761Y-51800000D02*
X73432380Y-51895238D01*
X73432380Y-52085714D01*
X73384761Y-52180952D01*
X73289523Y-52228571D01*
X72908571Y-52228571D01*
X72813333Y-52180952D01*
X72765714Y-52085714D01*
X72765714Y-51895238D01*
X72813333Y-51800000D01*
X72908571Y-51752380D01*
X73003809Y-51752380D01*
X73099047Y-52228571D01*
X72765714Y-51323809D02*
X73432380Y-51323809D01*
X72860952Y-51323809D02*
X72813333Y-51276190D01*
X72765714Y-51180952D01*
X72765714Y-51038095D01*
X72813333Y-50942857D01*
X72908571Y-50895238D01*
X73432380Y-50895238D01*
X73384761Y-50038095D02*
X73432380Y-50133333D01*
X73432380Y-50323809D01*
X73384761Y-50419047D01*
X73289523Y-50466666D01*
X72908571Y-50466666D01*
X72813333Y-50419047D01*
X72765714Y-50323809D01*
X72765714Y-50133333D01*
X72813333Y-50038095D01*
X72908571Y-49990476D01*
X73003809Y-49990476D01*
X73099047Y-50466666D01*
X73432380Y-49561904D02*
X72765714Y-49561904D01*
X72956190Y-49561904D02*
X72860952Y-49514285D01*
X72813333Y-49466666D01*
X72765714Y-49371428D01*
X72765714Y-49276190D01*
X72432380Y-49038095D02*
X72432380Y-48419047D01*
X72813333Y-48752380D01*
X72813333Y-48609523D01*
X72860952Y-48514285D01*
X72908571Y-48466666D01*
X73003809Y-48419047D01*
X73241904Y-48419047D01*
X73337142Y-48466666D01*
X73384761Y-48514285D01*
X73432380Y-48609523D01*
X73432380Y-48895238D01*
X73384761Y-48990476D01*
X73337142Y-49038095D01*
X175073333Y-109637142D02*
X175025714Y-109684761D01*
X174882857Y-109732380D01*
X174787619Y-109732380D01*
X174644761Y-109684761D01*
X174549523Y-109589523D01*
X174501904Y-109494285D01*
X174454285Y-109303809D01*
X174454285Y-109160952D01*
X174501904Y-108970476D01*
X174549523Y-108875238D01*
X174644761Y-108780000D01*
X174787619Y-108732380D01*
X174882857Y-108732380D01*
X175025714Y-108780000D01*
X175073333Y-108827619D01*
X175692380Y-108732380D02*
X175787619Y-108732380D01*
X175882857Y-108780000D01*
X175930476Y-108827619D01*
X175978095Y-108922857D01*
X176025714Y-109113333D01*
X176025714Y-109351428D01*
X175978095Y-109541904D01*
X175930476Y-109637142D01*
X175882857Y-109684761D01*
X175787619Y-109732380D01*
X175692380Y-109732380D01*
X175597142Y-109684761D01*
X175549523Y-109637142D01*
X175501904Y-109541904D01*
X175454285Y-109351428D01*
X175454285Y-109113333D01*
X175501904Y-108922857D01*
X175549523Y-108827619D01*
X175597142Y-108780000D01*
X175692380Y-108732380D01*
X24474761Y-52288095D02*
X24522380Y-52383333D01*
X24522380Y-52573809D01*
X24474761Y-52669047D01*
X24427142Y-52716666D01*
X24331904Y-52764285D01*
X24046190Y-52764285D01*
X23950952Y-52716666D01*
X23903333Y-52669047D01*
X23855714Y-52573809D01*
X23855714Y-52383333D01*
X23903333Y-52288095D01*
X24522380Y-51335714D02*
X24522380Y-51907142D01*
X24522380Y-51621428D02*
X23522380Y-51621428D01*
X23665238Y-51716666D01*
X23760476Y-51811904D01*
X23808095Y-51907142D01*
X118407142Y-116986666D02*
X118454761Y-117034285D01*
X118502380Y-117177142D01*
X118502380Y-117272380D01*
X118454761Y-117415238D01*
X118359523Y-117510476D01*
X118264285Y-117558095D01*
X118073809Y-117605714D01*
X117930952Y-117605714D01*
X117740476Y-117558095D01*
X117645238Y-117510476D01*
X117550000Y-117415238D01*
X117502380Y-117272380D01*
X117502380Y-117177142D01*
X117550000Y-117034285D01*
X117597619Y-116986666D01*
X118502380Y-116034285D02*
X118502380Y-116605714D01*
X118502380Y-116320000D02*
X117502380Y-116320000D01*
X117645238Y-116415238D01*
X117740476Y-116510476D01*
X117788095Y-116605714D01*
X63313333Y-109637142D02*
X63265714Y-109684761D01*
X63122857Y-109732380D01*
X63027619Y-109732380D01*
X62884761Y-109684761D01*
X62789523Y-109589523D01*
X62741904Y-109494285D01*
X62694285Y-109303809D01*
X62694285Y-109160952D01*
X62741904Y-108970476D01*
X62789523Y-108875238D01*
X62884761Y-108780000D01*
X63027619Y-108732380D01*
X63122857Y-108732380D01*
X63265714Y-108780000D01*
X63313333Y-108827619D01*
X63694285Y-108827619D02*
X63741904Y-108780000D01*
X63837142Y-108732380D01*
X64075238Y-108732380D01*
X64170476Y-108780000D01*
X64218095Y-108827619D01*
X64265714Y-108922857D01*
X64265714Y-109018095D01*
X64218095Y-109160952D01*
X63646666Y-109732380D01*
X64265714Y-109732380D01*
X21887142Y-17926666D02*
X21934761Y-17974285D01*
X21982380Y-18117142D01*
X21982380Y-18212380D01*
X21934761Y-18355238D01*
X21839523Y-18450476D01*
X21744285Y-18498095D01*
X21553809Y-18545714D01*
X21410952Y-18545714D01*
X21220476Y-18498095D01*
X21125238Y-18450476D01*
X21030000Y-18355238D01*
X20982380Y-18212380D01*
X20982380Y-18117142D01*
X21030000Y-17974285D01*
X21077619Y-17926666D01*
X20982380Y-17593333D02*
X20982380Y-16974285D01*
X21363333Y-17307619D01*
X21363333Y-17164761D01*
X21410952Y-17069523D01*
X21458571Y-17021904D01*
X21553809Y-16974285D01*
X21791904Y-16974285D01*
X21887142Y-17021904D01*
X21934761Y-17069523D01*
X21982380Y-17164761D01*
X21982380Y-17450476D01*
X21934761Y-17545714D01*
X21887142Y-17593333D01*
X14387142Y-28126666D02*
X14434761Y-28174285D01*
X14482380Y-28317142D01*
X14482380Y-28412380D01*
X14434761Y-28555238D01*
X14339523Y-28650476D01*
X14244285Y-28698095D01*
X14053809Y-28745714D01*
X13910952Y-28745714D01*
X13720476Y-28698095D01*
X13625238Y-28650476D01*
X13530000Y-28555238D01*
X13482380Y-28412380D01*
X13482380Y-28317142D01*
X13530000Y-28174285D01*
X13577619Y-28126666D01*
X13815714Y-27269523D02*
X14482380Y-27269523D01*
X13434761Y-27507619D02*
X14149047Y-27745714D01*
X14149047Y-27126666D01*
X24427142Y-44596666D02*
X24474761Y-44644285D01*
X24522380Y-44787142D01*
X24522380Y-44882380D01*
X24474761Y-45025238D01*
X24379523Y-45120476D01*
X24284285Y-45168095D01*
X24093809Y-45215714D01*
X23950952Y-45215714D01*
X23760476Y-45168095D01*
X23665238Y-45120476D01*
X23570000Y-45025238D01*
X23522380Y-44882380D01*
X23522380Y-44787142D01*
X23570000Y-44644285D01*
X23617619Y-44596666D01*
X23522380Y-43691904D02*
X23522380Y-44168095D01*
X23998571Y-44215714D01*
X23950952Y-44168095D01*
X23903333Y-44072857D01*
X23903333Y-43834761D01*
X23950952Y-43739523D01*
X23998571Y-43691904D01*
X24093809Y-43644285D01*
X24331904Y-43644285D01*
X24427142Y-43691904D01*
X24474761Y-43739523D01*
X24522380Y-43834761D01*
X24522380Y-44072857D01*
X24474761Y-44168095D01*
X24427142Y-44215714D01*
X153077142Y-29322380D02*
X153077142Y-28322380D01*
X153315238Y-28322380D01*
X153458095Y-28370000D01*
X153553333Y-28465238D01*
X153600952Y-28560476D01*
X153648571Y-28750952D01*
X153648571Y-28893809D01*
X153600952Y-29084285D01*
X153553333Y-29179523D01*
X153458095Y-29274761D01*
X153315238Y-29322380D01*
X153077142Y-29322380D01*
X153981904Y-28655714D02*
X154505714Y-28655714D01*
X153981904Y-29322380D01*
X154505714Y-29322380D01*
X155267619Y-29274761D02*
X155172380Y-29322380D01*
X154981904Y-29322380D01*
X154886666Y-29274761D01*
X154839047Y-29179523D01*
X154839047Y-28798571D01*
X154886666Y-28703333D01*
X154981904Y-28655714D01*
X155172380Y-28655714D01*
X155267619Y-28703333D01*
X155315238Y-28798571D01*
X155315238Y-28893809D01*
X154839047Y-28989047D01*
X155743809Y-28655714D02*
X155743809Y-29322380D01*
X155743809Y-28750952D02*
X155791428Y-28703333D01*
X155886666Y-28655714D01*
X156029523Y-28655714D01*
X156124761Y-28703333D01*
X156172380Y-28798571D01*
X156172380Y-29322380D01*
X157029523Y-29274761D02*
X156934285Y-29322380D01*
X156743809Y-29322380D01*
X156648571Y-29274761D01*
X156600952Y-29179523D01*
X156600952Y-28798571D01*
X156648571Y-28703333D01*
X156743809Y-28655714D01*
X156934285Y-28655714D01*
X157029523Y-28703333D01*
X157077142Y-28798571D01*
X157077142Y-28893809D01*
X156600952Y-28989047D01*
X157505714Y-29322380D02*
X157505714Y-28655714D01*
X157505714Y-28846190D02*
X157553333Y-28750952D01*
X157600952Y-28703333D01*
X157696190Y-28655714D01*
X157791428Y-28655714D01*
X157886666Y-29417619D02*
X158648571Y-29417619D01*
X159077142Y-28322380D02*
X159172380Y-28322380D01*
X159267619Y-28370000D01*
X159315238Y-28417619D01*
X159362857Y-28512857D01*
X159410476Y-28703333D01*
X159410476Y-28941428D01*
X159362857Y-29131904D01*
X159315238Y-29227142D01*
X159267619Y-29274761D01*
X159172380Y-29322380D01*
X159077142Y-29322380D01*
X158981904Y-29274761D01*
X158934285Y-29227142D01*
X158886666Y-29131904D01*
X158839047Y-28941428D01*
X158839047Y-28703333D01*
X158886666Y-28512857D01*
X158934285Y-28417619D01*
X158981904Y-28370000D01*
X159077142Y-28322380D01*
X131487142Y-28052380D02*
X131487142Y-27052380D01*
X131725238Y-27052380D01*
X131868095Y-27100000D01*
X131963333Y-27195238D01*
X132010952Y-27290476D01*
X132058571Y-27480952D01*
X132058571Y-27623809D01*
X132010952Y-27814285D01*
X131963333Y-27909523D01*
X131868095Y-28004761D01*
X131725238Y-28052380D01*
X131487142Y-28052380D01*
X132391904Y-27385714D02*
X132915714Y-27385714D01*
X132391904Y-28052380D01*
X132915714Y-28052380D01*
X133677619Y-28004761D02*
X133582380Y-28052380D01*
X133391904Y-28052380D01*
X133296666Y-28004761D01*
X133249047Y-27909523D01*
X133249047Y-27528571D01*
X133296666Y-27433333D01*
X133391904Y-27385714D01*
X133582380Y-27385714D01*
X133677619Y-27433333D01*
X133725238Y-27528571D01*
X133725238Y-27623809D01*
X133249047Y-27719047D01*
X134153809Y-27385714D02*
X134153809Y-28052380D01*
X134153809Y-27480952D02*
X134201428Y-27433333D01*
X134296666Y-27385714D01*
X134439523Y-27385714D01*
X134534761Y-27433333D01*
X134582380Y-27528571D01*
X134582380Y-28052380D01*
X135439523Y-28004761D02*
X135344285Y-28052380D01*
X135153809Y-28052380D01*
X135058571Y-28004761D01*
X135010952Y-27909523D01*
X135010952Y-27528571D01*
X135058571Y-27433333D01*
X135153809Y-27385714D01*
X135344285Y-27385714D01*
X135439523Y-27433333D01*
X135487142Y-27528571D01*
X135487142Y-27623809D01*
X135010952Y-27719047D01*
X135915714Y-28052380D02*
X135915714Y-27385714D01*
X135915714Y-27576190D02*
X135963333Y-27480952D01*
X136010952Y-27433333D01*
X136106190Y-27385714D01*
X136201428Y-27385714D01*
X136296666Y-28147619D02*
X137058571Y-28147619D01*
X137820476Y-28052380D02*
X137249047Y-28052380D01*
X137534761Y-28052380D02*
X137534761Y-27052380D01*
X137439523Y-27195238D01*
X137344285Y-27290476D01*
X137249047Y-27338095D01*
X73772380Y-39962857D02*
X72772380Y-39962857D01*
X72772380Y-39724761D01*
X72820000Y-39581904D01*
X72915238Y-39486666D01*
X73010476Y-39439047D01*
X73200952Y-39391428D01*
X73343809Y-39391428D01*
X73534285Y-39439047D01*
X73629523Y-39486666D01*
X73724761Y-39581904D01*
X73772380Y-39724761D01*
X73772380Y-39962857D01*
X73105714Y-39058095D02*
X73105714Y-38534285D01*
X73772380Y-39058095D01*
X73772380Y-38534285D01*
X73724761Y-37772380D02*
X73772380Y-37867619D01*
X73772380Y-38058095D01*
X73724761Y-38153333D01*
X73629523Y-38200952D01*
X73248571Y-38200952D01*
X73153333Y-38153333D01*
X73105714Y-38058095D01*
X73105714Y-37867619D01*
X73153333Y-37772380D01*
X73248571Y-37724761D01*
X73343809Y-37724761D01*
X73439047Y-38200952D01*
X73105714Y-37296190D02*
X73772380Y-37296190D01*
X73200952Y-37296190D02*
X73153333Y-37248571D01*
X73105714Y-37153333D01*
X73105714Y-37010476D01*
X73153333Y-36915238D01*
X73248571Y-36867619D01*
X73772380Y-36867619D01*
X73724761Y-36010476D02*
X73772380Y-36105714D01*
X73772380Y-36296190D01*
X73724761Y-36391428D01*
X73629523Y-36439047D01*
X73248571Y-36439047D01*
X73153333Y-36391428D01*
X73105714Y-36296190D01*
X73105714Y-36105714D01*
X73153333Y-36010476D01*
X73248571Y-35962857D01*
X73343809Y-35962857D01*
X73439047Y-36439047D01*
X73772380Y-35534285D02*
X73105714Y-35534285D01*
X73296190Y-35534285D02*
X73200952Y-35486666D01*
X73153333Y-35439047D01*
X73105714Y-35343809D01*
X73105714Y-35248571D01*
X73867619Y-35153333D02*
X73867619Y-34391428D01*
X72867619Y-34200952D02*
X72820000Y-34153333D01*
X72772380Y-34058095D01*
X72772380Y-33820000D01*
X72820000Y-33724761D01*
X72867619Y-33677142D01*
X72962857Y-33629523D01*
X73058095Y-33629523D01*
X73200952Y-33677142D01*
X73772380Y-34248571D01*
X73772380Y-33629523D01*
M02*
