G04 #@! TF.GenerationSoftware,KiCad,Pcbnew,(5.1.2)-2*
G04 #@! TF.CreationDate,2020-08-13T15:56:16+03:00*
G04 #@! TF.ProjectId,tempature_citcuit,74656d70-6174-4757-9265-5f6369746375,rev?*
G04 #@! TF.SameCoordinates,Original*
G04 #@! TF.FileFunction,Soldermask,Bot*
G04 #@! TF.FilePolarity,Negative*
%FSLAX46Y46*%
G04 Gerber Fmt 4.6, Leading zero omitted, Abs format (unit mm)*
G04 Created by KiCad (PCBNEW (5.1.2)-2) date 2020-08-13 15:56:16*
%MOMM*%
%LPD*%
G04 APERTURE LIST*
%ADD10C,0.100000*%
G04 APERTURE END LIST*
D10*
G36*
X114548228Y-117251703D02*
G01*
X114703100Y-117315853D01*
X114842481Y-117408985D01*
X114961015Y-117527519D01*
X115054147Y-117666900D01*
X115118297Y-117821772D01*
X115151000Y-117986184D01*
X115151000Y-118153816D01*
X115118297Y-118318228D01*
X115054147Y-118473100D01*
X114961015Y-118612481D01*
X114842481Y-118731015D01*
X114703100Y-118824147D01*
X114548228Y-118888297D01*
X114383816Y-118921000D01*
X114216184Y-118921000D01*
X114051772Y-118888297D01*
X113896900Y-118824147D01*
X113757519Y-118731015D01*
X113638985Y-118612481D01*
X113545853Y-118473100D01*
X113481703Y-118318228D01*
X113449000Y-118153816D01*
X113449000Y-117986184D01*
X113481703Y-117821772D01*
X113545853Y-117666900D01*
X113638985Y-117527519D01*
X113757519Y-117408985D01*
X113896900Y-117315853D01*
X114051772Y-117251703D01*
X114216184Y-117219000D01*
X114383816Y-117219000D01*
X114548228Y-117251703D01*
X114548228Y-117251703D01*
G37*
G36*
X146327395Y-114655546D02*
G01*
X146500466Y-114727234D01*
X146577818Y-114778919D01*
X146656227Y-114831310D01*
X146788690Y-114963773D01*
X146788691Y-114963775D01*
X146892766Y-115119534D01*
X146964454Y-115292605D01*
X147001000Y-115476333D01*
X147001000Y-115663667D01*
X146964454Y-115847395D01*
X146892766Y-116020466D01*
X146892765Y-116020467D01*
X146788690Y-116176227D01*
X146656227Y-116308690D01*
X146577818Y-116361081D01*
X146500466Y-116412766D01*
X146327395Y-116484454D01*
X146143667Y-116521000D01*
X145956333Y-116521000D01*
X145772605Y-116484454D01*
X145599534Y-116412766D01*
X145522182Y-116361081D01*
X145443773Y-116308690D01*
X145311310Y-116176227D01*
X145207235Y-116020467D01*
X145207234Y-116020466D01*
X145135546Y-115847395D01*
X145099000Y-115663667D01*
X145099000Y-115476333D01*
X145135546Y-115292605D01*
X145207234Y-115119534D01*
X145311309Y-114963775D01*
X145311310Y-114963773D01*
X145443773Y-114831310D01*
X145522182Y-114778919D01*
X145599534Y-114727234D01*
X145772605Y-114655546D01*
X145956333Y-114619000D01*
X146143667Y-114619000D01*
X146327395Y-114655546D01*
X146327395Y-114655546D01*
G37*
G36*
X98067395Y-114655546D02*
G01*
X98240466Y-114727234D01*
X98317818Y-114778919D01*
X98396227Y-114831310D01*
X98528690Y-114963773D01*
X98528691Y-114963775D01*
X98632766Y-115119534D01*
X98704454Y-115292605D01*
X98741000Y-115476333D01*
X98741000Y-115663667D01*
X98704454Y-115847395D01*
X98632766Y-116020466D01*
X98632765Y-116020467D01*
X98528690Y-116176227D01*
X98396227Y-116308690D01*
X98317818Y-116361081D01*
X98240466Y-116412766D01*
X98067395Y-116484454D01*
X97883667Y-116521000D01*
X97696333Y-116521000D01*
X97512605Y-116484454D01*
X97339534Y-116412766D01*
X97262182Y-116361081D01*
X97183773Y-116308690D01*
X97051310Y-116176227D01*
X96947235Y-116020467D01*
X96947234Y-116020466D01*
X96875546Y-115847395D01*
X96839000Y-115663667D01*
X96839000Y-115476333D01*
X96875546Y-115292605D01*
X96947234Y-115119534D01*
X97051309Y-114963775D01*
X97051310Y-114963773D01*
X97183773Y-114831310D01*
X97262182Y-114778919D01*
X97339534Y-114727234D01*
X97512605Y-114655546D01*
X97696333Y-114619000D01*
X97883667Y-114619000D01*
X98067395Y-114655546D01*
X98067395Y-114655546D01*
G37*
G36*
X108227395Y-114655546D02*
G01*
X108400466Y-114727234D01*
X108477818Y-114778919D01*
X108556227Y-114831310D01*
X108688690Y-114963773D01*
X108688691Y-114963775D01*
X108792766Y-115119534D01*
X108864454Y-115292605D01*
X108901000Y-115476333D01*
X108901000Y-115663667D01*
X108864454Y-115847395D01*
X108792766Y-116020466D01*
X108792765Y-116020467D01*
X108688690Y-116176227D01*
X108556227Y-116308690D01*
X108477818Y-116361081D01*
X108400466Y-116412766D01*
X108227395Y-116484454D01*
X108043667Y-116521000D01*
X107856333Y-116521000D01*
X107672605Y-116484454D01*
X107499534Y-116412766D01*
X107422182Y-116361081D01*
X107343773Y-116308690D01*
X107211310Y-116176227D01*
X107107235Y-116020467D01*
X107107234Y-116020466D01*
X107035546Y-115847395D01*
X106999000Y-115663667D01*
X106999000Y-115476333D01*
X107035546Y-115292605D01*
X107107234Y-115119534D01*
X107211309Y-114963775D01*
X107211310Y-114963773D01*
X107343773Y-114831310D01*
X107422182Y-114778919D01*
X107499534Y-114727234D01*
X107672605Y-114655546D01*
X107856333Y-114619000D01*
X108043667Y-114619000D01*
X108227395Y-114655546D01*
X108227395Y-114655546D01*
G37*
G36*
X115151000Y-116421000D02*
G01*
X113449000Y-116421000D01*
X113449000Y-114719000D01*
X115151000Y-114719000D01*
X115151000Y-116421000D01*
X115151000Y-116421000D01*
G37*
G36*
X127277395Y-113385546D02*
G01*
X127450466Y-113457234D01*
X127527818Y-113508919D01*
X127606227Y-113561310D01*
X127738690Y-113693773D01*
X127738691Y-113693775D01*
X127842766Y-113849534D01*
X127914454Y-114022605D01*
X127951000Y-114206333D01*
X127951000Y-114393667D01*
X127914454Y-114577395D01*
X127842766Y-114750466D01*
X127842765Y-114750467D01*
X127738690Y-114906227D01*
X127606227Y-115038690D01*
X127527818Y-115091081D01*
X127450466Y-115142766D01*
X127277395Y-115214454D01*
X127093667Y-115251000D01*
X126906333Y-115251000D01*
X126722605Y-115214454D01*
X126549534Y-115142766D01*
X126472182Y-115091081D01*
X126393773Y-115038690D01*
X126261310Y-114906227D01*
X126157235Y-114750467D01*
X126157234Y-114750466D01*
X126085546Y-114577395D01*
X126049000Y-114393667D01*
X126049000Y-114206333D01*
X126085546Y-114022605D01*
X126157234Y-113849534D01*
X126261309Y-113693775D01*
X126261310Y-113693773D01*
X126393773Y-113561310D01*
X126472182Y-113508919D01*
X126549534Y-113457234D01*
X126722605Y-113385546D01*
X126906333Y-113349000D01*
X127093667Y-113349000D01*
X127277395Y-113385546D01*
X127277395Y-113385546D01*
G37*
G36*
X169187395Y-112115546D02*
G01*
X169360466Y-112187234D01*
X169397086Y-112211703D01*
X169516227Y-112291310D01*
X169648690Y-112423773D01*
X169691284Y-112487520D01*
X169752766Y-112579534D01*
X169824454Y-112752605D01*
X169861000Y-112936333D01*
X169861000Y-113123667D01*
X169824454Y-113307395D01*
X169752766Y-113480466D01*
X169752765Y-113480467D01*
X169648690Y-113636227D01*
X169516227Y-113768690D01*
X169493092Y-113784148D01*
X169360466Y-113872766D01*
X169187395Y-113944454D01*
X169003667Y-113981000D01*
X168816333Y-113981000D01*
X168632605Y-113944454D01*
X168459534Y-113872766D01*
X168326908Y-113784148D01*
X168303773Y-113768690D01*
X168171310Y-113636227D01*
X168067235Y-113480467D01*
X168067234Y-113480466D01*
X167995546Y-113307395D01*
X167959000Y-113123667D01*
X167959000Y-112936333D01*
X167995546Y-112752605D01*
X168067234Y-112579534D01*
X168128716Y-112487520D01*
X168171310Y-112423773D01*
X168303773Y-112291310D01*
X168422914Y-112211703D01*
X168459534Y-112187234D01*
X168632605Y-112115546D01*
X168816333Y-112079000D01*
X169003667Y-112079000D01*
X169187395Y-112115546D01*
X169187395Y-112115546D01*
G37*
G36*
X52347395Y-112115546D02*
G01*
X52520466Y-112187234D01*
X52557086Y-112211703D01*
X52676227Y-112291310D01*
X52808690Y-112423773D01*
X52851284Y-112487520D01*
X52912766Y-112579534D01*
X52984454Y-112752605D01*
X53021000Y-112936333D01*
X53021000Y-113123667D01*
X52984454Y-113307395D01*
X52912766Y-113480466D01*
X52912765Y-113480467D01*
X52808690Y-113636227D01*
X52676227Y-113768690D01*
X52653092Y-113784148D01*
X52520466Y-113872766D01*
X52347395Y-113944454D01*
X52163667Y-113981000D01*
X51976333Y-113981000D01*
X51792605Y-113944454D01*
X51619534Y-113872766D01*
X51486908Y-113784148D01*
X51463773Y-113768690D01*
X51331310Y-113636227D01*
X51227235Y-113480467D01*
X51227234Y-113480466D01*
X51155546Y-113307395D01*
X51119000Y-113123667D01*
X51119000Y-112936333D01*
X51155546Y-112752605D01*
X51227234Y-112579534D01*
X51288716Y-112487520D01*
X51331310Y-112423773D01*
X51463773Y-112291310D01*
X51582914Y-112211703D01*
X51619534Y-112187234D01*
X51792605Y-112115546D01*
X51976333Y-112079000D01*
X52163667Y-112079000D01*
X52347395Y-112115546D01*
X52347395Y-112115546D01*
G37*
G36*
X176738228Y-112211703D02*
G01*
X176893100Y-112275853D01*
X177032481Y-112368985D01*
X177151015Y-112487519D01*
X177244147Y-112626900D01*
X177308297Y-112781772D01*
X177341000Y-112946184D01*
X177341000Y-113113816D01*
X177308297Y-113278228D01*
X177244147Y-113433100D01*
X177151015Y-113572481D01*
X177032481Y-113691015D01*
X176893100Y-113784147D01*
X176738228Y-113848297D01*
X176573816Y-113881000D01*
X176406184Y-113881000D01*
X176241772Y-113848297D01*
X176086900Y-113784147D01*
X175947519Y-113691015D01*
X175828985Y-113572481D01*
X175735853Y-113433100D01*
X175671703Y-113278228D01*
X175639000Y-113113816D01*
X175639000Y-112946184D01*
X175671703Y-112781772D01*
X175735853Y-112626900D01*
X175828985Y-112487519D01*
X175947519Y-112368985D01*
X176086900Y-112275853D01*
X176241772Y-112211703D01*
X176406184Y-112179000D01*
X176573816Y-112179000D01*
X176738228Y-112211703D01*
X176738228Y-112211703D01*
G37*
G36*
X64978228Y-112211703D02*
G01*
X65133100Y-112275853D01*
X65272481Y-112368985D01*
X65391015Y-112487519D01*
X65484147Y-112626900D01*
X65548297Y-112781772D01*
X65581000Y-112946184D01*
X65581000Y-113113816D01*
X65548297Y-113278228D01*
X65484147Y-113433100D01*
X65391015Y-113572481D01*
X65272481Y-113691015D01*
X65133100Y-113784147D01*
X64978228Y-113848297D01*
X64813816Y-113881000D01*
X64646184Y-113881000D01*
X64481772Y-113848297D01*
X64326900Y-113784147D01*
X64187519Y-113691015D01*
X64068985Y-113572481D01*
X63975853Y-113433100D01*
X63911703Y-113278228D01*
X63879000Y-113113816D01*
X63879000Y-112946184D01*
X63911703Y-112781772D01*
X63975853Y-112626900D01*
X64068985Y-112487519D01*
X64187519Y-112368985D01*
X64326900Y-112275853D01*
X64481772Y-112211703D01*
X64646184Y-112179000D01*
X64813816Y-112179000D01*
X64978228Y-112211703D01*
X64978228Y-112211703D01*
G37*
G36*
X63081000Y-113881000D02*
G01*
X61379000Y-113881000D01*
X61379000Y-112179000D01*
X63081000Y-112179000D01*
X63081000Y-113881000D01*
X63081000Y-113881000D01*
G37*
G36*
X174841000Y-113881000D02*
G01*
X173139000Y-113881000D01*
X173139000Y-112179000D01*
X174841000Y-112179000D01*
X174841000Y-113881000D01*
X174841000Y-113881000D01*
G37*
G36*
X141247395Y-110845546D02*
G01*
X141420466Y-110917234D01*
X141492069Y-110965078D01*
X141576227Y-111021310D01*
X141708690Y-111153773D01*
X141740249Y-111201005D01*
X141812766Y-111309534D01*
X141884454Y-111482605D01*
X141921000Y-111666333D01*
X141921000Y-111853667D01*
X141884454Y-112037395D01*
X141812766Y-112210466D01*
X141812765Y-112210467D01*
X141708690Y-112366227D01*
X141576227Y-112498690D01*
X141497818Y-112551081D01*
X141420466Y-112602766D01*
X141247395Y-112674454D01*
X141063667Y-112711000D01*
X140876333Y-112711000D01*
X140692605Y-112674454D01*
X140519534Y-112602766D01*
X140442182Y-112551081D01*
X140363773Y-112498690D01*
X140231310Y-112366227D01*
X140127235Y-112210467D01*
X140127234Y-112210466D01*
X140055546Y-112037395D01*
X140019000Y-111853667D01*
X140019000Y-111666333D01*
X140055546Y-111482605D01*
X140127234Y-111309534D01*
X140199751Y-111201005D01*
X140231310Y-111153773D01*
X140363773Y-111021310D01*
X140447931Y-110965078D01*
X140519534Y-110917234D01*
X140692605Y-110845546D01*
X140876333Y-110809000D01*
X141063667Y-110809000D01*
X141247395Y-110845546D01*
X141247395Y-110845546D01*
G37*
G36*
X70127395Y-110845546D02*
G01*
X70300466Y-110917234D01*
X70372069Y-110965078D01*
X70456227Y-111021310D01*
X70588690Y-111153773D01*
X70620249Y-111201005D01*
X70692766Y-111309534D01*
X70764454Y-111482605D01*
X70801000Y-111666333D01*
X70801000Y-111853667D01*
X70764454Y-112037395D01*
X70692766Y-112210466D01*
X70692765Y-112210467D01*
X70588690Y-112366227D01*
X70456227Y-112498690D01*
X70377818Y-112551081D01*
X70300466Y-112602766D01*
X70127395Y-112674454D01*
X69943667Y-112711000D01*
X69756333Y-112711000D01*
X69572605Y-112674454D01*
X69399534Y-112602766D01*
X69322182Y-112551081D01*
X69243773Y-112498690D01*
X69111310Y-112366227D01*
X69007235Y-112210467D01*
X69007234Y-112210466D01*
X68935546Y-112037395D01*
X68899000Y-111853667D01*
X68899000Y-111666333D01*
X68935546Y-111482605D01*
X69007234Y-111309534D01*
X69079751Y-111201005D01*
X69111310Y-111153773D01*
X69243773Y-111021310D01*
X69327931Y-110965078D01*
X69399534Y-110917234D01*
X69572605Y-110845546D01*
X69756333Y-110809000D01*
X69943667Y-110809000D01*
X70127395Y-110845546D01*
X70127395Y-110845546D01*
G37*
G36*
X81557395Y-110845546D02*
G01*
X81730466Y-110917234D01*
X81802069Y-110965078D01*
X81886227Y-111021310D01*
X82018690Y-111153773D01*
X82050249Y-111201005D01*
X82122766Y-111309534D01*
X82194454Y-111482605D01*
X82231000Y-111666333D01*
X82231000Y-111853667D01*
X82194454Y-112037395D01*
X82122766Y-112210466D01*
X82122765Y-112210467D01*
X82018690Y-112366227D01*
X81886227Y-112498690D01*
X81807818Y-112551081D01*
X81730466Y-112602766D01*
X81557395Y-112674454D01*
X81373667Y-112711000D01*
X81186333Y-112711000D01*
X81002605Y-112674454D01*
X80829534Y-112602766D01*
X80752182Y-112551081D01*
X80673773Y-112498690D01*
X80541310Y-112366227D01*
X80437235Y-112210467D01*
X80437234Y-112210466D01*
X80365546Y-112037395D01*
X80329000Y-111853667D01*
X80329000Y-111666333D01*
X80365546Y-111482605D01*
X80437234Y-111309534D01*
X80509751Y-111201005D01*
X80541310Y-111153773D01*
X80673773Y-111021310D01*
X80757931Y-110965078D01*
X80829534Y-110917234D01*
X81002605Y-110845546D01*
X81186333Y-110809000D01*
X81373667Y-110809000D01*
X81557395Y-110845546D01*
X81557395Y-110845546D01*
G37*
G36*
X35837395Y-110845546D02*
G01*
X36010466Y-110917234D01*
X36082069Y-110965078D01*
X36166227Y-111021310D01*
X36298690Y-111153773D01*
X36330249Y-111201005D01*
X36402766Y-111309534D01*
X36474454Y-111482605D01*
X36511000Y-111666333D01*
X36511000Y-111853667D01*
X36474454Y-112037395D01*
X36402766Y-112210466D01*
X36402765Y-112210467D01*
X36298690Y-112366227D01*
X36166227Y-112498690D01*
X36087818Y-112551081D01*
X36010466Y-112602766D01*
X35837395Y-112674454D01*
X35653667Y-112711000D01*
X35466333Y-112711000D01*
X35282605Y-112674454D01*
X35109534Y-112602766D01*
X35032182Y-112551081D01*
X34953773Y-112498690D01*
X34821310Y-112366227D01*
X34717235Y-112210467D01*
X34717234Y-112210466D01*
X34645546Y-112037395D01*
X34609000Y-111853667D01*
X34609000Y-111666333D01*
X34645546Y-111482605D01*
X34717234Y-111309534D01*
X34789751Y-111201005D01*
X34821310Y-111153773D01*
X34953773Y-111021310D01*
X35037931Y-110965078D01*
X35109534Y-110917234D01*
X35282605Y-110845546D01*
X35466333Y-110809000D01*
X35653667Y-110809000D01*
X35837395Y-110845546D01*
X35837395Y-110845546D01*
G37*
G36*
X94146823Y-109651313D02*
G01*
X94307242Y-109699976D01*
X94439906Y-109770886D01*
X94455078Y-109778996D01*
X94584659Y-109885341D01*
X94691004Y-110014922D01*
X94691005Y-110014924D01*
X94770024Y-110162758D01*
X94818687Y-110323177D01*
X94835117Y-110490000D01*
X94818687Y-110656823D01*
X94770024Y-110817242D01*
X94699114Y-110949906D01*
X94691004Y-110965078D01*
X94584659Y-111094659D01*
X94455078Y-111201004D01*
X94455076Y-111201005D01*
X94307242Y-111280024D01*
X94146823Y-111328687D01*
X94021804Y-111341000D01*
X93938196Y-111341000D01*
X93813177Y-111328687D01*
X93652758Y-111280024D01*
X93504924Y-111201005D01*
X93504922Y-111201004D01*
X93375341Y-111094659D01*
X93268996Y-110965078D01*
X93260886Y-110949906D01*
X93189976Y-110817242D01*
X93141313Y-110656823D01*
X93124883Y-110490000D01*
X93141313Y-110323177D01*
X93189976Y-110162758D01*
X93268995Y-110014924D01*
X93268996Y-110014922D01*
X93375341Y-109885341D01*
X93504922Y-109778996D01*
X93520094Y-109770886D01*
X93652758Y-109699976D01*
X93813177Y-109651313D01*
X93938196Y-109639000D01*
X94021804Y-109639000D01*
X94146823Y-109651313D01*
X94146823Y-109651313D01*
G37*
G36*
X141136823Y-105841313D02*
G01*
X141297242Y-105889976D01*
X141429906Y-105960886D01*
X141445078Y-105968996D01*
X141574659Y-106075341D01*
X141681004Y-106204922D01*
X141681005Y-106204924D01*
X141760024Y-106352758D01*
X141808687Y-106513177D01*
X141825117Y-106680000D01*
X141808687Y-106846823D01*
X141760024Y-107007242D01*
X141719477Y-107083100D01*
X141681004Y-107155078D01*
X141574659Y-107284659D01*
X141445078Y-107391004D01*
X141445076Y-107391005D01*
X141297242Y-107470024D01*
X141136823Y-107518687D01*
X141011804Y-107531000D01*
X140928196Y-107531000D01*
X140803177Y-107518687D01*
X140642758Y-107470024D01*
X140494924Y-107391005D01*
X140494922Y-107391004D01*
X140365341Y-107284659D01*
X140258996Y-107155078D01*
X140220523Y-107083100D01*
X140179976Y-107007242D01*
X140131313Y-106846823D01*
X140114883Y-106680000D01*
X140131313Y-106513177D01*
X140179976Y-106352758D01*
X140258995Y-106204924D01*
X140258996Y-106204922D01*
X140365341Y-106075341D01*
X140494922Y-105968996D01*
X140510094Y-105960886D01*
X140642758Y-105889976D01*
X140803177Y-105841313D01*
X140928196Y-105829000D01*
X141011804Y-105829000D01*
X141136823Y-105841313D01*
X141136823Y-105841313D01*
G37*
G36*
X156458228Y-105861703D02*
G01*
X156613100Y-105925853D01*
X156752481Y-106018985D01*
X156871015Y-106137519D01*
X156964147Y-106276900D01*
X157028297Y-106431772D01*
X157061000Y-106596184D01*
X157061000Y-106763816D01*
X157028297Y-106928228D01*
X156964147Y-107083100D01*
X156871015Y-107222481D01*
X156752481Y-107341015D01*
X156613100Y-107434147D01*
X156458228Y-107498297D01*
X156293816Y-107531000D01*
X156126184Y-107531000D01*
X155961772Y-107498297D01*
X155806900Y-107434147D01*
X155667519Y-107341015D01*
X155548985Y-107222481D01*
X155455853Y-107083100D01*
X155391703Y-106928228D01*
X155359000Y-106763816D01*
X155359000Y-106596184D01*
X155391703Y-106431772D01*
X155455853Y-106276900D01*
X155548985Y-106137519D01*
X155667519Y-106018985D01*
X155806900Y-105925853D01*
X155961772Y-105861703D01*
X156126184Y-105829000D01*
X156293816Y-105829000D01*
X156458228Y-105861703D01*
X156458228Y-105861703D01*
G37*
G36*
X161538228Y-105861703D02*
G01*
X161693100Y-105925853D01*
X161832481Y-106018985D01*
X161951015Y-106137519D01*
X162044147Y-106276900D01*
X162108297Y-106431772D01*
X162141000Y-106596184D01*
X162141000Y-106763816D01*
X162108297Y-106928228D01*
X162044147Y-107083100D01*
X161951015Y-107222481D01*
X161832481Y-107341015D01*
X161693100Y-107434147D01*
X161538228Y-107498297D01*
X161373816Y-107531000D01*
X161206184Y-107531000D01*
X161041772Y-107498297D01*
X160886900Y-107434147D01*
X160747519Y-107341015D01*
X160628985Y-107222481D01*
X160535853Y-107083100D01*
X160471703Y-106928228D01*
X160439000Y-106763816D01*
X160439000Y-106596184D01*
X160471703Y-106431772D01*
X160535853Y-106276900D01*
X160628985Y-106137519D01*
X160747519Y-106018985D01*
X160886900Y-105925853D01*
X161041772Y-105861703D01*
X161206184Y-105829000D01*
X161373816Y-105829000D01*
X161538228Y-105861703D01*
X161538228Y-105861703D01*
G37*
G36*
X176696823Y-105841313D02*
G01*
X176857242Y-105889976D01*
X176989906Y-105960886D01*
X177005078Y-105968996D01*
X177134659Y-106075341D01*
X177241004Y-106204922D01*
X177241005Y-106204924D01*
X177320024Y-106352758D01*
X177368687Y-106513177D01*
X177385117Y-106680000D01*
X177368687Y-106846823D01*
X177320024Y-107007242D01*
X177279477Y-107083100D01*
X177241004Y-107155078D01*
X177134659Y-107284659D01*
X177005078Y-107391004D01*
X177005076Y-107391005D01*
X176857242Y-107470024D01*
X176696823Y-107518687D01*
X176571804Y-107531000D01*
X176488196Y-107531000D01*
X176363177Y-107518687D01*
X176202758Y-107470024D01*
X176054924Y-107391005D01*
X176054922Y-107391004D01*
X175925341Y-107284659D01*
X175818996Y-107155078D01*
X175780523Y-107083100D01*
X175739976Y-107007242D01*
X175691313Y-106846823D01*
X175674883Y-106680000D01*
X175691313Y-106513177D01*
X175739976Y-106352758D01*
X175818995Y-106204924D01*
X175818996Y-106204922D01*
X175925341Y-106075341D01*
X176054922Y-105968996D01*
X176070094Y-105960886D01*
X176202758Y-105889976D01*
X176363177Y-105841313D01*
X176488196Y-105829000D01*
X176571804Y-105829000D01*
X176696823Y-105841313D01*
X176696823Y-105841313D01*
G37*
G36*
X37107395Y-104495546D02*
G01*
X37280466Y-104567234D01*
X37352069Y-104615078D01*
X37436227Y-104671310D01*
X37568690Y-104803773D01*
X37611284Y-104867520D01*
X37672766Y-104959534D01*
X37744454Y-105132605D01*
X37781000Y-105316333D01*
X37781000Y-105503667D01*
X37744454Y-105687395D01*
X37672766Y-105860466D01*
X37653048Y-105889976D01*
X37568690Y-106016227D01*
X37436227Y-106148690D01*
X37413092Y-106164148D01*
X37280466Y-106252766D01*
X37107395Y-106324454D01*
X36923667Y-106361000D01*
X36736333Y-106361000D01*
X36552605Y-106324454D01*
X36379534Y-106252766D01*
X36246908Y-106164148D01*
X36223773Y-106148690D01*
X36091310Y-106016227D01*
X36006952Y-105889976D01*
X35987234Y-105860466D01*
X35915546Y-105687395D01*
X35879000Y-105503667D01*
X35879000Y-105316333D01*
X35915546Y-105132605D01*
X35987234Y-104959534D01*
X36048716Y-104867520D01*
X36091310Y-104803773D01*
X36223773Y-104671310D01*
X36307931Y-104615078D01*
X36379534Y-104567234D01*
X36552605Y-104495546D01*
X36736333Y-104459000D01*
X36923667Y-104459000D01*
X37107395Y-104495546D01*
X37107395Y-104495546D01*
G37*
G36*
X127277395Y-104495546D02*
G01*
X127450466Y-104567234D01*
X127522069Y-104615078D01*
X127606227Y-104671310D01*
X127738690Y-104803773D01*
X127781284Y-104867520D01*
X127842766Y-104959534D01*
X127914454Y-105132605D01*
X127951000Y-105316333D01*
X127951000Y-105503667D01*
X127914454Y-105687395D01*
X127842766Y-105860466D01*
X127823048Y-105889976D01*
X127738690Y-106016227D01*
X127606227Y-106148690D01*
X127583092Y-106164148D01*
X127450466Y-106252766D01*
X127277395Y-106324454D01*
X127093667Y-106361000D01*
X126906333Y-106361000D01*
X126722605Y-106324454D01*
X126549534Y-106252766D01*
X126416908Y-106164148D01*
X126393773Y-106148690D01*
X126261310Y-106016227D01*
X126176952Y-105889976D01*
X126157234Y-105860466D01*
X126085546Y-105687395D01*
X126049000Y-105503667D01*
X126049000Y-105316333D01*
X126085546Y-105132605D01*
X126157234Y-104959534D01*
X126218716Y-104867520D01*
X126261310Y-104803773D01*
X126393773Y-104671310D01*
X126477931Y-104615078D01*
X126549534Y-104567234D01*
X126722605Y-104495546D01*
X126906333Y-104459000D01*
X127093667Y-104459000D01*
X127277395Y-104495546D01*
X127277395Y-104495546D01*
G37*
G36*
X58668228Y-104591703D02*
G01*
X58823100Y-104655853D01*
X58962481Y-104748985D01*
X59081015Y-104867519D01*
X59174147Y-105006900D01*
X59238297Y-105161772D01*
X59271000Y-105326184D01*
X59271000Y-105493816D01*
X59238297Y-105658228D01*
X59174147Y-105813100D01*
X59081015Y-105952481D01*
X58962481Y-106071015D01*
X58823100Y-106164147D01*
X58668228Y-106228297D01*
X58503816Y-106261000D01*
X58336184Y-106261000D01*
X58171772Y-106228297D01*
X58016900Y-106164147D01*
X57877519Y-106071015D01*
X57758985Y-105952481D01*
X57665853Y-105813100D01*
X57601703Y-105658228D01*
X57569000Y-105493816D01*
X57569000Y-105326184D01*
X57601703Y-105161772D01*
X57665853Y-105006900D01*
X57758985Y-104867519D01*
X57877519Y-104748985D01*
X58016900Y-104655853D01*
X58171772Y-104591703D01*
X58336184Y-104559000D01*
X58503816Y-104559000D01*
X58668228Y-104591703D01*
X58668228Y-104591703D01*
G37*
G36*
X63748228Y-104591703D02*
G01*
X63903100Y-104655853D01*
X64042481Y-104748985D01*
X64161015Y-104867519D01*
X64254147Y-105006900D01*
X64318297Y-105161772D01*
X64351000Y-105326184D01*
X64351000Y-105493816D01*
X64318297Y-105658228D01*
X64254147Y-105813100D01*
X64161015Y-105952481D01*
X64042481Y-106071015D01*
X63903100Y-106164147D01*
X63748228Y-106228297D01*
X63583816Y-106261000D01*
X63416184Y-106261000D01*
X63251772Y-106228297D01*
X63096900Y-106164147D01*
X62957519Y-106071015D01*
X62838985Y-105952481D01*
X62745853Y-105813100D01*
X62681703Y-105658228D01*
X62649000Y-105493816D01*
X62649000Y-105326184D01*
X62681703Y-105161772D01*
X62745853Y-105006900D01*
X62838985Y-104867519D01*
X62957519Y-104748985D01*
X63096900Y-104655853D01*
X63251772Y-104591703D01*
X63416184Y-104559000D01*
X63583816Y-104559000D01*
X63748228Y-104591703D01*
X63748228Y-104591703D01*
G37*
G36*
X78906823Y-104571313D02*
G01*
X79067242Y-104619976D01*
X79199906Y-104690886D01*
X79215078Y-104698996D01*
X79344659Y-104805341D01*
X79451004Y-104934922D01*
X79451005Y-104934924D01*
X79530024Y-105082758D01*
X79578687Y-105243177D01*
X79595117Y-105410000D01*
X79578687Y-105576823D01*
X79530024Y-105737242D01*
X79489477Y-105813100D01*
X79451004Y-105885078D01*
X79344659Y-106014659D01*
X79215078Y-106121004D01*
X79215076Y-106121005D01*
X79067242Y-106200024D01*
X78906823Y-106248687D01*
X78781804Y-106261000D01*
X78698196Y-106261000D01*
X78573177Y-106248687D01*
X78412758Y-106200024D01*
X78264924Y-106121005D01*
X78264922Y-106121004D01*
X78135341Y-106014659D01*
X78028996Y-105885078D01*
X77990523Y-105813100D01*
X77949976Y-105737242D01*
X77901313Y-105576823D01*
X77884883Y-105410000D01*
X77901313Y-105243177D01*
X77949976Y-105082758D01*
X78028995Y-104934924D01*
X78028996Y-104934922D01*
X78135341Y-104805341D01*
X78264922Y-104698996D01*
X78280094Y-104690886D01*
X78412758Y-104619976D01*
X78573177Y-104571313D01*
X78698196Y-104559000D01*
X78781804Y-104559000D01*
X78906823Y-104571313D01*
X78906823Y-104571313D01*
G37*
G36*
X43346823Y-104571313D02*
G01*
X43507242Y-104619976D01*
X43639906Y-104690886D01*
X43655078Y-104698996D01*
X43784659Y-104805341D01*
X43891004Y-104934922D01*
X43891005Y-104934924D01*
X43970024Y-105082758D01*
X44018687Y-105243177D01*
X44035117Y-105410000D01*
X44018687Y-105576823D01*
X43970024Y-105737242D01*
X43929477Y-105813100D01*
X43891004Y-105885078D01*
X43784659Y-106014659D01*
X43655078Y-106121004D01*
X43655076Y-106121005D01*
X43507242Y-106200024D01*
X43346823Y-106248687D01*
X43221804Y-106261000D01*
X43138196Y-106261000D01*
X43013177Y-106248687D01*
X42852758Y-106200024D01*
X42704924Y-106121005D01*
X42704922Y-106121004D01*
X42575341Y-106014659D01*
X42468996Y-105885078D01*
X42430523Y-105813100D01*
X42389976Y-105737242D01*
X42341313Y-105576823D01*
X42324883Y-105410000D01*
X42341313Y-105243177D01*
X42389976Y-105082758D01*
X42468995Y-104934924D01*
X42468996Y-104934922D01*
X42575341Y-104805341D01*
X42704922Y-104698996D01*
X42720094Y-104690886D01*
X42852758Y-104619976D01*
X43013177Y-104571313D01*
X43138196Y-104559000D01*
X43221804Y-104559000D01*
X43346823Y-104571313D01*
X43346823Y-104571313D01*
G37*
G36*
X99226823Y-103301313D02*
G01*
X99387242Y-103349976D01*
X99454361Y-103385852D01*
X99535078Y-103428996D01*
X99664659Y-103535341D01*
X99771004Y-103664922D01*
X99771005Y-103664924D01*
X99850024Y-103812758D01*
X99898687Y-103973177D01*
X99915117Y-104140000D01*
X99898687Y-104306823D01*
X99850024Y-104467242D01*
X99794397Y-104571313D01*
X99771004Y-104615078D01*
X99664659Y-104744659D01*
X99535078Y-104851004D01*
X99535076Y-104851005D01*
X99387242Y-104930024D01*
X99226823Y-104978687D01*
X99101804Y-104991000D01*
X99018196Y-104991000D01*
X98893177Y-104978687D01*
X98732758Y-104930024D01*
X98584924Y-104851005D01*
X98584922Y-104851004D01*
X98455341Y-104744659D01*
X98348996Y-104615078D01*
X98325603Y-104571313D01*
X98269976Y-104467242D01*
X98221313Y-104306823D01*
X98204883Y-104140000D01*
X98221313Y-103973177D01*
X98269976Y-103812758D01*
X98348995Y-103664924D01*
X98348996Y-103664922D01*
X98455341Y-103535341D01*
X98584922Y-103428996D01*
X98665639Y-103385852D01*
X98732758Y-103349976D01*
X98893177Y-103301313D01*
X99018196Y-103289000D01*
X99101804Y-103289000D01*
X99226823Y-103301313D01*
X99226823Y-103301313D01*
G37*
G36*
X114548228Y-103321703D02*
G01*
X114703100Y-103385853D01*
X114842481Y-103478985D01*
X114961015Y-103597519D01*
X115054147Y-103736900D01*
X115118297Y-103891772D01*
X115151000Y-104056184D01*
X115151000Y-104223816D01*
X115118297Y-104388228D01*
X115054147Y-104543100D01*
X114961015Y-104682481D01*
X114842481Y-104801015D01*
X114703100Y-104894147D01*
X114548228Y-104958297D01*
X114383816Y-104991000D01*
X114216184Y-104991000D01*
X114051772Y-104958297D01*
X113896900Y-104894147D01*
X113757519Y-104801015D01*
X113638985Y-104682481D01*
X113545853Y-104543100D01*
X113481703Y-104388228D01*
X113449000Y-104223816D01*
X113449000Y-104056184D01*
X113481703Y-103891772D01*
X113545853Y-103736900D01*
X113638985Y-103597519D01*
X113757519Y-103478985D01*
X113896900Y-103385853D01*
X114051772Y-103321703D01*
X114216184Y-103289000D01*
X114383816Y-103289000D01*
X114548228Y-103321703D01*
X114548228Y-103321703D01*
G37*
G36*
X133598228Y-100781703D02*
G01*
X133753100Y-100845853D01*
X133892481Y-100938985D01*
X134011015Y-101057519D01*
X134104147Y-101196900D01*
X134168297Y-101351772D01*
X134201000Y-101516184D01*
X134201000Y-101683816D01*
X134168297Y-101848228D01*
X134104147Y-102003100D01*
X134011015Y-102142481D01*
X133892481Y-102261015D01*
X133753100Y-102354147D01*
X133598228Y-102418297D01*
X133433816Y-102451000D01*
X133266184Y-102451000D01*
X133101772Y-102418297D01*
X132946900Y-102354147D01*
X132807519Y-102261015D01*
X132688985Y-102142481D01*
X132595853Y-102003100D01*
X132531703Y-101848228D01*
X132499000Y-101683816D01*
X132499000Y-101516184D01*
X132531703Y-101351772D01*
X132595853Y-101196900D01*
X132688985Y-101057519D01*
X132807519Y-100938985D01*
X132946900Y-100845853D01*
X133101772Y-100781703D01*
X133266184Y-100749000D01*
X133433816Y-100749000D01*
X133598228Y-100781703D01*
X133598228Y-100781703D01*
G37*
G36*
X148756823Y-100761313D02*
G01*
X148917242Y-100809976D01*
X148984361Y-100845852D01*
X149065078Y-100888996D01*
X149194659Y-100995341D01*
X149301004Y-101124922D01*
X149301005Y-101124924D01*
X149380024Y-101272758D01*
X149428687Y-101433177D01*
X149445117Y-101600000D01*
X149428687Y-101766823D01*
X149380024Y-101927242D01*
X149339477Y-102003100D01*
X149301004Y-102075078D01*
X149194659Y-102204659D01*
X149065078Y-102311004D01*
X149065076Y-102311005D01*
X148917242Y-102390024D01*
X148756823Y-102438687D01*
X148631804Y-102451000D01*
X148548196Y-102451000D01*
X148423177Y-102438687D01*
X148262758Y-102390024D01*
X148114924Y-102311005D01*
X148114922Y-102311004D01*
X147985341Y-102204659D01*
X147878996Y-102075078D01*
X147840523Y-102003100D01*
X147799976Y-101927242D01*
X147751313Y-101766823D01*
X147734883Y-101600000D01*
X147751313Y-101433177D01*
X147799976Y-101272758D01*
X147878995Y-101124924D01*
X147878996Y-101124922D01*
X147985341Y-100995341D01*
X148114922Y-100888996D01*
X148195639Y-100845852D01*
X148262758Y-100809976D01*
X148423177Y-100761313D01*
X148548196Y-100749000D01*
X148631804Y-100749000D01*
X148756823Y-100761313D01*
X148756823Y-100761313D01*
G37*
G36*
X34538228Y-98241703D02*
G01*
X34693100Y-98305853D01*
X34832481Y-98398985D01*
X34951015Y-98517519D01*
X35044147Y-98656900D01*
X35108297Y-98811772D01*
X35141000Y-98976184D01*
X35141000Y-99143816D01*
X35108297Y-99308228D01*
X35044147Y-99463100D01*
X34951015Y-99602481D01*
X34832481Y-99721015D01*
X34693100Y-99814147D01*
X34538228Y-99878297D01*
X34373816Y-99911000D01*
X34206184Y-99911000D01*
X34041772Y-99878297D01*
X33886900Y-99814147D01*
X33747519Y-99721015D01*
X33628985Y-99602481D01*
X33535853Y-99463100D01*
X33471703Y-99308228D01*
X33439000Y-99143816D01*
X33439000Y-98976184D01*
X33471703Y-98811772D01*
X33535853Y-98656900D01*
X33628985Y-98517519D01*
X33747519Y-98398985D01*
X33886900Y-98305853D01*
X34041772Y-98241703D01*
X34206184Y-98209000D01*
X34373816Y-98209000D01*
X34538228Y-98241703D01*
X34538228Y-98241703D01*
G37*
G36*
X58586823Y-98221313D02*
G01*
X58747242Y-98269976D01*
X58879906Y-98340886D01*
X58895078Y-98348996D01*
X59024659Y-98455341D01*
X59131004Y-98584922D01*
X59131005Y-98584924D01*
X59210024Y-98732758D01*
X59258687Y-98893177D01*
X59275117Y-99060000D01*
X59258687Y-99226823D01*
X59210024Y-99387242D01*
X59169477Y-99463100D01*
X59131004Y-99535078D01*
X59024659Y-99664659D01*
X58895078Y-99771004D01*
X58895076Y-99771005D01*
X58747242Y-99850024D01*
X58586823Y-99898687D01*
X58461804Y-99911000D01*
X58378196Y-99911000D01*
X58253177Y-99898687D01*
X58092758Y-99850024D01*
X57944924Y-99771005D01*
X57944922Y-99771004D01*
X57815341Y-99664659D01*
X57708996Y-99535078D01*
X57670523Y-99463100D01*
X57629976Y-99387242D01*
X57581313Y-99226823D01*
X57564883Y-99060000D01*
X57581313Y-98893177D01*
X57629976Y-98732758D01*
X57708995Y-98584924D01*
X57708996Y-98584922D01*
X57815341Y-98455341D01*
X57944922Y-98348996D01*
X57960094Y-98340886D01*
X58092758Y-98269976D01*
X58253177Y-98221313D01*
X58378196Y-98209000D01*
X58461804Y-98209000D01*
X58586823Y-98221313D01*
X58586823Y-98221313D01*
G37*
G36*
X49696823Y-98221313D02*
G01*
X49857242Y-98269976D01*
X49989906Y-98340886D01*
X50005078Y-98348996D01*
X50134659Y-98455341D01*
X50241004Y-98584922D01*
X50241005Y-98584924D01*
X50320024Y-98732758D01*
X50368687Y-98893177D01*
X50385117Y-99060000D01*
X50368687Y-99226823D01*
X50320024Y-99387242D01*
X50279477Y-99463100D01*
X50241004Y-99535078D01*
X50134659Y-99664659D01*
X50005078Y-99771004D01*
X50005076Y-99771005D01*
X49857242Y-99850024D01*
X49696823Y-99898687D01*
X49571804Y-99911000D01*
X49488196Y-99911000D01*
X49363177Y-99898687D01*
X49202758Y-99850024D01*
X49054924Y-99771005D01*
X49054922Y-99771004D01*
X48925341Y-99664659D01*
X48818996Y-99535078D01*
X48780523Y-99463100D01*
X48739976Y-99387242D01*
X48691313Y-99226823D01*
X48674883Y-99060000D01*
X48691313Y-98893177D01*
X48739976Y-98732758D01*
X48818995Y-98584924D01*
X48818996Y-98584922D01*
X48925341Y-98455341D01*
X49054922Y-98348996D01*
X49070094Y-98340886D01*
X49202758Y-98269976D01*
X49363177Y-98221313D01*
X49488196Y-98209000D01*
X49571804Y-98209000D01*
X49696823Y-98221313D01*
X49696823Y-98221313D01*
G37*
G36*
X73908228Y-98241703D02*
G01*
X74063100Y-98305853D01*
X74202481Y-98398985D01*
X74321015Y-98517519D01*
X74414147Y-98656900D01*
X74478297Y-98811772D01*
X74511000Y-98976184D01*
X74511000Y-99143816D01*
X74478297Y-99308228D01*
X74414147Y-99463100D01*
X74321015Y-99602481D01*
X74202481Y-99721015D01*
X74063100Y-99814147D01*
X73908228Y-99878297D01*
X73743816Y-99911000D01*
X73576184Y-99911000D01*
X73411772Y-99878297D01*
X73256900Y-99814147D01*
X73117519Y-99721015D01*
X72998985Y-99602481D01*
X72905853Y-99463100D01*
X72841703Y-99308228D01*
X72809000Y-99143816D01*
X72809000Y-98976184D01*
X72841703Y-98811772D01*
X72905853Y-98656900D01*
X72998985Y-98517519D01*
X73117519Y-98398985D01*
X73256900Y-98305853D01*
X73411772Y-98241703D01*
X73576184Y-98209000D01*
X73743816Y-98209000D01*
X73908228Y-98241703D01*
X73908228Y-98241703D01*
G37*
G36*
X128518228Y-96971703D02*
G01*
X128673100Y-97035853D01*
X128812481Y-97128985D01*
X128931015Y-97247519D01*
X129024147Y-97386900D01*
X129088297Y-97541772D01*
X129121000Y-97706184D01*
X129121000Y-97873816D01*
X129088297Y-98038228D01*
X129024147Y-98193100D01*
X128931015Y-98332481D01*
X128812481Y-98451015D01*
X128673100Y-98544147D01*
X128518228Y-98608297D01*
X128353816Y-98641000D01*
X128186184Y-98641000D01*
X128021772Y-98608297D01*
X127866900Y-98544147D01*
X127727519Y-98451015D01*
X127608985Y-98332481D01*
X127515853Y-98193100D01*
X127451703Y-98038228D01*
X127419000Y-97873816D01*
X127419000Y-97706184D01*
X127451703Y-97541772D01*
X127515853Y-97386900D01*
X127608985Y-97247519D01*
X127727519Y-97128985D01*
X127866900Y-97035853D01*
X128021772Y-96971703D01*
X128186184Y-96939000D01*
X128353816Y-96939000D01*
X128518228Y-96971703D01*
X128518228Y-96971703D01*
G37*
G36*
X113196823Y-96951313D02*
G01*
X113357242Y-96999976D01*
X113489906Y-97070886D01*
X113505078Y-97078996D01*
X113634659Y-97185341D01*
X113741004Y-97314922D01*
X113741005Y-97314924D01*
X113820024Y-97462758D01*
X113868687Y-97623177D01*
X113885117Y-97790000D01*
X113868687Y-97956823D01*
X113820024Y-98117242D01*
X113779477Y-98193100D01*
X113741004Y-98265078D01*
X113634659Y-98394659D01*
X113505078Y-98501004D01*
X113505076Y-98501005D01*
X113357242Y-98580024D01*
X113196823Y-98628687D01*
X113071804Y-98641000D01*
X112988196Y-98641000D01*
X112863177Y-98628687D01*
X112702758Y-98580024D01*
X112554924Y-98501005D01*
X112554922Y-98501004D01*
X112425341Y-98394659D01*
X112318996Y-98265078D01*
X112280523Y-98193100D01*
X112239976Y-98117242D01*
X112191313Y-97956823D01*
X112174883Y-97790000D01*
X112191313Y-97623177D01*
X112239976Y-97462758D01*
X112318995Y-97314924D01*
X112318996Y-97314922D01*
X112425341Y-97185341D01*
X112554922Y-97078996D01*
X112570094Y-97070886D01*
X112702758Y-96999976D01*
X112863177Y-96951313D01*
X112988196Y-96939000D01*
X113071804Y-96939000D01*
X113196823Y-96951313D01*
X113196823Y-96951313D01*
G37*
G36*
X161456823Y-95681313D02*
G01*
X161617242Y-95729976D01*
X161749906Y-95800886D01*
X161765078Y-95808996D01*
X161894659Y-95915341D01*
X162001004Y-96044922D01*
X162001005Y-96044924D01*
X162080024Y-96192758D01*
X162128687Y-96353177D01*
X162145117Y-96520000D01*
X162128687Y-96686823D01*
X162080024Y-96847242D01*
X162039477Y-96923100D01*
X162001004Y-96995078D01*
X161894659Y-97124659D01*
X161765078Y-97231004D01*
X161765076Y-97231005D01*
X161617242Y-97310024D01*
X161456823Y-97358687D01*
X161331804Y-97371000D01*
X161248196Y-97371000D01*
X161123177Y-97358687D01*
X160962758Y-97310024D01*
X160814924Y-97231005D01*
X160814922Y-97231004D01*
X160685341Y-97124659D01*
X160578996Y-96995078D01*
X160540523Y-96923100D01*
X160499976Y-96847242D01*
X160451313Y-96686823D01*
X160434883Y-96520000D01*
X160451313Y-96353177D01*
X160499976Y-96192758D01*
X160578995Y-96044924D01*
X160578996Y-96044922D01*
X160685341Y-95915341D01*
X160814922Y-95808996D01*
X160830094Y-95800886D01*
X160962758Y-95729976D01*
X161123177Y-95681313D01*
X161248196Y-95669000D01*
X161331804Y-95669000D01*
X161456823Y-95681313D01*
X161456823Y-95681313D01*
G37*
G36*
X176778228Y-95701703D02*
G01*
X176933100Y-95765853D01*
X177072481Y-95858985D01*
X177191015Y-95977519D01*
X177284147Y-96116900D01*
X177348297Y-96271772D01*
X177381000Y-96436184D01*
X177381000Y-96603816D01*
X177348297Y-96768228D01*
X177284147Y-96923100D01*
X177191015Y-97062481D01*
X177072481Y-97181015D01*
X176933100Y-97274147D01*
X176778228Y-97338297D01*
X176613816Y-97371000D01*
X176446184Y-97371000D01*
X176281772Y-97338297D01*
X176126900Y-97274147D01*
X175987519Y-97181015D01*
X175868985Y-97062481D01*
X175775853Y-96923100D01*
X175711703Y-96768228D01*
X175679000Y-96603816D01*
X175679000Y-96436184D01*
X175711703Y-96271772D01*
X175775853Y-96116900D01*
X175868985Y-95977519D01*
X175987519Y-95858985D01*
X176126900Y-95765853D01*
X176281772Y-95701703D01*
X176446184Y-95669000D01*
X176613816Y-95669000D01*
X176778228Y-95701703D01*
X176778228Y-95701703D01*
G37*
G36*
X94228228Y-94431703D02*
G01*
X94383100Y-94495853D01*
X94522481Y-94588985D01*
X94641015Y-94707519D01*
X94734147Y-94846900D01*
X94798297Y-95001772D01*
X94831000Y-95166184D01*
X94831000Y-95333816D01*
X94798297Y-95498228D01*
X94734147Y-95653100D01*
X94641015Y-95792481D01*
X94522481Y-95911015D01*
X94383100Y-96004147D01*
X94228228Y-96068297D01*
X94063816Y-96101000D01*
X93896184Y-96101000D01*
X93731772Y-96068297D01*
X93576900Y-96004147D01*
X93437519Y-95911015D01*
X93318985Y-95792481D01*
X93225853Y-95653100D01*
X93161703Y-95498228D01*
X93129000Y-95333816D01*
X93129000Y-95166184D01*
X93161703Y-95001772D01*
X93225853Y-94846900D01*
X93318985Y-94707519D01*
X93437519Y-94588985D01*
X93576900Y-94495853D01*
X93731772Y-94431703D01*
X93896184Y-94399000D01*
X94063816Y-94399000D01*
X94228228Y-94431703D01*
X94228228Y-94431703D01*
G37*
G36*
X148838228Y-93161703D02*
G01*
X148993100Y-93225853D01*
X149132481Y-93318985D01*
X149251015Y-93437519D01*
X149344147Y-93576900D01*
X149408297Y-93731772D01*
X149441000Y-93896184D01*
X149441000Y-94063816D01*
X149408297Y-94228228D01*
X149344147Y-94383100D01*
X149251015Y-94522481D01*
X149132481Y-94641015D01*
X148993100Y-94734147D01*
X148838228Y-94798297D01*
X148673816Y-94831000D01*
X148506184Y-94831000D01*
X148341772Y-94798297D01*
X148186900Y-94734147D01*
X148047519Y-94641015D01*
X147928985Y-94522481D01*
X147835853Y-94383100D01*
X147771703Y-94228228D01*
X147739000Y-94063816D01*
X147739000Y-93896184D01*
X147771703Y-93731772D01*
X147835853Y-93576900D01*
X147928985Y-93437519D01*
X148047519Y-93318985D01*
X148186900Y-93225853D01*
X148341772Y-93161703D01*
X148506184Y-93129000D01*
X148673816Y-93129000D01*
X148838228Y-93161703D01*
X148838228Y-93161703D01*
G37*
G36*
X133516823Y-93141313D02*
G01*
X133677242Y-93189976D01*
X133744361Y-93225852D01*
X133825078Y-93268996D01*
X133954659Y-93375341D01*
X134061004Y-93504922D01*
X134061005Y-93504924D01*
X134140024Y-93652758D01*
X134188687Y-93813177D01*
X134205117Y-93980000D01*
X134188687Y-94146823D01*
X134140024Y-94307242D01*
X134099477Y-94383100D01*
X134061004Y-94455078D01*
X133954659Y-94584659D01*
X133825078Y-94691004D01*
X133825076Y-94691005D01*
X133677242Y-94770024D01*
X133516823Y-94818687D01*
X133391804Y-94831000D01*
X133308196Y-94831000D01*
X133183177Y-94818687D01*
X133022758Y-94770024D01*
X132874924Y-94691005D01*
X132874922Y-94691004D01*
X132745341Y-94584659D01*
X132638996Y-94455078D01*
X132600523Y-94383100D01*
X132559976Y-94307242D01*
X132511313Y-94146823D01*
X132494883Y-93980000D01*
X132511313Y-93813177D01*
X132559976Y-93652758D01*
X132638995Y-93504924D01*
X132638996Y-93504922D01*
X132745341Y-93375341D01*
X132874922Y-93268996D01*
X132955639Y-93225852D01*
X133022758Y-93189976D01*
X133183177Y-93141313D01*
X133308196Y-93129000D01*
X133391804Y-93129000D01*
X133516823Y-93141313D01*
X133516823Y-93141313D01*
G37*
G36*
X128436823Y-90601313D02*
G01*
X128597242Y-90649976D01*
X128664361Y-90685852D01*
X128745078Y-90728996D01*
X128874659Y-90835341D01*
X128981004Y-90964922D01*
X128981005Y-90964924D01*
X129060024Y-91112758D01*
X129108687Y-91273177D01*
X129125117Y-91440000D01*
X129108687Y-91606823D01*
X129060024Y-91767242D01*
X129019477Y-91843100D01*
X128981004Y-91915078D01*
X128874659Y-92044659D01*
X128745078Y-92151004D01*
X128745076Y-92151005D01*
X128597242Y-92230024D01*
X128436823Y-92278687D01*
X128311804Y-92291000D01*
X128228196Y-92291000D01*
X128103177Y-92278687D01*
X127942758Y-92230024D01*
X127794924Y-92151005D01*
X127794922Y-92151004D01*
X127665341Y-92044659D01*
X127558996Y-91915078D01*
X127520523Y-91843100D01*
X127479976Y-91767242D01*
X127431313Y-91606823D01*
X127414883Y-91440000D01*
X127431313Y-91273177D01*
X127479976Y-91112758D01*
X127558995Y-90964924D01*
X127558996Y-90964922D01*
X127665341Y-90835341D01*
X127794922Y-90728996D01*
X127875639Y-90685852D01*
X127942758Y-90649976D01*
X128103177Y-90601313D01*
X128228196Y-90589000D01*
X128311804Y-90589000D01*
X128436823Y-90601313D01*
X128436823Y-90601313D01*
G37*
G36*
X36996823Y-90601313D02*
G01*
X37157242Y-90649976D01*
X37224361Y-90685852D01*
X37305078Y-90728996D01*
X37434659Y-90835341D01*
X37541004Y-90964922D01*
X37541005Y-90964924D01*
X37620024Y-91112758D01*
X37668687Y-91273177D01*
X37685117Y-91440000D01*
X37668687Y-91606823D01*
X37620024Y-91767242D01*
X37579477Y-91843100D01*
X37541004Y-91915078D01*
X37434659Y-92044659D01*
X37305078Y-92151004D01*
X37305076Y-92151005D01*
X37157242Y-92230024D01*
X36996823Y-92278687D01*
X36871804Y-92291000D01*
X36788196Y-92291000D01*
X36663177Y-92278687D01*
X36502758Y-92230024D01*
X36354924Y-92151005D01*
X36354922Y-92151004D01*
X36225341Y-92044659D01*
X36118996Y-91915078D01*
X36080523Y-91843100D01*
X36039976Y-91767242D01*
X35991313Y-91606823D01*
X35974883Y-91440000D01*
X35991313Y-91273177D01*
X36039976Y-91112758D01*
X36118995Y-90964924D01*
X36118996Y-90964922D01*
X36225341Y-90835341D01*
X36354922Y-90728996D01*
X36435639Y-90685852D01*
X36502758Y-90649976D01*
X36663177Y-90601313D01*
X36788196Y-90589000D01*
X36871804Y-90589000D01*
X36996823Y-90601313D01*
X36996823Y-90601313D01*
G37*
G36*
X113278228Y-90621703D02*
G01*
X113433100Y-90685853D01*
X113572481Y-90778985D01*
X113691015Y-90897519D01*
X113784147Y-91036900D01*
X113848297Y-91191772D01*
X113881000Y-91356184D01*
X113881000Y-91523816D01*
X113848297Y-91688228D01*
X113784147Y-91843100D01*
X113691015Y-91982481D01*
X113572481Y-92101015D01*
X113433100Y-92194147D01*
X113278228Y-92258297D01*
X113113816Y-92291000D01*
X112946184Y-92291000D01*
X112781772Y-92258297D01*
X112626900Y-92194147D01*
X112487519Y-92101015D01*
X112368985Y-91982481D01*
X112275853Y-91843100D01*
X112211703Y-91688228D01*
X112179000Y-91523816D01*
X112179000Y-91356184D01*
X112211703Y-91191772D01*
X112275853Y-91036900D01*
X112368985Y-90897519D01*
X112487519Y-90778985D01*
X112626900Y-90685853D01*
X112781772Y-90621703D01*
X112946184Y-90589000D01*
X113113816Y-90589000D01*
X113278228Y-90621703D01*
X113278228Y-90621703D01*
G37*
G36*
X52318228Y-90621703D02*
G01*
X52473100Y-90685853D01*
X52612481Y-90778985D01*
X52731015Y-90897519D01*
X52824147Y-91036900D01*
X52888297Y-91191772D01*
X52921000Y-91356184D01*
X52921000Y-91523816D01*
X52888297Y-91688228D01*
X52824147Y-91843100D01*
X52731015Y-91982481D01*
X52612481Y-92101015D01*
X52473100Y-92194147D01*
X52318228Y-92258297D01*
X52153816Y-92291000D01*
X51986184Y-92291000D01*
X51821772Y-92258297D01*
X51666900Y-92194147D01*
X51527519Y-92101015D01*
X51408985Y-91982481D01*
X51315853Y-91843100D01*
X51251703Y-91688228D01*
X51219000Y-91523816D01*
X51219000Y-91356184D01*
X51251703Y-91191772D01*
X51315853Y-91036900D01*
X51408985Y-90897519D01*
X51527519Y-90778985D01*
X51666900Y-90685853D01*
X51821772Y-90621703D01*
X51986184Y-90589000D01*
X52153816Y-90589000D01*
X52318228Y-90621703D01*
X52318228Y-90621703D01*
G37*
G36*
X94257395Y-89255546D02*
G01*
X94430466Y-89327234D01*
X94430467Y-89327235D01*
X94586227Y-89431310D01*
X94718690Y-89563773D01*
X94718691Y-89563775D01*
X94822766Y-89719534D01*
X94894454Y-89892605D01*
X94931000Y-90076333D01*
X94931000Y-90263667D01*
X94894454Y-90447395D01*
X94822766Y-90620466D01*
X94803048Y-90649976D01*
X94718690Y-90776227D01*
X94586227Y-90908690D01*
X94507818Y-90961081D01*
X94430466Y-91012766D01*
X94257395Y-91084454D01*
X94073667Y-91121000D01*
X93886333Y-91121000D01*
X93702605Y-91084454D01*
X93529534Y-91012766D01*
X93452182Y-90961081D01*
X93373773Y-90908690D01*
X93241310Y-90776227D01*
X93156952Y-90649976D01*
X93137234Y-90620466D01*
X93065546Y-90447395D01*
X93029000Y-90263667D01*
X93029000Y-90076333D01*
X93065546Y-89892605D01*
X93137234Y-89719534D01*
X93241309Y-89563775D01*
X93241310Y-89563773D01*
X93373773Y-89431310D01*
X93529533Y-89327235D01*
X93529534Y-89327234D01*
X93702605Y-89255546D01*
X93886333Y-89219000D01*
X94073667Y-89219000D01*
X94257395Y-89255546D01*
X94257395Y-89255546D01*
G37*
G36*
X176807395Y-86715546D02*
G01*
X176980466Y-86787234D01*
X176980467Y-86787235D01*
X177136227Y-86891310D01*
X177268690Y-87023773D01*
X177268691Y-87023775D01*
X177372766Y-87179534D01*
X177444454Y-87352605D01*
X177481000Y-87536333D01*
X177481000Y-87723667D01*
X177444454Y-87907395D01*
X177372766Y-88080466D01*
X177372765Y-88080467D01*
X177268690Y-88236227D01*
X177136227Y-88368690D01*
X177057818Y-88421081D01*
X176980466Y-88472766D01*
X176807395Y-88544454D01*
X176623667Y-88581000D01*
X176436333Y-88581000D01*
X176252605Y-88544454D01*
X176079534Y-88472766D01*
X176002182Y-88421081D01*
X175923773Y-88368690D01*
X175791310Y-88236227D01*
X175687235Y-88080467D01*
X175687234Y-88080466D01*
X175615546Y-87907395D01*
X175579000Y-87723667D01*
X175579000Y-87536333D01*
X175615546Y-87352605D01*
X175687234Y-87179534D01*
X175791309Y-87023775D01*
X175791310Y-87023773D01*
X175923773Y-86891310D01*
X176079533Y-86787235D01*
X176079534Y-86787234D01*
X176252605Y-86715546D01*
X176436333Y-86679000D01*
X176623667Y-86679000D01*
X176807395Y-86715546D01*
X176807395Y-86715546D01*
G37*
G36*
X82860343Y-84185361D02*
G01*
X82879568Y-84187254D01*
X82965900Y-84213443D01*
X83052234Y-84239632D01*
X83211365Y-84324689D01*
X83350844Y-84439156D01*
X83465311Y-84578635D01*
X83550368Y-84737766D01*
X83602746Y-84910433D01*
X83620432Y-85090000D01*
X83602746Y-85269567D01*
X83550368Y-85442234D01*
X83465311Y-85601365D01*
X83350844Y-85740844D01*
X83211365Y-85855311D01*
X83052234Y-85940368D01*
X82879568Y-85992746D01*
X82860343Y-85994639D01*
X82744998Y-86006000D01*
X82355002Y-86006000D01*
X82239657Y-85994639D01*
X82220432Y-85992746D01*
X82047766Y-85940368D01*
X81888635Y-85855311D01*
X81749156Y-85740844D01*
X81634689Y-85601365D01*
X81549632Y-85442234D01*
X81497254Y-85269567D01*
X81479568Y-85090000D01*
X81497254Y-84910433D01*
X81549632Y-84737766D01*
X81634689Y-84578635D01*
X81749156Y-84439156D01*
X81888635Y-84324689D01*
X82047766Y-84239632D01*
X82134100Y-84213443D01*
X82220432Y-84187254D01*
X82239657Y-84185361D01*
X82355002Y-84174000D01*
X82744998Y-84174000D01*
X82860343Y-84185361D01*
X82860343Y-84185361D01*
G37*
G36*
X57316823Y-82981313D02*
G01*
X57477242Y-83029976D01*
X57609906Y-83100886D01*
X57625078Y-83108996D01*
X57754659Y-83215341D01*
X57861004Y-83344922D01*
X57861005Y-83344924D01*
X57940024Y-83492758D01*
X57988687Y-83653177D01*
X58005117Y-83820000D01*
X57988687Y-83986823D01*
X57940024Y-84147242D01*
X57918637Y-84187254D01*
X57861004Y-84295078D01*
X57754659Y-84424659D01*
X57625078Y-84531004D01*
X57625076Y-84531005D01*
X57477242Y-84610024D01*
X57316823Y-84658687D01*
X57191804Y-84671000D01*
X57108196Y-84671000D01*
X56983177Y-84658687D01*
X56822758Y-84610024D01*
X56674924Y-84531005D01*
X56674922Y-84531004D01*
X56545341Y-84424659D01*
X56438996Y-84295078D01*
X56381363Y-84187254D01*
X56359976Y-84147242D01*
X56311313Y-83986823D01*
X56294883Y-83820000D01*
X56311313Y-83653177D01*
X56359976Y-83492758D01*
X56438995Y-83344924D01*
X56438996Y-83344922D01*
X56545341Y-83215341D01*
X56674922Y-83108996D01*
X56690094Y-83100886D01*
X56822758Y-83029976D01*
X56983177Y-82981313D01*
X57108196Y-82969000D01*
X57191804Y-82969000D01*
X57316823Y-82981313D01*
X57316823Y-82981313D01*
G37*
G36*
X161456823Y-82981313D02*
G01*
X161617242Y-83029976D01*
X161749906Y-83100886D01*
X161765078Y-83108996D01*
X161894659Y-83215341D01*
X162001004Y-83344922D01*
X162001005Y-83344924D01*
X162080024Y-83492758D01*
X162128687Y-83653177D01*
X162145117Y-83820000D01*
X162128687Y-83986823D01*
X162080024Y-84147242D01*
X162058637Y-84187254D01*
X162001004Y-84295078D01*
X161894659Y-84424659D01*
X161765078Y-84531004D01*
X161765076Y-84531005D01*
X161617242Y-84610024D01*
X161456823Y-84658687D01*
X161331804Y-84671000D01*
X161248196Y-84671000D01*
X161123177Y-84658687D01*
X160962758Y-84610024D01*
X160814924Y-84531005D01*
X160814922Y-84531004D01*
X160685341Y-84424659D01*
X160578996Y-84295078D01*
X160521363Y-84187254D01*
X160499976Y-84147242D01*
X160451313Y-83986823D01*
X160434883Y-83820000D01*
X160451313Y-83653177D01*
X160499976Y-83492758D01*
X160578995Y-83344924D01*
X160578996Y-83344922D01*
X160685341Y-83215341D01*
X160814922Y-83108996D01*
X160830094Y-83100886D01*
X160962758Y-83029976D01*
X161123177Y-82981313D01*
X161248196Y-82969000D01*
X161331804Y-82969000D01*
X161456823Y-82981313D01*
X161456823Y-82981313D01*
G37*
G36*
X59856823Y-82981313D02*
G01*
X60017242Y-83029976D01*
X60149906Y-83100886D01*
X60165078Y-83108996D01*
X60294659Y-83215341D01*
X60401004Y-83344922D01*
X60401005Y-83344924D01*
X60480024Y-83492758D01*
X60528687Y-83653177D01*
X60545117Y-83820000D01*
X60528687Y-83986823D01*
X60480024Y-84147242D01*
X60458637Y-84187254D01*
X60401004Y-84295078D01*
X60294659Y-84424659D01*
X60165078Y-84531004D01*
X60165076Y-84531005D01*
X60017242Y-84610024D01*
X59856823Y-84658687D01*
X59731804Y-84671000D01*
X59648196Y-84671000D01*
X59523177Y-84658687D01*
X59362758Y-84610024D01*
X59214924Y-84531005D01*
X59214922Y-84531004D01*
X59085341Y-84424659D01*
X58978996Y-84295078D01*
X58921363Y-84187254D01*
X58899976Y-84147242D01*
X58851313Y-83986823D01*
X58834883Y-83820000D01*
X58851313Y-83653177D01*
X58899976Y-83492758D01*
X58978995Y-83344924D01*
X58978996Y-83344922D01*
X59085341Y-83215341D01*
X59214922Y-83108996D01*
X59230094Y-83100886D01*
X59362758Y-83029976D01*
X59523177Y-82981313D01*
X59648196Y-82969000D01*
X59731804Y-82969000D01*
X59856823Y-82981313D01*
X59856823Y-82981313D01*
G37*
G36*
X62396823Y-82981313D02*
G01*
X62557242Y-83029976D01*
X62689906Y-83100886D01*
X62705078Y-83108996D01*
X62834659Y-83215341D01*
X62941004Y-83344922D01*
X62941005Y-83344924D01*
X63020024Y-83492758D01*
X63068687Y-83653177D01*
X63085117Y-83820000D01*
X63068687Y-83986823D01*
X63020024Y-84147242D01*
X62998637Y-84187254D01*
X62941004Y-84295078D01*
X62834659Y-84424659D01*
X62705078Y-84531004D01*
X62705076Y-84531005D01*
X62557242Y-84610024D01*
X62396823Y-84658687D01*
X62271804Y-84671000D01*
X62188196Y-84671000D01*
X62063177Y-84658687D01*
X61902758Y-84610024D01*
X61754924Y-84531005D01*
X61754922Y-84531004D01*
X61625341Y-84424659D01*
X61518996Y-84295078D01*
X61461363Y-84187254D01*
X61439976Y-84147242D01*
X61391313Y-83986823D01*
X61374883Y-83820000D01*
X61391313Y-83653177D01*
X61439976Y-83492758D01*
X61518995Y-83344924D01*
X61518996Y-83344922D01*
X61625341Y-83215341D01*
X61754922Y-83108996D01*
X61770094Y-83100886D01*
X61902758Y-83029976D01*
X62063177Y-82981313D01*
X62188196Y-82969000D01*
X62271804Y-82969000D01*
X62396823Y-82981313D01*
X62396823Y-82981313D01*
G37*
G36*
X148756823Y-82981313D02*
G01*
X148917242Y-83029976D01*
X149049906Y-83100886D01*
X149065078Y-83108996D01*
X149194659Y-83215341D01*
X149301004Y-83344922D01*
X149301005Y-83344924D01*
X149380024Y-83492758D01*
X149428687Y-83653177D01*
X149445117Y-83820000D01*
X149428687Y-83986823D01*
X149380024Y-84147242D01*
X149358637Y-84187254D01*
X149301004Y-84295078D01*
X149194659Y-84424659D01*
X149065078Y-84531004D01*
X149065076Y-84531005D01*
X148917242Y-84610024D01*
X148756823Y-84658687D01*
X148631804Y-84671000D01*
X148548196Y-84671000D01*
X148423177Y-84658687D01*
X148262758Y-84610024D01*
X148114924Y-84531005D01*
X148114922Y-84531004D01*
X147985341Y-84424659D01*
X147878996Y-84295078D01*
X147821363Y-84187254D01*
X147799976Y-84147242D01*
X147751313Y-83986823D01*
X147734883Y-83820000D01*
X147751313Y-83653177D01*
X147799976Y-83492758D01*
X147878995Y-83344924D01*
X147878996Y-83344922D01*
X147985341Y-83215341D01*
X148114922Y-83108996D01*
X148130094Y-83100886D01*
X148262758Y-83029976D01*
X148423177Y-82981313D01*
X148548196Y-82969000D01*
X148631804Y-82969000D01*
X148756823Y-82981313D01*
X148756823Y-82981313D01*
G37*
G36*
X151296823Y-82981313D02*
G01*
X151457242Y-83029976D01*
X151589906Y-83100886D01*
X151605078Y-83108996D01*
X151734659Y-83215341D01*
X151841004Y-83344922D01*
X151841005Y-83344924D01*
X151920024Y-83492758D01*
X151968687Y-83653177D01*
X151985117Y-83820000D01*
X151968687Y-83986823D01*
X151920024Y-84147242D01*
X151898637Y-84187254D01*
X151841004Y-84295078D01*
X151734659Y-84424659D01*
X151605078Y-84531004D01*
X151605076Y-84531005D01*
X151457242Y-84610024D01*
X151296823Y-84658687D01*
X151171804Y-84671000D01*
X151088196Y-84671000D01*
X150963177Y-84658687D01*
X150802758Y-84610024D01*
X150654924Y-84531005D01*
X150654922Y-84531004D01*
X150525341Y-84424659D01*
X150418996Y-84295078D01*
X150361363Y-84187254D01*
X150339976Y-84147242D01*
X150291313Y-83986823D01*
X150274883Y-83820000D01*
X150291313Y-83653177D01*
X150339976Y-83492758D01*
X150418995Y-83344924D01*
X150418996Y-83344922D01*
X150525341Y-83215341D01*
X150654922Y-83108996D01*
X150670094Y-83100886D01*
X150802758Y-83029976D01*
X150963177Y-82981313D01*
X151088196Y-82969000D01*
X151171804Y-82969000D01*
X151296823Y-82981313D01*
X151296823Y-82981313D01*
G37*
G36*
X156376823Y-82981313D02*
G01*
X156537242Y-83029976D01*
X156669906Y-83100886D01*
X156685078Y-83108996D01*
X156814659Y-83215341D01*
X156921004Y-83344922D01*
X156921005Y-83344924D01*
X157000024Y-83492758D01*
X157048687Y-83653177D01*
X157065117Y-83820000D01*
X157048687Y-83986823D01*
X157000024Y-84147242D01*
X156978637Y-84187254D01*
X156921004Y-84295078D01*
X156814659Y-84424659D01*
X156685078Y-84531004D01*
X156685076Y-84531005D01*
X156537242Y-84610024D01*
X156376823Y-84658687D01*
X156251804Y-84671000D01*
X156168196Y-84671000D01*
X156043177Y-84658687D01*
X155882758Y-84610024D01*
X155734924Y-84531005D01*
X155734922Y-84531004D01*
X155605341Y-84424659D01*
X155498996Y-84295078D01*
X155441363Y-84187254D01*
X155419976Y-84147242D01*
X155371313Y-83986823D01*
X155354883Y-83820000D01*
X155371313Y-83653177D01*
X155419976Y-83492758D01*
X155498995Y-83344924D01*
X155498996Y-83344922D01*
X155605341Y-83215341D01*
X155734922Y-83108996D01*
X155750094Y-83100886D01*
X155882758Y-83029976D01*
X156043177Y-82981313D01*
X156168196Y-82969000D01*
X156251804Y-82969000D01*
X156376823Y-82981313D01*
X156376823Y-82981313D01*
G37*
G36*
X158916823Y-82981313D02*
G01*
X159077242Y-83029976D01*
X159209906Y-83100886D01*
X159225078Y-83108996D01*
X159354659Y-83215341D01*
X159461004Y-83344922D01*
X159461005Y-83344924D01*
X159540024Y-83492758D01*
X159588687Y-83653177D01*
X159605117Y-83820000D01*
X159588687Y-83986823D01*
X159540024Y-84147242D01*
X159518637Y-84187254D01*
X159461004Y-84295078D01*
X159354659Y-84424659D01*
X159225078Y-84531004D01*
X159225076Y-84531005D01*
X159077242Y-84610024D01*
X158916823Y-84658687D01*
X158791804Y-84671000D01*
X158708196Y-84671000D01*
X158583177Y-84658687D01*
X158422758Y-84610024D01*
X158274924Y-84531005D01*
X158274922Y-84531004D01*
X158145341Y-84424659D01*
X158038996Y-84295078D01*
X157981363Y-84187254D01*
X157959976Y-84147242D01*
X157911313Y-83986823D01*
X157894883Y-83820000D01*
X157911313Y-83653177D01*
X157959976Y-83492758D01*
X158038995Y-83344924D01*
X158038996Y-83344922D01*
X158145341Y-83215341D01*
X158274922Y-83108996D01*
X158290094Y-83100886D01*
X158422758Y-83029976D01*
X158583177Y-82981313D01*
X158708196Y-82969000D01*
X158791804Y-82969000D01*
X158916823Y-82981313D01*
X158916823Y-82981313D01*
G37*
G36*
X64936823Y-82981313D02*
G01*
X65097242Y-83029976D01*
X65229906Y-83100886D01*
X65245078Y-83108996D01*
X65374659Y-83215341D01*
X65481004Y-83344922D01*
X65481005Y-83344924D01*
X65560024Y-83492758D01*
X65608687Y-83653177D01*
X65625117Y-83820000D01*
X65608687Y-83986823D01*
X65560024Y-84147242D01*
X65538637Y-84187254D01*
X65481004Y-84295078D01*
X65374659Y-84424659D01*
X65245078Y-84531004D01*
X65245076Y-84531005D01*
X65097242Y-84610024D01*
X64936823Y-84658687D01*
X64811804Y-84671000D01*
X64728196Y-84671000D01*
X64603177Y-84658687D01*
X64442758Y-84610024D01*
X64294924Y-84531005D01*
X64294922Y-84531004D01*
X64165341Y-84424659D01*
X64058996Y-84295078D01*
X64001363Y-84187254D01*
X63979976Y-84147242D01*
X63931313Y-83986823D01*
X63914883Y-83820000D01*
X63931313Y-83653177D01*
X63979976Y-83492758D01*
X64058995Y-83344924D01*
X64058996Y-83344922D01*
X64165341Y-83215341D01*
X64294922Y-83108996D01*
X64310094Y-83100886D01*
X64442758Y-83029976D01*
X64603177Y-82981313D01*
X64728196Y-82969000D01*
X64811804Y-82969000D01*
X64936823Y-82981313D01*
X64936823Y-82981313D01*
G37*
G36*
X49696823Y-82981313D02*
G01*
X49857242Y-83029976D01*
X49989906Y-83100886D01*
X50005078Y-83108996D01*
X50134659Y-83215341D01*
X50241004Y-83344922D01*
X50241005Y-83344924D01*
X50320024Y-83492758D01*
X50368687Y-83653177D01*
X50385117Y-83820000D01*
X50368687Y-83986823D01*
X50320024Y-84147242D01*
X50298637Y-84187254D01*
X50241004Y-84295078D01*
X50134659Y-84424659D01*
X50005078Y-84531004D01*
X50005076Y-84531005D01*
X49857242Y-84610024D01*
X49696823Y-84658687D01*
X49571804Y-84671000D01*
X49488196Y-84671000D01*
X49363177Y-84658687D01*
X49202758Y-84610024D01*
X49054924Y-84531005D01*
X49054922Y-84531004D01*
X48925341Y-84424659D01*
X48818996Y-84295078D01*
X48761363Y-84187254D01*
X48739976Y-84147242D01*
X48691313Y-83986823D01*
X48674883Y-83820000D01*
X48691313Y-83653177D01*
X48739976Y-83492758D01*
X48818995Y-83344924D01*
X48818996Y-83344922D01*
X48925341Y-83215341D01*
X49054922Y-83108996D01*
X49070094Y-83100886D01*
X49202758Y-83029976D01*
X49363177Y-82981313D01*
X49488196Y-82969000D01*
X49571804Y-82969000D01*
X49696823Y-82981313D01*
X49696823Y-82981313D01*
G37*
G36*
X103036823Y-82981313D02*
G01*
X103197242Y-83029976D01*
X103329906Y-83100886D01*
X103345078Y-83108996D01*
X103474659Y-83215341D01*
X103581004Y-83344922D01*
X103581005Y-83344924D01*
X103660024Y-83492758D01*
X103708687Y-83653177D01*
X103725117Y-83820000D01*
X103708687Y-83986823D01*
X103660024Y-84147242D01*
X103638637Y-84187254D01*
X103581004Y-84295078D01*
X103474659Y-84424659D01*
X103345078Y-84531004D01*
X103345076Y-84531005D01*
X103197242Y-84610024D01*
X103036823Y-84658687D01*
X102911804Y-84671000D01*
X102828196Y-84671000D01*
X102703177Y-84658687D01*
X102542758Y-84610024D01*
X102394924Y-84531005D01*
X102394922Y-84531004D01*
X102265341Y-84424659D01*
X102158996Y-84295078D01*
X102101363Y-84187254D01*
X102079976Y-84147242D01*
X102031313Y-83986823D01*
X102014883Y-83820000D01*
X102031313Y-83653177D01*
X102079976Y-83492758D01*
X102158995Y-83344924D01*
X102158996Y-83344922D01*
X102265341Y-83215341D01*
X102394922Y-83108996D01*
X102410094Y-83100886D01*
X102542758Y-83029976D01*
X102703177Y-82981313D01*
X102828196Y-82969000D01*
X102911804Y-82969000D01*
X103036823Y-82981313D01*
X103036823Y-82981313D01*
G37*
G36*
X100496823Y-82981313D02*
G01*
X100657242Y-83029976D01*
X100789906Y-83100886D01*
X100805078Y-83108996D01*
X100934659Y-83215341D01*
X101041004Y-83344922D01*
X101041005Y-83344924D01*
X101120024Y-83492758D01*
X101168687Y-83653177D01*
X101185117Y-83820000D01*
X101168687Y-83986823D01*
X101120024Y-84147242D01*
X101098637Y-84187254D01*
X101041004Y-84295078D01*
X100934659Y-84424659D01*
X100805078Y-84531004D01*
X100805076Y-84531005D01*
X100657242Y-84610024D01*
X100496823Y-84658687D01*
X100371804Y-84671000D01*
X100288196Y-84671000D01*
X100163177Y-84658687D01*
X100002758Y-84610024D01*
X99854924Y-84531005D01*
X99854922Y-84531004D01*
X99725341Y-84424659D01*
X99618996Y-84295078D01*
X99561363Y-84187254D01*
X99539976Y-84147242D01*
X99491313Y-83986823D01*
X99474883Y-83820000D01*
X99491313Y-83653177D01*
X99539976Y-83492758D01*
X99618995Y-83344924D01*
X99618996Y-83344922D01*
X99725341Y-83215341D01*
X99854922Y-83108996D01*
X99870094Y-83100886D01*
X100002758Y-83029976D01*
X100163177Y-82981313D01*
X100288196Y-82969000D01*
X100371804Y-82969000D01*
X100496823Y-82981313D01*
X100496823Y-82981313D01*
G37*
G36*
X110656823Y-82981313D02*
G01*
X110817242Y-83029976D01*
X110949906Y-83100886D01*
X110965078Y-83108996D01*
X111094659Y-83215341D01*
X111201004Y-83344922D01*
X111201005Y-83344924D01*
X111280024Y-83492758D01*
X111328687Y-83653177D01*
X111345117Y-83820000D01*
X111328687Y-83986823D01*
X111280024Y-84147242D01*
X111258637Y-84187254D01*
X111201004Y-84295078D01*
X111094659Y-84424659D01*
X110965078Y-84531004D01*
X110965076Y-84531005D01*
X110817242Y-84610024D01*
X110656823Y-84658687D01*
X110531804Y-84671000D01*
X110448196Y-84671000D01*
X110323177Y-84658687D01*
X110162758Y-84610024D01*
X110014924Y-84531005D01*
X110014922Y-84531004D01*
X109885341Y-84424659D01*
X109778996Y-84295078D01*
X109721363Y-84187254D01*
X109699976Y-84147242D01*
X109651313Y-83986823D01*
X109634883Y-83820000D01*
X109651313Y-83653177D01*
X109699976Y-83492758D01*
X109778995Y-83344924D01*
X109778996Y-83344922D01*
X109885341Y-83215341D01*
X110014922Y-83108996D01*
X110030094Y-83100886D01*
X110162758Y-83029976D01*
X110323177Y-82981313D01*
X110448196Y-82969000D01*
X110531804Y-82969000D01*
X110656823Y-82981313D01*
X110656823Y-82981313D01*
G37*
G36*
X113196823Y-82981313D02*
G01*
X113357242Y-83029976D01*
X113489906Y-83100886D01*
X113505078Y-83108996D01*
X113634659Y-83215341D01*
X113741004Y-83344922D01*
X113741005Y-83344924D01*
X113820024Y-83492758D01*
X113868687Y-83653177D01*
X113885117Y-83820000D01*
X113868687Y-83986823D01*
X113820024Y-84147242D01*
X113798637Y-84187254D01*
X113741004Y-84295078D01*
X113634659Y-84424659D01*
X113505078Y-84531004D01*
X113505076Y-84531005D01*
X113357242Y-84610024D01*
X113196823Y-84658687D01*
X113071804Y-84671000D01*
X112988196Y-84671000D01*
X112863177Y-84658687D01*
X112702758Y-84610024D01*
X112554924Y-84531005D01*
X112554922Y-84531004D01*
X112425341Y-84424659D01*
X112318996Y-84295078D01*
X112261363Y-84187254D01*
X112239976Y-84147242D01*
X112191313Y-83986823D01*
X112174883Y-83820000D01*
X112191313Y-83653177D01*
X112239976Y-83492758D01*
X112318995Y-83344924D01*
X112318996Y-83344922D01*
X112425341Y-83215341D01*
X112554922Y-83108996D01*
X112570094Y-83100886D01*
X112702758Y-83029976D01*
X112863177Y-82981313D01*
X112988196Y-82969000D01*
X113071804Y-82969000D01*
X113196823Y-82981313D01*
X113196823Y-82981313D01*
G37*
G36*
X153836823Y-82981313D02*
G01*
X153997242Y-83029976D01*
X154129906Y-83100886D01*
X154145078Y-83108996D01*
X154274659Y-83215341D01*
X154381004Y-83344922D01*
X154381005Y-83344924D01*
X154460024Y-83492758D01*
X154508687Y-83653177D01*
X154525117Y-83820000D01*
X154508687Y-83986823D01*
X154460024Y-84147242D01*
X154438637Y-84187254D01*
X154381004Y-84295078D01*
X154274659Y-84424659D01*
X154145078Y-84531004D01*
X154145076Y-84531005D01*
X153997242Y-84610024D01*
X153836823Y-84658687D01*
X153711804Y-84671000D01*
X153628196Y-84671000D01*
X153503177Y-84658687D01*
X153342758Y-84610024D01*
X153194924Y-84531005D01*
X153194922Y-84531004D01*
X153065341Y-84424659D01*
X152958996Y-84295078D01*
X152901363Y-84187254D01*
X152879976Y-84147242D01*
X152831313Y-83986823D01*
X152814883Y-83820000D01*
X152831313Y-83653177D01*
X152879976Y-83492758D01*
X152958995Y-83344924D01*
X152958996Y-83344922D01*
X153065341Y-83215341D01*
X153194922Y-83108996D01*
X153210094Y-83100886D01*
X153342758Y-83029976D01*
X153503177Y-82981313D01*
X153628196Y-82969000D01*
X153711804Y-82969000D01*
X153836823Y-82981313D01*
X153836823Y-82981313D01*
G37*
G36*
X52236823Y-82981313D02*
G01*
X52397242Y-83029976D01*
X52529906Y-83100886D01*
X52545078Y-83108996D01*
X52674659Y-83215341D01*
X52781004Y-83344922D01*
X52781005Y-83344924D01*
X52860024Y-83492758D01*
X52908687Y-83653177D01*
X52925117Y-83820000D01*
X52908687Y-83986823D01*
X52860024Y-84147242D01*
X52838637Y-84187254D01*
X52781004Y-84295078D01*
X52674659Y-84424659D01*
X52545078Y-84531004D01*
X52545076Y-84531005D01*
X52397242Y-84610024D01*
X52236823Y-84658687D01*
X52111804Y-84671000D01*
X52028196Y-84671000D01*
X51903177Y-84658687D01*
X51742758Y-84610024D01*
X51594924Y-84531005D01*
X51594922Y-84531004D01*
X51465341Y-84424659D01*
X51358996Y-84295078D01*
X51301363Y-84187254D01*
X51279976Y-84147242D01*
X51231313Y-83986823D01*
X51214883Y-83820000D01*
X51231313Y-83653177D01*
X51279976Y-83492758D01*
X51358995Y-83344924D01*
X51358996Y-83344922D01*
X51465341Y-83215341D01*
X51594922Y-83108996D01*
X51610094Y-83100886D01*
X51742758Y-83029976D01*
X51903177Y-82981313D01*
X52028196Y-82969000D01*
X52111804Y-82969000D01*
X52236823Y-82981313D01*
X52236823Y-82981313D01*
G37*
G36*
X108116823Y-82981313D02*
G01*
X108277242Y-83029976D01*
X108409906Y-83100886D01*
X108425078Y-83108996D01*
X108554659Y-83215341D01*
X108661004Y-83344922D01*
X108661005Y-83344924D01*
X108740024Y-83492758D01*
X108788687Y-83653177D01*
X108805117Y-83820000D01*
X108788687Y-83986823D01*
X108740024Y-84147242D01*
X108718637Y-84187254D01*
X108661004Y-84295078D01*
X108554659Y-84424659D01*
X108425078Y-84531004D01*
X108425076Y-84531005D01*
X108277242Y-84610024D01*
X108116823Y-84658687D01*
X107991804Y-84671000D01*
X107908196Y-84671000D01*
X107783177Y-84658687D01*
X107622758Y-84610024D01*
X107474924Y-84531005D01*
X107474922Y-84531004D01*
X107345341Y-84424659D01*
X107238996Y-84295078D01*
X107181363Y-84187254D01*
X107159976Y-84147242D01*
X107111313Y-83986823D01*
X107094883Y-83820000D01*
X107111313Y-83653177D01*
X107159976Y-83492758D01*
X107238995Y-83344924D01*
X107238996Y-83344922D01*
X107345341Y-83215341D01*
X107474922Y-83108996D01*
X107490094Y-83100886D01*
X107622758Y-83029976D01*
X107783177Y-82981313D01*
X107908196Y-82969000D01*
X107991804Y-82969000D01*
X108116823Y-82981313D01*
X108116823Y-82981313D01*
G37*
G36*
X54776823Y-82981313D02*
G01*
X54937242Y-83029976D01*
X55069906Y-83100886D01*
X55085078Y-83108996D01*
X55214659Y-83215341D01*
X55321004Y-83344922D01*
X55321005Y-83344924D01*
X55400024Y-83492758D01*
X55448687Y-83653177D01*
X55465117Y-83820000D01*
X55448687Y-83986823D01*
X55400024Y-84147242D01*
X55378637Y-84187254D01*
X55321004Y-84295078D01*
X55214659Y-84424659D01*
X55085078Y-84531004D01*
X55085076Y-84531005D01*
X54937242Y-84610024D01*
X54776823Y-84658687D01*
X54651804Y-84671000D01*
X54568196Y-84671000D01*
X54443177Y-84658687D01*
X54282758Y-84610024D01*
X54134924Y-84531005D01*
X54134922Y-84531004D01*
X54005341Y-84424659D01*
X53898996Y-84295078D01*
X53841363Y-84187254D01*
X53819976Y-84147242D01*
X53771313Y-83986823D01*
X53754883Y-83820000D01*
X53771313Y-83653177D01*
X53819976Y-83492758D01*
X53898995Y-83344924D01*
X53898996Y-83344922D01*
X54005341Y-83215341D01*
X54134922Y-83108996D01*
X54150094Y-83100886D01*
X54282758Y-83029976D01*
X54443177Y-82981313D01*
X54568196Y-82969000D01*
X54651804Y-82969000D01*
X54776823Y-82981313D01*
X54776823Y-82981313D01*
G37*
G36*
X115736823Y-82981313D02*
G01*
X115897242Y-83029976D01*
X116029906Y-83100886D01*
X116045078Y-83108996D01*
X116174659Y-83215341D01*
X116281004Y-83344922D01*
X116281005Y-83344924D01*
X116360024Y-83492758D01*
X116408687Y-83653177D01*
X116425117Y-83820000D01*
X116408687Y-83986823D01*
X116360024Y-84147242D01*
X116338637Y-84187254D01*
X116281004Y-84295078D01*
X116174659Y-84424659D01*
X116045078Y-84531004D01*
X116045076Y-84531005D01*
X115897242Y-84610024D01*
X115736823Y-84658687D01*
X115611804Y-84671000D01*
X115528196Y-84671000D01*
X115403177Y-84658687D01*
X115242758Y-84610024D01*
X115094924Y-84531005D01*
X115094922Y-84531004D01*
X114965341Y-84424659D01*
X114858996Y-84295078D01*
X114801363Y-84187254D01*
X114779976Y-84147242D01*
X114731313Y-83986823D01*
X114714883Y-83820000D01*
X114731313Y-83653177D01*
X114779976Y-83492758D01*
X114858995Y-83344924D01*
X114858996Y-83344922D01*
X114965341Y-83215341D01*
X115094922Y-83108996D01*
X115110094Y-83100886D01*
X115242758Y-83029976D01*
X115403177Y-82981313D01*
X115528196Y-82969000D01*
X115611804Y-82969000D01*
X115736823Y-82981313D01*
X115736823Y-82981313D01*
G37*
G36*
X146216823Y-82981313D02*
G01*
X146377242Y-83029976D01*
X146509906Y-83100886D01*
X146525078Y-83108996D01*
X146654659Y-83215341D01*
X146761004Y-83344922D01*
X146761005Y-83344924D01*
X146840024Y-83492758D01*
X146888687Y-83653177D01*
X146905117Y-83820000D01*
X146888687Y-83986823D01*
X146840024Y-84147242D01*
X146818637Y-84187254D01*
X146761004Y-84295078D01*
X146654659Y-84424659D01*
X146525078Y-84531004D01*
X146525076Y-84531005D01*
X146377242Y-84610024D01*
X146216823Y-84658687D01*
X146091804Y-84671000D01*
X146008196Y-84671000D01*
X145883177Y-84658687D01*
X145722758Y-84610024D01*
X145574924Y-84531005D01*
X145574922Y-84531004D01*
X145445341Y-84424659D01*
X145338996Y-84295078D01*
X145281363Y-84187254D01*
X145259976Y-84147242D01*
X145211313Y-83986823D01*
X145194883Y-83820000D01*
X145211313Y-83653177D01*
X145259976Y-83492758D01*
X145338995Y-83344924D01*
X145338996Y-83344922D01*
X145445341Y-83215341D01*
X145574922Y-83108996D01*
X145590094Y-83100886D01*
X145722758Y-83029976D01*
X145883177Y-82981313D01*
X146008196Y-82969000D01*
X146091804Y-82969000D01*
X146216823Y-82981313D01*
X146216823Y-82981313D01*
G37*
G36*
X105576823Y-82981313D02*
G01*
X105737242Y-83029976D01*
X105869906Y-83100886D01*
X105885078Y-83108996D01*
X106014659Y-83215341D01*
X106121004Y-83344922D01*
X106121005Y-83344924D01*
X106200024Y-83492758D01*
X106248687Y-83653177D01*
X106265117Y-83820000D01*
X106248687Y-83986823D01*
X106200024Y-84147242D01*
X106178637Y-84187254D01*
X106121004Y-84295078D01*
X106014659Y-84424659D01*
X105885078Y-84531004D01*
X105885076Y-84531005D01*
X105737242Y-84610024D01*
X105576823Y-84658687D01*
X105451804Y-84671000D01*
X105368196Y-84671000D01*
X105243177Y-84658687D01*
X105082758Y-84610024D01*
X104934924Y-84531005D01*
X104934922Y-84531004D01*
X104805341Y-84424659D01*
X104698996Y-84295078D01*
X104641363Y-84187254D01*
X104619976Y-84147242D01*
X104571313Y-83986823D01*
X104554883Y-83820000D01*
X104571313Y-83653177D01*
X104619976Y-83492758D01*
X104698995Y-83344924D01*
X104698996Y-83344922D01*
X104805341Y-83215341D01*
X104934922Y-83108996D01*
X104950094Y-83100886D01*
X105082758Y-83029976D01*
X105243177Y-82981313D01*
X105368196Y-82969000D01*
X105451804Y-82969000D01*
X105576823Y-82981313D01*
X105576823Y-82981313D01*
G37*
G36*
X176807395Y-81635546D02*
G01*
X176980466Y-81707234D01*
X176980467Y-81707235D01*
X177136227Y-81811310D01*
X177268690Y-81943773D01*
X177268691Y-81943775D01*
X177372766Y-82099534D01*
X177444454Y-82272605D01*
X177481000Y-82456333D01*
X177481000Y-82643667D01*
X177444454Y-82827395D01*
X177372766Y-83000466D01*
X177321081Y-83077818D01*
X177268690Y-83156227D01*
X177136227Y-83288690D01*
X177057818Y-83341081D01*
X176980466Y-83392766D01*
X176807395Y-83464454D01*
X176623667Y-83501000D01*
X176436333Y-83501000D01*
X176252605Y-83464454D01*
X176079534Y-83392766D01*
X176002182Y-83341081D01*
X175923773Y-83288690D01*
X175791310Y-83156227D01*
X175738919Y-83077818D01*
X175687234Y-83000466D01*
X175615546Y-82827395D01*
X175579000Y-82643667D01*
X175579000Y-82456333D01*
X175615546Y-82272605D01*
X175687234Y-82099534D01*
X175791309Y-81943775D01*
X175791310Y-81943773D01*
X175923773Y-81811310D01*
X176079533Y-81707235D01*
X176079534Y-81707234D01*
X176252605Y-81635546D01*
X176436333Y-81599000D01*
X176623667Y-81599000D01*
X176807395Y-81635546D01*
X176807395Y-81635546D01*
G37*
G36*
X82860343Y-81645361D02*
G01*
X82879568Y-81647254D01*
X83052234Y-81699632D01*
X83211365Y-81784689D01*
X83350844Y-81899156D01*
X83465311Y-82038635D01*
X83550368Y-82197766D01*
X83602746Y-82370433D01*
X83620432Y-82550000D01*
X83602746Y-82729567D01*
X83550368Y-82902234D01*
X83465311Y-83061365D01*
X83350844Y-83200844D01*
X83211365Y-83315311D01*
X83052234Y-83400368D01*
X82965900Y-83426557D01*
X82879568Y-83452746D01*
X82860343Y-83454639D01*
X82744998Y-83466000D01*
X82355002Y-83466000D01*
X82239657Y-83454639D01*
X82220432Y-83452746D01*
X82134100Y-83426557D01*
X82047766Y-83400368D01*
X81888635Y-83315311D01*
X81749156Y-83200844D01*
X81634689Y-83061365D01*
X81549632Y-82902234D01*
X81497254Y-82729567D01*
X81479568Y-82550000D01*
X81497254Y-82370433D01*
X81549632Y-82197766D01*
X81634689Y-82038635D01*
X81749156Y-81899156D01*
X81888635Y-81784689D01*
X82047766Y-81699632D01*
X82220432Y-81647254D01*
X82239657Y-81645361D01*
X82355002Y-81634000D01*
X82744998Y-81634000D01*
X82860343Y-81645361D01*
X82860343Y-81645361D01*
G37*
G36*
X133660343Y-80375361D02*
G01*
X133679568Y-80377254D01*
X133765900Y-80403443D01*
X133852234Y-80429632D01*
X134011365Y-80514689D01*
X134150844Y-80629156D01*
X134265311Y-80768635D01*
X134350368Y-80927766D01*
X134402746Y-81100433D01*
X134420432Y-81280000D01*
X134402746Y-81459567D01*
X134350368Y-81632234D01*
X134265311Y-81791365D01*
X134150844Y-81930844D01*
X134011365Y-82045311D01*
X133852234Y-82130368D01*
X133765900Y-82156557D01*
X133679568Y-82182746D01*
X133660343Y-82184639D01*
X133544998Y-82196000D01*
X133155002Y-82196000D01*
X133039657Y-82184639D01*
X133020432Y-82182746D01*
X132934100Y-82156557D01*
X132847766Y-82130368D01*
X132688635Y-82045311D01*
X132549156Y-81930844D01*
X132434689Y-81791365D01*
X132349632Y-81632234D01*
X132297254Y-81459567D01*
X132279568Y-81280000D01*
X132297254Y-81100433D01*
X132349632Y-80927766D01*
X132434689Y-80768635D01*
X132549156Y-80629156D01*
X132688635Y-80514689D01*
X132847766Y-80429632D01*
X132934100Y-80403443D01*
X133020432Y-80377254D01*
X133039657Y-80375361D01*
X133155002Y-80364000D01*
X133544998Y-80364000D01*
X133660343Y-80375361D01*
X133660343Y-80375361D01*
G37*
G36*
X39680343Y-79105361D02*
G01*
X39699568Y-79107254D01*
X39785900Y-79133443D01*
X39872234Y-79159632D01*
X40031365Y-79244689D01*
X40170844Y-79359156D01*
X40285311Y-79498635D01*
X40370368Y-79657766D01*
X40422746Y-79830433D01*
X40440432Y-80010000D01*
X40422746Y-80189567D01*
X40370368Y-80362234D01*
X40285311Y-80521365D01*
X40170844Y-80660844D01*
X40031365Y-80775311D01*
X39872234Y-80860368D01*
X39699568Y-80912746D01*
X39680343Y-80914639D01*
X39564998Y-80926000D01*
X39175002Y-80926000D01*
X39059657Y-80914639D01*
X39040432Y-80912746D01*
X38867766Y-80860368D01*
X38708635Y-80775311D01*
X38569156Y-80660844D01*
X38454689Y-80521365D01*
X38369632Y-80362234D01*
X38317254Y-80189567D01*
X38299568Y-80010000D01*
X38317254Y-79830433D01*
X38369632Y-79657766D01*
X38454689Y-79498635D01*
X38569156Y-79359156D01*
X38708635Y-79244689D01*
X38867766Y-79159632D01*
X38954100Y-79133443D01*
X39040432Y-79107254D01*
X39059657Y-79105361D01*
X39175002Y-79094000D01*
X39564998Y-79094000D01*
X39680343Y-79105361D01*
X39680343Y-79105361D01*
G37*
G36*
X83616000Y-80926000D02*
G01*
X81484000Y-80926000D01*
X81484000Y-79094000D01*
X83616000Y-79094000D01*
X83616000Y-80926000D01*
X83616000Y-80926000D01*
G37*
G36*
X133660343Y-77835361D02*
G01*
X133679568Y-77837254D01*
X133765900Y-77863443D01*
X133852234Y-77889632D01*
X134011365Y-77974689D01*
X134150844Y-78089156D01*
X134265311Y-78228635D01*
X134350368Y-78387766D01*
X134402746Y-78560433D01*
X134420432Y-78740000D01*
X134402746Y-78919567D01*
X134350368Y-79092234D01*
X134265311Y-79251365D01*
X134150844Y-79390844D01*
X134011365Y-79505311D01*
X133852234Y-79590368D01*
X133765900Y-79616557D01*
X133679568Y-79642746D01*
X133660343Y-79644639D01*
X133544998Y-79656000D01*
X133155002Y-79656000D01*
X133039657Y-79644639D01*
X133020432Y-79642746D01*
X132847766Y-79590368D01*
X132688635Y-79505311D01*
X132549156Y-79390844D01*
X132434689Y-79251365D01*
X132349632Y-79092234D01*
X132297254Y-78919567D01*
X132279568Y-78740000D01*
X132297254Y-78560433D01*
X132349632Y-78387766D01*
X132434689Y-78228635D01*
X132549156Y-78089156D01*
X132688635Y-77974689D01*
X132847766Y-77889632D01*
X132934100Y-77863443D01*
X133020432Y-77837254D01*
X133039657Y-77835361D01*
X133155002Y-77824000D01*
X133544998Y-77824000D01*
X133660343Y-77835361D01*
X133660343Y-77835361D01*
G37*
G36*
X39680343Y-76565361D02*
G01*
X39699568Y-76567254D01*
X39872234Y-76619632D01*
X40031365Y-76704689D01*
X40170844Y-76819156D01*
X40285311Y-76958635D01*
X40370368Y-77117766D01*
X40422746Y-77290433D01*
X40440432Y-77470000D01*
X40422746Y-77649567D01*
X40370368Y-77822234D01*
X40285311Y-77981365D01*
X40170844Y-78120844D01*
X40031365Y-78235311D01*
X39872234Y-78320368D01*
X39785900Y-78346557D01*
X39699568Y-78372746D01*
X39680343Y-78374639D01*
X39564998Y-78386000D01*
X39175002Y-78386000D01*
X39059657Y-78374639D01*
X39040432Y-78372746D01*
X38954100Y-78346557D01*
X38867766Y-78320368D01*
X38708635Y-78235311D01*
X38569156Y-78120844D01*
X38454689Y-77981365D01*
X38369632Y-77822234D01*
X38317254Y-77649567D01*
X38299568Y-77470000D01*
X38317254Y-77290433D01*
X38369632Y-77117766D01*
X38454689Y-76958635D01*
X38569156Y-76819156D01*
X38708635Y-76704689D01*
X38867766Y-76619632D01*
X39040432Y-76567254D01*
X39059657Y-76565361D01*
X39175002Y-76554000D01*
X39564998Y-76554000D01*
X39680343Y-76565361D01*
X39680343Y-76565361D01*
G37*
G36*
X134416000Y-77116000D02*
G01*
X132284000Y-77116000D01*
X132284000Y-75284000D01*
X134416000Y-75284000D01*
X134416000Y-77116000D01*
X134416000Y-77116000D01*
G37*
G36*
X110656823Y-75361313D02*
G01*
X110817242Y-75409976D01*
X110949906Y-75480886D01*
X110965078Y-75488996D01*
X111094659Y-75595341D01*
X111201004Y-75724922D01*
X111201005Y-75724924D01*
X111280024Y-75872758D01*
X111328687Y-76033177D01*
X111345117Y-76200000D01*
X111328687Y-76366823D01*
X111280024Y-76527242D01*
X111258637Y-76567254D01*
X111201004Y-76675078D01*
X111094659Y-76804659D01*
X110965078Y-76911004D01*
X110965076Y-76911005D01*
X110817242Y-76990024D01*
X110656823Y-77038687D01*
X110531804Y-77051000D01*
X110448196Y-77051000D01*
X110323177Y-77038687D01*
X110162758Y-76990024D01*
X110014924Y-76911005D01*
X110014922Y-76911004D01*
X109885341Y-76804659D01*
X109778996Y-76675078D01*
X109721363Y-76567254D01*
X109699976Y-76527242D01*
X109651313Y-76366823D01*
X109634883Y-76200000D01*
X109651313Y-76033177D01*
X109699976Y-75872758D01*
X109778995Y-75724924D01*
X109778996Y-75724922D01*
X109885341Y-75595341D01*
X110014922Y-75488996D01*
X110030094Y-75480886D01*
X110162758Y-75409976D01*
X110323177Y-75361313D01*
X110448196Y-75349000D01*
X110531804Y-75349000D01*
X110656823Y-75361313D01*
X110656823Y-75361313D01*
G37*
G36*
X108116823Y-75361313D02*
G01*
X108277242Y-75409976D01*
X108409906Y-75480886D01*
X108425078Y-75488996D01*
X108554659Y-75595341D01*
X108661004Y-75724922D01*
X108661005Y-75724924D01*
X108740024Y-75872758D01*
X108788687Y-76033177D01*
X108805117Y-76200000D01*
X108788687Y-76366823D01*
X108740024Y-76527242D01*
X108718637Y-76567254D01*
X108661004Y-76675078D01*
X108554659Y-76804659D01*
X108425078Y-76911004D01*
X108425076Y-76911005D01*
X108277242Y-76990024D01*
X108116823Y-77038687D01*
X107991804Y-77051000D01*
X107908196Y-77051000D01*
X107783177Y-77038687D01*
X107622758Y-76990024D01*
X107474924Y-76911005D01*
X107474922Y-76911004D01*
X107345341Y-76804659D01*
X107238996Y-76675078D01*
X107181363Y-76567254D01*
X107159976Y-76527242D01*
X107111313Y-76366823D01*
X107094883Y-76200000D01*
X107111313Y-76033177D01*
X107159976Y-75872758D01*
X107238995Y-75724924D01*
X107238996Y-75724922D01*
X107345341Y-75595341D01*
X107474922Y-75488996D01*
X107490094Y-75480886D01*
X107622758Y-75409976D01*
X107783177Y-75361313D01*
X107908196Y-75349000D01*
X107991804Y-75349000D01*
X108116823Y-75361313D01*
X108116823Y-75361313D01*
G37*
G36*
X105576823Y-75361313D02*
G01*
X105737242Y-75409976D01*
X105869906Y-75480886D01*
X105885078Y-75488996D01*
X106014659Y-75595341D01*
X106121004Y-75724922D01*
X106121005Y-75724924D01*
X106200024Y-75872758D01*
X106248687Y-76033177D01*
X106265117Y-76200000D01*
X106248687Y-76366823D01*
X106200024Y-76527242D01*
X106178637Y-76567254D01*
X106121004Y-76675078D01*
X106014659Y-76804659D01*
X105885078Y-76911004D01*
X105885076Y-76911005D01*
X105737242Y-76990024D01*
X105576823Y-77038687D01*
X105451804Y-77051000D01*
X105368196Y-77051000D01*
X105243177Y-77038687D01*
X105082758Y-76990024D01*
X104934924Y-76911005D01*
X104934922Y-76911004D01*
X104805341Y-76804659D01*
X104698996Y-76675078D01*
X104641363Y-76567254D01*
X104619976Y-76527242D01*
X104571313Y-76366823D01*
X104554883Y-76200000D01*
X104571313Y-76033177D01*
X104619976Y-75872758D01*
X104698995Y-75724924D01*
X104698996Y-75724922D01*
X104805341Y-75595341D01*
X104934922Y-75488996D01*
X104950094Y-75480886D01*
X105082758Y-75409976D01*
X105243177Y-75361313D01*
X105368196Y-75349000D01*
X105451804Y-75349000D01*
X105576823Y-75361313D01*
X105576823Y-75361313D01*
G37*
G36*
X103036823Y-75361313D02*
G01*
X103197242Y-75409976D01*
X103329906Y-75480886D01*
X103345078Y-75488996D01*
X103474659Y-75595341D01*
X103581004Y-75724922D01*
X103581005Y-75724924D01*
X103660024Y-75872758D01*
X103708687Y-76033177D01*
X103725117Y-76200000D01*
X103708687Y-76366823D01*
X103660024Y-76527242D01*
X103638637Y-76567254D01*
X103581004Y-76675078D01*
X103474659Y-76804659D01*
X103345078Y-76911004D01*
X103345076Y-76911005D01*
X103197242Y-76990024D01*
X103036823Y-77038687D01*
X102911804Y-77051000D01*
X102828196Y-77051000D01*
X102703177Y-77038687D01*
X102542758Y-76990024D01*
X102394924Y-76911005D01*
X102394922Y-76911004D01*
X102265341Y-76804659D01*
X102158996Y-76675078D01*
X102101363Y-76567254D01*
X102079976Y-76527242D01*
X102031313Y-76366823D01*
X102014883Y-76200000D01*
X102031313Y-76033177D01*
X102079976Y-75872758D01*
X102158995Y-75724924D01*
X102158996Y-75724922D01*
X102265341Y-75595341D01*
X102394922Y-75488996D01*
X102410094Y-75480886D01*
X102542758Y-75409976D01*
X102703177Y-75361313D01*
X102828196Y-75349000D01*
X102911804Y-75349000D01*
X103036823Y-75361313D01*
X103036823Y-75361313D01*
G37*
G36*
X100496823Y-75361313D02*
G01*
X100657242Y-75409976D01*
X100789906Y-75480886D01*
X100805078Y-75488996D01*
X100934659Y-75595341D01*
X101041004Y-75724922D01*
X101041005Y-75724924D01*
X101120024Y-75872758D01*
X101168687Y-76033177D01*
X101185117Y-76200000D01*
X101168687Y-76366823D01*
X101120024Y-76527242D01*
X101098637Y-76567254D01*
X101041004Y-76675078D01*
X100934659Y-76804659D01*
X100805078Y-76911004D01*
X100805076Y-76911005D01*
X100657242Y-76990024D01*
X100496823Y-77038687D01*
X100371804Y-77051000D01*
X100288196Y-77051000D01*
X100163177Y-77038687D01*
X100002758Y-76990024D01*
X99854924Y-76911005D01*
X99854922Y-76911004D01*
X99725341Y-76804659D01*
X99618996Y-76675078D01*
X99561363Y-76567254D01*
X99539976Y-76527242D01*
X99491313Y-76366823D01*
X99474883Y-76200000D01*
X99491313Y-76033177D01*
X99539976Y-75872758D01*
X99618995Y-75724924D01*
X99618996Y-75724922D01*
X99725341Y-75595341D01*
X99854922Y-75488996D01*
X99870094Y-75480886D01*
X100002758Y-75409976D01*
X100163177Y-75361313D01*
X100288196Y-75349000D01*
X100371804Y-75349000D01*
X100496823Y-75361313D01*
X100496823Y-75361313D01*
G37*
G36*
X65621000Y-77051000D02*
G01*
X63919000Y-77051000D01*
X63919000Y-75349000D01*
X65621000Y-75349000D01*
X65621000Y-77051000D01*
X65621000Y-77051000D01*
G37*
G36*
X62396823Y-75361313D02*
G01*
X62557242Y-75409976D01*
X62689906Y-75480886D01*
X62705078Y-75488996D01*
X62834659Y-75595341D01*
X62941004Y-75724922D01*
X62941005Y-75724924D01*
X63020024Y-75872758D01*
X63068687Y-76033177D01*
X63085117Y-76200000D01*
X63068687Y-76366823D01*
X63020024Y-76527242D01*
X62998637Y-76567254D01*
X62941004Y-76675078D01*
X62834659Y-76804659D01*
X62705078Y-76911004D01*
X62705076Y-76911005D01*
X62557242Y-76990024D01*
X62396823Y-77038687D01*
X62271804Y-77051000D01*
X62188196Y-77051000D01*
X62063177Y-77038687D01*
X61902758Y-76990024D01*
X61754924Y-76911005D01*
X61754922Y-76911004D01*
X61625341Y-76804659D01*
X61518996Y-76675078D01*
X61461363Y-76567254D01*
X61439976Y-76527242D01*
X61391313Y-76366823D01*
X61374883Y-76200000D01*
X61391313Y-76033177D01*
X61439976Y-75872758D01*
X61518995Y-75724924D01*
X61518996Y-75724922D01*
X61625341Y-75595341D01*
X61754922Y-75488996D01*
X61770094Y-75480886D01*
X61902758Y-75409976D01*
X62063177Y-75361313D01*
X62188196Y-75349000D01*
X62271804Y-75349000D01*
X62396823Y-75361313D01*
X62396823Y-75361313D01*
G37*
G36*
X59856823Y-75361313D02*
G01*
X60017242Y-75409976D01*
X60149906Y-75480886D01*
X60165078Y-75488996D01*
X60294659Y-75595341D01*
X60401004Y-75724922D01*
X60401005Y-75724924D01*
X60480024Y-75872758D01*
X60528687Y-76033177D01*
X60545117Y-76200000D01*
X60528687Y-76366823D01*
X60480024Y-76527242D01*
X60458637Y-76567254D01*
X60401004Y-76675078D01*
X60294659Y-76804659D01*
X60165078Y-76911004D01*
X60165076Y-76911005D01*
X60017242Y-76990024D01*
X59856823Y-77038687D01*
X59731804Y-77051000D01*
X59648196Y-77051000D01*
X59523177Y-77038687D01*
X59362758Y-76990024D01*
X59214924Y-76911005D01*
X59214922Y-76911004D01*
X59085341Y-76804659D01*
X58978996Y-76675078D01*
X58921363Y-76567254D01*
X58899976Y-76527242D01*
X58851313Y-76366823D01*
X58834883Y-76200000D01*
X58851313Y-76033177D01*
X58899976Y-75872758D01*
X58978995Y-75724924D01*
X58978996Y-75724922D01*
X59085341Y-75595341D01*
X59214922Y-75488996D01*
X59230094Y-75480886D01*
X59362758Y-75409976D01*
X59523177Y-75361313D01*
X59648196Y-75349000D01*
X59731804Y-75349000D01*
X59856823Y-75361313D01*
X59856823Y-75361313D01*
G37*
G36*
X57316823Y-75361313D02*
G01*
X57477242Y-75409976D01*
X57609906Y-75480886D01*
X57625078Y-75488996D01*
X57754659Y-75595341D01*
X57861004Y-75724922D01*
X57861005Y-75724924D01*
X57940024Y-75872758D01*
X57988687Y-76033177D01*
X58005117Y-76200000D01*
X57988687Y-76366823D01*
X57940024Y-76527242D01*
X57918637Y-76567254D01*
X57861004Y-76675078D01*
X57754659Y-76804659D01*
X57625078Y-76911004D01*
X57625076Y-76911005D01*
X57477242Y-76990024D01*
X57316823Y-77038687D01*
X57191804Y-77051000D01*
X57108196Y-77051000D01*
X56983177Y-77038687D01*
X56822758Y-76990024D01*
X56674924Y-76911005D01*
X56674922Y-76911004D01*
X56545341Y-76804659D01*
X56438996Y-76675078D01*
X56381363Y-76567254D01*
X56359976Y-76527242D01*
X56311313Y-76366823D01*
X56294883Y-76200000D01*
X56311313Y-76033177D01*
X56359976Y-75872758D01*
X56438995Y-75724924D01*
X56438996Y-75724922D01*
X56545341Y-75595341D01*
X56674922Y-75488996D01*
X56690094Y-75480886D01*
X56822758Y-75409976D01*
X56983177Y-75361313D01*
X57108196Y-75349000D01*
X57191804Y-75349000D01*
X57316823Y-75361313D01*
X57316823Y-75361313D01*
G37*
G36*
X54776823Y-75361313D02*
G01*
X54937242Y-75409976D01*
X55069906Y-75480886D01*
X55085078Y-75488996D01*
X55214659Y-75595341D01*
X55321004Y-75724922D01*
X55321005Y-75724924D01*
X55400024Y-75872758D01*
X55448687Y-76033177D01*
X55465117Y-76200000D01*
X55448687Y-76366823D01*
X55400024Y-76527242D01*
X55378637Y-76567254D01*
X55321004Y-76675078D01*
X55214659Y-76804659D01*
X55085078Y-76911004D01*
X55085076Y-76911005D01*
X54937242Y-76990024D01*
X54776823Y-77038687D01*
X54651804Y-77051000D01*
X54568196Y-77051000D01*
X54443177Y-77038687D01*
X54282758Y-76990024D01*
X54134924Y-76911005D01*
X54134922Y-76911004D01*
X54005341Y-76804659D01*
X53898996Y-76675078D01*
X53841363Y-76567254D01*
X53819976Y-76527242D01*
X53771313Y-76366823D01*
X53754883Y-76200000D01*
X53771313Y-76033177D01*
X53819976Y-75872758D01*
X53898995Y-75724924D01*
X53898996Y-75724922D01*
X54005341Y-75595341D01*
X54134922Y-75488996D01*
X54150094Y-75480886D01*
X54282758Y-75409976D01*
X54443177Y-75361313D01*
X54568196Y-75349000D01*
X54651804Y-75349000D01*
X54776823Y-75361313D01*
X54776823Y-75361313D01*
G37*
G36*
X49696823Y-75361313D02*
G01*
X49857242Y-75409976D01*
X49989906Y-75480886D01*
X50005078Y-75488996D01*
X50134659Y-75595341D01*
X50241004Y-75724922D01*
X50241005Y-75724924D01*
X50320024Y-75872758D01*
X50368687Y-76033177D01*
X50385117Y-76200000D01*
X50368687Y-76366823D01*
X50320024Y-76527242D01*
X50298637Y-76567254D01*
X50241004Y-76675078D01*
X50134659Y-76804659D01*
X50005078Y-76911004D01*
X50005076Y-76911005D01*
X49857242Y-76990024D01*
X49696823Y-77038687D01*
X49571804Y-77051000D01*
X49488196Y-77051000D01*
X49363177Y-77038687D01*
X49202758Y-76990024D01*
X49054924Y-76911005D01*
X49054922Y-76911004D01*
X48925341Y-76804659D01*
X48818996Y-76675078D01*
X48761363Y-76567254D01*
X48739976Y-76527242D01*
X48691313Y-76366823D01*
X48674883Y-76200000D01*
X48691313Y-76033177D01*
X48739976Y-75872758D01*
X48818995Y-75724924D01*
X48818996Y-75724922D01*
X48925341Y-75595341D01*
X49054922Y-75488996D01*
X49070094Y-75480886D01*
X49202758Y-75409976D01*
X49363177Y-75361313D01*
X49488196Y-75349000D01*
X49571804Y-75349000D01*
X49696823Y-75361313D01*
X49696823Y-75361313D01*
G37*
G36*
X52236823Y-75361313D02*
G01*
X52397242Y-75409976D01*
X52529906Y-75480886D01*
X52545078Y-75488996D01*
X52674659Y-75595341D01*
X52781004Y-75724922D01*
X52781005Y-75724924D01*
X52860024Y-75872758D01*
X52908687Y-76033177D01*
X52925117Y-76200000D01*
X52908687Y-76366823D01*
X52860024Y-76527242D01*
X52838637Y-76567254D01*
X52781004Y-76675078D01*
X52674659Y-76804659D01*
X52545078Y-76911004D01*
X52545076Y-76911005D01*
X52397242Y-76990024D01*
X52236823Y-77038687D01*
X52111804Y-77051000D01*
X52028196Y-77051000D01*
X51903177Y-77038687D01*
X51742758Y-76990024D01*
X51594924Y-76911005D01*
X51594922Y-76911004D01*
X51465341Y-76804659D01*
X51358996Y-76675078D01*
X51301363Y-76567254D01*
X51279976Y-76527242D01*
X51231313Y-76366823D01*
X51214883Y-76200000D01*
X51231313Y-76033177D01*
X51279976Y-75872758D01*
X51358995Y-75724924D01*
X51358996Y-75724922D01*
X51465341Y-75595341D01*
X51594922Y-75488996D01*
X51610094Y-75480886D01*
X51742758Y-75409976D01*
X51903177Y-75361313D01*
X52028196Y-75349000D01*
X52111804Y-75349000D01*
X52236823Y-75361313D01*
X52236823Y-75361313D01*
G37*
G36*
X153836823Y-75361313D02*
G01*
X153997242Y-75409976D01*
X154129906Y-75480886D01*
X154145078Y-75488996D01*
X154274659Y-75595341D01*
X154381004Y-75724922D01*
X154381005Y-75724924D01*
X154460024Y-75872758D01*
X154508687Y-76033177D01*
X154525117Y-76200000D01*
X154508687Y-76366823D01*
X154460024Y-76527242D01*
X154438637Y-76567254D01*
X154381004Y-76675078D01*
X154274659Y-76804659D01*
X154145078Y-76911004D01*
X154145076Y-76911005D01*
X153997242Y-76990024D01*
X153836823Y-77038687D01*
X153711804Y-77051000D01*
X153628196Y-77051000D01*
X153503177Y-77038687D01*
X153342758Y-76990024D01*
X153194924Y-76911005D01*
X153194922Y-76911004D01*
X153065341Y-76804659D01*
X152958996Y-76675078D01*
X152901363Y-76567254D01*
X152879976Y-76527242D01*
X152831313Y-76366823D01*
X152814883Y-76200000D01*
X152831313Y-76033177D01*
X152879976Y-75872758D01*
X152958995Y-75724924D01*
X152958996Y-75724922D01*
X153065341Y-75595341D01*
X153194922Y-75488996D01*
X153210094Y-75480886D01*
X153342758Y-75409976D01*
X153503177Y-75361313D01*
X153628196Y-75349000D01*
X153711804Y-75349000D01*
X153836823Y-75361313D01*
X153836823Y-75361313D01*
G37*
G36*
X148756823Y-75361313D02*
G01*
X148917242Y-75409976D01*
X149049906Y-75480886D01*
X149065078Y-75488996D01*
X149194659Y-75595341D01*
X149301004Y-75724922D01*
X149301005Y-75724924D01*
X149380024Y-75872758D01*
X149428687Y-76033177D01*
X149445117Y-76200000D01*
X149428687Y-76366823D01*
X149380024Y-76527242D01*
X149358637Y-76567254D01*
X149301004Y-76675078D01*
X149194659Y-76804659D01*
X149065078Y-76911004D01*
X149065076Y-76911005D01*
X148917242Y-76990024D01*
X148756823Y-77038687D01*
X148631804Y-77051000D01*
X148548196Y-77051000D01*
X148423177Y-77038687D01*
X148262758Y-76990024D01*
X148114924Y-76911005D01*
X148114922Y-76911004D01*
X147985341Y-76804659D01*
X147878996Y-76675078D01*
X147821363Y-76567254D01*
X147799976Y-76527242D01*
X147751313Y-76366823D01*
X147734883Y-76200000D01*
X147751313Y-76033177D01*
X147799976Y-75872758D01*
X147878995Y-75724924D01*
X147878996Y-75724922D01*
X147985341Y-75595341D01*
X148114922Y-75488996D01*
X148130094Y-75480886D01*
X148262758Y-75409976D01*
X148423177Y-75361313D01*
X148548196Y-75349000D01*
X148631804Y-75349000D01*
X148756823Y-75361313D01*
X148756823Y-75361313D01*
G37*
G36*
X151296823Y-75361313D02*
G01*
X151457242Y-75409976D01*
X151589906Y-75480886D01*
X151605078Y-75488996D01*
X151734659Y-75595341D01*
X151841004Y-75724922D01*
X151841005Y-75724924D01*
X151920024Y-75872758D01*
X151968687Y-76033177D01*
X151985117Y-76200000D01*
X151968687Y-76366823D01*
X151920024Y-76527242D01*
X151898637Y-76567254D01*
X151841004Y-76675078D01*
X151734659Y-76804659D01*
X151605078Y-76911004D01*
X151605076Y-76911005D01*
X151457242Y-76990024D01*
X151296823Y-77038687D01*
X151171804Y-77051000D01*
X151088196Y-77051000D01*
X150963177Y-77038687D01*
X150802758Y-76990024D01*
X150654924Y-76911005D01*
X150654922Y-76911004D01*
X150525341Y-76804659D01*
X150418996Y-76675078D01*
X150361363Y-76567254D01*
X150339976Y-76527242D01*
X150291313Y-76366823D01*
X150274883Y-76200000D01*
X150291313Y-76033177D01*
X150339976Y-75872758D01*
X150418995Y-75724924D01*
X150418996Y-75724922D01*
X150525341Y-75595341D01*
X150654922Y-75488996D01*
X150670094Y-75480886D01*
X150802758Y-75409976D01*
X150963177Y-75361313D01*
X151088196Y-75349000D01*
X151171804Y-75349000D01*
X151296823Y-75361313D01*
X151296823Y-75361313D01*
G37*
G36*
X156376823Y-75361313D02*
G01*
X156537242Y-75409976D01*
X156669906Y-75480886D01*
X156685078Y-75488996D01*
X156814659Y-75595341D01*
X156921004Y-75724922D01*
X156921005Y-75724924D01*
X157000024Y-75872758D01*
X157048687Y-76033177D01*
X157065117Y-76200000D01*
X157048687Y-76366823D01*
X157000024Y-76527242D01*
X156978637Y-76567254D01*
X156921004Y-76675078D01*
X156814659Y-76804659D01*
X156685078Y-76911004D01*
X156685076Y-76911005D01*
X156537242Y-76990024D01*
X156376823Y-77038687D01*
X156251804Y-77051000D01*
X156168196Y-77051000D01*
X156043177Y-77038687D01*
X155882758Y-76990024D01*
X155734924Y-76911005D01*
X155734922Y-76911004D01*
X155605341Y-76804659D01*
X155498996Y-76675078D01*
X155441363Y-76567254D01*
X155419976Y-76527242D01*
X155371313Y-76366823D01*
X155354883Y-76200000D01*
X155371313Y-76033177D01*
X155419976Y-75872758D01*
X155498995Y-75724924D01*
X155498996Y-75724922D01*
X155605341Y-75595341D01*
X155734922Y-75488996D01*
X155750094Y-75480886D01*
X155882758Y-75409976D01*
X156043177Y-75361313D01*
X156168196Y-75349000D01*
X156251804Y-75349000D01*
X156376823Y-75361313D01*
X156376823Y-75361313D01*
G37*
G36*
X158916823Y-75361313D02*
G01*
X159077242Y-75409976D01*
X159209906Y-75480886D01*
X159225078Y-75488996D01*
X159354659Y-75595341D01*
X159461004Y-75724922D01*
X159461005Y-75724924D01*
X159540024Y-75872758D01*
X159588687Y-76033177D01*
X159605117Y-76200000D01*
X159588687Y-76366823D01*
X159540024Y-76527242D01*
X159518637Y-76567254D01*
X159461004Y-76675078D01*
X159354659Y-76804659D01*
X159225078Y-76911004D01*
X159225076Y-76911005D01*
X159077242Y-76990024D01*
X158916823Y-77038687D01*
X158791804Y-77051000D01*
X158708196Y-77051000D01*
X158583177Y-77038687D01*
X158422758Y-76990024D01*
X158274924Y-76911005D01*
X158274922Y-76911004D01*
X158145341Y-76804659D01*
X158038996Y-76675078D01*
X157981363Y-76567254D01*
X157959976Y-76527242D01*
X157911313Y-76366823D01*
X157894883Y-76200000D01*
X157911313Y-76033177D01*
X157959976Y-75872758D01*
X158038995Y-75724924D01*
X158038996Y-75724922D01*
X158145341Y-75595341D01*
X158274922Y-75488996D01*
X158290094Y-75480886D01*
X158422758Y-75409976D01*
X158583177Y-75361313D01*
X158708196Y-75349000D01*
X158791804Y-75349000D01*
X158916823Y-75361313D01*
X158916823Y-75361313D01*
G37*
G36*
X146216823Y-75361313D02*
G01*
X146377242Y-75409976D01*
X146509906Y-75480886D01*
X146525078Y-75488996D01*
X146654659Y-75595341D01*
X146761004Y-75724922D01*
X146761005Y-75724924D01*
X146840024Y-75872758D01*
X146888687Y-76033177D01*
X146905117Y-76200000D01*
X146888687Y-76366823D01*
X146840024Y-76527242D01*
X146818637Y-76567254D01*
X146761004Y-76675078D01*
X146654659Y-76804659D01*
X146525078Y-76911004D01*
X146525076Y-76911005D01*
X146377242Y-76990024D01*
X146216823Y-77038687D01*
X146091804Y-77051000D01*
X146008196Y-77051000D01*
X145883177Y-77038687D01*
X145722758Y-76990024D01*
X145574924Y-76911005D01*
X145574922Y-76911004D01*
X145445341Y-76804659D01*
X145338996Y-76675078D01*
X145281363Y-76567254D01*
X145259976Y-76527242D01*
X145211313Y-76366823D01*
X145194883Y-76200000D01*
X145211313Y-76033177D01*
X145259976Y-75872758D01*
X145338995Y-75724924D01*
X145338996Y-75724922D01*
X145445341Y-75595341D01*
X145574922Y-75488996D01*
X145590094Y-75480886D01*
X145722758Y-75409976D01*
X145883177Y-75361313D01*
X146008196Y-75349000D01*
X146091804Y-75349000D01*
X146216823Y-75361313D01*
X146216823Y-75361313D01*
G37*
G36*
X116421000Y-77051000D02*
G01*
X114719000Y-77051000D01*
X114719000Y-75349000D01*
X116421000Y-75349000D01*
X116421000Y-77051000D01*
X116421000Y-77051000D01*
G37*
G36*
X113196823Y-75361313D02*
G01*
X113357242Y-75409976D01*
X113489906Y-75480886D01*
X113505078Y-75488996D01*
X113634659Y-75595341D01*
X113741004Y-75724922D01*
X113741005Y-75724924D01*
X113820024Y-75872758D01*
X113868687Y-76033177D01*
X113885117Y-76200000D01*
X113868687Y-76366823D01*
X113820024Y-76527242D01*
X113798637Y-76567254D01*
X113741004Y-76675078D01*
X113634659Y-76804659D01*
X113505078Y-76911004D01*
X113505076Y-76911005D01*
X113357242Y-76990024D01*
X113196823Y-77038687D01*
X113071804Y-77051000D01*
X112988196Y-77051000D01*
X112863177Y-77038687D01*
X112702758Y-76990024D01*
X112554924Y-76911005D01*
X112554922Y-76911004D01*
X112425341Y-76804659D01*
X112318996Y-76675078D01*
X112261363Y-76567254D01*
X112239976Y-76527242D01*
X112191313Y-76366823D01*
X112174883Y-76200000D01*
X112191313Y-76033177D01*
X112239976Y-75872758D01*
X112318995Y-75724924D01*
X112318996Y-75724922D01*
X112425341Y-75595341D01*
X112554922Y-75488996D01*
X112570094Y-75480886D01*
X112702758Y-75409976D01*
X112863177Y-75361313D01*
X112988196Y-75349000D01*
X113071804Y-75349000D01*
X113196823Y-75361313D01*
X113196823Y-75361313D01*
G37*
G36*
X162141000Y-77051000D02*
G01*
X160439000Y-77051000D01*
X160439000Y-75349000D01*
X162141000Y-75349000D01*
X162141000Y-77051000D01*
X162141000Y-77051000D01*
G37*
G36*
X40436000Y-75846000D02*
G01*
X38304000Y-75846000D01*
X38304000Y-74014000D01*
X40436000Y-74014000D01*
X40436000Y-75846000D01*
X40436000Y-75846000D01*
G37*
G36*
X23137395Y-72745546D02*
G01*
X23310466Y-72817234D01*
X23310467Y-72817235D01*
X23466227Y-72921310D01*
X23598690Y-73053773D01*
X23598691Y-73053775D01*
X23702766Y-73209534D01*
X23774454Y-73382605D01*
X23811000Y-73566333D01*
X23811000Y-73753667D01*
X23774454Y-73937395D01*
X23702766Y-74110466D01*
X23702765Y-74110467D01*
X23598690Y-74266227D01*
X23466227Y-74398690D01*
X23387818Y-74451081D01*
X23310466Y-74502766D01*
X23137395Y-74574454D01*
X22953667Y-74611000D01*
X22766333Y-74611000D01*
X22582605Y-74574454D01*
X22409534Y-74502766D01*
X22332182Y-74451081D01*
X22253773Y-74398690D01*
X22121310Y-74266227D01*
X22017235Y-74110467D01*
X22017234Y-74110466D01*
X21945546Y-73937395D01*
X21909000Y-73753667D01*
X21909000Y-73566333D01*
X21945546Y-73382605D01*
X22017234Y-73209534D01*
X22121309Y-73053775D01*
X22121310Y-73053773D01*
X22253773Y-72921310D01*
X22409533Y-72817235D01*
X22409534Y-72817234D01*
X22582605Y-72745546D01*
X22766333Y-72709000D01*
X22953667Y-72709000D01*
X23137395Y-72745546D01*
X23137395Y-72745546D01*
G37*
G36*
X82826153Y-71215922D02*
G01*
X82918194Y-71254047D01*
X83048359Y-71307963D01*
X83248342Y-71441587D01*
X83418413Y-71611658D01*
X83552037Y-71811641D01*
X83605953Y-71941806D01*
X83644078Y-72033847D01*
X83691000Y-72269742D01*
X83691000Y-72510258D01*
X83644199Y-72745547D01*
X83644078Y-72746152D01*
X83552037Y-72968359D01*
X83418413Y-73168342D01*
X83248342Y-73338413D01*
X83048359Y-73472037D01*
X82918194Y-73525953D01*
X82826153Y-73564078D01*
X82708205Y-73587539D01*
X82590259Y-73611000D01*
X82349741Y-73611000D01*
X82231795Y-73587539D01*
X82113847Y-73564078D01*
X82021806Y-73525953D01*
X81891641Y-73472037D01*
X81691658Y-73338413D01*
X81521587Y-73168342D01*
X81387963Y-72968359D01*
X81295922Y-72746152D01*
X81295802Y-72745547D01*
X81249000Y-72510258D01*
X81249000Y-72269742D01*
X81295922Y-72033847D01*
X81334047Y-71941806D01*
X81387963Y-71811641D01*
X81521587Y-71611658D01*
X81691658Y-71441587D01*
X81891641Y-71307963D01*
X82021806Y-71254047D01*
X82113847Y-71215922D01*
X82349741Y-71169000D01*
X82590259Y-71169000D01*
X82826153Y-71215922D01*
X82826153Y-71215922D01*
G37*
G36*
X77826153Y-71215922D02*
G01*
X77918194Y-71254047D01*
X78048359Y-71307963D01*
X78248342Y-71441587D01*
X78418413Y-71611658D01*
X78552037Y-71811641D01*
X78605953Y-71941806D01*
X78644078Y-72033847D01*
X78691000Y-72269742D01*
X78691000Y-72510258D01*
X78644199Y-72745547D01*
X78644078Y-72746152D01*
X78552037Y-72968359D01*
X78418413Y-73168342D01*
X78248342Y-73338413D01*
X78048359Y-73472037D01*
X77918194Y-73525953D01*
X77826153Y-73564078D01*
X77708205Y-73587539D01*
X77590259Y-73611000D01*
X77349741Y-73611000D01*
X77231795Y-73587539D01*
X77113847Y-73564078D01*
X77021806Y-73525953D01*
X76891641Y-73472037D01*
X76691658Y-73338413D01*
X76521587Y-73168342D01*
X76387963Y-72968359D01*
X76295922Y-72746152D01*
X76295802Y-72745547D01*
X76249000Y-72510258D01*
X76249000Y-72269742D01*
X76295922Y-72033847D01*
X76334047Y-71941806D01*
X76387963Y-71811641D01*
X76521587Y-71611658D01*
X76691658Y-71441587D01*
X76891641Y-71307963D01*
X77021806Y-71254047D01*
X77113847Y-71215922D01*
X77349741Y-71169000D01*
X77590259Y-71169000D01*
X77826153Y-71215922D01*
X77826153Y-71215922D01*
G37*
G36*
X92958228Y-71571703D02*
G01*
X93113100Y-71635853D01*
X93252481Y-71728985D01*
X93371015Y-71847519D01*
X93464147Y-71986900D01*
X93528297Y-72141772D01*
X93561000Y-72306184D01*
X93561000Y-72473816D01*
X93528297Y-72638228D01*
X93464147Y-72793100D01*
X93371015Y-72932481D01*
X93252481Y-73051015D01*
X93113100Y-73144147D01*
X92958228Y-73208297D01*
X92793816Y-73241000D01*
X92626184Y-73241000D01*
X92461772Y-73208297D01*
X92306900Y-73144147D01*
X92167519Y-73051015D01*
X92048985Y-72932481D01*
X91955853Y-72793100D01*
X91891703Y-72638228D01*
X91859000Y-72473816D01*
X91859000Y-72306184D01*
X91891703Y-72141772D01*
X91955853Y-71986900D01*
X92048985Y-71847519D01*
X92167519Y-71728985D01*
X92306900Y-71635853D01*
X92461772Y-71571703D01*
X92626184Y-71539000D01*
X92793816Y-71539000D01*
X92958228Y-71571703D01*
X92958228Y-71571703D01*
G37*
G36*
X142517395Y-70205546D02*
G01*
X142690466Y-70277234D01*
X142762069Y-70325078D01*
X142846227Y-70381310D01*
X142978690Y-70513773D01*
X143010249Y-70561005D01*
X143082766Y-70669534D01*
X143154454Y-70842605D01*
X143191000Y-71026333D01*
X143191000Y-71213667D01*
X143154454Y-71397395D01*
X143082766Y-71570466D01*
X143082765Y-71570467D01*
X142978690Y-71726227D01*
X142846227Y-71858690D01*
X142767818Y-71911081D01*
X142690466Y-71962766D01*
X142517395Y-72034454D01*
X142333667Y-72071000D01*
X142146333Y-72071000D01*
X141962605Y-72034454D01*
X141789534Y-71962766D01*
X141712182Y-71911081D01*
X141633773Y-71858690D01*
X141501310Y-71726227D01*
X141397235Y-71570467D01*
X141397234Y-71570466D01*
X141325546Y-71397395D01*
X141289000Y-71213667D01*
X141289000Y-71026333D01*
X141325546Y-70842605D01*
X141397234Y-70669534D01*
X141469751Y-70561005D01*
X141501310Y-70513773D01*
X141633773Y-70381310D01*
X141717931Y-70325078D01*
X141789534Y-70277234D01*
X141962605Y-70205546D01*
X142146333Y-70169000D01*
X142333667Y-70169000D01*
X142517395Y-70205546D01*
X142517395Y-70205546D01*
G37*
G36*
X128518228Y-69031703D02*
G01*
X128673100Y-69095853D01*
X128812481Y-69188985D01*
X128931015Y-69307519D01*
X129024147Y-69446900D01*
X129088297Y-69601772D01*
X129121000Y-69766184D01*
X129121000Y-69933816D01*
X129088297Y-70098228D01*
X129024147Y-70253100D01*
X128931015Y-70392481D01*
X128812481Y-70511015D01*
X128673100Y-70604147D01*
X128518228Y-70668297D01*
X128353816Y-70701000D01*
X128186184Y-70701000D01*
X128021772Y-70668297D01*
X127866900Y-70604147D01*
X127727519Y-70511015D01*
X127608985Y-70392481D01*
X127515853Y-70253100D01*
X127451703Y-70098228D01*
X127419000Y-69933816D01*
X127419000Y-69766184D01*
X127451703Y-69601772D01*
X127515853Y-69446900D01*
X127608985Y-69307519D01*
X127727519Y-69188985D01*
X127866900Y-69095853D01*
X128021772Y-69031703D01*
X128186184Y-68999000D01*
X128353816Y-68999000D01*
X128518228Y-69031703D01*
X128518228Y-69031703D01*
G37*
G36*
X113196823Y-69011313D02*
G01*
X113357242Y-69059976D01*
X113489906Y-69130886D01*
X113505078Y-69138996D01*
X113634659Y-69245341D01*
X113741004Y-69374922D01*
X113741005Y-69374924D01*
X113820024Y-69522758D01*
X113868687Y-69683177D01*
X113885117Y-69850000D01*
X113868687Y-70016823D01*
X113820024Y-70177242D01*
X113749114Y-70309906D01*
X113741004Y-70325078D01*
X113634659Y-70454659D01*
X113505078Y-70561004D01*
X113505076Y-70561005D01*
X113357242Y-70640024D01*
X113196823Y-70688687D01*
X113071804Y-70701000D01*
X112988196Y-70701000D01*
X112863177Y-70688687D01*
X112702758Y-70640024D01*
X112554924Y-70561005D01*
X112554922Y-70561004D01*
X112425341Y-70454659D01*
X112318996Y-70325078D01*
X112310886Y-70309906D01*
X112239976Y-70177242D01*
X112191313Y-70016823D01*
X112174883Y-69850000D01*
X112191313Y-69683177D01*
X112239976Y-69522758D01*
X112318995Y-69374924D01*
X112318996Y-69374922D01*
X112425341Y-69245341D01*
X112554922Y-69138996D01*
X112570094Y-69130886D01*
X112702758Y-69059976D01*
X112863177Y-69011313D01*
X112988196Y-68999000D01*
X113071804Y-68999000D01*
X113196823Y-69011313D01*
X113196823Y-69011313D01*
G37*
G36*
X80326153Y-67415922D02*
G01*
X80418194Y-67454047D01*
X80548359Y-67507963D01*
X80748342Y-67641587D01*
X80918413Y-67811658D01*
X81052037Y-68011641D01*
X81062756Y-68037519D01*
X81144078Y-68233847D01*
X81147840Y-68252761D01*
X81191000Y-68469741D01*
X81191000Y-68710259D01*
X81144078Y-68946153D01*
X81117087Y-69011314D01*
X81052037Y-69168359D01*
X80918413Y-69368342D01*
X80748342Y-69538413D01*
X80548359Y-69672037D01*
X80418194Y-69725953D01*
X80326153Y-69764078D01*
X80208205Y-69787539D01*
X80090259Y-69811000D01*
X79849741Y-69811000D01*
X79731795Y-69787539D01*
X79613847Y-69764078D01*
X79521806Y-69725953D01*
X79391641Y-69672037D01*
X79191658Y-69538413D01*
X79021587Y-69368342D01*
X78887963Y-69168359D01*
X78822913Y-69011314D01*
X78795922Y-68946153D01*
X78749000Y-68710259D01*
X78749000Y-68469741D01*
X78792160Y-68252761D01*
X78795922Y-68233847D01*
X78877244Y-68037519D01*
X78887963Y-68011641D01*
X79021587Y-67811658D01*
X79191658Y-67641587D01*
X79391641Y-67507963D01*
X79521806Y-67454047D01*
X79613847Y-67415922D01*
X79849741Y-67369000D01*
X80090259Y-67369000D01*
X80326153Y-67415922D01*
X80326153Y-67415922D01*
G37*
G36*
X70016823Y-67741313D02*
G01*
X70177242Y-67789976D01*
X70244361Y-67825852D01*
X70325078Y-67868996D01*
X70454659Y-67975341D01*
X70561004Y-68104922D01*
X70561005Y-68104924D01*
X70640024Y-68252758D01*
X70688687Y-68413177D01*
X70705117Y-68580000D01*
X70688687Y-68746823D01*
X70640024Y-68907242D01*
X70599477Y-68983100D01*
X70561004Y-69055078D01*
X70454659Y-69184659D01*
X70325078Y-69291004D01*
X70325076Y-69291005D01*
X70177242Y-69370024D01*
X70016823Y-69418687D01*
X69891804Y-69431000D01*
X69808196Y-69431000D01*
X69683177Y-69418687D01*
X69522758Y-69370024D01*
X69374924Y-69291005D01*
X69374922Y-69291004D01*
X69245341Y-69184659D01*
X69138996Y-69055078D01*
X69100523Y-68983100D01*
X69059976Y-68907242D01*
X69011313Y-68746823D01*
X68994883Y-68580000D01*
X69011313Y-68413177D01*
X69059976Y-68252758D01*
X69138995Y-68104924D01*
X69138996Y-68104922D01*
X69245341Y-67975341D01*
X69374922Y-67868996D01*
X69455639Y-67825852D01*
X69522758Y-67789976D01*
X69683177Y-67741313D01*
X69808196Y-67729000D01*
X69891804Y-67729000D01*
X70016823Y-67741313D01*
X70016823Y-67741313D01*
G37*
G36*
X54858228Y-67761703D02*
G01*
X55013100Y-67825853D01*
X55152481Y-67918985D01*
X55271015Y-68037519D01*
X55364147Y-68176900D01*
X55428297Y-68331772D01*
X55461000Y-68496184D01*
X55461000Y-68663816D01*
X55428297Y-68828228D01*
X55364147Y-68983100D01*
X55271015Y-69122481D01*
X55152481Y-69241015D01*
X55013100Y-69334147D01*
X54858228Y-69398297D01*
X54693816Y-69431000D01*
X54526184Y-69431000D01*
X54361772Y-69398297D01*
X54206900Y-69334147D01*
X54067519Y-69241015D01*
X53948985Y-69122481D01*
X53855853Y-68983100D01*
X53791703Y-68828228D01*
X53759000Y-68663816D01*
X53759000Y-68496184D01*
X53791703Y-68331772D01*
X53855853Y-68176900D01*
X53948985Y-68037519D01*
X54067519Y-67918985D01*
X54206900Y-67825853D01*
X54361772Y-67761703D01*
X54526184Y-67729000D01*
X54693816Y-67729000D01*
X54858228Y-67761703D01*
X54858228Y-67761703D01*
G37*
G36*
X166536823Y-65201313D02*
G01*
X166697242Y-65249976D01*
X166764361Y-65285852D01*
X166845078Y-65328996D01*
X166974659Y-65435341D01*
X167081004Y-65564922D01*
X167081005Y-65564924D01*
X167160024Y-65712758D01*
X167208687Y-65873177D01*
X167225117Y-66040000D01*
X167208687Y-66206823D01*
X167160024Y-66367242D01*
X167119477Y-66443100D01*
X167081004Y-66515078D01*
X166974659Y-66644659D01*
X166845078Y-66751004D01*
X166845076Y-66751005D01*
X166697242Y-66830024D01*
X166536823Y-66878687D01*
X166411804Y-66891000D01*
X166328196Y-66891000D01*
X166203177Y-66878687D01*
X166042758Y-66830024D01*
X165894924Y-66751005D01*
X165894922Y-66751004D01*
X165765341Y-66644659D01*
X165658996Y-66515078D01*
X165620523Y-66443100D01*
X165579976Y-66367242D01*
X165531313Y-66206823D01*
X165514883Y-66040000D01*
X165531313Y-65873177D01*
X165579976Y-65712758D01*
X165658995Y-65564924D01*
X165658996Y-65564922D01*
X165765341Y-65435341D01*
X165894922Y-65328996D01*
X165975639Y-65285852D01*
X166042758Y-65249976D01*
X166203177Y-65201313D01*
X166328196Y-65189000D01*
X166411804Y-65189000D01*
X166536823Y-65201313D01*
X166536823Y-65201313D01*
G37*
G36*
X151378228Y-65221703D02*
G01*
X151533100Y-65285853D01*
X151672481Y-65378985D01*
X151791015Y-65497519D01*
X151884147Y-65636900D01*
X151948297Y-65791772D01*
X151981000Y-65956184D01*
X151981000Y-66123816D01*
X151948297Y-66288228D01*
X151884147Y-66443100D01*
X151791015Y-66582481D01*
X151672481Y-66701015D01*
X151533100Y-66794147D01*
X151378228Y-66858297D01*
X151213816Y-66891000D01*
X151046184Y-66891000D01*
X150881772Y-66858297D01*
X150726900Y-66794147D01*
X150587519Y-66701015D01*
X150468985Y-66582481D01*
X150375853Y-66443100D01*
X150311703Y-66288228D01*
X150279000Y-66123816D01*
X150279000Y-65956184D01*
X150311703Y-65791772D01*
X150375853Y-65636900D01*
X150468985Y-65497519D01*
X150587519Y-65378985D01*
X150726900Y-65285853D01*
X150881772Y-65221703D01*
X151046184Y-65189000D01*
X151213816Y-65189000D01*
X151378228Y-65221703D01*
X151378228Y-65221703D01*
G37*
G36*
X174268205Y-63562461D02*
G01*
X174386153Y-63585922D01*
X174478194Y-63624047D01*
X174608359Y-63677963D01*
X174808342Y-63811587D01*
X174978413Y-63981658D01*
X175112037Y-64181641D01*
X175165953Y-64311806D01*
X175204078Y-64403847D01*
X175251000Y-64639742D01*
X175251000Y-64880258D01*
X175204078Y-65116153D01*
X175168803Y-65201313D01*
X175112037Y-65338359D01*
X174978413Y-65538342D01*
X174808342Y-65708413D01*
X174608359Y-65842037D01*
X174533180Y-65873177D01*
X174386153Y-65934078D01*
X174275018Y-65956184D01*
X174150259Y-65981000D01*
X173909741Y-65981000D01*
X173784982Y-65956184D01*
X173673847Y-65934078D01*
X173526820Y-65873177D01*
X173451641Y-65842037D01*
X173251658Y-65708413D01*
X173081587Y-65538342D01*
X172947963Y-65338359D01*
X172891197Y-65201313D01*
X172855922Y-65116153D01*
X172809000Y-64880258D01*
X172809000Y-64639742D01*
X172855922Y-64403847D01*
X172894047Y-64311806D01*
X172947963Y-64181641D01*
X173081587Y-63981658D01*
X173251658Y-63811587D01*
X173451641Y-63677963D01*
X173581806Y-63624047D01*
X173673847Y-63585922D01*
X173791795Y-63562461D01*
X173909741Y-63539000D01*
X174150259Y-63539000D01*
X174268205Y-63562461D01*
X174268205Y-63562461D01*
G37*
G36*
X128436823Y-61391313D02*
G01*
X128597242Y-61439976D01*
X128729906Y-61510886D01*
X128745078Y-61518996D01*
X128874659Y-61625341D01*
X128981004Y-61754922D01*
X128981005Y-61754924D01*
X129060024Y-61902758D01*
X129060025Y-61902761D01*
X129069083Y-61932620D01*
X129108687Y-62063177D01*
X129125117Y-62230000D01*
X129108687Y-62396823D01*
X129060024Y-62557242D01*
X129019477Y-62633100D01*
X128981004Y-62705078D01*
X128874659Y-62834659D01*
X128745078Y-62941004D01*
X128745076Y-62941005D01*
X128597242Y-63020024D01*
X128436823Y-63068687D01*
X128311804Y-63081000D01*
X128228196Y-63081000D01*
X128103177Y-63068687D01*
X127942758Y-63020024D01*
X127794924Y-62941005D01*
X127794922Y-62941004D01*
X127665341Y-62834659D01*
X127558996Y-62705078D01*
X127520523Y-62633100D01*
X127479976Y-62557242D01*
X127431313Y-62396823D01*
X127414883Y-62230000D01*
X127431313Y-62063177D01*
X127470917Y-61932620D01*
X127479975Y-61902761D01*
X127479976Y-61902758D01*
X127558995Y-61754924D01*
X127558996Y-61754922D01*
X127665341Y-61625341D01*
X127794922Y-61518996D01*
X127810094Y-61510886D01*
X127942758Y-61439976D01*
X128103177Y-61391313D01*
X128228196Y-61379000D01*
X128311804Y-61379000D01*
X128436823Y-61391313D01*
X128436823Y-61391313D01*
G37*
G36*
X113278228Y-61411703D02*
G01*
X113433100Y-61475853D01*
X113572481Y-61568985D01*
X113691015Y-61687519D01*
X113784147Y-61826900D01*
X113848297Y-61981772D01*
X113881000Y-62146184D01*
X113881000Y-62313816D01*
X113848297Y-62478228D01*
X113784147Y-62633100D01*
X113691015Y-62772481D01*
X113572481Y-62891015D01*
X113433100Y-62984147D01*
X113278228Y-63048297D01*
X113113816Y-63081000D01*
X112946184Y-63081000D01*
X112781772Y-63048297D01*
X112626900Y-62984147D01*
X112487519Y-62891015D01*
X112368985Y-62772481D01*
X112275853Y-62633100D01*
X112211703Y-62478228D01*
X112179000Y-62313816D01*
X112179000Y-62146184D01*
X112211703Y-61981772D01*
X112275853Y-61826900D01*
X112368985Y-61687519D01*
X112487519Y-61568985D01*
X112626900Y-61475853D01*
X112781772Y-61411703D01*
X112946184Y-61379000D01*
X113113816Y-61379000D01*
X113278228Y-61411703D01*
X113278228Y-61411703D01*
G37*
G36*
X176886153Y-59785922D02*
G01*
X176978194Y-59824047D01*
X177108359Y-59877963D01*
X177308342Y-60011587D01*
X177478413Y-60181658D01*
X177612037Y-60381641D01*
X177654817Y-60484922D01*
X177704078Y-60603847D01*
X177704199Y-60604454D01*
X177751000Y-60839741D01*
X177751000Y-61080259D01*
X177704078Y-61316152D01*
X177612037Y-61538359D01*
X177478413Y-61738342D01*
X177308342Y-61908413D01*
X177108359Y-62042037D01*
X177057322Y-62063177D01*
X176886153Y-62134078D01*
X176825291Y-62146184D01*
X176650259Y-62181000D01*
X176409741Y-62181000D01*
X176234709Y-62146184D01*
X176173847Y-62134078D01*
X176002678Y-62063177D01*
X175951641Y-62042037D01*
X175751658Y-61908413D01*
X175581587Y-61738342D01*
X175447963Y-61538359D01*
X175355922Y-61316152D01*
X175309000Y-61080259D01*
X175309000Y-60839741D01*
X175355801Y-60604454D01*
X175355922Y-60603847D01*
X175405183Y-60484922D01*
X175447963Y-60381641D01*
X175581587Y-60181658D01*
X175751658Y-60011587D01*
X175951641Y-59877963D01*
X176081806Y-59824047D01*
X176173847Y-59785922D01*
X176409741Y-59739000D01*
X176650259Y-59739000D01*
X176886153Y-59785922D01*
X176886153Y-59785922D01*
G37*
G36*
X171886153Y-59785922D02*
G01*
X171978194Y-59824047D01*
X172108359Y-59877963D01*
X172308342Y-60011587D01*
X172478413Y-60181658D01*
X172612037Y-60381641D01*
X172654817Y-60484922D01*
X172704078Y-60603847D01*
X172704199Y-60604454D01*
X172751000Y-60839741D01*
X172751000Y-61080259D01*
X172704078Y-61316152D01*
X172612037Y-61538359D01*
X172478413Y-61738342D01*
X172308342Y-61908413D01*
X172108359Y-62042037D01*
X172057322Y-62063177D01*
X171886153Y-62134078D01*
X171825291Y-62146184D01*
X171650259Y-62181000D01*
X171409741Y-62181000D01*
X171234709Y-62146184D01*
X171173847Y-62134078D01*
X171002678Y-62063177D01*
X170951641Y-62042037D01*
X170751658Y-61908413D01*
X170581587Y-61738342D01*
X170447963Y-61538359D01*
X170355922Y-61316152D01*
X170309000Y-61080259D01*
X170309000Y-60839741D01*
X170355801Y-60604454D01*
X170355922Y-60603847D01*
X170405183Y-60484922D01*
X170447963Y-60381641D01*
X170581587Y-60181658D01*
X170751658Y-60011587D01*
X170951641Y-59877963D01*
X171081806Y-59824047D01*
X171173847Y-59785922D01*
X171409741Y-59739000D01*
X171650259Y-59739000D01*
X171886153Y-59785922D01*
X171886153Y-59785922D01*
G37*
G36*
X59856823Y-60121313D02*
G01*
X60017242Y-60169976D01*
X60039097Y-60181658D01*
X60165078Y-60248996D01*
X60294659Y-60355341D01*
X60401004Y-60484922D01*
X60401005Y-60484924D01*
X60480024Y-60632758D01*
X60528687Y-60793177D01*
X60545117Y-60960000D01*
X60528687Y-61126823D01*
X60480024Y-61287242D01*
X60439477Y-61363100D01*
X60401004Y-61435078D01*
X60294659Y-61564659D01*
X60165078Y-61671004D01*
X60165076Y-61671005D01*
X60017242Y-61750024D01*
X59856823Y-61798687D01*
X59731804Y-61811000D01*
X59648196Y-61811000D01*
X59523177Y-61798687D01*
X59362758Y-61750024D01*
X59214924Y-61671005D01*
X59214922Y-61671004D01*
X59085341Y-61564659D01*
X58978996Y-61435078D01*
X58940523Y-61363100D01*
X58899976Y-61287242D01*
X58851313Y-61126823D01*
X58834883Y-60960000D01*
X58851313Y-60793177D01*
X58899976Y-60632758D01*
X58978995Y-60484924D01*
X58978996Y-60484922D01*
X59085341Y-60355341D01*
X59214922Y-60248996D01*
X59340903Y-60181658D01*
X59362758Y-60169976D01*
X59523177Y-60121313D01*
X59648196Y-60109000D01*
X59731804Y-60109000D01*
X59856823Y-60121313D01*
X59856823Y-60121313D01*
G37*
G36*
X75178228Y-60141703D02*
G01*
X75333100Y-60205853D01*
X75472481Y-60298985D01*
X75591015Y-60417519D01*
X75684147Y-60556900D01*
X75748297Y-60711772D01*
X75781000Y-60876184D01*
X75781000Y-61043816D01*
X75748297Y-61208228D01*
X75684147Y-61363100D01*
X75591015Y-61502481D01*
X75472481Y-61621015D01*
X75333100Y-61714147D01*
X75178228Y-61778297D01*
X75013816Y-61811000D01*
X74846184Y-61811000D01*
X74681772Y-61778297D01*
X74526900Y-61714147D01*
X74387519Y-61621015D01*
X74268985Y-61502481D01*
X74175853Y-61363100D01*
X74111703Y-61208228D01*
X74079000Y-61043816D01*
X74079000Y-60876184D01*
X74111703Y-60711772D01*
X74175853Y-60556900D01*
X74268985Y-60417519D01*
X74387519Y-60298985D01*
X74526900Y-60205853D01*
X74681772Y-60141703D01*
X74846184Y-60109000D01*
X75013816Y-60109000D01*
X75178228Y-60141703D01*
X75178228Y-60141703D01*
G37*
G36*
X34567395Y-58775546D02*
G01*
X34740466Y-58847234D01*
X34812069Y-58895078D01*
X34896227Y-58951310D01*
X35028690Y-59083773D01*
X35060249Y-59131005D01*
X35132766Y-59239534D01*
X35204454Y-59412605D01*
X35241000Y-59596333D01*
X35241000Y-59783667D01*
X35204454Y-59967395D01*
X35132766Y-60140466D01*
X35113048Y-60169976D01*
X35028690Y-60296227D01*
X34896227Y-60428690D01*
X34817818Y-60481081D01*
X34740466Y-60532766D01*
X34567395Y-60604454D01*
X34383667Y-60641000D01*
X34196333Y-60641000D01*
X34012605Y-60604454D01*
X33839534Y-60532766D01*
X33762182Y-60481081D01*
X33683773Y-60428690D01*
X33551310Y-60296227D01*
X33466952Y-60169976D01*
X33447234Y-60140466D01*
X33375546Y-59967395D01*
X33339000Y-59783667D01*
X33339000Y-59596333D01*
X33375546Y-59412605D01*
X33447234Y-59239534D01*
X33519751Y-59131005D01*
X33551310Y-59083773D01*
X33683773Y-58951310D01*
X33767931Y-58895078D01*
X33839534Y-58847234D01*
X34012605Y-58775546D01*
X34196333Y-58739000D01*
X34383667Y-58739000D01*
X34567395Y-58775546D01*
X34567395Y-58775546D01*
G37*
G36*
X148756823Y-57581313D02*
G01*
X148917242Y-57629976D01*
X148984361Y-57665852D01*
X149065078Y-57708996D01*
X149194659Y-57815341D01*
X149301004Y-57944922D01*
X149301005Y-57944924D01*
X149380024Y-58092758D01*
X149428687Y-58253177D01*
X149445117Y-58420000D01*
X149428687Y-58586823D01*
X149380024Y-58747242D01*
X149309114Y-58879906D01*
X149301004Y-58895078D01*
X149194659Y-59024659D01*
X149065078Y-59131004D01*
X149065076Y-59131005D01*
X148917242Y-59210024D01*
X148756823Y-59258687D01*
X148631804Y-59271000D01*
X148548196Y-59271000D01*
X148423177Y-59258687D01*
X148262758Y-59210024D01*
X148114924Y-59131005D01*
X148114922Y-59131004D01*
X147985341Y-59024659D01*
X147878996Y-58895078D01*
X147870886Y-58879906D01*
X147799976Y-58747242D01*
X147751313Y-58586823D01*
X147734883Y-58420000D01*
X147751313Y-58253177D01*
X147799976Y-58092758D01*
X147878995Y-57944924D01*
X147878996Y-57944922D01*
X147985341Y-57815341D01*
X148114922Y-57708996D01*
X148195639Y-57665852D01*
X148262758Y-57629976D01*
X148423177Y-57581313D01*
X148548196Y-57569000D01*
X148631804Y-57569000D01*
X148756823Y-57581313D01*
X148756823Y-57581313D01*
G37*
G36*
X164078228Y-57601703D02*
G01*
X164233100Y-57665853D01*
X164372481Y-57758985D01*
X164491015Y-57877519D01*
X164584147Y-58016900D01*
X164648297Y-58171772D01*
X164681000Y-58336184D01*
X164681000Y-58503816D01*
X164648297Y-58668228D01*
X164584147Y-58823100D01*
X164491015Y-58962481D01*
X164372481Y-59081015D01*
X164233100Y-59174147D01*
X164078228Y-59238297D01*
X163913816Y-59271000D01*
X163746184Y-59271000D01*
X163581772Y-59238297D01*
X163426900Y-59174147D01*
X163287519Y-59081015D01*
X163168985Y-58962481D01*
X163075853Y-58823100D01*
X163011703Y-58668228D01*
X162979000Y-58503816D01*
X162979000Y-58336184D01*
X163011703Y-58171772D01*
X163075853Y-58016900D01*
X163168985Y-57877519D01*
X163287519Y-57758985D01*
X163426900Y-57665853D01*
X163581772Y-57601703D01*
X163746184Y-57569000D01*
X163913816Y-57569000D01*
X164078228Y-57601703D01*
X164078228Y-57601703D01*
G37*
G36*
X92876823Y-56311313D02*
G01*
X93037242Y-56359976D01*
X93169906Y-56430886D01*
X93185078Y-56438996D01*
X93314659Y-56545341D01*
X93421004Y-56674922D01*
X93421005Y-56674924D01*
X93500024Y-56822758D01*
X93548687Y-56983177D01*
X93565117Y-57150000D01*
X93548687Y-57316823D01*
X93500024Y-57477242D01*
X93450978Y-57569000D01*
X93421004Y-57625078D01*
X93314659Y-57754659D01*
X93185078Y-57861004D01*
X93185076Y-57861005D01*
X93037242Y-57940024D01*
X92876823Y-57988687D01*
X92751804Y-58001000D01*
X92668196Y-58001000D01*
X92543177Y-57988687D01*
X92382758Y-57940024D01*
X92234924Y-57861005D01*
X92234922Y-57861004D01*
X92105341Y-57754659D01*
X91998996Y-57625078D01*
X91969022Y-57569000D01*
X91919976Y-57477242D01*
X91871313Y-57316823D01*
X91854883Y-57150000D01*
X91871313Y-56983177D01*
X91919976Y-56822758D01*
X91998995Y-56674924D01*
X91998996Y-56674922D01*
X92105341Y-56545341D01*
X92234922Y-56438996D01*
X92250094Y-56430886D01*
X92382758Y-56359976D01*
X92543177Y-56311313D01*
X92668196Y-56299000D01*
X92751804Y-56299000D01*
X92876823Y-56311313D01*
X92876823Y-56311313D01*
G37*
G36*
X129818205Y-54672461D02*
G01*
X129936153Y-54695922D01*
X130028194Y-54734047D01*
X130158359Y-54787963D01*
X130358342Y-54921587D01*
X130528413Y-55091658D01*
X130662037Y-55291641D01*
X130706931Y-55400024D01*
X130727088Y-55448687D01*
X130754078Y-55513848D01*
X130793727Y-55713175D01*
X130801000Y-55749742D01*
X130801000Y-55990258D01*
X130754078Y-56226153D01*
X130718803Y-56311313D01*
X130662037Y-56448359D01*
X130528413Y-56648342D01*
X130358342Y-56818413D01*
X130158359Y-56952037D01*
X130083180Y-56983177D01*
X129936153Y-57044078D01*
X129700259Y-57091000D01*
X129459741Y-57091000D01*
X129223847Y-57044078D01*
X129076820Y-56983177D01*
X129001641Y-56952037D01*
X128801658Y-56818413D01*
X128631587Y-56648342D01*
X128497963Y-56448359D01*
X128441197Y-56311313D01*
X128405922Y-56226153D01*
X128359000Y-55990258D01*
X128359000Y-55749742D01*
X128366274Y-55713175D01*
X128405922Y-55513848D01*
X128432913Y-55448687D01*
X128453069Y-55400024D01*
X128497963Y-55291641D01*
X128631587Y-55091658D01*
X128801658Y-54921587D01*
X129001641Y-54787963D01*
X129131806Y-54734047D01*
X129223847Y-54695922D01*
X129341795Y-54672461D01*
X129459741Y-54649000D01*
X129700259Y-54649000D01*
X129818205Y-54672461D01*
X129818205Y-54672461D01*
G37*
G36*
X59938228Y-55061703D02*
G01*
X60093100Y-55125853D01*
X60232481Y-55218985D01*
X60351015Y-55337519D01*
X60444147Y-55476900D01*
X60508297Y-55631772D01*
X60541000Y-55796184D01*
X60541000Y-55963816D01*
X60508297Y-56128228D01*
X60444147Y-56283100D01*
X60351015Y-56422481D01*
X60232481Y-56541015D01*
X60093100Y-56634147D01*
X59938228Y-56698297D01*
X59773816Y-56731000D01*
X59606184Y-56731000D01*
X59441772Y-56698297D01*
X59286900Y-56634147D01*
X59147519Y-56541015D01*
X59028985Y-56422481D01*
X58935853Y-56283100D01*
X58871703Y-56128228D01*
X58839000Y-55963816D01*
X58839000Y-55796184D01*
X58871703Y-55631772D01*
X58935853Y-55476900D01*
X59028985Y-55337519D01*
X59147519Y-55218985D01*
X59286900Y-55125853D01*
X59441772Y-55061703D01*
X59606184Y-55029000D01*
X59773816Y-55029000D01*
X59938228Y-55061703D01*
X59938228Y-55061703D01*
G37*
G36*
X44616823Y-55041313D02*
G01*
X44777242Y-55089976D01*
X44844361Y-55125852D01*
X44925078Y-55168996D01*
X45054659Y-55275341D01*
X45161004Y-55404922D01*
X45161005Y-55404924D01*
X45240024Y-55552758D01*
X45288687Y-55713177D01*
X45305117Y-55880000D01*
X45288687Y-56046823D01*
X45240024Y-56207242D01*
X45199477Y-56283100D01*
X45161004Y-56355078D01*
X45054659Y-56484659D01*
X44925078Y-56591004D01*
X44925076Y-56591005D01*
X44777242Y-56670024D01*
X44616823Y-56718687D01*
X44491804Y-56731000D01*
X44408196Y-56731000D01*
X44283177Y-56718687D01*
X44122758Y-56670024D01*
X43974924Y-56591005D01*
X43974922Y-56591004D01*
X43845341Y-56484659D01*
X43738996Y-56355078D01*
X43700523Y-56283100D01*
X43659976Y-56207242D01*
X43611313Y-56046823D01*
X43594883Y-55880000D01*
X43611313Y-55713177D01*
X43659976Y-55552758D01*
X43738995Y-55404924D01*
X43738996Y-55404922D01*
X43845341Y-55275341D01*
X43974922Y-55168996D01*
X44055639Y-55125852D01*
X44122758Y-55089976D01*
X44283177Y-55041313D01*
X44408196Y-55029000D01*
X44491804Y-55029000D01*
X44616823Y-55041313D01*
X44616823Y-55041313D01*
G37*
G36*
X120816823Y-55041313D02*
G01*
X120977242Y-55089976D01*
X121044361Y-55125852D01*
X121125078Y-55168996D01*
X121254659Y-55275341D01*
X121361004Y-55404922D01*
X121361005Y-55404924D01*
X121440024Y-55552758D01*
X121488687Y-55713177D01*
X121505117Y-55880000D01*
X121488687Y-56046823D01*
X121440024Y-56207242D01*
X121399477Y-56283100D01*
X121361004Y-56355078D01*
X121254659Y-56484659D01*
X121125078Y-56591004D01*
X121125076Y-56591005D01*
X120977242Y-56670024D01*
X120816823Y-56718687D01*
X120691804Y-56731000D01*
X120608196Y-56731000D01*
X120483177Y-56718687D01*
X120322758Y-56670024D01*
X120174924Y-56591005D01*
X120174922Y-56591004D01*
X120045341Y-56484659D01*
X119938996Y-56355078D01*
X119900523Y-56283100D01*
X119859976Y-56207242D01*
X119811313Y-56046823D01*
X119794883Y-55880000D01*
X119811313Y-55713177D01*
X119859976Y-55552758D01*
X119938995Y-55404924D01*
X119938996Y-55404922D01*
X120045341Y-55275341D01*
X120174922Y-55168996D01*
X120255639Y-55125852D01*
X120322758Y-55089976D01*
X120483177Y-55041313D01*
X120608196Y-55029000D01*
X120691804Y-55029000D01*
X120816823Y-55041313D01*
X120816823Y-55041313D01*
G37*
G36*
X105658228Y-55061703D02*
G01*
X105813100Y-55125853D01*
X105952481Y-55218985D01*
X106071015Y-55337519D01*
X106164147Y-55476900D01*
X106228297Y-55631772D01*
X106261000Y-55796184D01*
X106261000Y-55963816D01*
X106228297Y-56128228D01*
X106164147Y-56283100D01*
X106071015Y-56422481D01*
X105952481Y-56541015D01*
X105813100Y-56634147D01*
X105658228Y-56698297D01*
X105493816Y-56731000D01*
X105326184Y-56731000D01*
X105161772Y-56698297D01*
X105006900Y-56634147D01*
X104867519Y-56541015D01*
X104748985Y-56422481D01*
X104655853Y-56283100D01*
X104591703Y-56128228D01*
X104559000Y-55963816D01*
X104559000Y-55796184D01*
X104591703Y-55631772D01*
X104655853Y-55476900D01*
X104748985Y-55337519D01*
X104867519Y-55218985D01*
X105006900Y-55125853D01*
X105161772Y-55061703D01*
X105326184Y-55029000D01*
X105493816Y-55029000D01*
X105658228Y-55061703D01*
X105658228Y-55061703D01*
G37*
G36*
X172886823Y-53771313D02*
G01*
X173047242Y-53819976D01*
X173179906Y-53890886D01*
X173195078Y-53898996D01*
X173324659Y-54005341D01*
X173431004Y-54134922D01*
X173431005Y-54134924D01*
X173510024Y-54282758D01*
X173558687Y-54443177D01*
X173575117Y-54610000D01*
X173558687Y-54776823D01*
X173510024Y-54937242D01*
X173460978Y-55029000D01*
X173431004Y-55085078D01*
X173324659Y-55214659D01*
X173195078Y-55321004D01*
X173195076Y-55321005D01*
X173047242Y-55400024D01*
X172886823Y-55448687D01*
X172761804Y-55461000D01*
X172678196Y-55461000D01*
X172553177Y-55448687D01*
X172392758Y-55400024D01*
X172244924Y-55321005D01*
X172244922Y-55321004D01*
X172115341Y-55214659D01*
X172008996Y-55085078D01*
X171979022Y-55029000D01*
X171929976Y-54937242D01*
X171881313Y-54776823D01*
X171864883Y-54610000D01*
X171881313Y-54443177D01*
X171929976Y-54282758D01*
X172008995Y-54134924D01*
X172008996Y-54134922D01*
X172115341Y-54005341D01*
X172244922Y-53898996D01*
X172260094Y-53890886D01*
X172392758Y-53819976D01*
X172553177Y-53771313D01*
X172678196Y-53759000D01*
X172761804Y-53759000D01*
X172886823Y-53771313D01*
X172886823Y-53771313D01*
G37*
G36*
X20568228Y-52481703D02*
G01*
X20723100Y-52545853D01*
X20862481Y-52638985D01*
X20981015Y-52757519D01*
X21074147Y-52896900D01*
X21138297Y-53051772D01*
X21171000Y-53216184D01*
X21171000Y-53383816D01*
X21138297Y-53548228D01*
X21074147Y-53703100D01*
X20981015Y-53842481D01*
X20862481Y-53961015D01*
X20723100Y-54054147D01*
X20568228Y-54118297D01*
X20403816Y-54151000D01*
X20236184Y-54151000D01*
X20071772Y-54118297D01*
X19916900Y-54054147D01*
X19777519Y-53961015D01*
X19658985Y-53842481D01*
X19565853Y-53703100D01*
X19501703Y-53548228D01*
X19469000Y-53383816D01*
X19469000Y-53216184D01*
X19501703Y-53051772D01*
X19565853Y-52896900D01*
X19658985Y-52757519D01*
X19777519Y-52638985D01*
X19916900Y-52545853D01*
X20071772Y-52481703D01*
X20236184Y-52449000D01*
X20403816Y-52449000D01*
X20568228Y-52481703D01*
X20568228Y-52481703D01*
G37*
G36*
X132318205Y-50872461D02*
G01*
X132436153Y-50895922D01*
X132528194Y-50934047D01*
X132658359Y-50987963D01*
X132858342Y-51121587D01*
X133028413Y-51291658D01*
X133162037Y-51491641D01*
X133215953Y-51621806D01*
X133254078Y-51713847D01*
X133254199Y-51714454D01*
X133301000Y-51949741D01*
X133301000Y-52190259D01*
X133254078Y-52426152D01*
X133162037Y-52648359D01*
X133028413Y-52848342D01*
X132858342Y-53018413D01*
X132658359Y-53152037D01*
X132528194Y-53205953D01*
X132436153Y-53244078D01*
X132318205Y-53267539D01*
X132200259Y-53291000D01*
X131959741Y-53291000D01*
X131841795Y-53267539D01*
X131723847Y-53244078D01*
X131631806Y-53205953D01*
X131501641Y-53152037D01*
X131301658Y-53018413D01*
X131131587Y-52848342D01*
X130997963Y-52648359D01*
X130905922Y-52426152D01*
X130859000Y-52190259D01*
X130859000Y-51949741D01*
X130905801Y-51714454D01*
X130905922Y-51713847D01*
X130944047Y-51621806D01*
X130997963Y-51491641D01*
X131131587Y-51291658D01*
X131301658Y-51121587D01*
X131501641Y-50987963D01*
X131631806Y-50934047D01*
X131723847Y-50895922D01*
X131959741Y-50849000D01*
X132200259Y-50849000D01*
X132318205Y-50872461D01*
X132318205Y-50872461D01*
G37*
G36*
X127318205Y-50872461D02*
G01*
X127436153Y-50895922D01*
X127528194Y-50934047D01*
X127658359Y-50987963D01*
X127858342Y-51121587D01*
X128028413Y-51291658D01*
X128162037Y-51491641D01*
X128215953Y-51621806D01*
X128254078Y-51713847D01*
X128254199Y-51714454D01*
X128301000Y-51949741D01*
X128301000Y-52190259D01*
X128254078Y-52426152D01*
X128162037Y-52648359D01*
X128028413Y-52848342D01*
X127858342Y-53018413D01*
X127658359Y-53152037D01*
X127528194Y-53205953D01*
X127436153Y-53244078D01*
X127318205Y-53267539D01*
X127200259Y-53291000D01*
X126959741Y-53291000D01*
X126841795Y-53267539D01*
X126723847Y-53244078D01*
X126631806Y-53205953D01*
X126501641Y-53152037D01*
X126301658Y-53018413D01*
X126131587Y-52848342D01*
X125997963Y-52648359D01*
X125905922Y-52426152D01*
X125859000Y-52190259D01*
X125859000Y-51949741D01*
X125905801Y-51714454D01*
X125905922Y-51713847D01*
X125944047Y-51621806D01*
X125997963Y-51491641D01*
X126131587Y-51291658D01*
X126301658Y-51121587D01*
X126501641Y-50987963D01*
X126631806Y-50934047D01*
X126723847Y-50895922D01*
X126959741Y-50849000D01*
X127200259Y-50849000D01*
X127318205Y-50872461D01*
X127318205Y-50872461D01*
G37*
G36*
X75207395Y-49885546D02*
G01*
X75380466Y-49957234D01*
X75380467Y-49957235D01*
X75536227Y-50061310D01*
X75668690Y-50193773D01*
X75668691Y-50193775D01*
X75772766Y-50349534D01*
X75844454Y-50522605D01*
X75881000Y-50706333D01*
X75881000Y-50893667D01*
X75844454Y-51077395D01*
X75772766Y-51250466D01*
X75772765Y-51250467D01*
X75668690Y-51406227D01*
X75536227Y-51538690D01*
X75457818Y-51591081D01*
X75380466Y-51642766D01*
X75207395Y-51714454D01*
X75023667Y-51751000D01*
X74836333Y-51751000D01*
X74652605Y-51714454D01*
X74479534Y-51642766D01*
X74402182Y-51591081D01*
X74323773Y-51538690D01*
X74191310Y-51406227D01*
X74087235Y-51250467D01*
X74087234Y-51250466D01*
X74015546Y-51077395D01*
X73979000Y-50893667D01*
X73979000Y-50706333D01*
X74015546Y-50522605D01*
X74087234Y-50349534D01*
X74191309Y-50193775D01*
X74191310Y-50193773D01*
X74323773Y-50061310D01*
X74479533Y-49957235D01*
X74479534Y-49957234D01*
X74652605Y-49885546D01*
X74836333Y-49849000D01*
X75023667Y-49849000D01*
X75207395Y-49885546D01*
X75207395Y-49885546D01*
G37*
G36*
X21171000Y-51651000D02*
G01*
X19469000Y-51651000D01*
X19469000Y-49949000D01*
X21171000Y-49949000D01*
X21171000Y-51651000D01*
X21171000Y-51651000D01*
G37*
G36*
X51077395Y-47345546D02*
G01*
X51250466Y-47417234D01*
X51322069Y-47465078D01*
X51406227Y-47521310D01*
X51538690Y-47653773D01*
X51581284Y-47717520D01*
X51642766Y-47809534D01*
X51714454Y-47982605D01*
X51751000Y-48166333D01*
X51751000Y-48353667D01*
X51714454Y-48537395D01*
X51642766Y-48710466D01*
X51591081Y-48787818D01*
X51538690Y-48866227D01*
X51406227Y-48998690D01*
X51329400Y-49050024D01*
X51250466Y-49102766D01*
X51077395Y-49174454D01*
X50893667Y-49211000D01*
X50706333Y-49211000D01*
X50522605Y-49174454D01*
X50349534Y-49102766D01*
X50270600Y-49050024D01*
X50193773Y-48998690D01*
X50061310Y-48866227D01*
X50008919Y-48787818D01*
X49957234Y-48710466D01*
X49885546Y-48537395D01*
X49849000Y-48353667D01*
X49849000Y-48166333D01*
X49885546Y-47982605D01*
X49957234Y-47809534D01*
X50018716Y-47717520D01*
X50061310Y-47653773D01*
X50193773Y-47521310D01*
X50277931Y-47465078D01*
X50349534Y-47417234D01*
X50522605Y-47345546D01*
X50706333Y-47309000D01*
X50893667Y-47309000D01*
X51077395Y-47345546D01*
X51077395Y-47345546D01*
G37*
G36*
X28250343Y-47355361D02*
G01*
X28269568Y-47357254D01*
X28442234Y-47409632D01*
X28601365Y-47494689D01*
X28740844Y-47609156D01*
X28855311Y-47748635D01*
X28940368Y-47907766D01*
X28992746Y-48080433D01*
X29010432Y-48260000D01*
X28992746Y-48439567D01*
X28940368Y-48612234D01*
X28855311Y-48771365D01*
X28740844Y-48910844D01*
X28601365Y-49025311D01*
X28442234Y-49110368D01*
X28355900Y-49136557D01*
X28269568Y-49162746D01*
X28250343Y-49164639D01*
X28134998Y-49176000D01*
X27745002Y-49176000D01*
X27629657Y-49164639D01*
X27610432Y-49162746D01*
X27524100Y-49136557D01*
X27437766Y-49110368D01*
X27278635Y-49025311D01*
X27139156Y-48910844D01*
X27024689Y-48771365D01*
X26939632Y-48612234D01*
X26887254Y-48439567D01*
X26869568Y-48260000D01*
X26887254Y-48080433D01*
X26939632Y-47907766D01*
X27024689Y-47748635D01*
X27139156Y-47609156D01*
X27278635Y-47494689D01*
X27437766Y-47409632D01*
X27610432Y-47357254D01*
X27629657Y-47355361D01*
X27745002Y-47344000D01*
X28134998Y-47344000D01*
X28250343Y-47355361D01*
X28250343Y-47355361D01*
G37*
G36*
X100496823Y-47421313D02*
G01*
X100657242Y-47469976D01*
X100789906Y-47540886D01*
X100805078Y-47548996D01*
X100934659Y-47655341D01*
X101041004Y-47784922D01*
X101041005Y-47784924D01*
X101120024Y-47932758D01*
X101168687Y-48093177D01*
X101185117Y-48260000D01*
X101168687Y-48426823D01*
X101120024Y-48587242D01*
X101079477Y-48663100D01*
X101041004Y-48735078D01*
X100934659Y-48864659D01*
X100805078Y-48971004D01*
X100805076Y-48971005D01*
X100657242Y-49050024D01*
X100496823Y-49098687D01*
X100371804Y-49111000D01*
X100288196Y-49111000D01*
X100163177Y-49098687D01*
X100002758Y-49050024D01*
X99854924Y-48971005D01*
X99854922Y-48971004D01*
X99725341Y-48864659D01*
X99618996Y-48735078D01*
X99580523Y-48663100D01*
X99539976Y-48587242D01*
X99491313Y-48426823D01*
X99474883Y-48260000D01*
X99491313Y-48093177D01*
X99539976Y-47932758D01*
X99618995Y-47784924D01*
X99618996Y-47784922D01*
X99725341Y-47655341D01*
X99854922Y-47548996D01*
X99870094Y-47540886D01*
X100002758Y-47469976D01*
X100163177Y-47421313D01*
X100288196Y-47409000D01*
X100371804Y-47409000D01*
X100496823Y-47421313D01*
X100496823Y-47421313D01*
G37*
G36*
X115818228Y-47441703D02*
G01*
X115973100Y-47505853D01*
X116112481Y-47598985D01*
X116231015Y-47717519D01*
X116324147Y-47856900D01*
X116388297Y-48011772D01*
X116421000Y-48176184D01*
X116421000Y-48343816D01*
X116388297Y-48508228D01*
X116324147Y-48663100D01*
X116231015Y-48802481D01*
X116112481Y-48921015D01*
X115973100Y-49014147D01*
X115818228Y-49078297D01*
X115653816Y-49111000D01*
X115486184Y-49111000D01*
X115321772Y-49078297D01*
X115166900Y-49014147D01*
X115027519Y-48921015D01*
X114908985Y-48802481D01*
X114815853Y-48663100D01*
X114751703Y-48508228D01*
X114719000Y-48343816D01*
X114719000Y-48176184D01*
X114751703Y-48011772D01*
X114815853Y-47856900D01*
X114908985Y-47717519D01*
X115027519Y-47598985D01*
X115166900Y-47505853D01*
X115321772Y-47441703D01*
X115486184Y-47409000D01*
X115653816Y-47409000D01*
X115818228Y-47441703D01*
X115818228Y-47441703D01*
G37*
G36*
X148838228Y-46171703D02*
G01*
X148993100Y-46235853D01*
X149132481Y-46328985D01*
X149251015Y-46447519D01*
X149344147Y-46586900D01*
X149408297Y-46741772D01*
X149441000Y-46906184D01*
X149441000Y-47073816D01*
X149408297Y-47238228D01*
X149344147Y-47393100D01*
X149251015Y-47532481D01*
X149132481Y-47651015D01*
X148993100Y-47744147D01*
X148838228Y-47808297D01*
X148673816Y-47841000D01*
X148506184Y-47841000D01*
X148341772Y-47808297D01*
X148186900Y-47744147D01*
X148047519Y-47651015D01*
X147928985Y-47532481D01*
X147835853Y-47393100D01*
X147771703Y-47238228D01*
X147739000Y-47073816D01*
X147739000Y-46906184D01*
X147771703Y-46741772D01*
X147835853Y-46586900D01*
X147928985Y-46447519D01*
X148047519Y-46328985D01*
X148186900Y-46235853D01*
X148341772Y-46171703D01*
X148506184Y-46139000D01*
X148673816Y-46139000D01*
X148838228Y-46171703D01*
X148838228Y-46171703D01*
G37*
G36*
X163996823Y-46151313D02*
G01*
X164157242Y-46199976D01*
X164289906Y-46270886D01*
X164305078Y-46278996D01*
X164434659Y-46385341D01*
X164541004Y-46514922D01*
X164541005Y-46514924D01*
X164620024Y-46662758D01*
X164668687Y-46823177D01*
X164685117Y-46990000D01*
X164668687Y-47156823D01*
X164620024Y-47317242D01*
X164564397Y-47421313D01*
X164541004Y-47465078D01*
X164434659Y-47594659D01*
X164305078Y-47701004D01*
X164305076Y-47701005D01*
X164157242Y-47780024D01*
X163996823Y-47828687D01*
X163871804Y-47841000D01*
X163788196Y-47841000D01*
X163663177Y-47828687D01*
X163502758Y-47780024D01*
X163354924Y-47701005D01*
X163354922Y-47701004D01*
X163225341Y-47594659D01*
X163118996Y-47465078D01*
X163095603Y-47421313D01*
X163039976Y-47317242D01*
X162991313Y-47156823D01*
X162974883Y-46990000D01*
X162991313Y-46823177D01*
X163039976Y-46662758D01*
X163118995Y-46514924D01*
X163118996Y-46514922D01*
X163225341Y-46385341D01*
X163354922Y-46278996D01*
X163370094Y-46270886D01*
X163502758Y-46199976D01*
X163663177Y-46151313D01*
X163788196Y-46139000D01*
X163871804Y-46139000D01*
X163996823Y-46151313D01*
X163996823Y-46151313D01*
G37*
G36*
X28250343Y-44815361D02*
G01*
X28269568Y-44817254D01*
X28355900Y-44843443D01*
X28442234Y-44869632D01*
X28601365Y-44954689D01*
X28740844Y-45069156D01*
X28855311Y-45208635D01*
X28940368Y-45367766D01*
X28992746Y-45540433D01*
X29010432Y-45720000D01*
X28994332Y-45883468D01*
X28992746Y-45899568D01*
X28971918Y-45968228D01*
X28940368Y-46072234D01*
X28855311Y-46231365D01*
X28740844Y-46370844D01*
X28601365Y-46485311D01*
X28442234Y-46570368D01*
X28387735Y-46586900D01*
X28269568Y-46622746D01*
X28250343Y-46624639D01*
X28134998Y-46636000D01*
X27745002Y-46636000D01*
X27629657Y-46624639D01*
X27610432Y-46622746D01*
X27492265Y-46586900D01*
X27437766Y-46570368D01*
X27278635Y-46485311D01*
X27139156Y-46370844D01*
X27024689Y-46231365D01*
X26939632Y-46072234D01*
X26908082Y-45968228D01*
X26887254Y-45899568D01*
X26885668Y-45883468D01*
X26869568Y-45720000D01*
X26887254Y-45540433D01*
X26939632Y-45367766D01*
X27024689Y-45208635D01*
X27139156Y-45069156D01*
X27278635Y-44954689D01*
X27437766Y-44869632D01*
X27524100Y-44843443D01*
X27610432Y-44817254D01*
X27629657Y-44815361D01*
X27745002Y-44804000D01*
X28134998Y-44804000D01*
X28250343Y-44815361D01*
X28250343Y-44815361D01*
G37*
G36*
X57398228Y-44901703D02*
G01*
X57553100Y-44965853D01*
X57692481Y-45058985D01*
X57811015Y-45177519D01*
X57904147Y-45316900D01*
X57968297Y-45471772D01*
X58001000Y-45636184D01*
X58001000Y-45803816D01*
X57968297Y-45968228D01*
X57904147Y-46123100D01*
X57811015Y-46262481D01*
X57692481Y-46381015D01*
X57553100Y-46474147D01*
X57398228Y-46538297D01*
X57233816Y-46571000D01*
X57066184Y-46571000D01*
X56901772Y-46538297D01*
X56746900Y-46474147D01*
X56607519Y-46381015D01*
X56488985Y-46262481D01*
X56395853Y-46123100D01*
X56331703Y-45968228D01*
X56299000Y-45803816D01*
X56299000Y-45636184D01*
X56331703Y-45471772D01*
X56395853Y-45316900D01*
X56488985Y-45177519D01*
X56607519Y-45058985D01*
X56746900Y-44965853D01*
X56901772Y-44901703D01*
X57066184Y-44869000D01*
X57233816Y-44869000D01*
X57398228Y-44901703D01*
X57398228Y-44901703D01*
G37*
G36*
X72556823Y-44881313D02*
G01*
X72687380Y-44920917D01*
X72703651Y-44925853D01*
X72717242Y-44929976D01*
X72784361Y-44965852D01*
X72865078Y-45008996D01*
X72994659Y-45115341D01*
X73101004Y-45244922D01*
X73101005Y-45244924D01*
X73180024Y-45392758D01*
X73228687Y-45553177D01*
X73245117Y-45720000D01*
X73228687Y-45886823D01*
X73180024Y-46047242D01*
X73139477Y-46123100D01*
X73101004Y-46195078D01*
X72994659Y-46324659D01*
X72865078Y-46431004D01*
X72865076Y-46431005D01*
X72717242Y-46510024D01*
X72556823Y-46558687D01*
X72431804Y-46571000D01*
X72348196Y-46571000D01*
X72223177Y-46558687D01*
X72062758Y-46510024D01*
X71914924Y-46431005D01*
X71914922Y-46431004D01*
X71785341Y-46324659D01*
X71678996Y-46195078D01*
X71640523Y-46123100D01*
X71599976Y-46047242D01*
X71551313Y-45886823D01*
X71534883Y-45720000D01*
X71551313Y-45553177D01*
X71599976Y-45392758D01*
X71678995Y-45244924D01*
X71678996Y-45244922D01*
X71785341Y-45115341D01*
X71914922Y-45008996D01*
X71995639Y-44965852D01*
X72062758Y-44929976D01*
X72076350Y-44925853D01*
X72092620Y-44920917D01*
X72223177Y-44881313D01*
X72348196Y-44869000D01*
X72431804Y-44869000D01*
X72556823Y-44881313D01*
X72556823Y-44881313D01*
G37*
G36*
X20568228Y-44861703D02*
G01*
X20723100Y-44925853D01*
X20862481Y-45018985D01*
X20981015Y-45137519D01*
X21074147Y-45276900D01*
X21138297Y-45431772D01*
X21171000Y-45596184D01*
X21171000Y-45763816D01*
X21138297Y-45928228D01*
X21074147Y-46083100D01*
X20981015Y-46222481D01*
X20862481Y-46341015D01*
X20723100Y-46434147D01*
X20568228Y-46498297D01*
X20403816Y-46531000D01*
X20236184Y-46531000D01*
X20071772Y-46498297D01*
X19916900Y-46434147D01*
X19777519Y-46341015D01*
X19658985Y-46222481D01*
X19565853Y-46083100D01*
X19501703Y-45928228D01*
X19469000Y-45763816D01*
X19469000Y-45596184D01*
X19501703Y-45431772D01*
X19565853Y-45276900D01*
X19658985Y-45137519D01*
X19777519Y-45018985D01*
X19916900Y-44925853D01*
X20071772Y-44861703D01*
X20236184Y-44829000D01*
X20403816Y-44829000D01*
X20568228Y-44861703D01*
X20568228Y-44861703D01*
G37*
G36*
X29006000Y-44096000D02*
G01*
X26874000Y-44096000D01*
X26874000Y-42264000D01*
X29006000Y-42264000D01*
X29006000Y-44096000D01*
X29006000Y-44096000D01*
G37*
G36*
X21171000Y-44031000D02*
G01*
X19469000Y-44031000D01*
X19469000Y-42329000D01*
X21171000Y-42329000D01*
X21171000Y-44031000D01*
X21171000Y-44031000D01*
G37*
G36*
X115736823Y-39801313D02*
G01*
X115897242Y-39849976D01*
X116029906Y-39920886D01*
X116045078Y-39928996D01*
X116174659Y-40035341D01*
X116281004Y-40164922D01*
X116281005Y-40164924D01*
X116360024Y-40312758D01*
X116408687Y-40473177D01*
X116425117Y-40640000D01*
X116408687Y-40806823D01*
X116360024Y-40967242D01*
X116319477Y-41043100D01*
X116281004Y-41115078D01*
X116174659Y-41244659D01*
X116045078Y-41351004D01*
X116045076Y-41351005D01*
X115897242Y-41430024D01*
X115736823Y-41478687D01*
X115611804Y-41491000D01*
X115528196Y-41491000D01*
X115403177Y-41478687D01*
X115242758Y-41430024D01*
X115094924Y-41351005D01*
X115094922Y-41351004D01*
X114965341Y-41244659D01*
X114858996Y-41115078D01*
X114820523Y-41043100D01*
X114779976Y-40967242D01*
X114731313Y-40806823D01*
X114714883Y-40640000D01*
X114731313Y-40473177D01*
X114779976Y-40312758D01*
X114858995Y-40164924D01*
X114858996Y-40164922D01*
X114965341Y-40035341D01*
X115094922Y-39928996D01*
X115110094Y-39920886D01*
X115242758Y-39849976D01*
X115403177Y-39801313D01*
X115528196Y-39789000D01*
X115611804Y-39789000D01*
X115736823Y-39801313D01*
X115736823Y-39801313D01*
G37*
G36*
X131058228Y-39821703D02*
G01*
X131213100Y-39885853D01*
X131352481Y-39978985D01*
X131471015Y-40097519D01*
X131564147Y-40236900D01*
X131628297Y-40391772D01*
X131661000Y-40556184D01*
X131661000Y-40723816D01*
X131628297Y-40888228D01*
X131564147Y-41043100D01*
X131471015Y-41182481D01*
X131352481Y-41301015D01*
X131213100Y-41394147D01*
X131058228Y-41458297D01*
X130893816Y-41491000D01*
X130726184Y-41491000D01*
X130561772Y-41458297D01*
X130406900Y-41394147D01*
X130267519Y-41301015D01*
X130148985Y-41182481D01*
X130055853Y-41043100D01*
X129991703Y-40888228D01*
X129959000Y-40723816D01*
X129959000Y-40556184D01*
X129991703Y-40391772D01*
X130055853Y-40236900D01*
X130148985Y-40097519D01*
X130267519Y-39978985D01*
X130406900Y-39885853D01*
X130561772Y-39821703D01*
X130726184Y-39789000D01*
X130893816Y-39789000D01*
X131058228Y-39821703D01*
X131058228Y-39821703D01*
G37*
G36*
X172968228Y-38551703D02*
G01*
X173123100Y-38615853D01*
X173262481Y-38708985D01*
X173381015Y-38827519D01*
X173474147Y-38966900D01*
X173538297Y-39121772D01*
X173571000Y-39286184D01*
X173571000Y-39453816D01*
X173538297Y-39618228D01*
X173474147Y-39773100D01*
X173381015Y-39912481D01*
X173262481Y-40031015D01*
X173123100Y-40124147D01*
X172968228Y-40188297D01*
X172803816Y-40221000D01*
X172636184Y-40221000D01*
X172471772Y-40188297D01*
X172316900Y-40124147D01*
X172177519Y-40031015D01*
X172058985Y-39912481D01*
X171965853Y-39773100D01*
X171901703Y-39618228D01*
X171869000Y-39453816D01*
X171869000Y-39286184D01*
X171901703Y-39121772D01*
X171965853Y-38966900D01*
X172058985Y-38827519D01*
X172177519Y-38708985D01*
X172316900Y-38615853D01*
X172471772Y-38551703D01*
X172636184Y-38519000D01*
X172803816Y-38519000D01*
X172968228Y-38551703D01*
X172968228Y-38551703D01*
G37*
G36*
X179236823Y-38531313D02*
G01*
X179397242Y-38579976D01*
X179464361Y-38615852D01*
X179545078Y-38658996D01*
X179674659Y-38765341D01*
X179781004Y-38894922D01*
X179781005Y-38894924D01*
X179860024Y-39042758D01*
X179908687Y-39203177D01*
X179925117Y-39370000D01*
X179908687Y-39536823D01*
X179860024Y-39697242D01*
X179819477Y-39773100D01*
X179781004Y-39845078D01*
X179674659Y-39974659D01*
X179545078Y-40081004D01*
X179545076Y-40081005D01*
X179397242Y-40160024D01*
X179236823Y-40208687D01*
X179111804Y-40221000D01*
X179028196Y-40221000D01*
X178903177Y-40208687D01*
X178742758Y-40160024D01*
X178594924Y-40081005D01*
X178594922Y-40081004D01*
X178465341Y-39974659D01*
X178358996Y-39845078D01*
X178320523Y-39773100D01*
X178279976Y-39697242D01*
X178231313Y-39536823D01*
X178214883Y-39370000D01*
X178231313Y-39203177D01*
X178279976Y-39042758D01*
X178358995Y-38894924D01*
X178358996Y-38894922D01*
X178465341Y-38765341D01*
X178594922Y-38658996D01*
X178675639Y-38615852D01*
X178742758Y-38579976D01*
X178903177Y-38531313D01*
X179028196Y-38519000D01*
X179111804Y-38519000D01*
X179236823Y-38531313D01*
X179236823Y-38531313D01*
G37*
G36*
X78271000Y-40171000D02*
G01*
X76669000Y-40171000D01*
X76669000Y-38569000D01*
X78271000Y-38569000D01*
X78271000Y-40171000D01*
X78271000Y-40171000D01*
G37*
G36*
X68746823Y-37261313D02*
G01*
X68907242Y-37309976D01*
X68964550Y-37340608D01*
X69055078Y-37388996D01*
X69184659Y-37495341D01*
X69291004Y-37624922D01*
X69291005Y-37624924D01*
X69370024Y-37772758D01*
X69418687Y-37933177D01*
X69435117Y-38100000D01*
X69418687Y-38266823D01*
X69370024Y-38427242D01*
X69320978Y-38519000D01*
X69291004Y-38575078D01*
X69184659Y-38704659D01*
X69055078Y-38811004D01*
X69055076Y-38811005D01*
X68907242Y-38890024D01*
X68746823Y-38938687D01*
X68621804Y-38951000D01*
X68538196Y-38951000D01*
X68413177Y-38938687D01*
X68252758Y-38890024D01*
X68104924Y-38811005D01*
X68104922Y-38811004D01*
X67975341Y-38704659D01*
X67868996Y-38575078D01*
X67839022Y-38519000D01*
X67789976Y-38427242D01*
X67741313Y-38266823D01*
X67724883Y-38100000D01*
X67741313Y-37933177D01*
X67789976Y-37772758D01*
X67868995Y-37624924D01*
X67868996Y-37624922D01*
X67975341Y-37495341D01*
X68104922Y-37388996D01*
X68195450Y-37340608D01*
X68252758Y-37309976D01*
X68413177Y-37261313D01*
X68538196Y-37249000D01*
X68621804Y-37249000D01*
X68746823Y-37261313D01*
X68746823Y-37261313D01*
G37*
G36*
X75163642Y-36059781D02*
G01*
X75309414Y-36120162D01*
X75309416Y-36120163D01*
X75440608Y-36207822D01*
X75552178Y-36319392D01*
X75607886Y-36402766D01*
X75639838Y-36450586D01*
X75700219Y-36596358D01*
X75731000Y-36751107D01*
X75731000Y-36908893D01*
X75700219Y-37063642D01*
X75639838Y-37209414D01*
X75639837Y-37209416D01*
X75552178Y-37340608D01*
X75440608Y-37452178D01*
X75309416Y-37539837D01*
X75309415Y-37539838D01*
X75309414Y-37539838D01*
X75163642Y-37600219D01*
X75008893Y-37631000D01*
X74851107Y-37631000D01*
X74696358Y-37600219D01*
X74550586Y-37539838D01*
X74550585Y-37539838D01*
X74550584Y-37539837D01*
X74419392Y-37452178D01*
X74307822Y-37340608D01*
X74220163Y-37209416D01*
X74220162Y-37209414D01*
X74159781Y-37063642D01*
X74129000Y-36908893D01*
X74129000Y-36751107D01*
X74159781Y-36596358D01*
X74220162Y-36450586D01*
X74252114Y-36402766D01*
X74307822Y-36319392D01*
X74419392Y-36207822D01*
X74550584Y-36120163D01*
X74550586Y-36120162D01*
X74696358Y-36059781D01*
X74851107Y-36029000D01*
X75008893Y-36029000D01*
X75163642Y-36059781D01*
X75163642Y-36059781D01*
G37*
G36*
X92987395Y-34645546D02*
G01*
X93160466Y-34717234D01*
X93160467Y-34717235D01*
X93316227Y-34821310D01*
X93448690Y-34953773D01*
X93448691Y-34953775D01*
X93552766Y-35109534D01*
X93624454Y-35282605D01*
X93661000Y-35466333D01*
X93661000Y-35653667D01*
X93624454Y-35837395D01*
X93552766Y-36010466D01*
X93552765Y-36010467D01*
X93448690Y-36166227D01*
X93316227Y-36298690D01*
X93237818Y-36351081D01*
X93160466Y-36402766D01*
X92987395Y-36474454D01*
X92803667Y-36511000D01*
X92616333Y-36511000D01*
X92432605Y-36474454D01*
X92259534Y-36402766D01*
X92182182Y-36351081D01*
X92103773Y-36298690D01*
X91971310Y-36166227D01*
X91867235Y-36010467D01*
X91867234Y-36010466D01*
X91795546Y-35837395D01*
X91759000Y-35653667D01*
X91759000Y-35466333D01*
X91795546Y-35282605D01*
X91867234Y-35109534D01*
X91971309Y-34953775D01*
X91971310Y-34953773D01*
X92103773Y-34821310D01*
X92259533Y-34717235D01*
X92259534Y-34717234D01*
X92432605Y-34645546D01*
X92616333Y-34609000D01*
X92803667Y-34609000D01*
X92987395Y-34645546D01*
X92987395Y-34645546D01*
G37*
G36*
X41706000Y-35206000D02*
G01*
X39574000Y-35206000D01*
X39574000Y-33374000D01*
X41706000Y-33374000D01*
X41706000Y-35206000D01*
X41706000Y-35206000D01*
G37*
G36*
X77703642Y-33519781D02*
G01*
X77849414Y-33580162D01*
X77849416Y-33580163D01*
X77980608Y-33667822D01*
X78092178Y-33779392D01*
X78099412Y-33790219D01*
X78179838Y-33910586D01*
X78240219Y-34056358D01*
X78271000Y-34211107D01*
X78271000Y-34368893D01*
X78240219Y-34523642D01*
X78204862Y-34609000D01*
X78179837Y-34669416D01*
X78092178Y-34800608D01*
X77980608Y-34912178D01*
X77849416Y-34999837D01*
X77849415Y-34999838D01*
X77849414Y-34999838D01*
X77703642Y-35060219D01*
X77548893Y-35091000D01*
X77391107Y-35091000D01*
X77236358Y-35060219D01*
X77090586Y-34999838D01*
X77090585Y-34999838D01*
X77090584Y-34999837D01*
X76959392Y-34912178D01*
X76847822Y-34800608D01*
X76760163Y-34669416D01*
X76735138Y-34609000D01*
X76699781Y-34523642D01*
X76669000Y-34368893D01*
X76669000Y-34211107D01*
X76699781Y-34056358D01*
X76760162Y-33910586D01*
X76840588Y-33790219D01*
X76847822Y-33779392D01*
X76959392Y-33667822D01*
X77090584Y-33580163D01*
X77090586Y-33580162D01*
X77236358Y-33519781D01*
X77391107Y-33489000D01*
X77548893Y-33489000D01*
X77703642Y-33519781D01*
X77703642Y-33519781D01*
G37*
G36*
X158983642Y-32249781D02*
G01*
X159086728Y-32292481D01*
X159129416Y-32310163D01*
X159260608Y-32397822D01*
X159372178Y-32509392D01*
X159433388Y-32601000D01*
X159459838Y-32640586D01*
X159520219Y-32786358D01*
X159551000Y-32941107D01*
X159551000Y-33098893D01*
X159520219Y-33253642D01*
X159470365Y-33374000D01*
X159459837Y-33399416D01*
X159372178Y-33530608D01*
X159260608Y-33642178D01*
X159129416Y-33729837D01*
X159129415Y-33729838D01*
X159129414Y-33729838D01*
X158983642Y-33790219D01*
X158828893Y-33821000D01*
X158671107Y-33821000D01*
X158516358Y-33790219D01*
X158370586Y-33729838D01*
X158370585Y-33729838D01*
X158370584Y-33729837D01*
X158239392Y-33642178D01*
X158127822Y-33530608D01*
X158040163Y-33399416D01*
X158029635Y-33374000D01*
X157979781Y-33253642D01*
X157949000Y-33098893D01*
X157949000Y-32941107D01*
X157979781Y-32786358D01*
X158040162Y-32640586D01*
X158066612Y-32601000D01*
X158127822Y-32509392D01*
X158239392Y-32397822D01*
X158370584Y-32310163D01*
X158413272Y-32292481D01*
X158516358Y-32249781D01*
X158671107Y-32219000D01*
X158828893Y-32219000D01*
X158983642Y-32249781D01*
X158983642Y-32249781D01*
G37*
G36*
X154471000Y-33821000D02*
G01*
X152869000Y-33821000D01*
X152869000Y-32219000D01*
X154471000Y-32219000D01*
X154471000Y-33821000D01*
X154471000Y-33821000D01*
G37*
G36*
X40950343Y-30845361D02*
G01*
X40969568Y-30847254D01*
X41009660Y-30859416D01*
X41142234Y-30899632D01*
X41301365Y-30984689D01*
X41440844Y-31099156D01*
X41555311Y-31238635D01*
X41640368Y-31397766D01*
X41692746Y-31570433D01*
X41710432Y-31750000D01*
X41692746Y-31929567D01*
X41640368Y-32102234D01*
X41555311Y-32261365D01*
X41440844Y-32400844D01*
X41301365Y-32515311D01*
X41142234Y-32600368D01*
X40969568Y-32652746D01*
X40950343Y-32654639D01*
X40834998Y-32666000D01*
X40445002Y-32666000D01*
X40329657Y-32654639D01*
X40310432Y-32652746D01*
X40137766Y-32600368D01*
X39978635Y-32515311D01*
X39839156Y-32400844D01*
X39724689Y-32261365D01*
X39639632Y-32102234D01*
X39587254Y-31929567D01*
X39569568Y-31750000D01*
X39587254Y-31570433D01*
X39639632Y-31397766D01*
X39724689Y-31238635D01*
X39839156Y-31099156D01*
X39978635Y-30984689D01*
X40137766Y-30899632D01*
X40270340Y-30859416D01*
X40310432Y-30847254D01*
X40329657Y-30845361D01*
X40445002Y-30834000D01*
X40834998Y-30834000D01*
X40950343Y-30845361D01*
X40950343Y-30845361D01*
G37*
G36*
X63666823Y-30911313D02*
G01*
X63827242Y-30959976D01*
X63884550Y-30990608D01*
X63975078Y-31038996D01*
X64104659Y-31145341D01*
X64211004Y-31274922D01*
X64211005Y-31274924D01*
X64290024Y-31422758D01*
X64338687Y-31583177D01*
X64355117Y-31750000D01*
X64338687Y-31916823D01*
X64290024Y-32077242D01*
X64249477Y-32153100D01*
X64211004Y-32225078D01*
X64104659Y-32354659D01*
X63975078Y-32461004D01*
X63975076Y-32461005D01*
X63827242Y-32540024D01*
X63666823Y-32588687D01*
X63541804Y-32601000D01*
X63458196Y-32601000D01*
X63333177Y-32588687D01*
X63172758Y-32540024D01*
X63024924Y-32461005D01*
X63024922Y-32461004D01*
X62895341Y-32354659D01*
X62788996Y-32225078D01*
X62750523Y-32153100D01*
X62709976Y-32077242D01*
X62661313Y-31916823D01*
X62644883Y-31750000D01*
X62661313Y-31583177D01*
X62709976Y-31422758D01*
X62788995Y-31274924D01*
X62788996Y-31274922D01*
X62895341Y-31145341D01*
X63024922Y-31038996D01*
X63115450Y-30990608D01*
X63172758Y-30959976D01*
X63333177Y-30911313D01*
X63458196Y-30899000D01*
X63541804Y-30899000D01*
X63666823Y-30911313D01*
X63666823Y-30911313D01*
G37*
G36*
X48508228Y-30931703D02*
G01*
X48663100Y-30995853D01*
X48802481Y-31088985D01*
X48921015Y-31207519D01*
X49014147Y-31346900D01*
X49078297Y-31501772D01*
X49111000Y-31666184D01*
X49111000Y-31833816D01*
X49078297Y-31998228D01*
X49014147Y-32153100D01*
X48921015Y-32292481D01*
X48802481Y-32411015D01*
X48663100Y-32504147D01*
X48508228Y-32568297D01*
X48343816Y-32601000D01*
X48176184Y-32601000D01*
X48011772Y-32568297D01*
X47856900Y-32504147D01*
X47717519Y-32411015D01*
X47598985Y-32292481D01*
X47505853Y-32153100D01*
X47441703Y-31998228D01*
X47409000Y-31833816D01*
X47409000Y-31666184D01*
X47441703Y-31501772D01*
X47505853Y-31346900D01*
X47598985Y-31207519D01*
X47717519Y-31088985D01*
X47856900Y-30995853D01*
X48011772Y-30931703D01*
X48176184Y-30899000D01*
X48343816Y-30899000D01*
X48508228Y-30931703D01*
X48508228Y-30931703D01*
G37*
G36*
X137393642Y-30979781D02*
G01*
X137536599Y-31038996D01*
X137539416Y-31040163D01*
X137670608Y-31127822D01*
X137782178Y-31239392D01*
X137809979Y-31281000D01*
X137869838Y-31370586D01*
X137930219Y-31516358D01*
X137961000Y-31671107D01*
X137961000Y-31828893D01*
X137930219Y-31983642D01*
X137891448Y-32077242D01*
X137869837Y-32129416D01*
X137782178Y-32260608D01*
X137670608Y-32372178D01*
X137539416Y-32459837D01*
X137539415Y-32459838D01*
X137539414Y-32459838D01*
X137393642Y-32520219D01*
X137238893Y-32551000D01*
X137081107Y-32551000D01*
X136926358Y-32520219D01*
X136780586Y-32459838D01*
X136780585Y-32459838D01*
X136780584Y-32459837D01*
X136649392Y-32372178D01*
X136537822Y-32260608D01*
X136450163Y-32129416D01*
X136428552Y-32077242D01*
X136389781Y-31983642D01*
X136359000Y-31828893D01*
X136359000Y-31671107D01*
X136389781Y-31516358D01*
X136450162Y-31370586D01*
X136510021Y-31281000D01*
X136537822Y-31239392D01*
X136649392Y-31127822D01*
X136780584Y-31040163D01*
X136783401Y-31038996D01*
X136926358Y-30979781D01*
X137081107Y-30949000D01*
X137238893Y-30949000D01*
X137393642Y-30979781D01*
X137393642Y-30979781D01*
G37*
G36*
X132881000Y-32551000D02*
G01*
X131279000Y-32551000D01*
X131279000Y-30949000D01*
X132881000Y-30949000D01*
X132881000Y-32551000D01*
X132881000Y-32551000D01*
G37*
G36*
X156443642Y-29709781D02*
G01*
X156589414Y-29770162D01*
X156589416Y-29770163D01*
X156720608Y-29857822D01*
X156832178Y-29969392D01*
X156893388Y-30061000D01*
X156919838Y-30100586D01*
X156980219Y-30246358D01*
X157011000Y-30401107D01*
X157011000Y-30558893D01*
X156980219Y-30713642D01*
X156930365Y-30834000D01*
X156919837Y-30859416D01*
X156832178Y-30990608D01*
X156720608Y-31102178D01*
X156589416Y-31189837D01*
X156589415Y-31189838D01*
X156589414Y-31189838D01*
X156443642Y-31250219D01*
X156288893Y-31281000D01*
X156131107Y-31281000D01*
X155976358Y-31250219D01*
X155830586Y-31189838D01*
X155830585Y-31189838D01*
X155830584Y-31189837D01*
X155699392Y-31102178D01*
X155587822Y-30990608D01*
X155500163Y-30859416D01*
X155489635Y-30834000D01*
X155439781Y-30713642D01*
X155409000Y-30558893D01*
X155409000Y-30401107D01*
X155439781Y-30246358D01*
X155500162Y-30100586D01*
X155526612Y-30061000D01*
X155587822Y-29969392D01*
X155699392Y-29857822D01*
X155830584Y-29770163D01*
X155830586Y-29770162D01*
X155976358Y-29709781D01*
X156131107Y-29679000D01*
X156288893Y-29679000D01*
X156443642Y-29709781D01*
X156443642Y-29709781D01*
G37*
G36*
X40950343Y-28305361D02*
G01*
X40969568Y-28307254D01*
X41142234Y-28359632D01*
X41301365Y-28444689D01*
X41440844Y-28559156D01*
X41555311Y-28698635D01*
X41640368Y-28857766D01*
X41692746Y-29030433D01*
X41710432Y-29210000D01*
X41692746Y-29389567D01*
X41640368Y-29562234D01*
X41555311Y-29721365D01*
X41440844Y-29860844D01*
X41301365Y-29975311D01*
X41142234Y-30060368D01*
X40969568Y-30112746D01*
X40950343Y-30114639D01*
X40834998Y-30126000D01*
X40445002Y-30126000D01*
X40329657Y-30114639D01*
X40310432Y-30112746D01*
X40224100Y-30086557D01*
X40137766Y-30060368D01*
X39978635Y-29975311D01*
X39839156Y-29860844D01*
X39724689Y-29721365D01*
X39639632Y-29562234D01*
X39587254Y-29389567D01*
X39569568Y-29210000D01*
X39587254Y-29030433D01*
X39639632Y-28857766D01*
X39724689Y-28698635D01*
X39839156Y-28559156D01*
X39978635Y-28444689D01*
X40137766Y-28359632D01*
X40310432Y-28307254D01*
X40329657Y-28305361D01*
X40445002Y-28294000D01*
X40834998Y-28294000D01*
X40950343Y-28305361D01*
X40950343Y-28305361D01*
G37*
G36*
X18631000Y-30061000D02*
G01*
X16929000Y-30061000D01*
X16929000Y-28359000D01*
X18631000Y-28359000D01*
X18631000Y-30061000D01*
X18631000Y-30061000D01*
G37*
G36*
X134853642Y-28439781D02*
G01*
X134999414Y-28500162D01*
X134999416Y-28500163D01*
X135130608Y-28587822D01*
X135242178Y-28699392D01*
X135329837Y-28830584D01*
X135329838Y-28830586D01*
X135390219Y-28976358D01*
X135421000Y-29131107D01*
X135421000Y-29288893D01*
X135390219Y-29443642D01*
X135341097Y-29562233D01*
X135329837Y-29589416D01*
X135242178Y-29720608D01*
X135130608Y-29832178D01*
X134999416Y-29919837D01*
X134999415Y-29919838D01*
X134999414Y-29919838D01*
X134853642Y-29980219D01*
X134698893Y-30011000D01*
X134541107Y-30011000D01*
X134386358Y-29980219D01*
X134240586Y-29919838D01*
X134240585Y-29919838D01*
X134240584Y-29919837D01*
X134109392Y-29832178D01*
X133997822Y-29720608D01*
X133910163Y-29589416D01*
X133898903Y-29562233D01*
X133849781Y-29443642D01*
X133819000Y-29288893D01*
X133819000Y-29131107D01*
X133849781Y-28976358D01*
X133910162Y-28830586D01*
X133910163Y-28830584D01*
X133997822Y-28699392D01*
X134109392Y-28587822D01*
X134240584Y-28500163D01*
X134240586Y-28500162D01*
X134386358Y-28439781D01*
X134541107Y-28409000D01*
X134698893Y-28409000D01*
X134853642Y-28439781D01*
X134853642Y-28439781D01*
G37*
G36*
X18028228Y-25891703D02*
G01*
X18183100Y-25955853D01*
X18322481Y-26048985D01*
X18441015Y-26167519D01*
X18534147Y-26306900D01*
X18598297Y-26461772D01*
X18631000Y-26626184D01*
X18631000Y-26793816D01*
X18598297Y-26958228D01*
X18534147Y-27113100D01*
X18441015Y-27252481D01*
X18322481Y-27371015D01*
X18183100Y-27464147D01*
X18028228Y-27528297D01*
X17863816Y-27561000D01*
X17696184Y-27561000D01*
X17531772Y-27528297D01*
X17376900Y-27464147D01*
X17237519Y-27371015D01*
X17118985Y-27252481D01*
X17025853Y-27113100D01*
X16961703Y-26958228D01*
X16929000Y-26793816D01*
X16929000Y-26626184D01*
X16961703Y-26461772D01*
X17025853Y-26306900D01*
X17118985Y-26167519D01*
X17237519Y-26048985D01*
X17376900Y-25955853D01*
X17531772Y-25891703D01*
X17696184Y-25859000D01*
X17863816Y-25859000D01*
X18028228Y-25891703D01*
X18028228Y-25891703D01*
G37*
G36*
X179318228Y-23311703D02*
G01*
X179473100Y-23375853D01*
X179612481Y-23468985D01*
X179731015Y-23587519D01*
X179824147Y-23726900D01*
X179888297Y-23881772D01*
X179921000Y-24046184D01*
X179921000Y-24213816D01*
X179888297Y-24378228D01*
X179824147Y-24533100D01*
X179731015Y-24672481D01*
X179612481Y-24791015D01*
X179473100Y-24884147D01*
X179318228Y-24948297D01*
X179153816Y-24981000D01*
X178986184Y-24981000D01*
X178821772Y-24948297D01*
X178666900Y-24884147D01*
X178527519Y-24791015D01*
X178408985Y-24672481D01*
X178315853Y-24533100D01*
X178251703Y-24378228D01*
X178219000Y-24213816D01*
X178219000Y-24046184D01*
X178251703Y-23881772D01*
X178315853Y-23726900D01*
X178408985Y-23587519D01*
X178527519Y-23468985D01*
X178666900Y-23375853D01*
X178821772Y-23311703D01*
X178986184Y-23279000D01*
X179153816Y-23279000D01*
X179318228Y-23311703D01*
X179318228Y-23311703D01*
G37*
G36*
X148867395Y-21945546D02*
G01*
X149040466Y-22017234D01*
X149046572Y-22021314D01*
X149196227Y-22121310D01*
X149328690Y-22253773D01*
X149371284Y-22317520D01*
X149432766Y-22409534D01*
X149504454Y-22582605D01*
X149541000Y-22766333D01*
X149541000Y-22953667D01*
X149504454Y-23137395D01*
X149432766Y-23310466D01*
X149432765Y-23310467D01*
X149328690Y-23466227D01*
X149196227Y-23598690D01*
X149173092Y-23614148D01*
X149040466Y-23702766D01*
X148867395Y-23774454D01*
X148683667Y-23811000D01*
X148496333Y-23811000D01*
X148312605Y-23774454D01*
X148139534Y-23702766D01*
X148006908Y-23614148D01*
X147983773Y-23598690D01*
X147851310Y-23466227D01*
X147747235Y-23310467D01*
X147747234Y-23310466D01*
X147675546Y-23137395D01*
X147639000Y-22953667D01*
X147639000Y-22766333D01*
X147675546Y-22582605D01*
X147747234Y-22409534D01*
X147808716Y-22317520D01*
X147851310Y-22253773D01*
X147983773Y-22121310D01*
X148133428Y-22021314D01*
X148139534Y-22017234D01*
X148312605Y-21945546D01*
X148496333Y-21909000D01*
X148683667Y-21909000D01*
X148867395Y-21945546D01*
X148867395Y-21945546D01*
G37*
G36*
X132357395Y-21945546D02*
G01*
X132530466Y-22017234D01*
X132536572Y-22021314D01*
X132686227Y-22121310D01*
X132818690Y-22253773D01*
X132861284Y-22317520D01*
X132922766Y-22409534D01*
X132994454Y-22582605D01*
X133031000Y-22766333D01*
X133031000Y-22953667D01*
X132994454Y-23137395D01*
X132922766Y-23310466D01*
X132922765Y-23310467D01*
X132818690Y-23466227D01*
X132686227Y-23598690D01*
X132663092Y-23614148D01*
X132530466Y-23702766D01*
X132357395Y-23774454D01*
X132173667Y-23811000D01*
X131986333Y-23811000D01*
X131802605Y-23774454D01*
X131629534Y-23702766D01*
X131496908Y-23614148D01*
X131473773Y-23598690D01*
X131341310Y-23466227D01*
X131237235Y-23310467D01*
X131237234Y-23310466D01*
X131165546Y-23137395D01*
X131129000Y-22953667D01*
X131129000Y-22766333D01*
X131165546Y-22582605D01*
X131237234Y-22409534D01*
X131298716Y-22317520D01*
X131341310Y-22253773D01*
X131473773Y-22121310D01*
X131623428Y-22021314D01*
X131629534Y-22017234D01*
X131802605Y-21945546D01*
X131986333Y-21909000D01*
X132173667Y-21909000D01*
X132357395Y-21945546D01*
X132357395Y-21945546D01*
G37*
G36*
X127166823Y-22021313D02*
G01*
X127327242Y-22069976D01*
X127394361Y-22105852D01*
X127475078Y-22148996D01*
X127604659Y-22255341D01*
X127711004Y-22384922D01*
X127711005Y-22384924D01*
X127790024Y-22532758D01*
X127838687Y-22693177D01*
X127855117Y-22860000D01*
X127838687Y-23026823D01*
X127790024Y-23187242D01*
X127749477Y-23263100D01*
X127711004Y-23335078D01*
X127604659Y-23464659D01*
X127475078Y-23571004D01*
X127475076Y-23571005D01*
X127327242Y-23650024D01*
X127166823Y-23698687D01*
X127041804Y-23711000D01*
X126958196Y-23711000D01*
X126833177Y-23698687D01*
X126672758Y-23650024D01*
X126524924Y-23571005D01*
X126524922Y-23571004D01*
X126395341Y-23464659D01*
X126288996Y-23335078D01*
X126250523Y-23263100D01*
X126209976Y-23187242D01*
X126161313Y-23026823D01*
X126144883Y-22860000D01*
X126161313Y-22693177D01*
X126209976Y-22532758D01*
X126288995Y-22384924D01*
X126288996Y-22384922D01*
X126395341Y-22255341D01*
X126524922Y-22148996D01*
X126605639Y-22105852D01*
X126672758Y-22069976D01*
X126833177Y-22021313D01*
X126958196Y-22009000D01*
X127041804Y-22009000D01*
X127166823Y-22021313D01*
X127166823Y-22021313D01*
G37*
G36*
X112008228Y-22041703D02*
G01*
X112163100Y-22105853D01*
X112302481Y-22198985D01*
X112421015Y-22317519D01*
X112514147Y-22456900D01*
X112578297Y-22611772D01*
X112611000Y-22776184D01*
X112611000Y-22943816D01*
X112578297Y-23108228D01*
X112514147Y-23263100D01*
X112421015Y-23402481D01*
X112302481Y-23521015D01*
X112163100Y-23614147D01*
X112008228Y-23678297D01*
X111843816Y-23711000D01*
X111676184Y-23711000D01*
X111511772Y-23678297D01*
X111356900Y-23614147D01*
X111217519Y-23521015D01*
X111098985Y-23402481D01*
X111005853Y-23263100D01*
X110941703Y-23108228D01*
X110909000Y-22943816D01*
X110909000Y-22776184D01*
X110941703Y-22611772D01*
X111005853Y-22456900D01*
X111098985Y-22317519D01*
X111217519Y-22198985D01*
X111356900Y-22105853D01*
X111511772Y-22041703D01*
X111676184Y-22009000D01*
X111843816Y-22009000D01*
X112008228Y-22041703D01*
X112008228Y-22041703D01*
G37*
G36*
X68828228Y-22041703D02*
G01*
X68983100Y-22105853D01*
X69122481Y-22198985D01*
X69241015Y-22317519D01*
X69334147Y-22456900D01*
X69398297Y-22611772D01*
X69431000Y-22776184D01*
X69431000Y-22943816D01*
X69398297Y-23108228D01*
X69334147Y-23263100D01*
X69241015Y-23402481D01*
X69122481Y-23521015D01*
X68983100Y-23614147D01*
X68828228Y-23678297D01*
X68663816Y-23711000D01*
X68496184Y-23711000D01*
X68331772Y-23678297D01*
X68176900Y-23614147D01*
X68037519Y-23521015D01*
X67918985Y-23402481D01*
X67825853Y-23263100D01*
X67761703Y-23108228D01*
X67729000Y-22943816D01*
X67729000Y-22776184D01*
X67761703Y-22611772D01*
X67825853Y-22456900D01*
X67918985Y-22317519D01*
X68037519Y-22198985D01*
X68176900Y-22105853D01*
X68331772Y-22041703D01*
X68496184Y-22009000D01*
X68663816Y-22009000D01*
X68828228Y-22041703D01*
X68828228Y-22041703D01*
G37*
G36*
X153836823Y-22021313D02*
G01*
X153997242Y-22069976D01*
X154064361Y-22105852D01*
X154145078Y-22148996D01*
X154274659Y-22255341D01*
X154381004Y-22384922D01*
X154381005Y-22384924D01*
X154460024Y-22532758D01*
X154508687Y-22693177D01*
X154525117Y-22860000D01*
X154508687Y-23026823D01*
X154460024Y-23187242D01*
X154419477Y-23263100D01*
X154381004Y-23335078D01*
X154274659Y-23464659D01*
X154145078Y-23571004D01*
X154145076Y-23571005D01*
X153997242Y-23650024D01*
X153836823Y-23698687D01*
X153711804Y-23711000D01*
X153628196Y-23711000D01*
X153503177Y-23698687D01*
X153342758Y-23650024D01*
X153194924Y-23571005D01*
X153194922Y-23571004D01*
X153065341Y-23464659D01*
X152958996Y-23335078D01*
X152920523Y-23263100D01*
X152879976Y-23187242D01*
X152831313Y-23026823D01*
X152814883Y-22860000D01*
X152831313Y-22693177D01*
X152879976Y-22532758D01*
X152958995Y-22384924D01*
X152958996Y-22384922D01*
X153065341Y-22255341D01*
X153194922Y-22148996D01*
X153275639Y-22105852D01*
X153342758Y-22069976D01*
X153503177Y-22021313D01*
X153628196Y-22009000D01*
X153711804Y-22009000D01*
X153836823Y-22021313D01*
X153836823Y-22021313D01*
G37*
G36*
X169158228Y-22041703D02*
G01*
X169313100Y-22105853D01*
X169452481Y-22198985D01*
X169571015Y-22317519D01*
X169664147Y-22456900D01*
X169728297Y-22611772D01*
X169761000Y-22776184D01*
X169761000Y-22943816D01*
X169728297Y-23108228D01*
X169664147Y-23263100D01*
X169571015Y-23402481D01*
X169452481Y-23521015D01*
X169313100Y-23614147D01*
X169158228Y-23678297D01*
X168993816Y-23711000D01*
X168826184Y-23711000D01*
X168661772Y-23678297D01*
X168506900Y-23614147D01*
X168367519Y-23521015D01*
X168248985Y-23402481D01*
X168155853Y-23263100D01*
X168091703Y-23108228D01*
X168059000Y-22943816D01*
X168059000Y-22776184D01*
X168091703Y-22611772D01*
X168155853Y-22456900D01*
X168248985Y-22317519D01*
X168367519Y-22198985D01*
X168506900Y-22105853D01*
X168661772Y-22041703D01*
X168826184Y-22009000D01*
X168993816Y-22009000D01*
X169158228Y-22041703D01*
X169158228Y-22041703D01*
G37*
G36*
X28250343Y-20685361D02*
G01*
X28269568Y-20687254D01*
X28355900Y-20713443D01*
X28442234Y-20739632D01*
X28601365Y-20824689D01*
X28740844Y-20939156D01*
X28855311Y-21078635D01*
X28940368Y-21237766D01*
X28992746Y-21410433D01*
X29010432Y-21590000D01*
X28992746Y-21769567D01*
X28940368Y-21942234D01*
X28855311Y-22101365D01*
X28740844Y-22240844D01*
X28601365Y-22355311D01*
X28442234Y-22440368D01*
X28387735Y-22456900D01*
X28269568Y-22492746D01*
X28250343Y-22494639D01*
X28134998Y-22506000D01*
X27745002Y-22506000D01*
X27629657Y-22494639D01*
X27610432Y-22492746D01*
X27492265Y-22456900D01*
X27437766Y-22440368D01*
X27278635Y-22355311D01*
X27139156Y-22240844D01*
X27024689Y-22101365D01*
X26939632Y-21942234D01*
X26887254Y-21769567D01*
X26869568Y-21590000D01*
X26887254Y-21410433D01*
X26939632Y-21237766D01*
X27024689Y-21078635D01*
X27139156Y-20939156D01*
X27278635Y-20824689D01*
X27437766Y-20739632D01*
X27524100Y-20713443D01*
X27610432Y-20687254D01*
X27629657Y-20685361D01*
X27745002Y-20674000D01*
X28134998Y-20674000D01*
X28250343Y-20685361D01*
X28250343Y-20685361D01*
G37*
G36*
X28250343Y-18145361D02*
G01*
X28269568Y-18147254D01*
X28355900Y-18173443D01*
X28442234Y-18199632D01*
X28601365Y-18284689D01*
X28740844Y-18399156D01*
X28855311Y-18538635D01*
X28940368Y-18697766D01*
X28992746Y-18870433D01*
X29010432Y-19050000D01*
X29006116Y-19093816D01*
X28992746Y-19229568D01*
X28966557Y-19315900D01*
X28940368Y-19402234D01*
X28855311Y-19561365D01*
X28740844Y-19700844D01*
X28601365Y-19815311D01*
X28442234Y-19900368D01*
X28355900Y-19926557D01*
X28269568Y-19952746D01*
X28250343Y-19954639D01*
X28134998Y-19966000D01*
X27745002Y-19966000D01*
X27629657Y-19954639D01*
X27610432Y-19952746D01*
X27524100Y-19926557D01*
X27437766Y-19900368D01*
X27278635Y-19815311D01*
X27139156Y-19700844D01*
X27024689Y-19561365D01*
X26939632Y-19402234D01*
X26887254Y-19229568D01*
X26873884Y-19093816D01*
X26869568Y-19050000D01*
X26887254Y-18870433D01*
X26939632Y-18697766D01*
X27024689Y-18538635D01*
X27139156Y-18399156D01*
X27278635Y-18284689D01*
X27437766Y-18199632D01*
X27524100Y-18173443D01*
X27610432Y-18147254D01*
X27629657Y-18145361D01*
X27745002Y-18134000D01*
X28134998Y-18134000D01*
X28250343Y-18145361D01*
X28250343Y-18145361D01*
G37*
G36*
X18028228Y-18191703D02*
G01*
X18183100Y-18255853D01*
X18322481Y-18348985D01*
X18441015Y-18467519D01*
X18534147Y-18606900D01*
X18598297Y-18761772D01*
X18631000Y-18926184D01*
X18631000Y-19093816D01*
X18598297Y-19258228D01*
X18534147Y-19413100D01*
X18441015Y-19552481D01*
X18322481Y-19671015D01*
X18183100Y-19764147D01*
X18028228Y-19828297D01*
X17863816Y-19861000D01*
X17696184Y-19861000D01*
X17531772Y-19828297D01*
X17376900Y-19764147D01*
X17237519Y-19671015D01*
X17118985Y-19552481D01*
X17025853Y-19413100D01*
X16961703Y-19258228D01*
X16929000Y-19093816D01*
X16929000Y-18926184D01*
X16961703Y-18761772D01*
X17025853Y-18606900D01*
X17118985Y-18467519D01*
X17237519Y-18348985D01*
X17376900Y-18255853D01*
X17531772Y-18191703D01*
X17696184Y-18159000D01*
X17863816Y-18159000D01*
X18028228Y-18191703D01*
X18028228Y-18191703D01*
G37*
G36*
X63777395Y-15595546D02*
G01*
X63950466Y-15667234D01*
X63950467Y-15667235D01*
X64106227Y-15771310D01*
X64238690Y-15903773D01*
X64238691Y-15903775D01*
X64342766Y-16059534D01*
X64414454Y-16232605D01*
X64451000Y-16416333D01*
X64451000Y-16603667D01*
X64414454Y-16787395D01*
X64342766Y-16960466D01*
X64342765Y-16960467D01*
X64238690Y-17116227D01*
X64106227Y-17248690D01*
X64027818Y-17301081D01*
X63950466Y-17352766D01*
X63777395Y-17424454D01*
X63593667Y-17461000D01*
X63406333Y-17461000D01*
X63222605Y-17424454D01*
X63049534Y-17352766D01*
X62972182Y-17301081D01*
X62893773Y-17248690D01*
X62761310Y-17116227D01*
X62657235Y-16960467D01*
X62657234Y-16960466D01*
X62585546Y-16787395D01*
X62549000Y-16603667D01*
X62549000Y-16416333D01*
X62585546Y-16232605D01*
X62657234Y-16059534D01*
X62761309Y-15903775D01*
X62761310Y-15903773D01*
X62893773Y-15771310D01*
X63049533Y-15667235D01*
X63049534Y-15667234D01*
X63222605Y-15595546D01*
X63406333Y-15559000D01*
X63593667Y-15559000D01*
X63777395Y-15595546D01*
X63777395Y-15595546D01*
G37*
G36*
X29006000Y-17426000D02*
G01*
X26874000Y-17426000D01*
X26874000Y-15594000D01*
X29006000Y-15594000D01*
X29006000Y-17426000D01*
X29006000Y-17426000D01*
G37*
G36*
X18631000Y-17361000D02*
G01*
X16929000Y-17361000D01*
X16929000Y-15659000D01*
X18631000Y-15659000D01*
X18631000Y-17361000D01*
X18631000Y-17361000D01*
G37*
M02*
